<?xml version="1.0" encoding="utf-8" standalone="no"?>
<!DOCTYPE svg PUBLIC "-//W3C//DTD SVG 1.1//EN"
  "http://www.w3.org/Graphics/SVG/1.1/DTD/svg11.dtd">
<svg xmlns:xlink="http://www.w3.org/1999/xlink" width="720pt" height="288pt" viewBox="0 0 720 288" xmlns="http://www.w3.org/2000/svg" version="1.1">
 <metadata>
  <rdf:RDF xmlns:dc="http://purl.org/dc/elements/1.1/" xmlns:cc="http://creativecommons.org/ns#" xmlns:rdf="http://www.w3.org/1999/02/22-rdf-syntax-ns#">
   <cc:Work>
    <dc:type rdf:resource="http://purl.org/dc/dcmitype/StillImage"/>
    <dc:date>2025-05-20T02:18:51.120857</dc:date>
    <dc:format>image/svg+xml</dc:format>
    <dc:creator>
     <cc:Agent>
      <dc:title>Matplotlib v3.6.3, https://matplotlib.org/</dc:title>
     </cc:Agent>
    </dc:creator>
   </cc:Work>
  </rdf:RDF>
 </metadata>
 <defs>
  <style type="text/css">*{stroke-linejoin: round; stroke-linecap: butt}</style>
 </defs>
 <g id="figure_1">
  <g id="patch_1">
   <path d="M 0 288 
L 720 288 
L 720 0 
L 0 0 
z
" style="fill: #ffffff"/>
  </g>
  <g id="axes_1">
   <g id="patch_2">
    <path d="M 90 256.32 
L 648 256.32 
L 648 34.56 
L 90 34.56 
z
" style="fill: #ffffff"/>
   </g>
   <g id="matplotlib.axis_1">
    <g id="xtick_1">
     <g id="line2d_1">
      <path d="M 115.363636 256.32 
L 115.363636 34.56 
" clip-path="url(#p14a7f4a074)" style="fill: none; stroke-dasharray: 2.22,0.96; stroke-dashoffset: 0; stroke: #b0b0b0; stroke-opacity: 0.7; stroke-width: 0.6"/>
     </g>
     <g id="line2d_2">
      <defs>
       <path id="m265171e640" d="M 0 0 
L 0 -3.5 
" style="stroke: #1a1a1a; stroke-width: 0.8"/>
      </defs>
      <g>
       <use xlink:href="#m265171e640" x="115.363636" y="256.32" style="fill: #1a1a1a; stroke: #1a1a1a; stroke-width: 0.8"/>
      </g>
     </g>
     <g id="text_1">
      <!-- -4π -->
      <g style="fill: #1a1a1a" transform="translate(105.769261 268.938125) scale(0.12 -0.12)">
       <defs>
        <path id="DejaVuSans-2d" d="M 313 2009 
L 1997 2009 
L 1997 1497 
L 313 1497 
L 313 2009 
z
" transform="scale(0.015625)"/>
        <path id="DejaVuSans-34" d="M 2419 4116 
L 825 1625 
L 2419 1625 
L 2419 4116 
z
M 2253 4666 
L 3047 4666 
L 3047 1625 
L 3713 1625 
L 3713 1100 
L 3047 1100 
L 3047 0 
L 2419 0 
L 2419 1100 
L 313 1100 
L 313 1709 
L 2253 4666 
z
" transform="scale(0.015625)"/>
        <path id="DejaVuSans-3c0" d="M 231 3500 
L 3584 3500 
L 3584 2925 
L 3144 2925 
L 3144 775 
Q 3144 550 3220 451 
Q 3297 353 3469 353 
Q 3516 353 3584 361 
Q 3653 369 3675 372 
L 3675 -44 
Q 3566 -84 3450 -103 
Q 3334 -122 3219 -122 
Q 2844 -122 2700 83 
Q 2556 288 2556 838 
L 2556 2925 
L 1266 2925 
L 1266 0 
L 678 0 
L 678 2925 
L 231 2925 
L 231 3500 
z
" transform="scale(0.015625)"/>
       </defs>
       <use xlink:href="#DejaVuSans-2d"/>
       <use xlink:href="#DejaVuSans-34" x="36.083984"/>
       <use xlink:href="#DejaVuSans-3c0" x="99.707031"/>
      </g>
     </g>
    </g>
    <g id="xtick_2">
     <g id="line2d_3">
      <path d="M 178.772727 256.32 
L 178.772727 34.56 
" clip-path="url(#p14a7f4a074)" style="fill: none; stroke-dasharray: 2.22,0.96; stroke-dashoffset: 0; stroke: #b0b0b0; stroke-opacity: 0.7; stroke-width: 0.6"/>
     </g>
     <g id="line2d_4">
      <g>
       <use xlink:href="#m265171e640" x="178.772727" y="256.32" style="fill: #1a1a1a; stroke: #1a1a1a; stroke-width: 0.8"/>
      </g>
     </g>
     <g id="text_2">
      <!-- -3π -->
      <g style="fill: #1a1a1a" transform="translate(169.178352 268.938125) scale(0.12 -0.12)">
       <defs>
        <path id="DejaVuSans-33" d="M 2597 2516 
Q 3050 2419 3304 2112 
Q 3559 1806 3559 1356 
Q 3559 666 3084 287 
Q 2609 -91 1734 -91 
Q 1441 -91 1130 -33 
Q 819 25 488 141 
L 488 750 
Q 750 597 1062 519 
Q 1375 441 1716 441 
Q 2309 441 2620 675 
Q 2931 909 2931 1356 
Q 2931 1769 2642 2001 
Q 2353 2234 1838 2234 
L 1294 2234 
L 1294 2753 
L 1863 2753 
Q 2328 2753 2575 2939 
Q 2822 3125 2822 3475 
Q 2822 3834 2567 4026 
Q 2313 4219 1838 4219 
Q 1578 4219 1281 4162 
Q 984 4106 628 3988 
L 628 4550 
Q 988 4650 1302 4700 
Q 1616 4750 1894 4750 
Q 2613 4750 3031 4423 
Q 3450 4097 3450 3541 
Q 3450 3153 3228 2886 
Q 3006 2619 2597 2516 
z
" transform="scale(0.015625)"/>
       </defs>
       <use xlink:href="#DejaVuSans-2d"/>
       <use xlink:href="#DejaVuSans-33" x="36.083984"/>
       <use xlink:href="#DejaVuSans-3c0" x="99.707031"/>
      </g>
     </g>
    </g>
    <g id="xtick_3">
     <g id="line2d_5">
      <path d="M 242.181818 256.32 
L 242.181818 34.56 
" clip-path="url(#p14a7f4a074)" style="fill: none; stroke-dasharray: 2.22,0.96; stroke-dashoffset: 0; stroke: #b0b0b0; stroke-opacity: 0.7; stroke-width: 0.6"/>
     </g>
     <g id="line2d_6">
      <g>
       <use xlink:href="#m265171e640" x="242.181818" y="256.32" style="fill: #1a1a1a; stroke: #1a1a1a; stroke-width: 0.8"/>
      </g>
     </g>
     <g id="text_3">
      <!-- -2π -->
      <g style="fill: #1a1a1a" transform="translate(232.587443 268.938125) scale(0.12 -0.12)">
       <defs>
        <path id="DejaVuSans-32" d="M 1228 531 
L 3431 531 
L 3431 0 
L 469 0 
L 469 531 
Q 828 903 1448 1529 
Q 2069 2156 2228 2338 
Q 2531 2678 2651 2914 
Q 2772 3150 2772 3378 
Q 2772 3750 2511 3984 
Q 2250 4219 1831 4219 
Q 1534 4219 1204 4116 
Q 875 4013 500 3803 
L 500 4441 
Q 881 4594 1212 4672 
Q 1544 4750 1819 4750 
Q 2544 4750 2975 4387 
Q 3406 4025 3406 3419 
Q 3406 3131 3298 2873 
Q 3191 2616 2906 2266 
Q 2828 2175 2409 1742 
Q 1991 1309 1228 531 
z
" transform="scale(0.015625)"/>
       </defs>
       <use xlink:href="#DejaVuSans-2d"/>
       <use xlink:href="#DejaVuSans-32" x="36.083984"/>
       <use xlink:href="#DejaVuSans-3c0" x="99.707031"/>
      </g>
     </g>
    </g>
    <g id="xtick_4">
     <g id="line2d_7">
      <path d="M 305.590909 256.32 
L 305.590909 34.56 
" clip-path="url(#p14a7f4a074)" style="fill: none; stroke-dasharray: 2.22,0.96; stroke-dashoffset: 0; stroke: #b0b0b0; stroke-opacity: 0.7; stroke-width: 0.6"/>
     </g>
     <g id="line2d_8">
      <g>
       <use xlink:href="#m265171e640" x="305.590909" y="256.32" style="fill: #1a1a1a; stroke: #1a1a1a; stroke-width: 0.8"/>
      </g>
     </g>
     <g id="text_4">
      <!-- -1π -->
      <g style="fill: #1a1a1a" transform="translate(295.996534 268.938125) scale(0.12 -0.12)">
       <defs>
        <path id="DejaVuSans-31" d="M 794 531 
L 1825 531 
L 1825 4091 
L 703 3866 
L 703 4441 
L 1819 4666 
L 2450 4666 
L 2450 531 
L 3481 531 
L 3481 0 
L 794 0 
L 794 531 
z
" transform="scale(0.015625)"/>
       </defs>
       <use xlink:href="#DejaVuSans-2d"/>
       <use xlink:href="#DejaVuSans-31" x="36.083984"/>
       <use xlink:href="#DejaVuSans-3c0" x="99.707031"/>
      </g>
     </g>
    </g>
    <g id="xtick_5">
     <g id="line2d_9">
      <path d="M 369 256.32 
L 369 34.56 
" clip-path="url(#p14a7f4a074)" style="fill: none; stroke-dasharray: 2.22,0.96; stroke-dashoffset: 0; stroke: #b0b0b0; stroke-opacity: 0.7; stroke-width: 0.6"/>
     </g>
     <g id="line2d_10">
      <g>
       <use xlink:href="#m265171e640" x="369" y="256.32" style="fill: #1a1a1a; stroke: #1a1a1a; stroke-width: 0.8"/>
      </g>
     </g>
     <g id="text_5">
      <!-- 0 -->
      <g style="fill: #1a1a1a" transform="translate(365.1825 268.938125) scale(0.12 -0.12)">
       <defs>
        <path id="DejaVuSans-30" d="M 2034 4250 
Q 1547 4250 1301 3770 
Q 1056 3291 1056 2328 
Q 1056 1369 1301 889 
Q 1547 409 2034 409 
Q 2525 409 2770 889 
Q 3016 1369 3016 2328 
Q 3016 3291 2770 3770 
Q 2525 4250 2034 4250 
z
M 2034 4750 
Q 2819 4750 3233 4129 
Q 3647 3509 3647 2328 
Q 3647 1150 3233 529 
Q 2819 -91 2034 -91 
Q 1250 -91 836 529 
Q 422 1150 422 2328 
Q 422 3509 836 4129 
Q 1250 4750 2034 4750 
z
" transform="scale(0.015625)"/>
       </defs>
       <use xlink:href="#DejaVuSans-30"/>
      </g>
     </g>
    </g>
    <g id="xtick_6">
     <g id="line2d_11">
      <path d="M 432.409091 256.32 
L 432.409091 34.56 
" clip-path="url(#p14a7f4a074)" style="fill: none; stroke-dasharray: 2.22,0.96; stroke-dashoffset: 0; stroke: #b0b0b0; stroke-opacity: 0.7; stroke-width: 0.6"/>
     </g>
     <g id="line2d_12">
      <g>
       <use xlink:href="#m265171e640" x="432.409091" y="256.32" style="fill: #1a1a1a; stroke: #1a1a1a; stroke-width: 0.8"/>
      </g>
     </g>
     <g id="text_6">
      <!-- 1π -->
      <g style="fill: #1a1a1a" transform="translate(424.979403 268.938125) scale(0.12 -0.12)">
       <use xlink:href="#DejaVuSans-31"/>
       <use xlink:href="#DejaVuSans-3c0" x="63.623047"/>
      </g>
     </g>
    </g>
    <g id="xtick_7">
     <g id="line2d_13">
      <path d="M 495.818182 256.32 
L 495.818182 34.56 
" clip-path="url(#p14a7f4a074)" style="fill: none; stroke-dasharray: 2.22,0.96; stroke-dashoffset: 0; stroke: #b0b0b0; stroke-opacity: 0.7; stroke-width: 0.6"/>
     </g>
     <g id="line2d_14">
      <g>
       <use xlink:href="#m265171e640" x="495.818182" y="256.32" style="fill: #1a1a1a; stroke: #1a1a1a; stroke-width: 0.8"/>
      </g>
     </g>
     <g id="text_7">
      <!-- 2π -->
      <g style="fill: #1a1a1a" transform="translate(488.388494 268.938125) scale(0.12 -0.12)">
       <use xlink:href="#DejaVuSans-32"/>
       <use xlink:href="#DejaVuSans-3c0" x="63.623047"/>
      </g>
     </g>
    </g>
    <g id="xtick_8">
     <g id="line2d_15">
      <path d="M 559.227273 256.32 
L 559.227273 34.56 
" clip-path="url(#p14a7f4a074)" style="fill: none; stroke-dasharray: 2.22,0.96; stroke-dashoffset: 0; stroke: #b0b0b0; stroke-opacity: 0.7; stroke-width: 0.6"/>
     </g>
     <g id="line2d_16">
      <g>
       <use xlink:href="#m265171e640" x="559.227273" y="256.32" style="fill: #1a1a1a; stroke: #1a1a1a; stroke-width: 0.8"/>
      </g>
     </g>
     <g id="text_8">
      <!-- 3π -->
      <g style="fill: #1a1a1a" transform="translate(551.797585 268.938125) scale(0.12 -0.12)">
       <use xlink:href="#DejaVuSans-33"/>
       <use xlink:href="#DejaVuSans-3c0" x="63.623047"/>
      </g>
     </g>
    </g>
    <g id="xtick_9">
     <g id="line2d_17">
      <path d="M 622.636364 256.32 
L 622.636364 34.56 
" clip-path="url(#p14a7f4a074)" style="fill: none; stroke-dasharray: 2.22,0.96; stroke-dashoffset: 0; stroke: #b0b0b0; stroke-opacity: 0.7; stroke-width: 0.6"/>
     </g>
     <g id="line2d_18">
      <g>
       <use xlink:href="#m265171e640" x="622.636364" y="256.32" style="fill: #1a1a1a; stroke: #1a1a1a; stroke-width: 0.8"/>
      </g>
     </g>
     <g id="text_9">
      <!-- 4π -->
      <g style="fill: #1a1a1a" transform="translate(615.206676 268.938125) scale(0.12 -0.12)">
       <use xlink:href="#DejaVuSans-34"/>
       <use xlink:href="#DejaVuSans-3c0" x="63.623047"/>
      </g>
     </g>
    </g>
   </g>
   <g id="matplotlib.axis_2">
    <g id="ytick_1">
     <g id="line2d_19">
      <path d="M 90 256.32 
L 648 256.32 
" clip-path="url(#p14a7f4a074)" style="fill: none; stroke-dasharray: 2.22,0.96; stroke-dashoffset: 0; stroke: #b0b0b0; stroke-opacity: 0.7; stroke-width: 0.6"/>
     </g>
     <g id="line2d_20">
      <defs>
       <path id="mc566ac1b27" d="M 0 0 
L 3.5 0 
" style="stroke: #1a1a1a; stroke-width: 0.8"/>
      </defs>
      <g>
       <use xlink:href="#mc566ac1b27" x="90" y="256.32" style="fill: #1a1a1a; stroke: #1a1a1a; stroke-width: 0.8"/>
      </g>
     </g>
     <g id="text_10">
      <!-- −10.0 -->
      <g style="fill: #1a1a1a" transform="translate(49.725625 260.879063) scale(0.12 -0.12)">
       <defs>
        <path id="DejaVuSans-2212" d="M 678 2272 
L 4684 2272 
L 4684 1741 
L 678 1741 
L 678 2272 
z
" transform="scale(0.015625)"/>
        <path id="DejaVuSans-2e" d="M 684 794 
L 1344 794 
L 1344 0 
L 684 0 
L 684 794 
z
" transform="scale(0.015625)"/>
       </defs>
       <use xlink:href="#DejaVuSans-2212"/>
       <use xlink:href="#DejaVuSans-31" x="83.789062"/>
       <use xlink:href="#DejaVuSans-30" x="147.412109"/>
       <use xlink:href="#DejaVuSans-2e" x="211.035156"/>
       <use xlink:href="#DejaVuSans-30" x="242.822266"/>
      </g>
     </g>
    </g>
    <g id="ytick_2">
     <g id="line2d_21">
      <path d="M 90 228.6 
L 648 228.6 
" clip-path="url(#p14a7f4a074)" style="fill: none; stroke-dasharray: 2.22,0.96; stroke-dashoffset: 0; stroke: #b0b0b0; stroke-opacity: 0.7; stroke-width: 0.6"/>
     </g>
     <g id="line2d_22">
      <g>
       <use xlink:href="#mc566ac1b27" x="90" y="228.6" style="fill: #1a1a1a; stroke: #1a1a1a; stroke-width: 0.8"/>
      </g>
     </g>
     <g id="text_11">
      <!-- −7.5 -->
      <g style="fill: #1a1a1a" transform="translate(57.360625 233.159063) scale(0.12 -0.12)">
       <defs>
        <path id="DejaVuSans-37" d="M 525 4666 
L 3525 4666 
L 3525 4397 
L 1831 0 
L 1172 0 
L 2766 4134 
L 525 4134 
L 525 4666 
z
" transform="scale(0.015625)"/>
        <path id="DejaVuSans-35" d="M 691 4666 
L 3169 4666 
L 3169 4134 
L 1269 4134 
L 1269 2991 
Q 1406 3038 1543 3061 
Q 1681 3084 1819 3084 
Q 2600 3084 3056 2656 
Q 3513 2228 3513 1497 
Q 3513 744 3044 326 
Q 2575 -91 1722 -91 
Q 1428 -91 1123 -41 
Q 819 9 494 109 
L 494 744 
Q 775 591 1075 516 
Q 1375 441 1709 441 
Q 2250 441 2565 725 
Q 2881 1009 2881 1497 
Q 2881 1984 2565 2268 
Q 2250 2553 1709 2553 
Q 1456 2553 1204 2497 
Q 953 2441 691 2322 
L 691 4666 
z
" transform="scale(0.015625)"/>
       </defs>
       <use xlink:href="#DejaVuSans-2212"/>
       <use xlink:href="#DejaVuSans-37" x="83.789062"/>
       <use xlink:href="#DejaVuSans-2e" x="147.412109"/>
       <use xlink:href="#DejaVuSans-35" x="179.199219"/>
      </g>
     </g>
    </g>
    <g id="ytick_3">
     <g id="line2d_23">
      <path d="M 90 200.88 
L 648 200.88 
" clip-path="url(#p14a7f4a074)" style="fill: none; stroke-dasharray: 2.22,0.96; stroke-dashoffset: 0; stroke: #b0b0b0; stroke-opacity: 0.7; stroke-width: 0.6"/>
     </g>
     <g id="line2d_24">
      <g>
       <use xlink:href="#mc566ac1b27" x="90" y="200.88" style="fill: #1a1a1a; stroke: #1a1a1a; stroke-width: 0.8"/>
      </g>
     </g>
     <g id="text_12">
      <!-- −5.0 -->
      <g style="fill: #1a1a1a" transform="translate(57.360625 205.439062) scale(0.12 -0.12)">
       <use xlink:href="#DejaVuSans-2212"/>
       <use xlink:href="#DejaVuSans-35" x="83.789062"/>
       <use xlink:href="#DejaVuSans-2e" x="147.412109"/>
       <use xlink:href="#DejaVuSans-30" x="179.199219"/>
      </g>
     </g>
    </g>
    <g id="ytick_4">
     <g id="line2d_25">
      <path d="M 90 173.16 
L 648 173.16 
" clip-path="url(#p14a7f4a074)" style="fill: none; stroke-dasharray: 2.22,0.96; stroke-dashoffset: 0; stroke: #b0b0b0; stroke-opacity: 0.7; stroke-width: 0.6"/>
     </g>
     <g id="line2d_26">
      <g>
       <use xlink:href="#mc566ac1b27" x="90" y="173.16" style="fill: #1a1a1a; stroke: #1a1a1a; stroke-width: 0.8"/>
      </g>
     </g>
     <g id="text_13">
      <!-- −2.5 -->
      <g style="fill: #1a1a1a" transform="translate(57.360625 177.719063) scale(0.12 -0.12)">
       <use xlink:href="#DejaVuSans-2212"/>
       <use xlink:href="#DejaVuSans-32" x="83.789062"/>
       <use xlink:href="#DejaVuSans-2e" x="147.412109"/>
       <use xlink:href="#DejaVuSans-35" x="179.199219"/>
      </g>
     </g>
    </g>
    <g id="ytick_5">
     <g id="line2d_27">
      <path d="M 90 145.44 
L 648 145.44 
" clip-path="url(#p14a7f4a074)" style="fill: none; stroke-dasharray: 2.22,0.96; stroke-dashoffset: 0; stroke: #b0b0b0; stroke-opacity: 0.7; stroke-width: 0.6"/>
     </g>
     <g id="line2d_28">
      <g>
       <use xlink:href="#mc566ac1b27" x="90" y="145.44" style="fill: #1a1a1a; stroke: #1a1a1a; stroke-width: 0.8"/>
      </g>
     </g>
     <g id="text_14">
      <!-- 0.0 -->
      <g style="fill: #1a1a1a" transform="translate(67.41625 149.999063) scale(0.12 -0.12)">
       <use xlink:href="#DejaVuSans-30"/>
       <use xlink:href="#DejaVuSans-2e" x="63.623047"/>
       <use xlink:href="#DejaVuSans-30" x="95.410156"/>
      </g>
     </g>
    </g>
    <g id="ytick_6">
     <g id="line2d_29">
      <path d="M 90 117.72 
L 648 117.72 
" clip-path="url(#p14a7f4a074)" style="fill: none; stroke-dasharray: 2.22,0.96; stroke-dashoffset: 0; stroke: #b0b0b0; stroke-opacity: 0.7; stroke-width: 0.6"/>
     </g>
     <g id="line2d_30">
      <g>
       <use xlink:href="#mc566ac1b27" x="90" y="117.72" style="fill: #1a1a1a; stroke: #1a1a1a; stroke-width: 0.8"/>
      </g>
     </g>
     <g id="text_15">
      <!-- 2.5 -->
      <g style="fill: #1a1a1a" transform="translate(67.41625 122.279063) scale(0.12 -0.12)">
       <use xlink:href="#DejaVuSans-32"/>
       <use xlink:href="#DejaVuSans-2e" x="63.623047"/>
       <use xlink:href="#DejaVuSans-35" x="95.410156"/>
      </g>
     </g>
    </g>
    <g id="ytick_7">
     <g id="line2d_31">
      <path d="M 90 90 
L 648 90 
" clip-path="url(#p14a7f4a074)" style="fill: none; stroke-dasharray: 2.22,0.96; stroke-dashoffset: 0; stroke: #b0b0b0; stroke-opacity: 0.7; stroke-width: 0.6"/>
     </g>
     <g id="line2d_32">
      <g>
       <use xlink:href="#mc566ac1b27" x="90" y="90" style="fill: #1a1a1a; stroke: #1a1a1a; stroke-width: 0.8"/>
      </g>
     </g>
     <g id="text_16">
      <!-- 5.0 -->
      <g style="fill: #1a1a1a" transform="translate(67.41625 94.559063) scale(0.12 -0.12)">
       <use xlink:href="#DejaVuSans-35"/>
       <use xlink:href="#DejaVuSans-2e" x="63.623047"/>
       <use xlink:href="#DejaVuSans-30" x="95.410156"/>
      </g>
     </g>
    </g>
    <g id="ytick_8">
     <g id="line2d_33">
      <path d="M 90 62.28 
L 648 62.28 
" clip-path="url(#p14a7f4a074)" style="fill: none; stroke-dasharray: 2.22,0.96; stroke-dashoffset: 0; stroke: #b0b0b0; stroke-opacity: 0.7; stroke-width: 0.6"/>
     </g>
     <g id="line2d_34">
      <g>
       <use xlink:href="#mc566ac1b27" x="90" y="62.28" style="fill: #1a1a1a; stroke: #1a1a1a; stroke-width: 0.8"/>
      </g>
     </g>
     <g id="text_17">
      <!-- 7.5 -->
      <g style="fill: #1a1a1a" transform="translate(67.41625 66.839062) scale(0.12 -0.12)">
       <use xlink:href="#DejaVuSans-37"/>
       <use xlink:href="#DejaVuSans-2e" x="63.623047"/>
       <use xlink:href="#DejaVuSans-35" x="95.410156"/>
      </g>
     </g>
    </g>
    <g id="ytick_9">
     <g id="line2d_35">
      <path d="M 90 34.56 
L 648 34.56 
" clip-path="url(#p14a7f4a074)" style="fill: none; stroke-dasharray: 2.22,0.96; stroke-dashoffset: 0; stroke: #b0b0b0; stroke-opacity: 0.7; stroke-width: 0.6"/>
     </g>
     <g id="line2d_36">
      <g>
       <use xlink:href="#mc566ac1b27" x="90" y="34.56" style="fill: #1a1a1a; stroke: #1a1a1a; stroke-width: 0.8"/>
      </g>
     </g>
     <g id="text_18">
      <!-- 10.0 -->
      <g style="fill: #1a1a1a" transform="translate(59.78125 39.119063) scale(0.12 -0.12)">
       <use xlink:href="#DejaVuSans-31"/>
       <use xlink:href="#DejaVuSans-30" x="63.623047"/>
       <use xlink:href="#DejaVuSans-2e" x="127.246094"/>
       <use xlink:href="#DejaVuSans-30" x="159.033203"/>
      </g>
     </g>
    </g>
   </g>
   <g id="line2d_37">
    <path d="M 115.363636 145.44 
L 121.756551 141.805678 
L 125.003746 139.701001 
L 127.540617 137.800348 
L 129.671589 135.931021 
L 131.498136 134.037497 
L 133.121733 132.032107 
L 134.542381 129.927927 
L 135.861554 127.565499 
L 137.079252 124.895197 
L 138.195475 121.862957 
L 139.210224 118.413344 
L 140.123497 114.496146 
L 140.935296 110.078658 
L 141.747095 104.360359 
L 142.457419 97.749243 
L 143.167743 88.778558 
L 143.776592 78.053181 
L 144.283966 65.569755 
L 144.79134 47.564411 
L 144.99429 37.908287 
M 149.154758 252.313387 
L 149.662132 231.241107 
L 150.270981 214.728051 
L 150.981305 201.913113 
L 151.691629 192.995246 
L 152.503428 185.615059 
L 153.315227 180.113192 
L 154.2285 175.372903 
L 155.243249 171.301963 
L 156.359472 167.800855 
L 157.475695 165.002978 
L 158.693393 162.513631 
L 160.012566 160.291147 
L 161.534689 158.165554 
L 163.259761 156.161331 
L 165.187783 154.279942 
L 167.42023 152.429636 
L 170.058575 150.548576 
L 173.30577 148.518956 
L 178.176563 145.7676 
L 185.279801 141.736097 
L 188.526996 139.621252 
L 191.063867 137.707499 
L 193.194839 135.821652 
L 195.021386 133.907706 
L 196.644984 131.876627 
L 198.065631 129.740989 
L 199.384804 127.33773 
L 200.602502 124.614228 
L 201.718726 121.512471 
L 202.733474 117.971942 
L 203.646748 113.936154 
L 204.458546 109.365225 
L 205.270345 103.417054 
L 205.980669 96.495847 
L 206.589518 88.589016 
L 207.198367 77.787826 
L 207.705741 65.199548 
L 208.213115 47.011422 
L 208.416065 37.241887 
M 212.576533 251.662988 
L 213.083908 230.818939 
L 213.692757 214.450074 
L 214.403081 201.725986 
L 215.113404 192.860464 
L 215.925203 185.516835 
L 216.737002 180.038231 
L 217.650276 175.31525 
L 218.665024 171.257152 
L 219.781247 167.765592 
L 220.89747 164.97435 
L 222.115168 162.490164 
L 223.434341 160.271695 
L 224.956464 158.149419 
L 226.681536 156.147856 
L 228.609558 154.268551 
L 230.842005 152.419902 
L 233.480351 150.540131 
L 236.727546 148.511452 
L 241.598338 145.760626 
L 248.600102 141.790238 
L 251.847297 139.68332 
L 254.384168 137.779777 
L 256.515139 135.906809 
L 258.341687 134.008786 
L 259.965284 131.997741 
L 261.385932 129.886642 
L 262.705105 127.515244 
L 263.922803 124.83327 
L 265.039026 121.785802 
L 266.053774 118.316311 
L 266.967048 114.373238 
L 267.778847 109.922352 
L 268.590645 104.15417 
L 269.300969 97.476012 
L 270.011293 88.398248 
L 270.620142 77.520429 
L 271.127516 64.825959 
L 271.634891 46.452229 
L 271.83784 36.567263 
M 275.998309 251.020374 
L 276.505683 230.400837 
L 277.114532 214.174262 
L 277.824856 201.540049 
L 278.53518 192.726405 
L 279.346978 185.419055 
L 280.158777 179.963564 
L 281.072051 175.257792 
L 282.086799 171.212472 
L 283.203022 167.730418 
L 284.319246 164.945786 
L 285.536944 162.466741 
L 286.856117 160.252275 
L 288.378239 158.133307 
L 290.103312 156.134398 
L 292.031334 154.257171 
L 294.26378 152.410177 
L 296.902126 150.531691 
L 300.149321 148.50395 
L 305.020113 145.753652 
L 312.021877 141.782513 
L 315.269072 139.67447 
L 317.805943 137.769479 
L 319.936915 135.894683 
L 321.763462 133.994402 
L 323.387059 131.980518 
L 324.807707 129.865944 
L 326.12688 127.49004 
L 327.344578 124.802198 
L 328.460801 121.74707 
L 329.47555 118.26757 
L 330.388823 114.311459 
L 331.200622 109.843726 
L 332.012421 104.05035 
L 332.722745 97.33828 
L 333.433068 88.206243 
L 334.041917 77.250964 
L 334.549292 64.44894 
L 335.056666 45.886725 
L 335.259616 35.884262 
M 339.318609 255.687274 
L 339.825983 233.41508 
L 340.434832 216.151349 
L 341.043681 204.459565 
L 341.754005 194.815972 
L 342.565804 186.933958 
L 343.377603 181.115218 
L 344.290876 176.140606 
L 345.305625 171.896706 
L 346.320373 168.562632 
L 347.436596 165.619209 
L 348.654294 163.01719 
L 349.973467 160.707375 
L 351.49559 158.509867 
L 353.119187 156.559401 
L 354.945735 154.709685 
L 357.076706 152.875883 
L 359.613577 151.003433 
L 362.657822 149.04348 
L 366.919766 146.586847 
L 376.153976 141.336651 
L 379.198221 139.306517 
L 381.633618 137.424483 
L 383.663114 135.587192 
L 385.489662 133.628612 
L 387.011784 131.683648 
L 388.432432 129.508402 
L 389.751605 127.053567 
L 390.867828 124.519241 
L 391.882577 121.708233 
L 392.897325 118.218679 
L 393.810598 114.249461 
L 394.622397 109.764782 
L 395.434196 103.946042 
L 396.14452 97.199794 
L 396.854844 88.012988 
L 397.463693 76.979409 
L 397.971067 64.068444 
L 398.478441 45.314804 
L 398.681391 35.192726 
M 402.740384 254.995738 
L 403.247759 232.971658 
L 403.856608 215.862145 
L 404.566932 202.673757 
L 405.277255 193.54172 
L 406.089054 186.012473 
L 406.900853 180.416005 
L 407.814126 175.605483 
L 408.828875 171.482529 
L 409.843623 168.231097 
L 410.959847 165.351535 
L 412.177545 162.798832 
L 413.496718 160.527162 
L 415.01884 158.361008 
L 416.642438 156.434326 
L 418.468985 154.60364 
L 420.599956 152.785307 
L 423.136827 150.925152 
L 426.282547 148.912958 
L 430.645966 146.41105 
L 439.271327 141.517911 
L 442.417047 139.442319 
L 444.852443 137.582555 
L 446.983415 135.674145 
L 448.809962 133.732254 
L 450.433559 131.66594 
L 451.854207 129.487029 
L 453.17338 127.027411 
L 454.289603 124.487428 
L 455.304352 121.669291 
L 456.3191 118.169637 
L 457.232374 114.187244 
L 458.044172 109.685519 
L 458.855971 103.841243 
L 459.566295 97.060549 
L 460.276619 87.818471 
L 460.885468 76.705738 
L 461.392842 63.684421 
L 461.900216 44.736354 
L 462.001691 39.859626 
M 466.16216 254.312737 
L 466.669534 232.532614 
L 467.278383 215.575241 
L 467.988707 202.481752 
L 468.699031 193.403988 
L 469.510829 185.912436 
L 470.322628 180.339852 
L 471.235902 175.54704 
L 472.25065 171.437188 
L 473.265399 168.194735 
L 474.381622 165.322129 
L 475.59932 162.774809 
L 476.918493 160.50731 
L 478.440615 158.344589 
L 480.064213 156.420516 
L 481.89076 154.591919 
L 484.021732 152.775286 
L 486.558603 150.916481 
L 489.704323 148.905307 
L 494.067741 146.404028 
L 502.693102 141.510069 
L 505.838822 139.433309 
L 508.274218 137.572083 
L 510.40519 135.661764 
L 512.231737 133.717507 
L 513.855335 131.648205 
L 515.275982 129.465617 
L 516.595155 127.0012 
L 517.711379 124.45554 
L 518.726127 121.630245 
L 519.740875 118.120443 
L 520.654149 114.124806 
L 521.465948 109.605933 
L 522.277746 103.735948 
L 522.98807 96.920538 
L 523.698394 87.622679 
L 524.307243 76.429926 
L 524.814617 63.296824 
L 525.321992 44.151263 
L 525.423467 39.217012 
M 529.583935 253.638113 
L 530.091309 232.097883 
L 530.700158 215.290608 
L 531.410482 202.290984 
L 532.120806 193.267002 
L 532.932605 185.812857 
L 533.744403 180.264 
L 534.657677 175.488797 
L 535.672425 171.39198 
L 536.788649 167.871649 
L 537.904872 165.060424 
L 539.12257 162.560703 
L 540.441743 160.330151 
L 541.963866 158.197894 
L 543.587463 156.296989 
L 545.515485 154.39449 
L 547.646457 152.606171 
L 550.183328 150.769892 
L 553.329048 148.775706 
L 557.895415 146.172724 
L 565.911928 141.627334 
L 569.057648 139.567823 
L 571.594519 137.645193 
L 573.725491 135.748141 
L 575.552038 133.820327 
L 577.175635 131.771773 
L 578.596283 129.614693 
L 579.915456 127.183534 
L 581.031679 124.677179 
L 582.147902 121.591093 
L 583.162651 118.071096 
L 584.075924 114.062146 
L 584.887723 109.526024 
L 585.699522 103.630154 
L 586.409846 96.779756 
L 587.018695 88.966887 
L 587.627544 78.316517 
L 588.134918 65.936625 
L 588.642292 48.111299 
L 588.845242 38.566613 
M 593.00571 252.971713 
L 593.513084 231.667401 
L 594.121933 215.008221 
L 594.832257 202.101442 
L 595.542581 193.130757 
L 596.35438 185.713732 
L 597.166179 180.188448 
L 598.079452 175.430751 
L 599.094201 171.346905 
L 600.210424 167.836207 
L 601.326647 165.031669 
L 602.544345 162.537144 
L 603.863518 160.310633 
L 605.385641 158.181712 
L 607.009238 156.283348 
L 608.93726 154.382983 
L 611.068232 152.596297 
L 613.605103 150.761317 
L 616.750823 148.768108 
L 621.317191 146.165725 
L 622.636364 145.44 
L 622.636364 145.44 
" clip-path="url(#p14a7f4a074)" style="fill: none; stroke: #008000; stroke-width: 1.5; stroke-linecap: square"/>
   </g>
   <g id="line2d_38">
    <path d="M 90 145.44 
L 648 145.44 
" clip-path="url(#p14a7f4a074)" style="fill: none; stroke: #000000; stroke-width: 0.5; stroke-linecap: square"/>
   </g>
   <g id="line2d_39">
    <path d="M 369 256.32 
L 369 34.56 
" clip-path="url(#p14a7f4a074)" style="fill: none; stroke: #000000; stroke-width: 0.5; stroke-linecap: square"/>
   </g>
   <g id="patch_3">
    <path d="M 90 256.32 
L 90 34.56 
" style="fill: none; stroke: #1a1a1a; stroke-linejoin: miter; stroke-linecap: square"/>
   </g>
   <g id="patch_4">
    <path d="M 90 256.32 
L 648 256.32 
" style="fill: none; stroke: #1a1a1a; stroke-linejoin: miter; stroke-linecap: square"/>
   </g>
   <g id="text_19">
    <!-- Graph of $y = 	an(x)$ -->
    <g style="fill: #333333" transform="translate(296.12 28.56) scale(0.16 -0.16)">
     <defs>
      <path id="DejaVuSans-47" d="M 3809 666 
L 3809 1919 
L 2778 1919 
L 2778 2438 
L 4434 2438 
L 4434 434 
Q 4069 175 3628 42 
Q 3188 -91 2688 -91 
Q 1594 -91 976 548 
Q 359 1188 359 2328 
Q 359 3472 976 4111 
Q 1594 4750 2688 4750 
Q 3144 4750 3555 4637 
Q 3966 4525 4313 4306 
L 4313 3634 
Q 3963 3931 3569 4081 
Q 3175 4231 2741 4231 
Q 1884 4231 1454 3753 
Q 1025 3275 1025 2328 
Q 1025 1384 1454 906 
Q 1884 428 2741 428 
Q 3075 428 3337 486 
Q 3600 544 3809 666 
z
" transform="scale(0.015625)"/>
      <path id="DejaVuSans-72" d="M 2631 2963 
Q 2534 3019 2420 3045 
Q 2306 3072 2169 3072 
Q 1681 3072 1420 2755 
Q 1159 2438 1159 1844 
L 1159 0 
L 581 0 
L 581 3500 
L 1159 3500 
L 1159 2956 
Q 1341 3275 1631 3429 
Q 1922 3584 2338 3584 
Q 2397 3584 2469 3576 
Q 2541 3569 2628 3553 
L 2631 2963 
z
" transform="scale(0.015625)"/>
      <path id="DejaVuSans-61" d="M 2194 1759 
Q 1497 1759 1228 1600 
Q 959 1441 959 1056 
Q 959 750 1161 570 
Q 1363 391 1709 391 
Q 2188 391 2477 730 
Q 2766 1069 2766 1631 
L 2766 1759 
L 2194 1759 
z
M 3341 1997 
L 3341 0 
L 2766 0 
L 2766 531 
Q 2569 213 2275 61 
Q 1981 -91 1556 -91 
Q 1019 -91 701 211 
Q 384 513 384 1019 
Q 384 1609 779 1909 
Q 1175 2209 1959 2209 
L 2766 2209 
L 2766 2266 
Q 2766 2663 2505 2880 
Q 2244 3097 1772 3097 
Q 1472 3097 1187 3025 
Q 903 2953 641 2809 
L 641 3341 
Q 956 3463 1253 3523 
Q 1550 3584 1831 3584 
Q 2591 3584 2966 3190 
Q 3341 2797 3341 1997 
z
" transform="scale(0.015625)"/>
      <path id="DejaVuSans-70" d="M 1159 525 
L 1159 -1331 
L 581 -1331 
L 581 3500 
L 1159 3500 
L 1159 2969 
Q 1341 3281 1617 3432 
Q 1894 3584 2278 3584 
Q 2916 3584 3314 3078 
Q 3713 2572 3713 1747 
Q 3713 922 3314 415 
Q 2916 -91 2278 -91 
Q 1894 -91 1617 61 
Q 1341 213 1159 525 
z
M 3116 1747 
Q 3116 2381 2855 2742 
Q 2594 3103 2138 3103 
Q 1681 3103 1420 2742 
Q 1159 2381 1159 1747 
Q 1159 1113 1420 752 
Q 1681 391 2138 391 
Q 2594 391 2855 752 
Q 3116 1113 3116 1747 
z
" transform="scale(0.015625)"/>
      <path id="DejaVuSans-68" d="M 3513 2113 
L 3513 0 
L 2938 0 
L 2938 2094 
Q 2938 2591 2744 2837 
Q 2550 3084 2163 3084 
Q 1697 3084 1428 2787 
Q 1159 2491 1159 1978 
L 1159 0 
L 581 0 
L 581 4863 
L 1159 4863 
L 1159 2956 
Q 1366 3272 1645 3428 
Q 1925 3584 2291 3584 
Q 2894 3584 3203 3211 
Q 3513 2838 3513 2113 
z
" transform="scale(0.015625)"/>
      <path id="DejaVuSans-20" transform="scale(0.015625)"/>
      <path id="DejaVuSans-6f" d="M 1959 3097 
Q 1497 3097 1228 2736 
Q 959 2375 959 1747 
Q 959 1119 1226 758 
Q 1494 397 1959 397 
Q 2419 397 2687 759 
Q 2956 1122 2956 1747 
Q 2956 2369 2687 2733 
Q 2419 3097 1959 3097 
z
M 1959 3584 
Q 2709 3584 3137 3096 
Q 3566 2609 3566 1747 
Q 3566 888 3137 398 
Q 2709 -91 1959 -91 
Q 1206 -91 779 398 
Q 353 888 353 1747 
Q 353 2609 779 3096 
Q 1206 3584 1959 3584 
z
" transform="scale(0.015625)"/>
      <path id="DejaVuSans-66" d="M 2375 4863 
L 2375 4384 
L 1825 4384 
Q 1516 4384 1395 4259 
Q 1275 4134 1275 3809 
L 1275 3500 
L 2222 3500 
L 2222 3053 
L 1275 3053 
L 1275 0 
L 697 0 
L 697 3053 
L 147 3053 
L 147 3500 
L 697 3500 
L 697 3744 
Q 697 4328 969 4595 
Q 1241 4863 1831 4863 
L 2375 4863 
z
" transform="scale(0.015625)"/>
      <path id="DejaVuSans-Oblique-79" d="M 1588 -325 
Q 1188 -997 936 -1164 
Q 684 -1331 294 -1331 
L -159 -1331 
L -63 -850 
L 269 -850 
Q 509 -850 678 -719 
Q 847 -588 1056 -206 
L 1234 128 
L 459 3500 
L 1069 3500 
L 1650 819 
L 3256 3500 
L 3859 3500 
L 1588 -325 
z
" transform="scale(0.015625)"/>
      <path id="DejaVuSans-3d" d="M 678 2906 
L 4684 2906 
L 4684 2381 
L 678 2381 
L 678 2906 
z
M 678 1631 
L 4684 1631 
L 4684 1100 
L 678 1100 
L 678 1631 
z
" transform="scale(0.015625)"/>
      <path id="DejaVuSans-Oblique-61" d="M 3438 1997 
L 3047 0 
L 2472 0 
L 2578 531 
Q 2325 219 2001 64 
Q 1678 -91 1281 -91 
Q 834 -91 548 182 
Q 263 456 263 884 
Q 263 1497 752 1853 
Q 1241 2209 2100 2209 
L 2900 2209 
L 2931 2363 
Q 2938 2388 2941 2417 
Q 2944 2447 2944 2509 
Q 2944 2788 2717 2942 
Q 2491 3097 2081 3097 
Q 1800 3097 1504 3025 
Q 1209 2953 897 2809 
L 997 3341 
Q 1322 3463 1633 3523 
Q 1944 3584 2234 3584 
Q 2853 3584 3176 3315 
Q 3500 3047 3500 2534 
Q 3500 2431 3484 2292 
Q 3469 2153 3438 1997 
z
M 2816 1759 
L 2241 1759 
Q 1534 1759 1195 1570 
Q 856 1381 856 984 
Q 856 709 1029 553 
Q 1203 397 1509 397 
Q 1978 397 2328 733 
Q 2678 1069 2791 1631 
L 2816 1759 
z
" transform="scale(0.015625)"/>
      <path id="DejaVuSans-Oblique-6e" d="M 3566 2113 
L 3156 0 
L 2578 0 
L 2988 2091 
Q 3016 2238 3031 2350 
Q 3047 2463 3047 2528 
Q 3047 2791 2881 2937 
Q 2716 3084 2419 3084 
Q 1956 3084 1622 2776 
Q 1288 2469 1184 1941 
L 800 0 
L 225 0 
L 903 3500 
L 1478 3500 
L 1363 2950 
Q 1603 3253 1940 3418 
Q 2278 3584 2650 3584 
Q 3113 3584 3367 3334 
Q 3622 3084 3622 2631 
Q 3622 2519 3608 2391 
Q 3594 2263 3566 2113 
z
" transform="scale(0.015625)"/>
      <path id="DejaVuSans-28" d="M 1984 4856 
Q 1566 4138 1362 3434 
Q 1159 2731 1159 2009 
Q 1159 1288 1364 580 
Q 1569 -128 1984 -844 
L 1484 -844 
Q 1016 -109 783 600 
Q 550 1309 550 2009 
Q 550 2706 781 3412 
Q 1013 4119 1484 4856 
L 1984 4856 
z
" transform="scale(0.015625)"/>
      <path id="DejaVuSans-Oblique-78" d="M 3841 3500 
L 2234 1784 
L 3219 0 
L 2559 0 
L 1819 1388 
L 531 0 
L -166 0 
L 1556 1844 
L 641 3500 
L 1300 3500 
L 1972 2234 
L 3144 3500 
L 3841 3500 
z
" transform="scale(0.015625)"/>
      <path id="DejaVuSans-29" d="M 513 4856 
L 1013 4856 
Q 1481 4119 1714 3412 
Q 1947 2706 1947 2009 
Q 1947 1309 1714 600 
Q 1481 -109 1013 -844 
L 513 -844 
Q 928 -128 1133 580 
Q 1338 1288 1338 2009 
Q 1338 2731 1133 3434 
Q 928 4138 513 4856 
z
" transform="scale(0.015625)"/>
     </defs>
     <use xlink:href="#DejaVuSans-47" transform="translate(0 0.015625)"/>
     <use xlink:href="#DejaVuSans-72" transform="translate(77.490234 0.015625)"/>
     <use xlink:href="#DejaVuSans-61" transform="translate(118.603516 0.015625)"/>
     <use xlink:href="#DejaVuSans-70" transform="translate(179.882812 0.015625)"/>
     <use xlink:href="#DejaVuSans-68" transform="translate(243.359375 0.015625)"/>
     <use xlink:href="#DejaVuSans-20" transform="translate(306.738281 0.015625)"/>
     <use xlink:href="#DejaVuSans-6f" transform="translate(338.525391 0.015625)"/>
     <use xlink:href="#DejaVuSans-66" transform="translate(399.707031 0.015625)"/>
     <use xlink:href="#DejaVuSans-20" transform="translate(434.912109 0.015625)"/>
     <use xlink:href="#DejaVuSans-Oblique-79" transform="translate(466.699219 0.015625)"/>
     <use xlink:href="#DejaVuSans-3d" transform="translate(545.361328 0.015625)"/>
     <use xlink:href="#DejaVuSans-Oblique-61" transform="translate(648.632812 0.015625)"/>
     <use xlink:href="#DejaVuSans-Oblique-6e" transform="translate(709.912109 0.015625)"/>
     <use xlink:href="#DejaVuSans-28" transform="translate(773.291016 0.015625)"/>
     <use xlink:href="#DejaVuSans-Oblique-78" transform="translate(812.304688 0.015625)"/>
     <use xlink:href="#DejaVuSans-29" transform="translate(871.484375 0.015625)"/>
    </g>
   </g>
   <g id="legend_1">
    <g id="patch_5">
     <path d="M 560.6 57.26 
L 641 57.26 
Q 643 57.26 643 55.26 
L 643 41.56 
Q 643 39.56 641 39.56 
L 560.6 39.56 
Q 558.6 39.56 558.6 41.56 
L 558.6 55.26 
Q 558.6 57.26 560.6 57.26 
z
" style="fill: #ffffff; opacity: 0.8; stroke: #cccccc; stroke-linejoin: miter"/>
    </g>
    <g id="line2d_40">
     <path d="M 562.6 47.66 
L 572.6 47.66 
L 582.6 47.66 
" style="fill: none; stroke: #008000; stroke-width: 1.5; stroke-linecap: square"/>
    </g>
    <g id="text_20">
     <!-- $y = \tan(x)$ -->
     <g style="fill: #333333" transform="translate(590.6 51.16) scale(0.1 -0.1)">
      <defs>
       <path id="DejaVuSans-74" d="M 1172 4494 
L 1172 3500 
L 2356 3500 
L 2356 3053 
L 1172 3053 
L 1172 1153 
Q 1172 725 1289 603 
Q 1406 481 1766 481 
L 2356 481 
L 2356 0 
L 1766 0 
Q 1100 0 847 248 
Q 594 497 594 1153 
L 594 3053 
L 172 3053 
L 172 3500 
L 594 3500 
L 594 4494 
L 1172 4494 
z
" transform="scale(0.015625)"/>
       <path id="DejaVuSans-6e" d="M 3513 2113 
L 3513 0 
L 2938 0 
L 2938 2094 
Q 2938 2591 2744 2837 
Q 2550 3084 2163 3084 
Q 1697 3084 1428 2787 
Q 1159 2491 1159 1978 
L 1159 0 
L 581 0 
L 581 3500 
L 1159 3500 
L 1159 2956 
Q 1366 3272 1645 3428 
Q 1925 3584 2291 3584 
Q 2894 3584 3203 3211 
Q 3513 2838 3513 2113 
z
" transform="scale(0.015625)"/>
      </defs>
      <use xlink:href="#DejaVuSans-Oblique-79" transform="translate(0 0.125)"/>
      <use xlink:href="#DejaVuSans-3d" transform="translate(78.662109 0.125)"/>
      <use xlink:href="#DejaVuSans-74" transform="translate(181.933594 0.125)"/>
      <use xlink:href="#DejaVuSans-61" transform="translate(221.142578 0.125)"/>
      <use xlink:href="#DejaVuSans-6e" transform="translate(282.421875 0.125)"/>
      <use xlink:href="#DejaVuSans-28" transform="translate(345.800781 0.125)"/>
      <use xlink:href="#DejaVuSans-Oblique-78" transform="translate(384.814453 0.125)"/>
      <use xlink:href="#DejaVuSans-29" transform="translate(443.994141 0.125)"/>
     </g>
    </g>
   </g>
  </g>
 </g>
 <defs>
  <clipPath id="p14a7f4a074">
   <rect x="90" y="34.56" width="558" height="221.76"/>
  </clipPath>
 </defs>
</svg>
