<?xml version="1.0" encoding="utf-8" standalone="no"?>
<!DOCTYPE svg PUBLIC "-//W3C//DTD SVG 1.1//EN"
  "http://www.w3.org/Graphics/SVG/1.1/DTD/svg11.dtd">
<svg xmlns:xlink="http://www.w3.org/1999/xlink" width="720pt" height="288pt" viewBox="0 0 720 288" xmlns="http://www.w3.org/2000/svg" version="1.1">
 <metadata>
  <rdf:RDF xmlns:dc="http://purl.org/dc/elements/1.1/" xmlns:cc="http://creativecommons.org/ns#" xmlns:rdf="http://www.w3.org/1999/02/22-rdf-syntax-ns#">
   <cc:Work>
    <dc:type rdf:resource="http://purl.org/dc/dcmitype/StillImage"/>
    <dc:date>2025-05-20T02:18:09.393118</dc:date>
    <dc:format>image/svg+xml</dc:format>
    <dc:creator>
     <cc:Agent>
      <dc:title>Matplotlib v3.6.3, https://matplotlib.org/</dc:title>
     </cc:Agent>
    </dc:creator>
   </cc:Work>
  </rdf:RDF>
 </metadata>
 <defs>
  <style type="text/css">*{stroke-linejoin: round; stroke-linecap: butt}</style>
 </defs>
 <g id="figure_1">
  <g id="patch_1">
   <path d="M 0 288 
L 720 288 
L 720 0 
L 0 0 
z
" style="fill: #ffffff"/>
  </g>
  <g id="axes_1">
   <g id="patch_2">
    <path d="M 90 256.32 
L 648 256.32 
L 648 34.56 
L 90 34.56 
z
" style="fill: #ffffff"/>
   </g>
   <g id="matplotlib.axis_1">
    <g id="xtick_1">
     <g id="line2d_1">
      <path d="M 115.363636 256.32 
L 115.363636 34.56 
" clip-path="url(#pffe7424870)" style="fill: none; stroke-dasharray: 2.22,0.96; stroke-dashoffset: 0; stroke: #b0b0b0; stroke-opacity: 0.7; stroke-width: 0.6"/>
     </g>
     <g id="line2d_2">
      <defs>
       <path id="m01ea9ea4ed" d="M 0 0 
L 0 -3.5 
" style="stroke: #1a1a1a; stroke-width: 0.8"/>
      </defs>
      <g>
       <use xlink:href="#m01ea9ea4ed" x="115.363636" y="256.32" style="fill: #1a1a1a; stroke: #1a1a1a; stroke-width: 0.8"/>
      </g>
     </g>
     <g id="text_1">
      <!-- -4π -->
      <g style="fill: #1a1a1a" transform="translate(105.769261 268.938125) scale(0.12 -0.12)">
       <defs>
        <path id="DejaVuSans-2d" d="M 313 2009 
L 1997 2009 
L 1997 1497 
L 313 1497 
L 313 2009 
z
" transform="scale(0.015625)"/>
        <path id="DejaVuSans-34" d="M 2419 4116 
L 825 1625 
L 2419 1625 
L 2419 4116 
z
M 2253 4666 
L 3047 4666 
L 3047 1625 
L 3713 1625 
L 3713 1100 
L 3047 1100 
L 3047 0 
L 2419 0 
L 2419 1100 
L 313 1100 
L 313 1709 
L 2253 4666 
z
" transform="scale(0.015625)"/>
        <path id="DejaVuSans-3c0" d="M 231 3500 
L 3584 3500 
L 3584 2925 
L 3144 2925 
L 3144 775 
Q 3144 550 3220 451 
Q 3297 353 3469 353 
Q 3516 353 3584 361 
Q 3653 369 3675 372 
L 3675 -44 
Q 3566 -84 3450 -103 
Q 3334 -122 3219 -122 
Q 2844 -122 2700 83 
Q 2556 288 2556 838 
L 2556 2925 
L 1266 2925 
L 1266 0 
L 678 0 
L 678 2925 
L 231 2925 
L 231 3500 
z
" transform="scale(0.015625)"/>
       </defs>
       <use xlink:href="#DejaVuSans-2d"/>
       <use xlink:href="#DejaVuSans-34" x="36.083984"/>
       <use xlink:href="#DejaVuSans-3c0" x="99.707031"/>
      </g>
     </g>
    </g>
    <g id="xtick_2">
     <g id="line2d_3">
      <path d="M 178.772727 256.32 
L 178.772727 34.56 
" clip-path="url(#pffe7424870)" style="fill: none; stroke-dasharray: 2.22,0.96; stroke-dashoffset: 0; stroke: #b0b0b0; stroke-opacity: 0.7; stroke-width: 0.6"/>
     </g>
     <g id="line2d_4">
      <g>
       <use xlink:href="#m01ea9ea4ed" x="178.772727" y="256.32" style="fill: #1a1a1a; stroke: #1a1a1a; stroke-width: 0.8"/>
      </g>
     </g>
     <g id="text_2">
      <!-- -3π -->
      <g style="fill: #1a1a1a" transform="translate(169.178352 268.938125) scale(0.12 -0.12)">
       <defs>
        <path id="DejaVuSans-33" d="M 2597 2516 
Q 3050 2419 3304 2112 
Q 3559 1806 3559 1356 
Q 3559 666 3084 287 
Q 2609 -91 1734 -91 
Q 1441 -91 1130 -33 
Q 819 25 488 141 
L 488 750 
Q 750 597 1062 519 
Q 1375 441 1716 441 
Q 2309 441 2620 675 
Q 2931 909 2931 1356 
Q 2931 1769 2642 2001 
Q 2353 2234 1838 2234 
L 1294 2234 
L 1294 2753 
L 1863 2753 
Q 2328 2753 2575 2939 
Q 2822 3125 2822 3475 
Q 2822 3834 2567 4026 
Q 2313 4219 1838 4219 
Q 1578 4219 1281 4162 
Q 984 4106 628 3988 
L 628 4550 
Q 988 4650 1302 4700 
Q 1616 4750 1894 4750 
Q 2613 4750 3031 4423 
Q 3450 4097 3450 3541 
Q 3450 3153 3228 2886 
Q 3006 2619 2597 2516 
z
" transform="scale(0.015625)"/>
       </defs>
       <use xlink:href="#DejaVuSans-2d"/>
       <use xlink:href="#DejaVuSans-33" x="36.083984"/>
       <use xlink:href="#DejaVuSans-3c0" x="99.707031"/>
      </g>
     </g>
    </g>
    <g id="xtick_3">
     <g id="line2d_5">
      <path d="M 242.181818 256.32 
L 242.181818 34.56 
" clip-path="url(#pffe7424870)" style="fill: none; stroke-dasharray: 2.22,0.96; stroke-dashoffset: 0; stroke: #b0b0b0; stroke-opacity: 0.7; stroke-width: 0.6"/>
     </g>
     <g id="line2d_6">
      <g>
       <use xlink:href="#m01ea9ea4ed" x="242.181818" y="256.32" style="fill: #1a1a1a; stroke: #1a1a1a; stroke-width: 0.8"/>
      </g>
     </g>
     <g id="text_3">
      <!-- -2π -->
      <g style="fill: #1a1a1a" transform="translate(232.587443 268.938125) scale(0.12 -0.12)">
       <defs>
        <path id="DejaVuSans-32" d="M 1228 531 
L 3431 531 
L 3431 0 
L 469 0 
L 469 531 
Q 828 903 1448 1529 
Q 2069 2156 2228 2338 
Q 2531 2678 2651 2914 
Q 2772 3150 2772 3378 
Q 2772 3750 2511 3984 
Q 2250 4219 1831 4219 
Q 1534 4219 1204 4116 
Q 875 4013 500 3803 
L 500 4441 
Q 881 4594 1212 4672 
Q 1544 4750 1819 4750 
Q 2544 4750 2975 4387 
Q 3406 4025 3406 3419 
Q 3406 3131 3298 2873 
Q 3191 2616 2906 2266 
Q 2828 2175 2409 1742 
Q 1991 1309 1228 531 
z
" transform="scale(0.015625)"/>
       </defs>
       <use xlink:href="#DejaVuSans-2d"/>
       <use xlink:href="#DejaVuSans-32" x="36.083984"/>
       <use xlink:href="#DejaVuSans-3c0" x="99.707031"/>
      </g>
     </g>
    </g>
    <g id="xtick_4">
     <g id="line2d_7">
      <path d="M 305.590909 256.32 
L 305.590909 34.56 
" clip-path="url(#pffe7424870)" style="fill: none; stroke-dasharray: 2.22,0.96; stroke-dashoffset: 0; stroke: #b0b0b0; stroke-opacity: 0.7; stroke-width: 0.6"/>
     </g>
     <g id="line2d_8">
      <g>
       <use xlink:href="#m01ea9ea4ed" x="305.590909" y="256.32" style="fill: #1a1a1a; stroke: #1a1a1a; stroke-width: 0.8"/>
      </g>
     </g>
     <g id="text_4">
      <!-- -1π -->
      <g style="fill: #1a1a1a" transform="translate(295.996534 268.938125) scale(0.12 -0.12)">
       <defs>
        <path id="DejaVuSans-31" d="M 794 531 
L 1825 531 
L 1825 4091 
L 703 3866 
L 703 4441 
L 1819 4666 
L 2450 4666 
L 2450 531 
L 3481 531 
L 3481 0 
L 794 0 
L 794 531 
z
" transform="scale(0.015625)"/>
       </defs>
       <use xlink:href="#DejaVuSans-2d"/>
       <use xlink:href="#DejaVuSans-31" x="36.083984"/>
       <use xlink:href="#DejaVuSans-3c0" x="99.707031"/>
      </g>
     </g>
    </g>
    <g id="xtick_5">
     <g id="line2d_9">
      <path d="M 369 256.32 
L 369 34.56 
" clip-path="url(#pffe7424870)" style="fill: none; stroke-dasharray: 2.22,0.96; stroke-dashoffset: 0; stroke: #b0b0b0; stroke-opacity: 0.7; stroke-width: 0.6"/>
     </g>
     <g id="line2d_10">
      <g>
       <use xlink:href="#m01ea9ea4ed" x="369" y="256.32" style="fill: #1a1a1a; stroke: #1a1a1a; stroke-width: 0.8"/>
      </g>
     </g>
     <g id="text_5">
      <!-- 0 -->
      <g style="fill: #1a1a1a" transform="translate(365.1825 268.938125) scale(0.12 -0.12)">
       <defs>
        <path id="DejaVuSans-30" d="M 2034 4250 
Q 1547 4250 1301 3770 
Q 1056 3291 1056 2328 
Q 1056 1369 1301 889 
Q 1547 409 2034 409 
Q 2525 409 2770 889 
Q 3016 1369 3016 2328 
Q 3016 3291 2770 3770 
Q 2525 4250 2034 4250 
z
M 2034 4750 
Q 2819 4750 3233 4129 
Q 3647 3509 3647 2328 
Q 3647 1150 3233 529 
Q 2819 -91 2034 -91 
Q 1250 -91 836 529 
Q 422 1150 422 2328 
Q 422 3509 836 4129 
Q 1250 4750 2034 4750 
z
" transform="scale(0.015625)"/>
       </defs>
       <use xlink:href="#DejaVuSans-30"/>
      </g>
     </g>
    </g>
    <g id="xtick_6">
     <g id="line2d_11">
      <path d="M 432.409091 256.32 
L 432.409091 34.56 
" clip-path="url(#pffe7424870)" style="fill: none; stroke-dasharray: 2.22,0.96; stroke-dashoffset: 0; stroke: #b0b0b0; stroke-opacity: 0.7; stroke-width: 0.6"/>
     </g>
     <g id="line2d_12">
      <g>
       <use xlink:href="#m01ea9ea4ed" x="432.409091" y="256.32" style="fill: #1a1a1a; stroke: #1a1a1a; stroke-width: 0.8"/>
      </g>
     </g>
     <g id="text_6">
      <!-- 1π -->
      <g style="fill: #1a1a1a" transform="translate(424.979403 268.938125) scale(0.12 -0.12)">
       <use xlink:href="#DejaVuSans-31"/>
       <use xlink:href="#DejaVuSans-3c0" x="63.623047"/>
      </g>
     </g>
    </g>
    <g id="xtick_7">
     <g id="line2d_13">
      <path d="M 495.818182 256.32 
L 495.818182 34.56 
" clip-path="url(#pffe7424870)" style="fill: none; stroke-dasharray: 2.22,0.96; stroke-dashoffset: 0; stroke: #b0b0b0; stroke-opacity: 0.7; stroke-width: 0.6"/>
     </g>
     <g id="line2d_14">
      <g>
       <use xlink:href="#m01ea9ea4ed" x="495.818182" y="256.32" style="fill: #1a1a1a; stroke: #1a1a1a; stroke-width: 0.8"/>
      </g>
     </g>
     <g id="text_7">
      <!-- 2π -->
      <g style="fill: #1a1a1a" transform="translate(488.388494 268.938125) scale(0.12 -0.12)">
       <use xlink:href="#DejaVuSans-32"/>
       <use xlink:href="#DejaVuSans-3c0" x="63.623047"/>
      </g>
     </g>
    </g>
    <g id="xtick_8">
     <g id="line2d_15">
      <path d="M 559.227273 256.32 
L 559.227273 34.56 
" clip-path="url(#pffe7424870)" style="fill: none; stroke-dasharray: 2.22,0.96; stroke-dashoffset: 0; stroke: #b0b0b0; stroke-opacity: 0.7; stroke-width: 0.6"/>
     </g>
     <g id="line2d_16">
      <g>
       <use xlink:href="#m01ea9ea4ed" x="559.227273" y="256.32" style="fill: #1a1a1a; stroke: #1a1a1a; stroke-width: 0.8"/>
      </g>
     </g>
     <g id="text_8">
      <!-- 3π -->
      <g style="fill: #1a1a1a" transform="translate(551.797585 268.938125) scale(0.12 -0.12)">
       <use xlink:href="#DejaVuSans-33"/>
       <use xlink:href="#DejaVuSans-3c0" x="63.623047"/>
      </g>
     </g>
    </g>
    <g id="xtick_9">
     <g id="line2d_17">
      <path d="M 622.636364 256.32 
L 622.636364 34.56 
" clip-path="url(#pffe7424870)" style="fill: none; stroke-dasharray: 2.22,0.96; stroke-dashoffset: 0; stroke: #b0b0b0; stroke-opacity: 0.7; stroke-width: 0.6"/>
     </g>
     <g id="line2d_18">
      <g>
       <use xlink:href="#m01ea9ea4ed" x="622.636364" y="256.32" style="fill: #1a1a1a; stroke: #1a1a1a; stroke-width: 0.8"/>
      </g>
     </g>
     <g id="text_9">
      <!-- 4π -->
      <g style="fill: #1a1a1a" transform="translate(615.206676 268.938125) scale(0.12 -0.12)">
       <use xlink:href="#DejaVuSans-34"/>
       <use xlink:href="#DejaVuSans-3c0" x="63.623047"/>
      </g>
     </g>
    </g>
   </g>
   <g id="matplotlib.axis_2">
    <g id="ytick_1">
     <g id="line2d_19">
      <path d="M 90 256.32 
L 648 256.32 
" clip-path="url(#pffe7424870)" style="fill: none; stroke-dasharray: 2.22,0.96; stroke-dashoffset: 0; stroke: #b0b0b0; stroke-opacity: 0.7; stroke-width: 0.6"/>
     </g>
     <g id="line2d_20">
      <defs>
       <path id="m05c5fc542a" d="M 0 0 
L 3.5 0 
" style="stroke: #1a1a1a; stroke-width: 0.8"/>
      </defs>
      <g>
       <use xlink:href="#m05c5fc542a" x="90" y="256.32" style="fill: #1a1a1a; stroke: #1a1a1a; stroke-width: 0.8"/>
      </g>
     </g>
     <g id="text_10">
      <!-- −1.5 -->
      <g style="fill: #1a1a1a" transform="translate(57.360625 260.879062) scale(0.12 -0.12)">
       <defs>
        <path id="DejaVuSans-2212" d="M 678 2272 
L 4684 2272 
L 4684 1741 
L 678 1741 
L 678 2272 
z
" transform="scale(0.015625)"/>
        <path id="DejaVuSans-2e" d="M 684 794 
L 1344 794 
L 1344 0 
L 684 0 
L 684 794 
z
" transform="scale(0.015625)"/>
        <path id="DejaVuSans-35" d="M 691 4666 
L 3169 4666 
L 3169 4134 
L 1269 4134 
L 1269 2991 
Q 1406 3038 1543 3061 
Q 1681 3084 1819 3084 
Q 2600 3084 3056 2656 
Q 3513 2228 3513 1497 
Q 3513 744 3044 326 
Q 2575 -91 1722 -91 
Q 1428 -91 1123 -41 
Q 819 9 494 109 
L 494 744 
Q 775 591 1075 516 
Q 1375 441 1709 441 
Q 2250 441 2565 725 
Q 2881 1009 2881 1497 
Q 2881 1984 2565 2268 
Q 2250 2553 1709 2553 
Q 1456 2553 1204 2497 
Q 953 2441 691 2322 
L 691 4666 
z
" transform="scale(0.015625)"/>
       </defs>
       <use xlink:href="#DejaVuSans-2212"/>
       <use xlink:href="#DejaVuSans-31" x="83.789062"/>
       <use xlink:href="#DejaVuSans-2e" x="147.412109"/>
       <use xlink:href="#DejaVuSans-35" x="179.199219"/>
      </g>
     </g>
    </g>
    <g id="ytick_2">
     <g id="line2d_21">
      <path d="M 90 219.36 
L 648 219.36 
" clip-path="url(#pffe7424870)" style="fill: none; stroke-dasharray: 2.22,0.96; stroke-dashoffset: 0; stroke: #b0b0b0; stroke-opacity: 0.7; stroke-width: 0.6"/>
     </g>
     <g id="line2d_22">
      <g>
       <use xlink:href="#m05c5fc542a" x="90" y="219.36" style="fill: #1a1a1a; stroke: #1a1a1a; stroke-width: 0.8"/>
      </g>
     </g>
     <g id="text_11">
      <!-- −1.0 -->
      <g style="fill: #1a1a1a" transform="translate(57.360625 223.919062) scale(0.12 -0.12)">
       <use xlink:href="#DejaVuSans-2212"/>
       <use xlink:href="#DejaVuSans-31" x="83.789062"/>
       <use xlink:href="#DejaVuSans-2e" x="147.412109"/>
       <use xlink:href="#DejaVuSans-30" x="179.199219"/>
      </g>
     </g>
    </g>
    <g id="ytick_3">
     <g id="line2d_23">
      <path d="M 90 182.4 
L 648 182.4 
" clip-path="url(#pffe7424870)" style="fill: none; stroke-dasharray: 2.22,0.96; stroke-dashoffset: 0; stroke: #b0b0b0; stroke-opacity: 0.7; stroke-width: 0.6"/>
     </g>
     <g id="line2d_24">
      <g>
       <use xlink:href="#m05c5fc542a" x="90" y="182.4" style="fill: #1a1a1a; stroke: #1a1a1a; stroke-width: 0.8"/>
      </g>
     </g>
     <g id="text_12">
      <!-- −0.5 -->
      <g style="fill: #1a1a1a" transform="translate(57.360625 186.959062) scale(0.12 -0.12)">
       <use xlink:href="#DejaVuSans-2212"/>
       <use xlink:href="#DejaVuSans-30" x="83.789062"/>
       <use xlink:href="#DejaVuSans-2e" x="147.412109"/>
       <use xlink:href="#DejaVuSans-35" x="179.199219"/>
      </g>
     </g>
    </g>
    <g id="ytick_4">
     <g id="line2d_25">
      <path d="M 90 145.44 
L 648 145.44 
" clip-path="url(#pffe7424870)" style="fill: none; stroke-dasharray: 2.22,0.96; stroke-dashoffset: 0; stroke: #b0b0b0; stroke-opacity: 0.7; stroke-width: 0.6"/>
     </g>
     <g id="line2d_26">
      <g>
       <use xlink:href="#m05c5fc542a" x="90" y="145.44" style="fill: #1a1a1a; stroke: #1a1a1a; stroke-width: 0.8"/>
      </g>
     </g>
     <g id="text_13">
      <!-- 0.0 -->
      <g style="fill: #1a1a1a" transform="translate(67.41625 149.999063) scale(0.12 -0.12)">
       <use xlink:href="#DejaVuSans-30"/>
       <use xlink:href="#DejaVuSans-2e" x="63.623047"/>
       <use xlink:href="#DejaVuSans-30" x="95.410156"/>
      </g>
     </g>
    </g>
    <g id="ytick_5">
     <g id="line2d_27">
      <path d="M 90 108.48 
L 648 108.48 
" clip-path="url(#pffe7424870)" style="fill: none; stroke-dasharray: 2.22,0.96; stroke-dashoffset: 0; stroke: #b0b0b0; stroke-opacity: 0.7; stroke-width: 0.6"/>
     </g>
     <g id="line2d_28">
      <g>
       <use xlink:href="#m05c5fc542a" x="90" y="108.48" style="fill: #1a1a1a; stroke: #1a1a1a; stroke-width: 0.8"/>
      </g>
     </g>
     <g id="text_14">
      <!-- 0.5 -->
      <g style="fill: #1a1a1a" transform="translate(67.41625 113.039063) scale(0.12 -0.12)">
       <use xlink:href="#DejaVuSans-30"/>
       <use xlink:href="#DejaVuSans-2e" x="63.623047"/>
       <use xlink:href="#DejaVuSans-35" x="95.410156"/>
      </g>
     </g>
    </g>
    <g id="ytick_6">
     <g id="line2d_29">
      <path d="M 90 71.52 
L 648 71.52 
" clip-path="url(#pffe7424870)" style="fill: none; stroke-dasharray: 2.22,0.96; stroke-dashoffset: 0; stroke: #b0b0b0; stroke-opacity: 0.7; stroke-width: 0.6"/>
     </g>
     <g id="line2d_30">
      <g>
       <use xlink:href="#m05c5fc542a" x="90" y="71.52" style="fill: #1a1a1a; stroke: #1a1a1a; stroke-width: 0.8"/>
      </g>
     </g>
     <g id="text_15">
      <!-- 1.0 -->
      <g style="fill: #1a1a1a" transform="translate(67.41625 76.079063) scale(0.12 -0.12)">
       <use xlink:href="#DejaVuSans-31"/>
       <use xlink:href="#DejaVuSans-2e" x="63.623047"/>
       <use xlink:href="#DejaVuSans-30" x="95.410156"/>
      </g>
     </g>
    </g>
    <g id="ytick_7">
     <g id="line2d_31">
      <path d="M 90 34.56 
L 648 34.56 
" clip-path="url(#pffe7424870)" style="fill: none; stroke-dasharray: 2.22,0.96; stroke-dashoffset: 0; stroke: #b0b0b0; stroke-opacity: 0.7; stroke-width: 0.6"/>
     </g>
     <g id="line2d_32">
      <g>
       <use xlink:href="#m05c5fc542a" x="90" y="34.56" style="fill: #1a1a1a; stroke: #1a1a1a; stroke-width: 0.8"/>
      </g>
     </g>
     <g id="text_16">
      <!-- 1.5 -->
      <g style="fill: #1a1a1a" transform="translate(67.41625 39.119063) scale(0.12 -0.12)">
       <use xlink:href="#DejaVuSans-31"/>
       <use xlink:href="#DejaVuSans-2e" x="63.623047"/>
       <use xlink:href="#DejaVuSans-35" x="95.410156"/>
      </g>
     </g>
    </g>
   </g>
   <g id="line2d_33">
    <path d="M 115.363636 145.44 
L 121.457002 123.461378 
L 125.011466 111.436479 
L 128.058149 101.95331 
L 130.597052 94.797623 
L 132.628174 89.644243 
L 134.659296 85.055415 
L 136.690418 81.077568 
L 138.213759 78.519596 
L 139.737101 76.34264 
L 141.260442 74.559096 
L 142.783784 73.179117 
L 143.799345 72.48731 
L 144.814906 71.980157 
L 145.830467 71.658942 
L 146.846028 71.524477 
L 147.861589 71.577104 
L 148.87715 71.816688 
L 149.892711 72.242623 
L 150.908272 72.853832 
L 152.431613 74.11452 
L 153.954955 75.781306 
L 155.478296 77.844699 
L 157.001638 80.29295 
L 158.52498 83.112122 
L 160.556102 87.419967 
L 162.587224 92.314869 
L 164.618346 97.747301 
L 167.157248 105.20953 
L 170.203931 114.99226 
L 173.758395 127.264064 
L 179.34398 147.531852 
L 184.929566 167.640458 
L 188.484029 179.649756 
L 191.530713 189.114452 
L 194.069615 196.251461 
L 196.100737 201.38796 
L 198.131859 205.958367 
L 200.162981 209.916439 
L 201.686323 212.458811 
L 203.209664 214.619607 
L 204.733006 216.386523 
L 206.256347 217.7495 
L 207.271908 218.429812 
L 208.287469 218.925377 
L 209.30303 219.234939 
L 210.318591 219.357716 
L 211.334152 219.293396 
L 212.349713 219.042142 
L 213.365274 218.604591 
L 214.380835 217.981849 
L 215.904177 216.70408 
L 217.427518 215.020564 
L 218.95086 212.940885 
L 220.474201 210.476885 
L 221.997543 207.642593 
L 224.028665 203.31571 
L 226.059787 198.403231 
L 228.090909 192.95486 
L 230.629812 185.475255 
L 233.676495 175.675767 
L 237.230958 163.390525 
L 242.816544 143.115793 
L 248.402129 123.017924 
L 251.956593 111.024346 
L 255.003276 101.578218 
L 257.542179 94.459957 
L 259.573301 89.34039 
L 261.604423 84.78845 
L 263.635545 80.850192 
L 265.158886 78.323445 
L 266.682228 76.17883 
L 268.205569 74.42856 
L 269.728911 73.082598 
L 270.744472 72.413787 
L 271.760033 71.929816 
L 272.775594 71.63191 
L 273.791155 71.520822 
L 274.806716 71.596835 
L 275.822277 71.859756 
L 276.837838 72.308919 
L 277.853399 72.943188 
L 279.37674 74.238024 
L 280.900082 75.938255 
L 282.423423 78.034198 
L 283.946765 80.513922 
L 285.470106 83.363307 
L 287.501229 87.709185 
L 289.532351 92.639193 
L 291.563473 98.103448 
L 294.102375 105.600356 
L 297.149058 115.416506 
L 300.703522 127.715064 
L 306.796888 149.854093 
L 312.382473 169.846392 
L 315.936937 181.693172 
L 318.475839 189.488678 
L 321.014742 196.588121 
L 323.045864 201.690705 
L 325.076986 206.224134 
L 327.108108 210.142538 
L 328.63145 212.653636 
L 330.154791 214.782048 
L 331.678133 216.515655 
L 333.201474 217.844588 
L 334.217035 218.501892 
L 335.232596 218.974265 
L 336.248157 219.260512 
L 337.263718 219.359909 
L 338.279279 219.272203 
L 339.29484 218.997618 
L 340.310401 218.536848 
L 341.325962 217.891058 
L 342.849304 216.579167 
L 344.372645 214.86224 
L 345.895987 212.750052 
L 347.419328 210.254629 
L 348.94267 207.390179 
L 350.973792 203.02535 
L 353.004914 198.077862 
L 355.036036 192.597775 
L 357.574939 185.083639 
L 360.621622 175.250925 
L 364.176085 162.939171 
L 370.269451 140.793885 
L 375.855037 120.814306 
L 379.4095 108.984426 
L 381.948403 101.204861 
L 384.487305 94.124307 
L 386.518428 89.038757 
L 388.54955 84.523884 
L 390.580672 80.625371 
L 392.104013 78.129948 
L 393.627355 76.01776 
L 395.150696 74.300833 
L 396.674038 72.988942 
L 397.689599 72.343152 
L 398.70516 71.882382 
L 399.720721 71.607797 
L 400.736282 71.520091 
L 401.751843 71.619488 
L 402.767404 71.905735 
L 403.782965 72.378108 
L 404.798526 73.035412 
L 406.321867 74.364345 
L 407.845209 76.097952 
L 409.36855 78.226364 
L 410.891892 80.737462 
L 412.415233 83.616948 
L 414.446355 88.000686 
L 416.477477 92.965604 
L 418.5086 98.461468 
L 421.047502 105.992758 
L 424.094185 115.841939 
L 427.648649 128.166766 
L 433.742015 150.318091 
L 438.81982 168.525589 
L 442.374283 180.471296 
L 445.420966 189.861162 
L 447.959869 196.922758 
L 449.990991 201.991224 
L 452.022113 206.487496 
L 454.053235 210.366078 
L 455.576577 212.845802 
L 457.099918 214.941745 
L 458.62326 216.641976 
L 460.146601 217.936812 
L 461.162162 218.571081 
L 462.177723 219.020244 
L 463.193284 219.283165 
L 464.208845 219.359178 
L 465.224406 219.24809 
L 466.239967 218.950184 
L 467.255528 218.466213 
L 468.271089 217.797402 
L 469.794431 216.45144 
L 471.317772 214.70117 
L 472.841114 212.556555 
L 474.364455 210.029808 
L 475.887797 207.135314 
L 477.918919 202.732711 
L 479.950041 197.75041 
L 481.981163 192.238824 
L 484.520066 184.690456 
L 487.566749 174.824904 
L 491.121212 162.487125 
L 497.214578 140.329981 
L 502.292383 122.133694 
L 505.846847 110.20418 
L 508.89353 100.833254 
L 511.432432 93.790687 
L 513.463554 88.739354 
L 515.494676 84.261728 
L 517.525799 80.403115 
L 519.04914 77.939115 
L 520.572482 75.859436 
L 522.095823 74.17592 
L 523.619165 72.898151 
L 524.634726 72.275409 
L 525.650287 71.837858 
L 526.665848 71.586604 
L 527.681409 71.522284 
L 528.69697 71.645061 
L 529.712531 71.954623 
L 530.728092 72.450188 
L 531.743653 73.1305 
L 533.266994 74.493477 
L 534.790336 76.260393 
L 536.313677 78.421189 
L 537.837019 80.963561 
L 539.36036 83.873035 
L 541.391482 88.294459 
L 543.422604 93.294092 
L 545.453726 98.821346 
L 547.992629 106.386719 
L 551.039312 116.268544 
L 554.593776 128.619152 
L 561.194922 152.63482 
L 566.272727 170.722129 
L 569.31941 180.879995 
L 571.858313 188.738498 
L 574.397215 195.912792 
L 576.428337 201.083002 
L 578.459459 205.690207 
L 580.490581 209.687789 
L 582.013923 212.261336 
L 583.537265 214.45443 
L 585.060606 216.254585 
L 586.583948 217.651552 
L 588.107289 218.637377 
L 589.12285 219.063312 
L 590.138411 219.302896 
L 591.153972 219.355523 
L 592.169533 219.221058 
L 593.185094 218.899843 
L 594.200655 218.39269 
L 595.216216 217.700883 
L 596.739558 216.320904 
L 598.262899 214.53736 
L 599.786241 212.360404 
L 601.309582 209.802432 
L 602.832924 206.878008 
L 604.864046 202.437806 
L 606.895168 197.42089 
L 609.43407 190.416589 
L 611.972973 182.701561 
L 615.019656 172.677701 
L 619.0819 158.390521 
L 622.636364 145.44 
L 622.636364 145.44 
" clip-path="url(#pffe7424870)" style="fill: none; stroke: #ffaf00; stroke-width: 1.5; stroke-linecap: square"/>
   </g>
   <g id="line2d_34">
    <path d="M 90 145.44 
L 648 145.44 
" clip-path="url(#pffe7424870)" style="fill: none; stroke: #000000; stroke-width: 0.5; stroke-linecap: square"/>
   </g>
   <g id="line2d_35">
    <path d="M 369 256.32 
L 369 34.56 
" clip-path="url(#pffe7424870)" style="fill: none; stroke: #000000; stroke-width: 0.5; stroke-linecap: square"/>
   </g>
   <g id="patch_3">
    <path d="M 90 256.32 
L 90 34.56 
" style="fill: none; stroke: #1a1a1a; stroke-linejoin: miter; stroke-linecap: square"/>
   </g>
   <g id="patch_4">
    <path d="M 90 256.32 
L 648 256.32 
" style="fill: none; stroke: #1a1a1a; stroke-linejoin: miter; stroke-linecap: square"/>
   </g>
   <g id="text_17">
    <!-- Graph of $y = \sin(x)$ -->
    <g style="fill: #333333" transform="translate(294.6 28.56) scale(0.16 -0.16)">
     <defs>
      <path id="DejaVuSans-47" d="M 3809 666 
L 3809 1919 
L 2778 1919 
L 2778 2438 
L 4434 2438 
L 4434 434 
Q 4069 175 3628 42 
Q 3188 -91 2688 -91 
Q 1594 -91 976 548 
Q 359 1188 359 2328 
Q 359 3472 976 4111 
Q 1594 4750 2688 4750 
Q 3144 4750 3555 4637 
Q 3966 4525 4313 4306 
L 4313 3634 
Q 3963 3931 3569 4081 
Q 3175 4231 2741 4231 
Q 1884 4231 1454 3753 
Q 1025 3275 1025 2328 
Q 1025 1384 1454 906 
Q 1884 428 2741 428 
Q 3075 428 3337 486 
Q 3600 544 3809 666 
z
" transform="scale(0.015625)"/>
      <path id="DejaVuSans-72" d="M 2631 2963 
Q 2534 3019 2420 3045 
Q 2306 3072 2169 3072 
Q 1681 3072 1420 2755 
Q 1159 2438 1159 1844 
L 1159 0 
L 581 0 
L 581 3500 
L 1159 3500 
L 1159 2956 
Q 1341 3275 1631 3429 
Q 1922 3584 2338 3584 
Q 2397 3584 2469 3576 
Q 2541 3569 2628 3553 
L 2631 2963 
z
" transform="scale(0.015625)"/>
      <path id="DejaVuSans-61" d="M 2194 1759 
Q 1497 1759 1228 1600 
Q 959 1441 959 1056 
Q 959 750 1161 570 
Q 1363 391 1709 391 
Q 2188 391 2477 730 
Q 2766 1069 2766 1631 
L 2766 1759 
L 2194 1759 
z
M 3341 1997 
L 3341 0 
L 2766 0 
L 2766 531 
Q 2569 213 2275 61 
Q 1981 -91 1556 -91 
Q 1019 -91 701 211 
Q 384 513 384 1019 
Q 384 1609 779 1909 
Q 1175 2209 1959 2209 
L 2766 2209 
L 2766 2266 
Q 2766 2663 2505 2880 
Q 2244 3097 1772 3097 
Q 1472 3097 1187 3025 
Q 903 2953 641 2809 
L 641 3341 
Q 956 3463 1253 3523 
Q 1550 3584 1831 3584 
Q 2591 3584 2966 3190 
Q 3341 2797 3341 1997 
z
" transform="scale(0.015625)"/>
      <path id="DejaVuSans-70" d="M 1159 525 
L 1159 -1331 
L 581 -1331 
L 581 3500 
L 1159 3500 
L 1159 2969 
Q 1341 3281 1617 3432 
Q 1894 3584 2278 3584 
Q 2916 3584 3314 3078 
Q 3713 2572 3713 1747 
Q 3713 922 3314 415 
Q 2916 -91 2278 -91 
Q 1894 -91 1617 61 
Q 1341 213 1159 525 
z
M 3116 1747 
Q 3116 2381 2855 2742 
Q 2594 3103 2138 3103 
Q 1681 3103 1420 2742 
Q 1159 2381 1159 1747 
Q 1159 1113 1420 752 
Q 1681 391 2138 391 
Q 2594 391 2855 752 
Q 3116 1113 3116 1747 
z
" transform="scale(0.015625)"/>
      <path id="DejaVuSans-68" d="M 3513 2113 
L 3513 0 
L 2938 0 
L 2938 2094 
Q 2938 2591 2744 2837 
Q 2550 3084 2163 3084 
Q 1697 3084 1428 2787 
Q 1159 2491 1159 1978 
L 1159 0 
L 581 0 
L 581 4863 
L 1159 4863 
L 1159 2956 
Q 1366 3272 1645 3428 
Q 1925 3584 2291 3584 
Q 2894 3584 3203 3211 
Q 3513 2838 3513 2113 
z
" transform="scale(0.015625)"/>
      <path id="DejaVuSans-20" transform="scale(0.015625)"/>
      <path id="DejaVuSans-6f" d="M 1959 3097 
Q 1497 3097 1228 2736 
Q 959 2375 959 1747 
Q 959 1119 1226 758 
Q 1494 397 1959 397 
Q 2419 397 2687 759 
Q 2956 1122 2956 1747 
Q 2956 2369 2687 2733 
Q 2419 3097 1959 3097 
z
M 1959 3584 
Q 2709 3584 3137 3096 
Q 3566 2609 3566 1747 
Q 3566 888 3137 398 
Q 2709 -91 1959 -91 
Q 1206 -91 779 398 
Q 353 888 353 1747 
Q 353 2609 779 3096 
Q 1206 3584 1959 3584 
z
" transform="scale(0.015625)"/>
      <path id="DejaVuSans-66" d="M 2375 4863 
L 2375 4384 
L 1825 4384 
Q 1516 4384 1395 4259 
Q 1275 4134 1275 3809 
L 1275 3500 
L 2222 3500 
L 2222 3053 
L 1275 3053 
L 1275 0 
L 697 0 
L 697 3053 
L 147 3053 
L 147 3500 
L 697 3500 
L 697 3744 
Q 697 4328 969 4595 
Q 1241 4863 1831 4863 
L 2375 4863 
z
" transform="scale(0.015625)"/>
      <path id="DejaVuSans-Oblique-79" d="M 1588 -325 
Q 1188 -997 936 -1164 
Q 684 -1331 294 -1331 
L -159 -1331 
L -63 -850 
L 269 -850 
Q 509 -850 678 -719 
Q 847 -588 1056 -206 
L 1234 128 
L 459 3500 
L 1069 3500 
L 1650 819 
L 3256 3500 
L 3859 3500 
L 1588 -325 
z
" transform="scale(0.015625)"/>
      <path id="DejaVuSans-3d" d="M 678 2906 
L 4684 2906 
L 4684 2381 
L 678 2381 
L 678 2906 
z
M 678 1631 
L 4684 1631 
L 4684 1100 
L 678 1100 
L 678 1631 
z
" transform="scale(0.015625)"/>
      <path id="DejaVuSans-73" d="M 2834 3397 
L 2834 2853 
Q 2591 2978 2328 3040 
Q 2066 3103 1784 3103 
Q 1356 3103 1142 2972 
Q 928 2841 928 2578 
Q 928 2378 1081 2264 
Q 1234 2150 1697 2047 
L 1894 2003 
Q 2506 1872 2764 1633 
Q 3022 1394 3022 966 
Q 3022 478 2636 193 
Q 2250 -91 1575 -91 
Q 1294 -91 989 -36 
Q 684 19 347 128 
L 347 722 
Q 666 556 975 473 
Q 1284 391 1588 391 
Q 1994 391 2212 530 
Q 2431 669 2431 922 
Q 2431 1156 2273 1281 
Q 2116 1406 1581 1522 
L 1381 1569 
Q 847 1681 609 1914 
Q 372 2147 372 2553 
Q 372 3047 722 3315 
Q 1072 3584 1716 3584 
Q 2034 3584 2315 3537 
Q 2597 3491 2834 3397 
z
" transform="scale(0.015625)"/>
      <path id="DejaVuSans-69" d="M 603 3500 
L 1178 3500 
L 1178 0 
L 603 0 
L 603 3500 
z
M 603 4863 
L 1178 4863 
L 1178 4134 
L 603 4134 
L 603 4863 
z
" transform="scale(0.015625)"/>
      <path id="DejaVuSans-6e" d="M 3513 2113 
L 3513 0 
L 2938 0 
L 2938 2094 
Q 2938 2591 2744 2837 
Q 2550 3084 2163 3084 
Q 1697 3084 1428 2787 
Q 1159 2491 1159 1978 
L 1159 0 
L 581 0 
L 581 3500 
L 1159 3500 
L 1159 2956 
Q 1366 3272 1645 3428 
Q 1925 3584 2291 3584 
Q 2894 3584 3203 3211 
Q 3513 2838 3513 2113 
z
" transform="scale(0.015625)"/>
      <path id="DejaVuSans-28" d="M 1984 4856 
Q 1566 4138 1362 3434 
Q 1159 2731 1159 2009 
Q 1159 1288 1364 580 
Q 1569 -128 1984 -844 
L 1484 -844 
Q 1016 -109 783 600 
Q 550 1309 550 2009 
Q 550 2706 781 3412 
Q 1013 4119 1484 4856 
L 1984 4856 
z
" transform="scale(0.015625)"/>
      <path id="DejaVuSans-Oblique-78" d="M 3841 3500 
L 2234 1784 
L 3219 0 
L 2559 0 
L 1819 1388 
L 531 0 
L -166 0 
L 1556 1844 
L 641 3500 
L 1300 3500 
L 1972 2234 
L 3144 3500 
L 3841 3500 
z
" transform="scale(0.015625)"/>
      <path id="DejaVuSans-29" d="M 513 4856 
L 1013 4856 
Q 1481 4119 1714 3412 
Q 1947 2706 1947 2009 
Q 1947 1309 1714 600 
Q 1481 -109 1013 -844 
L 513 -844 
Q 928 -128 1133 580 
Q 1338 1288 1338 2009 
Q 1338 2731 1133 3434 
Q 928 4138 513 4856 
z
" transform="scale(0.015625)"/>
     </defs>
     <use xlink:href="#DejaVuSans-47" transform="translate(0 0.015625)"/>
     <use xlink:href="#DejaVuSans-72" transform="translate(77.490234 0.015625)"/>
     <use xlink:href="#DejaVuSans-61" transform="translate(118.603516 0.015625)"/>
     <use xlink:href="#DejaVuSans-70" transform="translate(179.882812 0.015625)"/>
     <use xlink:href="#DejaVuSans-68" transform="translate(243.359375 0.015625)"/>
     <use xlink:href="#DejaVuSans-20" transform="translate(306.738281 0.015625)"/>
     <use xlink:href="#DejaVuSans-6f" transform="translate(338.525391 0.015625)"/>
     <use xlink:href="#DejaVuSans-66" transform="translate(399.707031 0.015625)"/>
     <use xlink:href="#DejaVuSans-20" transform="translate(434.912109 0.015625)"/>
     <use xlink:href="#DejaVuSans-Oblique-79" transform="translate(466.699219 0.015625)"/>
     <use xlink:href="#DejaVuSans-3d" transform="translate(545.361328 0.015625)"/>
     <use xlink:href="#DejaVuSans-73" transform="translate(648.632812 0.015625)"/>
     <use xlink:href="#DejaVuSans-69" transform="translate(700.732422 0.015625)"/>
     <use xlink:href="#DejaVuSans-6e" transform="translate(728.515625 0.015625)"/>
     <use xlink:href="#DejaVuSans-28" transform="translate(791.894531 0.015625)"/>
     <use xlink:href="#DejaVuSans-Oblique-78" transform="translate(830.908203 0.015625)"/>
     <use xlink:href="#DejaVuSans-29" transform="translate(890.087891 0.015625)"/>
    </g>
   </g>
   <g id="legend_1">
    <g id="patch_5">
     <path d="M 562.7 57.26 
L 641 57.26 
Q 643 57.26 643 55.26 
L 643 41.56 
Q 643 39.56 641 39.56 
L 562.7 39.56 
Q 560.7 39.56 560.7 41.56 
L 560.7 55.26 
Q 560.7 57.26 562.7 57.26 
z
" style="fill: #ffffff; opacity: 0.8; stroke: #cccccc; stroke-linejoin: miter"/>
    </g>
    <g id="line2d_36">
     <path d="M 564.7 47.66 
L 574.7 47.66 
L 584.7 47.66 
" style="fill: none; stroke: #ffaf00; stroke-width: 1.5; stroke-linecap: square"/>
    </g>
    <g id="text_18">
     <!-- $y = \sin(x)$ -->
     <g style="fill: #333333" transform="translate(592.7 51.16) scale(0.1 -0.1)">
      <use xlink:href="#DejaVuSans-Oblique-79" transform="translate(0 0.015625)"/>
      <use xlink:href="#DejaVuSans-3d" transform="translate(78.662109 0.015625)"/>
      <use xlink:href="#DejaVuSans-73" transform="translate(181.933594 0.015625)"/>
      <use xlink:href="#DejaVuSans-69" transform="translate(234.033203 0.015625)"/>
      <use xlink:href="#DejaVuSans-6e" transform="translate(261.816406 0.015625)"/>
      <use xlink:href="#DejaVuSans-28" transform="translate(325.195312 0.015625)"/>
      <use xlink:href="#DejaVuSans-Oblique-78" transform="translate(364.208984 0.015625)"/>
      <use xlink:href="#DejaVuSans-29" transform="translate(423.388672 0.015625)"/>
     </g>
    </g>
   </g>
  </g>
 </g>
 <defs>
  <clipPath id="pffe7424870">
   <rect x="90" y="34.56" width="558" height="221.76"/>
  </clipPath>
 </defs>
</svg>
