<svg xmlns="http://www.w3.org/2000/svg" viewBox="0 0 800 500">
  <!-- 背景 -->
  <rect width="800" height="500" fill="#f8f8f8"/>
  
  <!-- グリッド線（軽い） -->
  <g stroke="#e0e0e0" stroke-width="1">
    <line x1="0" y1="250" x2="800" y2="250"/>
    <line x1="400" y1="0" x2="400" y2="500"/>
  </g>
  
  <!-- タイトル -->
  <text x="400" y="40" font-family="Arial, 'Hiragino Kaku Gothic ProN', 'メイリオ', sans-serif" font-size="24" fill="#333" text-anchor="middle">
    曲面上の臨界点
  </text>
  
  <!-- 局所的最大値 -->
  <g transform="translate(150, 150)">
    <!-- 表面表現 -->
    <path d="M-100,60 C-80,40 -50,0 0,-40 C50,0 80,40 100,60" fill="none" stroke="#3498db" stroke-width="3"/>
    <path d="M-100,60 C-80,80 -50,100 0,110 C50,100 80,80 100,60" fill="none" stroke="#3498db" stroke-width="3" stroke-dasharray="5,3"/>
    
    <!-- 3D効果を示す楕円 -->
    <ellipse cx="0" cy="60" rx="100" ry="30" fill="none" stroke="#3498db" stroke-width="2" stroke-dasharray="5,3"/>
    
    <!-- 臨界点 -->
    <circle cx="0" cy="-40" r="6" fill="#e74c3c"/>
    
    <!-- ラベル -->
    <text x="0" y="130" font-family="Arial, 'Hiragino Kaku Gothic ProN', 'メイリオ', sans-serif" font-size="18" fill="#333" text-anchor="middle">
      局所的最大値
    </text>
    
    <!-- 座標軸 -->
    <line x1="-110" y1="0" x2="110" y2="0" stroke="#999" stroke-width="1"/>
    <line x1="0" y1="-70" x2="0" y2="110" stroke="#999" stroke-width="1"/>
  </g>
  
  <!-- 局所的最小値 -->
  <g transform="translate(400, 150)">
    <!-- 表面表現 -->
    <path d="M-100,0 C-80,10 -50,20 0,60 C50,20 80,10 100,0" fill="none" stroke="#3498db" stroke-width="3"/>
    <path d="M-100,0 C-80,-10 -50,-40 0,-60 C50,-40 80,-10 100,0" fill="none" stroke="#3498db" stroke-width="3" stroke-dasharray="5,3"/>
    
    <!-- 3D効果を示す楕円 -->
    <ellipse cx="0" cy="0" rx="100" ry="30" fill="none" stroke="#3498db" stroke-width="2" stroke-dasharray="5,3"/>
    
    <!-- 臨界点 -->
    <circle cx="0" cy="60" r="6" fill="#e74c3c"/>
    
    <!-- ラベル -->
    <text x="0" y="130" font-family="Arial, 'Hiragino Kaku Gothic ProN', 'メイリオ', sans-serif" font-size="18" fill="#333" text-anchor="middle">
      局所的最小値
    </text>
    
    <!-- 座標軸 -->
    <line x1="-110" y1="0" x2="110" y2="0" stroke="#999" stroke-width="1"/>
    <line x1="0" y1="-70" x2="0" y2="110" stroke="#999" stroke-width="1"/>
  </g>
  
  <!-- 鞍点 -->
  <g transform="translate(650, 150)">
    <!-- 表面表現 -->
    <path d="M-100,0 C-80,-20 -50,-30 0,0 C50,30 80,40 100,60" fill="none" stroke="#3498db" stroke-width="3"/>
    <path d="M-100,60 C-80,40 -50,30 0,0 C50,-30 80,-40 100,-60" fill="none" stroke="#3498db" stroke-width="3"/>
    
    <!-- 鞍点の交差曲線 -->
    <path d="M-70,40 C-50,20 -30,10 0,0 C30,-10 50,-20 70,-40" fill="none" stroke="#3498db" stroke-width="2"/>
    <path d="M-70,-40 C-50,-20 -30,-10 0,0 C30,10 50,20 70,40" fill="none" stroke="#3498db" stroke-width="2"/>
    
    <!-- 3D効果を示す楕円 -->
    <ellipse cx="0" cy="0" rx="100" ry="30" fill="none" stroke="#3498db" stroke-width="2" stroke-dasharray="5,3"/>
    
    <!-- 臨界点 -->
    <circle cx="0" cy="0" r="6" fill="#e74c3c"/>
    
    <!-- ラベル -->
    <text x="0" y="130" font-family="Arial, 'Hiragino Kaku Gothic ProN', 'メイリオ', sans-serif" font-size="18" fill="#333" text-anchor="middle">
      鞍点
    </text>
    
    <!-- 座標軸 -->
    <line x1="-110" y1="0" x2="110" y2="0" stroke="#999" stroke-width="1"/>
    <line x1="0" y1="-70" x2="0" y2="110" stroke="#999" stroke-width="1"/>
  </g>
  
  <!-- 数学的表記 -->
  <g transform="translate(150, 320)">
    <text x="0" y="20" font-family="Arial, 'Hiragino Kaku Gothic ProN', 'メイリオ', sans-serif" font-size="16" fill="#555" text-anchor="middle">
      ∇f(x,y) = 0
    </text>
    <text x="0" y="45" font-family="Arial, 'Hiragino Kaku Gothic ProN', 'メイリオ', sans-serif" font-size="16" fill="#555" text-anchor="middle">
      f<tspan dy="5" font-size="12">xx</tspan> &lt; 0, f<tspan dy="5" font-size="12">yy</tspan> &lt; 0
    </text>
    <text x="0" y="70" font-family="Arial, 'Hiragino Kaku Gothic ProN', 'メイリオ', sans-serif" font-size="16" fill="#555" text-anchor="middle">
      f<tspan dy="5" font-size="12">xx</tspan>f<tspan dy="5" font-size="12">yy</tspan> - (f<tspan dy="5" font-size="12">xy</tspan>)<tspan dy="5" font-size="10">2</tspan> &gt; 0
    </text>
  </g>
  
  <g transform="translate(400, 320)">
    <text x="0" y="20" font-family="Arial, 'Hiragino Kaku Gothic ProN', 'メイリオ', sans-serif" font-size="16" fill="#555" text-anchor="middle">
      ∇f(x,y) = 0
    </text>
    <text x="0" y="45" font-family="Arial, 'Hiragino Kaku Gothic ProN', 'メイリオ', sans-serif" font-size="16" fill="#555" text-anchor="middle">
      f<tspan dy="5" font-size="12">xx</tspan> &gt; 0, f<tspan dy="5" font-size="12">yy</tspan> &gt; 0
    </text>
    <text x="0" y="70" font-family="Arial, 'Hiragino Kaku Gothic ProN', 'メイリオ', sans-serif" font-size="16" fill="#555" text-anchor="middle">
      f<tspan dy="5" font-size="12">xx</tspan>f<tspan dy="5" font-size="12">yy</tspan> - (f<tspan dy="5" font-size="12">xy</tspan>)<tspan dy="5" font-size="10">2</tspan> &gt; 0
    </text>
  </g>
  
  <g transform="translate(650, 320)">
    <text x="0" y="20" font-family="Arial, 'Hiragino Kaku Gothic ProN', 'メイリオ', sans-serif" font-size="16" fill="#555" text-anchor="middle">
      ∇f(x,y) = 0
    </text>
    <text x="0" y="45" font-family="Arial, 'Hiragino Kaku Gothic ProN', 'メイリオ', sans-serif" font-size="16" fill="#555" text-anchor="middle">
      f<tspan dy="5" font-size="12">xx</tspan>f<tspan dy="5" font-size="12">yy</tspan> &lt; 0
    </text>
    <text x="0" y="70" font-family="Arial, 'Hiragino Kaku Gothic ProN', 'メイリオ', sans-serif" font-size="16" fill="#555" text-anchor="middle">
      f<tspan dy="5" font-size="12">xx</tspan>f<tspan dy="5" font-size="12">yy</tspan> - (f<tspan dy="5" font-size="12">xy</tspan>)<tspan dy="5" font-size="10">2</tspan> &lt; 0
    </text>
  </g>
  
  <!-- 追加情報 -->
  <text x="400" y="440" font-family="Arial, 'Hiragino Kaku Gothic ProN', 'メイリオ', sans-serif" font-size="14" fill="#666" text-anchor="middle">
    すべての臨界点は ∇f(x,y) = 0 を満たします。臨界点の種類はヘッセ行列によって決定されます。
  </text>
  <text x="400" y="465" font-family="Arial, 'Hiragino Kaku Gothic ProN', 'メイリオ', sans-serif" font-size="14" fill="#666" text-anchor="middle">
    二階導関数テストにより上記の3つの場合が区別されます。
  </text>
</svg>