<svg xmlns="http://www.w3.org/2000/svg" width="760" height="420" viewBox="0 0 760 420" role="img" aria-label="f=|x|+y^2">

<defs>
  <marker id="arrow" viewBox="0 0 10 10" refX="8.5" refY="5" markerWidth="7" markerHeight="7" orient="auto-start-reverse">
    <path d="M 0 0 L 10 5 L 0 10 z" fill="#24323a"/>
  </marker>
</defs>

<style>
  text { font-family: Arial, sans-serif; }
</style>
<rect x="0" y="0" width="760" height="420" rx="18" fill="#ffffff"/>
<rect x="58" y="58" width="644" height="304" fill="#fbfcfe" stroke="#d8e1e8" stroke-width="1"/>
<line x1="58.0" y1="362.0" x2="58.0" y2="58.0" stroke="#edf0f3" stroke-width="0.8" fill="none"/>
<line x1="165.3" y1="362.0" x2="165.3" y2="58.0" stroke="#edf0f3" stroke-width="0.8" fill="none"/>
<line x1="272.7" y1="362.0" x2="272.7" y2="58.0" stroke="#edf0f3" stroke-width="0.8" fill="none"/>
<line x1="380.0" y1="362.0" x2="380.0" y2="58.0" stroke="#d9e0e7" stroke-width="1.35" fill="none"/>
<line x1="487.3" y1="362.0" x2="487.3" y2="58.0" stroke="#edf0f3" stroke-width="0.8" fill="none"/>
<line x1="594.7" y1="362.0" x2="594.7" y2="58.0" stroke="#edf0f3" stroke-width="0.8" fill="none"/>
<line x1="702.0" y1="362.0" x2="702.0" y2="58.0" stroke="#edf0f3" stroke-width="0.8" fill="none"/>
<line x1="58.0" y1="348.2" x2="702.0" y2="348.2" stroke="#edf0f3" stroke-width="0.8" fill="none"/>
<line x1="58.0" y1="279.1" x2="702.0" y2="279.1" stroke="#edf0f3" stroke-width="0.8" fill="none"/>
<line x1="58.0" y1="210.0" x2="702.0" y2="210.0" stroke="#d9e0e7" stroke-width="1.35" fill="none"/>
<line x1="58.0" y1="140.9" x2="702.0" y2="140.9" stroke="#edf0f3" stroke-width="0.8" fill="none"/>
<line x1="58.0" y1="71.8" x2="702.0" y2="71.8" stroke="#edf0f3" stroke-width="0.8" fill="none"/>
<line x1="58.0" y1="210.0" x2="702.0" y2="210.0" stroke="#24323a" stroke-width="1.4" fill="none" marker-end="url(#arrow)"/>
<line x1="380.0" y1="362.0" x2="380.0" y2="58.0" stroke="#24323a" stroke-width="1.4" fill="none" marker-end="url(#arrow)"/>
<text x="605.4" y="234.3" fill="#24323a" font-size="18" text-anchor="middle">x</text>
<text x="431.5" y="82.3" fill="#24323a" font-size="18" text-anchor="middle">y</text>
<text x="70" y="36" fill="#334" font-size="20">f=|x|+y^2</text>
<polyline points="380.0,258.9 380.9,258.4 381.8,258.0 382.7,257.6 383.5,257.2 384.4,256.8 385.3,256.4 386.1,256.0 386.9,255.6 387.8,255.2 388.6,254.8 389.4,254.4 390.2,253.9 391.0,253.5 391.8,253.1 392.6,252.7 393.4,252.3 394.2,251.9 394.9,251.5 395.7,251.1 396.5,250.7 397.2,250.3 397.9,249.9 398.7,249.5 399.4,249.0 400.1,248.6 400.8,248.2 401.5,247.8 402.2,247.4 402.9,247.0 403.6,246.6 404.2,246.2 404.9,245.8 405.5,245.4 406.2,245.0 406.8,244.5 407.5,244.1 408.1,243.7 408.7,243.3 409.3,242.9 409.9,242.5 410.5,242.1 411.1,241.7 411.7,241.3 412.2,240.9 412.8,240.5 413.4,240.0 413.9,239.6 414.5,239.2 415.0,238.8 415.5,238.4 416.0,238.0 416.5,237.6 417.0,237.2 417.5,236.8 418.0,236.4 418.5,236.0 419.0,235.6 419.5,235.1 419.9,234.7 420.4,234.3 420.8,233.9 421.2,233.5 421.7,233.1 422.1,232.7 422.5,232.3 422.9,231.9 423.3,231.5 423.7,231.1 424.1,230.6 424.5,230.2 424.8,229.8 425.2,229.4 425.5,229.0 425.9,228.6 426.2,228.2 426.6,227.8 426.9,227.4 427.2,227.0 427.5,226.6 427.8,226.1 428.1,225.7 428.4,225.3 428.7,224.9 428.9,224.5 429.2,224.1 429.4,223.7 429.7,223.3 429.9,222.9 430.2,222.5 430.4,222.1 430.6,221.7 430.8,221.2 431.0,220.8 431.2,220.4 431.4,220.0 431.6,219.6 431.8,219.2 431.9,218.8 432.1,218.4 432.2,218.0 432.4,217.6 432.5,217.2 432.6,216.7 432.8,216.3 432.9,215.9 433.0,215.5 433.1,215.1 433.2,214.7 433.3,214.3 433.3,213.9 433.4,213.5 433.5,213.1 433.5,212.7 433.6,212.2 433.6,211.8 433.6,211.4 433.6,211.0 433.7,210.6 433.7,210.2 433.7,209.8 433.7,209.4 433.6,209.0 433.6,208.6 433.6,208.2 433.6,207.8 433.5,207.3 433.5,206.9 433.4,206.5 433.3,206.1 433.3,205.7 433.2,205.3 433.1,204.9 433.0,204.5 432.9,204.1 432.8,203.7 432.6,203.3 432.5,202.8 432.4,202.4 432.2,202.0 432.1,201.6 431.9,201.2 431.8,200.8 431.6,200.4 431.4,200.0 431.2,199.6 431.0,199.2 430.8,198.8 430.6,198.3 430.4,197.9 430.2,197.5 429.9,197.1 429.7,196.7 429.4,196.3 429.2,195.9 428.9,195.5 428.7,195.1 428.4,194.7 428.1,194.3 427.8,193.9 427.5,193.4 427.2,193.0 426.9,192.6 426.6,192.2 426.2,191.8 425.9,191.4 425.5,191.0 425.2,190.6 424.8,190.2 424.5,189.8 424.1,189.4 423.7,188.9 423.3,188.5 422.9,188.1 422.5,187.7 422.1,187.3 421.7,186.9 421.2,186.5 420.8,186.1 420.4,185.7 419.9,185.3 419.5,184.9 419.0,184.4 418.5,184.0 418.0,183.6 417.5,183.2 417.0,182.8 416.5,182.4 416.0,182.0 415.5,181.6 415.0,181.2 414.5,180.8 413.9,180.4 413.4,180.0 412.8,179.5 412.2,179.1 411.7,178.7 411.1,178.3 410.5,177.9 409.9,177.5 409.3,177.1 408.7,176.7 408.1,176.3 407.5,175.9 406.8,175.5 406.2,175.0 405.5,174.6 404.9,174.2 404.2,173.8 403.6,173.4 402.9,173.0 402.2,172.6 401.5,172.2 400.8,171.8 400.1,171.4 399.4,171.0 398.7,170.5 397.9,170.1 397.2,169.7 396.5,169.3 395.7,168.9 394.9,168.5 394.2,168.1 393.4,167.7 392.6,167.3 391.8,166.9 391.0,166.5 390.2,166.1 389.4,165.6 388.6,165.2 387.8,164.8 386.9,164.4 386.1,164.0 385.3,163.6 384.4,163.2 383.5,162.8 382.7,162.4 381.8,162.0 380.9,161.6 380.0,161.1" fill="none" stroke="#8aa6c8" stroke-width="2.4" stroke-linecap="round" stroke-linejoin="round"/>
<polyline points="380.0,258.9 379.1,258.4 378.2,258.0 377.3,257.6 376.5,257.2 375.6,256.8 374.7,256.4 373.9,256.0 373.1,255.6 372.2,255.2 371.4,254.8 370.6,254.4 369.8,253.9 369.0,253.5 368.2,253.1 367.4,252.7 366.6,252.3 365.8,251.9 365.1,251.5 364.3,251.1 363.5,250.7 362.8,250.3 362.1,249.9 361.3,249.5 360.6,249.0 359.9,248.6 359.2,248.2 358.5,247.8 357.8,247.4 357.1,247.0 356.4,246.6 355.8,246.2 355.1,245.8 354.5,245.4 353.8,245.0 353.2,244.5 352.5,244.1 351.9,243.7 351.3,243.3 350.7,242.9 350.1,242.5 349.5,242.1 348.9,241.7 348.3,241.3 347.8,240.9 347.2,240.5 346.6,240.0 346.1,239.6 345.5,239.2 345.0,238.8 344.5,238.4 344.0,238.0 343.5,237.6 343.0,237.2 342.5,236.8 342.0,236.4 341.5,236.0 341.0,235.6 340.5,235.1 340.1,234.7 339.6,234.3 339.2,233.9 338.8,233.5 338.3,233.1 337.9,232.7 337.5,232.3 337.1,231.9 336.7,231.5 336.3,231.1 335.9,230.6 335.5,230.2 335.2,229.8 334.8,229.4 334.5,229.0 334.1,228.6 333.8,228.2 333.4,227.8 333.1,227.4 332.8,227.0 332.5,226.6 332.2,226.1 331.9,225.7 331.6,225.3 331.3,224.9 331.1,224.5 330.8,224.1 330.6,223.7 330.3,223.3 330.1,222.9 329.8,222.5 329.6,222.1 329.4,221.7 329.2,221.2 329.0,220.8 328.8,220.4 328.6,220.0 328.4,219.6 328.2,219.2 328.1,218.8 327.9,218.4 327.8,218.0 327.6,217.6 327.5,217.2 327.4,216.7 327.2,216.3 327.1,215.9 327.0,215.5 326.9,215.1 326.8,214.7 326.7,214.3 326.7,213.9 326.6,213.5 326.5,213.1 326.5,212.7 326.4,212.2 326.4,211.8 326.4,211.4 326.4,211.0 326.3,210.6 326.3,210.2 326.3,209.8 326.3,209.4 326.4,209.0 326.4,208.6 326.4,208.2 326.4,207.8 326.5,207.3 326.5,206.9 326.6,206.5 326.7,206.1 326.7,205.7 326.8,205.3 326.9,204.9 327.0,204.5 327.1,204.1 327.2,203.7 327.4,203.3 327.5,202.8 327.6,202.4 327.8,202.0 327.9,201.6 328.1,201.2 328.2,200.8 328.4,200.4 328.6,200.0 328.8,199.6 329.0,199.2 329.2,198.8 329.4,198.3 329.6,197.9 329.8,197.5 330.1,197.1 330.3,196.7 330.6,196.3 330.8,195.9 331.1,195.5 331.3,195.1 331.6,194.7 331.9,194.3 332.2,193.9 332.5,193.4 332.8,193.0 333.1,192.6 333.4,192.2 333.8,191.8 334.1,191.4 334.5,191.0 334.8,190.6 335.2,190.2 335.5,189.8 335.9,189.4 336.3,188.9 336.7,188.5 337.1,188.1 337.5,187.7 337.9,187.3 338.3,186.9 338.8,186.5 339.2,186.1 339.6,185.7 340.1,185.3 340.5,184.9 341.0,184.4 341.5,184.0 342.0,183.6 342.5,183.2 343.0,182.8 343.5,182.4 344.0,182.0 344.5,181.6 345.0,181.2 345.5,180.8 346.1,180.4 346.6,180.0 347.2,179.5 347.8,179.1 348.3,178.7 348.9,178.3 349.5,177.9 350.1,177.5 350.7,177.1 351.3,176.7 351.9,176.3 352.5,175.9 353.2,175.5 353.8,175.0 354.5,174.6 355.1,174.2 355.8,173.8 356.4,173.4 357.1,173.0 357.8,172.6 358.5,172.2 359.2,171.8 359.9,171.4 360.6,171.0 361.3,170.5 362.1,170.1 362.8,169.7 363.5,169.3 364.3,168.9 365.1,168.5 365.8,168.1 366.6,167.7 367.4,167.3 368.2,166.9 369.0,166.5 369.8,166.1 370.6,165.6 371.4,165.2 372.2,164.8 373.1,164.4 373.9,164.0 374.7,163.6 375.6,163.2 376.5,162.8 377.3,162.4 378.2,162.0 379.1,161.6 380.0,161.1" fill="none" stroke="#8aa6c8" stroke-width="2.4" stroke-linecap="round" stroke-linejoin="round"/>
<polyline points="380.0,279.1 381.8,278.5 383.6,277.9 385.3,277.4 387.1,276.8 388.8,276.2 390.5,275.6 392.2,275.0 393.9,274.5 395.6,273.9 397.2,273.3 398.9,272.7 400.5,272.2 402.1,271.6 403.7,271.0 405.3,270.4 406.8,269.8 408.4,269.3 409.9,268.7 411.4,268.1 412.9,267.5 414.4,266.9 415.9,266.4 417.3,265.8 418.8,265.2 420.2,264.6 421.6,264.1 423.0,263.5 424.4,262.9 425.8,262.3 427.1,261.7 428.5,261.2 429.8,260.6 431.1,260.0 432.4,259.4 433.7,258.9 434.9,258.3 436.2,257.7 437.4,257.1 438.6,256.5 439.8,256.0 441.0,255.4 442.2,254.8 443.3,254.2 444.5,253.7 445.6,253.1 446.7,252.5 447.8,251.9 448.9,251.3 450.0,250.8 451.0,250.2 452.1,249.6 453.1,249.0 454.1,248.4 455.1,247.9 456.1,247.3 457.0,246.7 458.0,246.1 458.9,245.6 459.8,245.0 460.7,244.4 461.6,243.8 462.5,243.2 463.3,242.7 464.2,242.1 465.0,241.5 465.8,240.9 466.6,240.4 467.4,239.8 468.2,239.2 468.9,238.6 469.7,238.0 470.4,237.5 471.1,236.9 471.8,236.3 472.4,235.7 473.1,235.2 473.8,234.6 474.4,234.0 475.0,233.4 475.6,232.8 476.2,232.3 476.8,231.7 477.3,231.1 477.9,230.5 478.4,229.9 478.9,229.4 479.4,228.8 479.9,228.2 480.3,227.6 480.8,227.1 481.2,226.5 481.6,225.9 482.1,225.3 482.4,224.7 482.8,224.2 483.2,223.6 483.5,223.0 483.9,222.4 484.2,221.9 484.5,221.3 484.8,220.7 485.0,220.1 485.3,219.5 485.5,219.0 485.8,218.4 486.0,217.8 486.2,217.2 486.3,216.6 486.5,216.1 486.7,215.5 486.8,214.9 486.9,214.3 487.0,213.8 487.1,213.2 487.2,212.6 487.2,212.0 487.3,211.4 487.3,210.9 487.3,210.3 487.3,209.7 487.3,209.1 487.3,208.6 487.2,208.0 487.2,207.4 487.1,206.8 487.0,206.2 486.9,205.7 486.8,205.1 486.7,204.5 486.5,203.9 486.3,203.4 486.2,202.8 486.0,202.2 485.8,201.6 485.5,201.0 485.3,200.5 485.0,199.9 484.8,199.3 484.5,198.7 484.2,198.1 483.9,197.6 483.5,197.0 483.2,196.4 482.8,195.8 482.4,195.3 482.1,194.7 481.6,194.1 481.2,193.5 480.8,192.9 480.3,192.4 479.9,191.8 479.4,191.2 478.9,190.6 478.4,190.1 477.9,189.5 477.3,188.9 476.8,188.3 476.2,187.7 475.6,187.2 475.0,186.6 474.4,186.0 473.8,185.4 473.1,184.8 472.4,184.3 471.8,183.7 471.1,183.1 470.4,182.5 469.7,182.0 468.9,181.4 468.2,180.8 467.4,180.2 466.6,179.6 465.8,179.1 465.0,178.5 464.2,177.9 463.3,177.3 462.5,176.8 461.6,176.2 460.7,175.6 459.8,175.0 458.9,174.4 458.0,173.9 457.0,173.3 456.1,172.7 455.1,172.1 454.1,171.6 453.1,171.0 452.1,170.4 451.0,169.8 450.0,169.2 448.9,168.7 447.8,168.1 446.7,167.5 445.6,166.9 444.5,166.3 443.3,165.8 442.2,165.2 441.0,164.6 439.8,164.0 438.6,163.5 437.4,162.9 436.2,162.3 434.9,161.7 433.7,161.1 432.4,160.6 431.1,160.0 429.8,159.4 428.5,158.8 427.1,158.3 425.8,157.7 424.4,157.1 423.0,156.5 421.6,155.9 420.2,155.4 418.8,154.8 417.3,154.2 415.9,153.6 414.4,153.1 412.9,152.5 411.4,151.9 409.9,151.3 408.4,150.7 406.8,150.2 405.3,149.6 403.7,149.0 402.1,148.4 400.5,147.8 398.9,147.3 397.2,146.7 395.6,146.1 393.9,145.5 392.2,145.0 390.5,144.4 388.8,143.8 387.1,143.2 385.3,142.6 383.6,142.1 381.8,141.5 380.0,140.9" fill="none" stroke="#487eb0" stroke-width="2.4" stroke-linecap="round" stroke-linejoin="round"/>
<polyline points="380.0,279.1 378.2,278.5 376.4,277.9 374.7,277.4 372.9,276.8 371.2,276.2 369.5,275.6 367.8,275.0 366.1,274.5 364.4,273.9 362.8,273.3 361.1,272.7 359.5,272.2 357.9,271.6 356.3,271.0 354.7,270.4 353.2,269.8 351.6,269.3 350.1,268.7 348.6,268.1 347.1,267.5 345.6,266.9 344.1,266.4 342.7,265.8 341.2,265.2 339.8,264.6 338.4,264.1 337.0,263.5 335.6,262.9 334.2,262.3 332.9,261.7 331.5,261.2 330.2,260.6 328.9,260.0 327.6,259.4 326.3,258.9 325.1,258.3 323.8,257.7 322.6,257.1 321.4,256.5 320.2,256.0 319.0,255.4 317.8,254.8 316.7,254.2 315.5,253.7 314.4,253.1 313.3,252.5 312.2,251.9 311.1,251.3 310.0,250.8 309.0,250.2 307.9,249.6 306.9,249.0 305.9,248.4 304.9,247.9 303.9,247.3 303.0,246.7 302.0,246.1 301.1,245.6 300.2,245.0 299.3,244.4 298.4,243.8 297.5,243.2 296.7,242.7 295.8,242.1 295.0,241.5 294.2,240.9 293.4,240.4 292.6,239.8 291.8,239.2 291.1,238.6 290.3,238.0 289.6,237.5 288.9,236.9 288.2,236.3 287.6,235.7 286.9,235.2 286.2,234.6 285.6,234.0 285.0,233.4 284.4,232.8 283.8,232.3 283.2,231.7 282.7,231.1 282.1,230.5 281.6,229.9 281.1,229.4 280.6,228.8 280.1,228.2 279.7,227.6 279.2,227.1 278.8,226.5 278.4,225.9 277.9,225.3 277.6,224.7 277.2,224.2 276.8,223.6 276.5,223.0 276.1,222.4 275.8,221.9 275.5,221.3 275.2,220.7 275.0,220.1 274.7,219.5 274.5,219.0 274.2,218.4 274.0,217.8 273.8,217.2 273.7,216.6 273.5,216.1 273.3,215.5 273.2,214.9 273.1,214.3 273.0,213.8 272.9,213.2 272.8,212.6 272.8,212.0 272.7,211.4 272.7,210.9 272.7,210.3 272.7,209.7 272.7,209.1 272.7,208.6 272.8,208.0 272.8,207.4 272.9,206.8 273.0,206.2 273.1,205.7 273.2,205.1 273.3,204.5 273.5,203.9 273.7,203.4 273.8,202.8 274.0,202.2 274.2,201.6 274.5,201.0 274.7,200.5 275.0,199.9 275.2,199.3 275.5,198.7 275.8,198.1 276.1,197.6 276.5,197.0 276.8,196.4 277.2,195.8 277.6,195.3 277.9,194.7 278.4,194.1 278.8,193.5 279.2,192.9 279.7,192.4 280.1,191.8 280.6,191.2 281.1,190.6 281.6,190.1 282.1,189.5 282.7,188.9 283.2,188.3 283.8,187.7 284.4,187.2 285.0,186.6 285.6,186.0 286.2,185.4 286.9,184.8 287.6,184.3 288.2,183.7 288.9,183.1 289.6,182.5 290.3,182.0 291.1,181.4 291.8,180.8 292.6,180.2 293.4,179.6 294.2,179.1 295.0,178.5 295.8,177.9 296.7,177.3 297.5,176.8 298.4,176.2 299.3,175.6 300.2,175.0 301.1,174.4 302.0,173.9 303.0,173.3 303.9,172.7 304.9,172.1 305.9,171.6 306.9,171.0 307.9,170.4 309.0,169.8 310.0,169.2 311.1,168.7 312.2,168.1 313.3,167.5 314.4,166.9 315.5,166.3 316.7,165.8 317.8,165.2 319.0,164.6 320.2,164.0 321.4,163.5 322.6,162.9 323.8,162.3 325.1,161.7 326.3,161.1 327.6,160.6 328.9,160.0 330.2,159.4 331.5,158.8 332.9,158.3 334.2,157.7 335.6,157.1 337.0,156.5 338.4,155.9 339.8,155.4 341.2,154.8 342.7,154.2 344.1,153.6 345.6,153.1 347.1,152.5 348.6,151.9 350.1,151.3 351.6,150.7 353.2,150.2 354.7,149.6 356.3,149.0 357.9,148.4 359.5,147.8 361.1,147.3 362.8,146.7 364.4,146.1 366.1,145.5 367.8,145.0 369.5,144.4 371.2,143.8 372.9,143.2 374.7,142.6 376.4,142.1 378.2,141.5 380.0,140.9" fill="none" stroke="#487eb0" stroke-width="2.4" stroke-linecap="round" stroke-linejoin="round"/>
<polyline points="380.0,307.7 383.6,306.9 387.1,306.1 390.6,305.3 394.1,304.4 397.6,303.6 401.0,302.8 404.4,302.0 407.8,301.2 411.1,300.4 414.4,299.5 417.7,298.7 420.9,297.9 424.2,297.1 427.4,296.3 430.5,295.4 433.6,294.6 436.7,293.8 439.8,293.0 442.8,292.2 445.8,291.4 448.8,290.5 451.8,289.7 454.7,288.9 457.6,288.1 460.4,287.3 463.2,286.5 466.0,285.6 468.8,284.8 471.5,284.0 474.3,283.2 476.9,282.4 479.6,281.5 482.2,280.7 484.8,279.9 487.3,279.1 489.9,278.3 492.4,277.5 494.8,276.6 497.3,275.8 499.7,275.0 502.0,274.2 504.4,273.4 506.7,272.6 509.0,271.7 511.2,270.9 513.5,270.1 515.7,269.3 517.8,268.5 520.0,267.6 522.1,266.8 524.1,266.0 526.2,265.2 528.2,264.4 530.2,263.6 532.1,262.7 534.1,261.9 535.9,261.1 537.8,260.3 539.6,259.5 541.4,258.7 543.2,257.8 545.0,257.0 546.7,256.2 548.4,255.4 550.0,254.6 551.6,253.7 553.2,252.9 554.8,252.1 556.3,251.3 557.8,250.5 559.3,249.7 560.7,248.8 562.2,248.0 563.5,247.2 564.9,246.4 566.2,245.6 567.5,244.8 568.8,243.9 570.0,243.1 571.2,242.3 572.4,241.5 573.5,240.7 574.6,239.8 575.7,239.0 576.8,238.2 577.8,237.4 578.8,236.6 579.8,235.8 580.7,234.9 581.6,234.1 582.5,233.3 583.3,232.5 584.1,231.7 584.9,230.9 585.6,230.0 586.4,229.2 587.1,228.4 587.7,227.6 588.3,226.8 589.0,225.9 589.5,225.1 590.1,224.3 590.6,223.5 591.1,222.7 591.5,221.9 591.9,221.0 592.3,220.2 592.7,219.4 593.0,218.6 593.3,217.8 593.6,217.0 593.8,216.1 594.0,215.3 594.2,214.5 594.4,213.7 594.5,212.9 594.6,212.0 594.6,211.2 594.7,210.4 594.7,209.6 594.6,208.8 594.6,208.0 594.5,207.1 594.4,206.3 594.2,205.5 594.0,204.7 593.8,203.9 593.6,203.0 593.3,202.2 593.0,201.4 592.7,200.6 592.3,199.8 591.9,199.0 591.5,198.1 591.1,197.3 590.6,196.5 590.1,195.7 589.5,194.9 589.0,194.1 588.3,193.2 587.7,192.4 587.1,191.6 586.4,190.8 585.6,190.0 584.9,189.1 584.1,188.3 583.3,187.5 582.5,186.7 581.6,185.9 580.7,185.1 579.8,184.2 578.8,183.4 577.8,182.6 576.8,181.8 575.7,181.0 574.6,180.2 573.5,179.3 572.4,178.5 571.2,177.7 570.0,176.9 568.8,176.1 567.5,175.2 566.2,174.4 564.9,173.6 563.5,172.8 562.2,172.0 560.7,171.2 559.3,170.3 557.8,169.5 556.3,168.7 554.8,167.9 553.2,167.1 551.6,166.3 550.0,165.4 548.4,164.6 546.7,163.8 545.0,163.0 543.2,162.2 541.4,161.3 539.6,160.5 537.8,159.7 535.9,158.9 534.1,158.1 532.1,157.3 530.2,156.4 528.2,155.6 526.2,154.8 524.1,154.0 522.1,153.2 520.0,152.4 517.8,151.5 515.7,150.7 513.5,149.9 511.2,149.1 509.0,148.3 506.7,147.4 504.4,146.6 502.0,145.8 499.7,145.0 497.3,144.2 494.8,143.4 492.4,142.5 489.9,141.7 487.3,140.9 484.8,140.1 482.2,139.3 479.6,138.5 476.9,137.6 474.3,136.8 471.5,136.0 468.8,135.2 466.0,134.4 463.2,133.5 460.4,132.7 457.6,131.9 454.7,131.1 451.8,130.3 448.8,129.5 445.8,128.6 442.8,127.8 439.8,127.0 436.7,126.2 433.6,125.4 430.5,124.6 427.4,123.7 424.2,122.9 420.9,122.1 417.7,121.3 414.4,120.5 411.1,119.6 407.8,118.8 404.4,118.0 401.0,117.2 397.6,116.4 394.1,115.6 390.6,114.7 387.1,113.9 383.6,113.1 380.0,112.3" fill="none" stroke="#2c8c7c" stroke-width="2.4" stroke-linecap="round" stroke-linejoin="round"/>
<polyline points="380.0,307.7 376.4,306.9 372.9,306.1 369.4,305.3 365.9,304.4 362.4,303.6 359.0,302.8 355.6,302.0 352.2,301.2 348.9,300.4 345.6,299.5 342.3,298.7 339.1,297.9 335.8,297.1 332.6,296.3 329.5,295.4 326.4,294.6 323.3,293.8 320.2,293.0 317.2,292.2 314.2,291.4 311.2,290.5 308.2,289.7 305.3,288.9 302.4,288.1 299.6,287.3 296.8,286.5 294.0,285.6 291.2,284.8 288.5,284.0 285.7,283.2 283.1,282.4 280.4,281.5 277.8,280.7 275.2,279.9 272.7,279.1 270.1,278.3 267.6,277.5 265.2,276.6 262.7,275.8 260.3,275.0 258.0,274.2 255.6,273.4 253.3,272.6 251.0,271.7 248.8,270.9 246.5,270.1 244.3,269.3 242.2,268.5 240.0,267.6 237.9,266.8 235.9,266.0 233.8,265.2 231.8,264.4 229.8,263.6 227.9,262.7 225.9,261.9 224.1,261.1 222.2,260.3 220.4,259.5 218.6,258.7 216.8,257.8 215.0,257.0 213.3,256.2 211.6,255.4 210.0,254.6 208.4,253.7 206.8,252.9 205.2,252.1 203.7,251.3 202.2,250.5 200.7,249.7 199.3,248.8 197.8,248.0 196.5,247.2 195.1,246.4 193.8,245.6 192.5,244.8 191.2,243.9 190.0,243.1 188.8,242.3 187.6,241.5 186.5,240.7 185.4,239.8 184.3,239.0 183.2,238.2 182.2,237.4 181.2,236.6 180.2,235.8 179.3,234.9 178.4,234.1 177.5,233.3 176.7,232.5 175.9,231.7 175.1,230.9 174.4,230.0 173.6,229.2 172.9,228.4 172.3,227.6 171.7,226.8 171.0,225.9 170.5,225.1 169.9,224.3 169.4,223.5 168.9,222.7 168.5,221.9 168.1,221.0 167.7,220.2 167.3,219.4 167.0,218.6 166.7,217.8 166.4,217.0 166.2,216.1 166.0,215.3 165.8,214.5 165.6,213.7 165.5,212.9 165.4,212.0 165.4,211.2 165.3,210.4 165.3,209.6 165.4,208.8 165.4,208.0 165.5,207.1 165.6,206.3 165.8,205.5 166.0,204.7 166.2,203.9 166.4,203.0 166.7,202.2 167.0,201.4 167.3,200.6 167.7,199.8 168.1,199.0 168.5,198.1 168.9,197.3 169.4,196.5 169.9,195.7 170.5,194.9 171.0,194.1 171.7,193.2 172.3,192.4 172.9,191.6 173.6,190.8 174.4,190.0 175.1,189.1 175.9,188.3 176.7,187.5 177.5,186.7 178.4,185.9 179.3,185.1 180.2,184.2 181.2,183.4 182.2,182.6 183.2,181.8 184.3,181.0 185.4,180.2 186.5,179.3 187.6,178.5 188.8,177.7 190.0,176.9 191.2,176.1 192.5,175.2 193.8,174.4 195.1,173.6 196.5,172.8 197.8,172.0 199.3,171.2 200.7,170.3 202.2,169.5 203.7,168.7 205.2,167.9 206.8,167.1 208.4,166.3 210.0,165.4 211.6,164.6 213.3,163.8 215.0,163.0 216.8,162.2 218.6,161.3 220.4,160.5 222.2,159.7 224.1,158.9 225.9,158.1 227.9,157.3 229.8,156.4 231.8,155.6 233.8,154.8 235.9,154.0 237.9,153.2 240.0,152.4 242.2,151.5 244.3,150.7 246.5,149.9 248.8,149.1 251.0,148.3 253.3,147.4 255.6,146.6 258.0,145.8 260.3,145.0 262.7,144.2 265.2,143.4 267.6,142.5 270.1,141.7 272.7,140.9 275.2,140.1 277.8,139.3 280.4,138.5 283.1,137.6 285.7,136.8 288.5,136.0 291.2,135.2 294.0,134.4 296.8,133.5 299.6,132.7 302.4,131.9 305.3,131.1 308.2,130.3 311.2,129.5 314.2,128.6 317.2,127.8 320.2,127.0 323.3,126.2 326.4,125.4 329.5,124.6 332.6,123.7 335.8,122.9 339.1,122.1 342.3,121.3 345.6,120.5 348.9,119.6 352.2,118.8 355.6,118.0 359.0,117.2 362.4,116.4 365.9,115.6 369.4,114.7 372.9,113.9 376.4,113.1 380.0,112.3" fill="none" stroke="#2c8c7c" stroke-width="2.4" stroke-linecap="round" stroke-linejoin="round"/>
<polyline points="380.0,329.7 385.4,328.7 390.7,327.7 396.0,326.7 401.2,325.7 406.4,324.7 411.5,323.7 416.6,322.7 421.7,321.7 426.7,320.7 431.6,319.7 436.6,318.7 441.4,317.7 446.2,316.7 451.0,315.6 455.8,314.6 460.5,313.6 465.1,312.6 469.7,311.6 474.3,310.6 478.8,309.6 483.2,308.6 487.6,307.6 492.0,306.6 496.4,305.6 500.6,304.6 504.9,303.6 509.1,302.6 513.2,301.6 517.3,300.6 521.4,299.6 525.4,298.6 529.4,297.6 533.3,296.6 537.2,295.6 541.0,294.6 544.8,293.6 548.5,292.6 552.2,291.6 555.9,290.6 559.5,289.6 563.0,288.6 566.6,287.6 570.0,286.6 573.5,285.6 576.8,284.6 580.2,283.6 583.5,282.6 586.7,281.6 589.9,280.6 593.1,279.6 596.2,278.6 599.3,277.6 602.3,276.6 605.3,275.6 608.2,274.6 611.1,273.6 613.9,272.6 616.7,271.6 619.5,270.6 622.2,269.6 624.8,268.6 627.4,267.6 630.0,266.6 632.5,265.6 635.0,264.6 637.5,263.6 639.9,262.6 642.2,261.6 644.5,260.6 646.8,259.6 649.0,258.6 651.1,257.6 653.2,256.6 655.3,255.6 657.3,254.6 659.3,253.6 661.3,252.6 663.2,251.6 665.0,250.6 666.8,249.6 668.6,248.6 670.3,247.6 672.0,246.6 673.6,245.6 675.2,244.5 676.7,243.5 678.2,242.5 679.6,241.5 681.0,240.5 682.4,239.5 683.7,238.5 684.9,237.5 686.2,236.5 687.3,235.5 688.5,234.5 689.5,233.5 690.6,232.5 691.6,231.5 692.5,230.5 693.4,229.5 694.3,228.5 695.1,227.5 695.9,226.5 696.6,225.5 697.3,224.5 697.9,223.5 698.5,222.5 699.0,221.5 699.5,220.5 700.0,219.5 700.4,218.5 700.7,217.5 701.0,216.5 701.3,215.5 701.5,214.5 701.7,213.5 701.9,212.5 701.9,211.5 702.0,210.5 702.0,209.5 701.9,208.5 701.9,207.5 701.7,206.5 701.5,205.5 701.3,204.5 701.0,203.5 700.7,202.5 700.4,201.5 700.0,200.5 699.5,199.5 699.0,198.5 698.5,197.5 697.9,196.5 697.3,195.5 696.6,194.5 695.9,193.5 695.1,192.5 694.3,191.5 693.4,190.5 692.5,189.5 691.6,188.5 690.6,187.5 689.5,186.5 688.5,185.5 687.3,184.5 686.2,183.5 684.9,182.5 683.7,181.5 682.4,180.5 681.0,179.5 679.6,178.5 678.2,177.5 676.7,176.5 675.2,175.5 673.6,174.4 672.0,173.4 670.3,172.4 668.6,171.4 666.8,170.4 665.0,169.4 663.2,168.4 661.3,167.4 659.3,166.4 657.3,165.4 655.3,164.4 653.2,163.4 651.1,162.4 649.0,161.4 646.8,160.4 644.5,159.4 642.2,158.4 639.9,157.4 637.5,156.4 635.0,155.4 632.5,154.4 630.0,153.4 627.4,152.4 624.8,151.4 622.2,150.4 619.5,149.4 616.7,148.4 613.9,147.4 611.1,146.4 608.2,145.4 605.3,144.4 602.3,143.4 599.3,142.4 596.2,141.4 593.1,140.4 589.9,139.4 586.7,138.4 583.5,137.4 580.2,136.4 576.8,135.4 573.5,134.4 570.0,133.4 566.6,132.4 563.0,131.4 559.5,130.4 555.9,129.4 552.2,128.4 548.5,127.4 544.8,126.4 541.0,125.4 537.2,124.4 533.3,123.4 529.4,122.4 525.4,121.4 521.4,120.4 517.3,119.4 513.2,118.4 509.1,117.4 504.9,116.4 500.6,115.4 496.4,114.4 492.0,113.4 487.6,112.4 483.2,111.4 478.8,110.4 474.3,109.4 469.7,108.4 465.1,107.4 460.5,106.4 455.8,105.4 451.0,104.4 446.2,103.3 441.4,102.3 436.6,101.3 431.6,100.3 426.7,99.3 421.7,98.3 416.6,97.3 411.5,96.3 406.4,95.3 401.2,94.3 396.0,93.3 390.7,92.3 385.4,91.3 380.0,90.3" fill="none" stroke="#c92331" stroke-width="2.4" stroke-linecap="round" stroke-linejoin="round"/>
<polyline points="380.0,329.7 374.6,328.7 369.3,327.7 364.0,326.7 358.8,325.7 353.6,324.7 348.5,323.7 343.4,322.7 338.3,321.7 333.3,320.7 328.4,319.7 323.4,318.7 318.6,317.7 313.8,316.7 309.0,315.6 304.2,314.6 299.5,313.6 294.9,312.6 290.3,311.6 285.7,310.6 281.2,309.6 276.8,308.6 272.4,307.6 268.0,306.6 263.6,305.6 259.4,304.6 255.1,303.6 250.9,302.6 246.8,301.6 242.7,300.6 238.6,299.6 234.6,298.6 230.6,297.6 226.7,296.6 222.8,295.6 219.0,294.6 215.2,293.6 211.5,292.6 207.8,291.6 204.1,290.6 200.5,289.6 197.0,288.6 193.4,287.6 190.0,286.6 186.5,285.6 183.2,284.6 179.8,283.6 176.5,282.6 173.3,281.6 170.1,280.6 166.9,279.6 163.8,278.6 160.7,277.6 157.7,276.6 154.7,275.6 151.8,274.6 148.9,273.6 146.1,272.6 143.3,271.6 140.5,270.6 137.8,269.6 135.2,268.6 132.6,267.6 130.0,266.6 127.5,265.6 125.0,264.6 122.5,263.6 120.1,262.6 117.8,261.6 115.5,260.6 113.2,259.6 111.0,258.6 108.9,257.6 106.8,256.6 104.7,255.6 102.7,254.6 100.7,253.6 98.7,252.6 96.8,251.6 95.0,250.6 93.2,249.6 91.4,248.6 89.7,247.6 88.0,246.6 86.4,245.6 84.8,244.5 83.3,243.5 81.8,242.5 80.4,241.5 79.0,240.5 77.6,239.5 76.3,238.5 75.1,237.5 73.8,236.5 72.7,235.5 71.5,234.5 70.5,233.5 69.4,232.5 68.4,231.5 67.5,230.5 66.6,229.5 65.7,228.5 64.9,227.5 64.1,226.5 63.4,225.5 62.7,224.5 62.1,223.5 61.5,222.5 61.0,221.5 60.5,220.5 60.0,219.5 59.6,218.5 59.3,217.5 59.0,216.5 58.7,215.5 58.5,214.5 58.3,213.5 58.1,212.5 58.1,211.5 58.0,210.5 58.0,209.5 58.1,208.5 58.1,207.5 58.3,206.5 58.5,205.5 58.7,204.5 59.0,203.5 59.3,202.5 59.6,201.5 60.0,200.5 60.5,199.5 61.0,198.5 61.5,197.5 62.1,196.5 62.7,195.5 63.4,194.5 64.1,193.5 64.9,192.5 65.7,191.5 66.6,190.5 67.5,189.5 68.4,188.5 69.4,187.5 70.5,186.5 71.5,185.5 72.7,184.5 73.8,183.5 75.1,182.5 76.3,181.5 77.6,180.5 79.0,179.5 80.4,178.5 81.8,177.5 83.3,176.5 84.8,175.5 86.4,174.4 88.0,173.4 89.7,172.4 91.4,171.4 93.2,170.4 95.0,169.4 96.8,168.4 98.7,167.4 100.7,166.4 102.7,165.4 104.7,164.4 106.8,163.4 108.9,162.4 111.0,161.4 113.2,160.4 115.5,159.4 117.8,158.4 120.1,157.4 122.5,156.4 125.0,155.4 127.5,154.4 130.0,153.4 132.6,152.4 135.2,151.4 137.8,150.4 140.5,149.4 143.3,148.4 146.1,147.4 148.9,146.4 151.8,145.4 154.7,144.4 157.7,143.4 160.7,142.4 163.8,141.4 166.9,140.4 170.1,139.4 173.3,138.4 176.5,137.4 179.8,136.4 183.2,135.4 186.5,134.4 190.0,133.4 193.4,132.4 197.0,131.4 200.5,130.4 204.1,129.4 207.8,128.4 211.5,127.4 215.2,126.4 219.0,125.4 222.8,124.4 226.7,123.4 230.6,122.4 234.6,121.4 238.6,120.4 242.7,119.4 246.8,118.4 250.9,117.4 255.1,116.4 259.4,115.4 263.6,114.4 268.0,113.4 272.4,112.4 276.8,111.4 281.2,110.4 285.7,109.4 290.3,108.4 294.9,107.4 299.5,106.4 304.2,105.4 309.0,104.4 313.8,103.3 318.6,102.3 323.4,101.3 328.4,100.3 333.3,99.3 338.3,98.3 343.4,97.3 348.5,96.3 353.6,95.3 358.8,94.3 364.0,93.3 369.3,92.3 374.6,91.3 380.0,90.3" fill="none" stroke="#c92331" stroke-width="2.4" stroke-linecap="round" stroke-linejoin="round"/>
<text x="417.6" y="82.2" fill="#c92331" font-size="16" text-anchor="middle">fold along x=0</text>
</svg>
