<svg xmlns="http://www.w3.org/2000/svg" width="760" height="420" viewBox="0 0 760 420" role="img" aria-label="f=x^2+xy+y^2">

<defs>
  <marker id="arrow" viewBox="0 0 10 10" refX="8.5" refY="5" markerWidth="7" markerHeight="7" orient="auto-start-reverse">
    <path d="M 0 0 L 10 5 L 0 10 z" fill="#24323a"/>
  </marker>
</defs>

<style>
  text { font-family: Arial, sans-serif; }
</style>
<rect x="0" y="0" width="760" height="420" rx="18" fill="#ffffff"/>
<rect x="58" y="58" width="644" height="304" fill="#fbfcfe" stroke="#d8e1e8" stroke-width="1"/>
<line x1="58.0" y1="362.0" x2="58.0" y2="58.0" stroke="#edf0f3" stroke-width="0.8" fill="none"/>
<line x1="165.3" y1="362.0" x2="165.3" y2="58.0" stroke="#edf0f3" stroke-width="0.8" fill="none"/>
<line x1="272.7" y1="362.0" x2="272.7" y2="58.0" stroke="#edf0f3" stroke-width="0.8" fill="none"/>
<line x1="380.0" y1="362.0" x2="380.0" y2="58.0" stroke="#d9e0e7" stroke-width="1.35" fill="none"/>
<line x1="487.3" y1="362.0" x2="487.3" y2="58.0" stroke="#edf0f3" stroke-width="0.8" fill="none"/>
<line x1="594.7" y1="362.0" x2="594.7" y2="58.0" stroke="#edf0f3" stroke-width="0.8" fill="none"/>
<line x1="702.0" y1="362.0" x2="702.0" y2="58.0" stroke="#edf0f3" stroke-width="0.8" fill="none"/>
<line x1="58.0" y1="362.0" x2="702.0" y2="362.0" stroke="#edf0f3" stroke-width="0.8" fill="none"/>
<line x1="58.0" y1="311.3" x2="702.0" y2="311.3" stroke="#edf0f3" stroke-width="0.8" fill="none"/>
<line x1="58.0" y1="260.7" x2="702.0" y2="260.7" stroke="#edf0f3" stroke-width="0.8" fill="none"/>
<line x1="58.0" y1="210.0" x2="702.0" y2="210.0" stroke="#d9e0e7" stroke-width="1.35" fill="none"/>
<line x1="58.0" y1="159.3" x2="702.0" y2="159.3" stroke="#edf0f3" stroke-width="0.8" fill="none"/>
<line x1="58.0" y1="108.7" x2="702.0" y2="108.7" stroke="#edf0f3" stroke-width="0.8" fill="none"/>
<line x1="58.0" y1="58.0" x2="702.0" y2="58.0" stroke="#edf0f3" stroke-width="0.8" fill="none"/>
<line x1="58.0" y1="210.0" x2="702.0" y2="210.0" stroke="#24323a" stroke-width="1.4" fill="none" marker-end="url(#arrow)"/>
<line x1="380.0" y1="362.0" x2="380.0" y2="58.0" stroke="#24323a" stroke-width="1.4" fill="none" marker-end="url(#arrow)"/>
<text x="605.4" y="234.3" fill="#24323a" font-size="18" text-anchor="middle">x</text>
<text x="431.5" y="82.3" fill="#24323a" font-size="18" text-anchor="middle">y</text>
<text x="70" y="36" fill="#334" font-size="20">f=x^2+xy+y^2</text>
<polyline points="531.8,210.0 530.5,208.8 529.1,207.5 527.8,206.3 526.4,205.2 525.0,204.0 523.7,202.9 522.3,201.8 520.9,200.7 519.5,199.6 518.1,198.5 516.7,197.5 515.3,196.4 513.9,195.4 512.5,194.4 511.1,193.4 509.7,192.4 508.3,191.5 506.9,190.5 505.5,189.6 504.1,188.7 502.7,187.8 501.2,186.9 499.8,186.0 498.4,185.1 497.0,184.3 495.6,183.4 494.1,182.6 492.7,181.7 491.3,180.9 489.8,180.1 488.4,179.3 486.9,178.5 485.5,177.7 484.0,176.9 482.6,176.1 481.1,175.3 479.6,174.6 478.2,173.8 476.7,173.0 475.2,172.3 473.7,171.6 472.2,170.8 470.7,170.1 469.2,169.4 467.6,168.6 466.1,167.9 464.6,167.2 463.0,166.5 461.4,165.8 459.9,165.1 458.3,164.4 456.7,163.7 455.1,163.0 453.5,162.3 451.8,161.6 450.2,160.9 448.5,160.2 446.8,159.5 445.1,158.8 443.4,158.2 441.7,157.5 439.9,156.8 438.1,156.1 436.4,155.5 434.5,154.8 432.7,154.1 430.9,153.4 429.0,152.8 427.1,152.1 425.2,151.4 423.2,150.8 421.2,150.1 419.2,149.4 417.2,148.8 415.1,148.1 413.0,147.4 410.9,146.8 408.8,146.1 406.6,145.4 404.4,144.8 402.1,144.1 399.8,143.5 397.5,142.8 395.1,142.2 392.7,141.5 390.2,140.9 387.7,140.2 385.2,139.6 382.6,139.0 380.0,138.3 377.3,137.7 374.6,137.1 371.8,136.5 369.0,135.9 366.2,135.3 363.2,134.7 360.3,134.1 357.2,133.6 354.2,133.0 351.1,132.5 347.9,132.0 344.6,131.5 341.4,131.0 338.0,130.5 334.6,130.1 331.2,129.7 327.7,129.3 324.2,128.9 320.6,128.6 317.0,128.3 313.3,128.0 309.6,127.8 305.9,127.6 302.1,127.4 298.3,127.3 294.5,127.3 290.7,127.3 286.9,127.3 283.0,127.4 279.2,127.6 275.4,127.8 271.6,128.1 267.8,128.5 264.1,128.9 260.4,129.4 256.8,130.0 253.2,130.6 249.8,131.3 246.4,132.1 243.1,133.0 239.8,133.9 236.8,134.9 233.8,136.0 230.9,137.1 228.2,138.3 225.6,139.6 223.2,141.0 220.9,142.4 218.8,143.8 216.8,145.4 215.0,146.9 213.3,148.5 211.8,150.2 210.4,151.8 209.2,153.6 208.2,155.3 207.3,157.1 206.5,158.8 205.9,160.6 205.4,162.4 205.1,164.2 204.8,166.0 204.7,167.8 204.7,169.6 204.9,171.4 205.1,173.2 205.4,175.0 205.8,176.8 206.3,178.5 206.8,180.3 207.5,182.0 208.2,183.6 209.0,185.3 209.8,187.0 210.7,188.6 211.6,190.2 212.6,191.8 213.6,193.3 214.7,194.8 215.8,196.3 217.0,197.8 218.1,199.3 219.3,200.7 220.5,202.1 221.8,203.5 223.0,204.8 224.3,206.1 225.6,207.5 226.9,208.7 228.2,210.0 229.5,211.2 230.9,212.5 232.2,213.7 233.6,214.8 235.0,216.0 236.3,217.1 237.7,218.2 239.1,219.3 240.5,220.4 241.9,221.5 243.3,222.5 244.7,223.6 246.1,224.6 247.5,225.6 248.9,226.6 250.3,227.6 251.7,228.5 253.1,229.5 254.5,230.4 255.9,231.3 257.3,232.2 258.8,233.1 260.2,234.0 261.6,234.9 263.0,235.7 264.4,236.6 265.9,237.4 267.3,238.3 268.7,239.1 270.2,239.9 271.6,240.7 273.1,241.5 274.5,242.3 276.0,243.1 277.4,243.9 278.9,244.7 280.4,245.4 281.8,246.2 283.3,247.0 284.8,247.7 286.3,248.4 287.8,249.2 289.3,249.9 290.8,250.6 292.4,251.4 293.9,252.1 295.4,252.8 297.0,253.5 298.6,254.2 300.1,254.9 301.7,255.6 303.3,256.3 304.9,257.0 306.5,257.7 308.2,258.4 309.8,259.1 311.5,259.8 313.2,260.5 314.9,261.2 316.6,261.8 318.3,262.5 320.1,263.2 321.9,263.9 323.6,264.5 325.5,265.2 327.3,265.9 329.1,266.6 331.0,267.2 332.9,267.9 334.8,268.6 336.8,269.2 338.8,269.9 340.8,270.6 342.8,271.2 344.9,271.9 347.0,272.6 349.1,273.2 351.2,273.9 353.4,274.6 355.6,275.2 357.9,275.9 360.2,276.5 362.5,277.2 364.9,277.8 367.3,278.5 369.8,279.1 372.3,279.8 374.8,280.4 377.4,281.0 380.0,281.7 382.7,282.3 385.4,282.9 388.2,283.5 391.0,284.1 393.8,284.7 396.8,285.3 399.7,285.9 402.8,286.4 405.8,287.0 408.9,287.5 412.1,288.0 415.4,288.5 418.6,289.0 422.0,289.5 425.4,289.9 428.8,290.3 432.3,290.7 435.8,291.1 439.4,291.4 443.0,291.7 446.7,292.0 450.4,292.2 454.1,292.4 457.9,292.6 461.7,292.7 465.5,292.7 469.3,292.7 473.1,292.7 477.0,292.6 480.8,292.4 484.6,292.2 488.4,291.9 492.2,291.5 495.9,291.1 499.6,290.6 503.2,290.0 506.8,289.4 510.2,288.7 513.6,287.9 516.9,287.0 520.2,286.1 523.2,285.1 526.2,284.0 529.1,282.9 531.8,281.7 534.4,280.4 536.8,279.0 539.1,277.6 541.2,276.2 543.2,274.6 545.0,273.1 546.7,271.5 548.2,269.8 549.6,268.2 550.8,266.4 551.8,264.7 552.7,262.9 553.5,261.2 554.1,259.4 554.6,257.6 554.9,255.8 555.2,254.0 555.3,252.2 555.3,250.4 555.1,248.6 554.9,246.8 554.6,245.0 554.2,243.2 553.7,241.5 553.2,239.7 552.5,238.0 551.8,236.4 551.0,234.7 550.2,233.0 549.3,231.4 548.4,229.8 547.4,228.2 546.4,226.7 545.3,225.2 544.2,223.7 543.0,222.2 541.9,220.7 540.7,219.3 539.5,217.9 538.2,216.5 537.0,215.2 535.7,213.9 534.4,212.5 533.1,211.3 531.8,210.0" fill="none" stroke="#8aa6c8" stroke-width="2.2" stroke-linecap="round" stroke-linejoin="round"/>
<polyline points="594.7,210.0 592.8,208.2 590.9,206.5 589.0,204.8 587.1,203.2 585.1,201.5 583.2,199.9 581.2,198.3 579.3,196.8 577.3,195.2 575.4,193.7 573.4,192.3 571.4,190.8 569.4,189.4 567.4,187.9 565.5,186.5 563.5,185.2 561.5,183.8 559.5,182.5 557.5,181.2 555.5,179.8 553.5,178.6 551.5,177.3 549.5,176.0 547.5,174.8 545.4,173.6 543.4,172.4 541.4,171.2 539.4,170.0 537.3,168.8 535.3,167.7 533.3,166.5 531.2,165.4 529.2,164.3 527.1,163.2 525.0,162.1 523.0,161.0 520.9,159.9 518.8,158.8 516.7,157.7 514.6,156.7 512.5,155.6 510.4,154.6 508.2,153.5 506.1,152.5 503.9,151.5 501.8,150.5 499.6,149.5 497.4,148.5 495.2,147.5 493.0,146.5 490.7,145.5 488.4,144.5 486.2,143.5 483.9,142.5 481.6,141.5 479.2,140.6 476.9,139.6 474.5,138.6 472.1,137.7 469.7,136.7 467.2,135.7 464.7,134.8 462.2,133.8 459.7,132.9 457.1,131.9 454.6,131.0 451.9,130.0 449.3,129.1 446.6,128.1 443.9,127.2 441.1,126.2 438.3,125.3 435.5,124.3 432.6,123.4 429.7,122.5 426.7,121.5 423.7,120.6 420.7,119.6 417.6,118.7 414.4,117.8 411.3,116.9 408.0,115.9 404.7,115.0 401.4,114.1 397.9,113.2 394.5,112.3 391.0,111.4 387.4,110.4 383.7,109.6 380.0,108.7 376.2,107.8 372.4,106.9 368.5,106.1 364.5,105.2 360.4,104.4 356.3,103.5 352.1,102.7 347.8,101.9 343.5,101.2 339.1,100.4 334.6,99.7 330.0,98.9 325.4,98.3 320.6,97.6 315.8,97.0 311.0,96.4 306.1,95.8 301.1,95.3 296.0,94.8 290.9,94.4 285.7,94.0 280.5,93.7 275.2,93.4 269.9,93.2 264.5,93.1 259.1,93.0 253.7,93.0 248.3,93.1 242.9,93.2 237.5,93.5 232.1,93.8 226.7,94.2 221.4,94.7 216.1,95.3 210.9,96.0 205.8,96.8 200.7,97.7 195.8,98.7 191.0,99.8 186.3,101.0 181.8,102.4 177.4,103.8 173.2,105.3 169.2,106.9 165.3,108.7 161.7,110.5 158.2,112.4 155.0,114.4 152.0,116.4 149.2,118.6 146.6,120.8 144.2,123.1 142.1,125.4 140.2,127.8 138.5,130.2 137.0,132.6 135.7,135.1 134.7,137.6 133.8,140.2 133.1,142.7 132.6,145.3 132.3,147.8 132.1,150.4 132.1,152.9 132.3,155.5 132.6,158.0 133.1,160.5 133.6,163.0 134.3,165.5 135.1,167.9 136.0,170.3 137.0,172.7 138.1,175.1 139.3,177.4 140.6,179.7 141.9,182.0 143.3,184.2 144.7,186.4 146.3,188.6 147.8,190.7 149.4,192.8 151.1,194.8 152.7,196.8 154.5,198.8 156.2,200.8 158.0,202.7 159.8,204.6 161.6,206.4 163.5,208.2 165.3,210.0 167.2,211.8 169.1,213.5 171.0,215.2 172.9,216.8 174.9,218.5 176.8,220.1 178.8,221.7 180.7,223.2 182.7,224.8 184.6,226.3 186.6,227.7 188.6,229.2 190.6,230.6 192.6,232.1 194.5,233.5 196.5,234.8 198.5,236.2 200.5,237.5 202.5,238.8 204.5,240.2 206.5,241.4 208.5,242.7 210.5,244.0 212.5,245.2 214.6,246.4 216.6,247.6 218.6,248.8 220.6,250.0 222.7,251.2 224.7,252.3 226.7,253.5 228.8,254.6 230.8,255.7 232.9,256.8 235.0,257.9 237.0,259.0 239.1,260.1 241.2,261.2 243.3,262.3 245.4,263.3 247.5,264.4 249.6,265.4 251.8,266.5 253.9,267.5 256.1,268.5 258.2,269.5 260.4,270.5 262.6,271.5 264.8,272.5 267.0,273.5 269.3,274.5 271.6,275.5 273.8,276.5 276.1,277.5 278.4,278.5 280.8,279.4 283.1,280.4 285.5,281.4 287.9,282.3 290.3,283.3 292.8,284.3 295.3,285.2 297.8,286.2 300.3,287.1 302.9,288.1 305.4,289.0 308.1,290.0 310.7,290.9 313.4,291.9 316.1,292.8 318.9,293.8 321.7,294.7 324.5,295.7 327.4,296.6 330.3,297.5 333.3,298.5 336.3,299.4 339.3,300.4 342.4,301.3 345.6,302.2 348.7,303.1 352.0,304.1 355.3,305.0 358.6,305.9 362.1,306.8 365.5,307.7 369.0,308.6 372.6,309.6 376.3,310.4 380.0,311.3 383.8,312.2 387.6,313.1 391.5,313.9 395.5,314.8 399.6,315.6 403.7,316.5 407.9,317.3 412.2,318.1 416.5,318.8 420.9,319.6 425.4,320.3 430.0,321.1 434.6,321.7 439.4,322.4 444.2,323.0 449.0,323.6 453.9,324.2 458.9,324.7 464.0,325.2 469.1,325.6 474.3,326.0 479.5,326.3 484.8,326.6 490.1,326.8 495.5,326.9 500.9,327.0 506.3,327.0 511.7,326.9 517.1,326.8 522.5,326.5 527.9,326.2 533.3,325.8 538.6,325.3 543.9,324.7 549.1,324.0 554.2,323.2 559.3,322.3 564.2,321.3 569.0,320.2 573.7,319.0 578.2,317.6 582.6,316.2 586.8,314.7 590.8,313.1 594.7,311.3 598.3,309.5 601.8,307.6 605.0,305.6 608.0,303.6 610.8,301.4 613.4,299.2 615.8,296.9 617.9,294.6 619.8,292.2 621.5,289.8 623.0,287.4 624.3,284.9 625.3,282.4 626.2,279.8 626.9,277.3 627.4,274.7 627.7,272.2 627.9,269.6 627.9,267.1 627.7,264.5 627.4,262.0 626.9,259.5 626.4,257.0 625.7,254.5 624.9,252.1 624.0,249.7 623.0,247.3 621.9,244.9 620.7,242.6 619.4,240.3 618.1,238.0 616.7,235.8 615.3,233.6 613.7,231.4 612.2,229.3 610.6,227.2 608.9,225.2 607.3,223.2 605.5,221.2 603.8,219.2 602.0,217.3 600.2,215.4 598.4,213.6 596.5,211.8 594.7,210.0" fill="none" stroke="#487eb0" stroke-width="2.2" stroke-linecap="round" stroke-linejoin="round"/>
<polyline points="664.0,210.0 661.5,207.7 659.0,205.4 656.5,203.2 653.9,201.0 651.4,198.8 648.8,196.7 646.2,194.6 643.6,192.5 641.0,190.5 638.4,188.5 635.8,186.5 633.2,184.6 630.6,182.7 628.0,180.8 625.3,179.0 622.7,177.1 620.1,175.4 617.4,173.6 614.8,171.8 612.1,170.1 609.5,168.4 606.8,166.7 604.2,165.1 601.5,163.4 598.8,161.8 596.2,160.2 593.5,158.6 590.8,157.1 588.1,155.5 585.4,154.0 582.7,152.5 580.0,151.0 577.3,149.5 574.6,148.0 571.9,146.6 569.1,145.1 566.4,143.7 563.6,142.3 560.9,140.9 558.1,139.5 555.3,138.1 552.5,136.7 549.6,135.3 546.8,134.0 544.0,132.6 541.1,131.3 538.2,129.9 535.3,128.6 532.4,127.3 529.4,125.9 526.5,124.6 523.5,123.3 520.5,122.0 517.4,120.7 514.4,119.4 511.3,118.1 508.1,116.9 505.0,115.6 501.8,114.3 498.6,113.0 495.4,111.8 492.1,110.5 488.8,109.2 485.4,108.0 482.1,106.7 478.6,105.4 475.2,104.2 471.6,102.9 468.1,101.7 464.5,100.4 460.8,99.2 457.1,97.9 453.4,96.7 449.6,95.4 445.7,94.2 441.8,92.9 437.9,91.7 433.8,90.5 429.7,89.2 425.6,88.0 421.3,86.8 417.1,85.6 412.7,84.3 408.3,83.1 403.7,81.9 399.2,80.7 394.5,79.5 389.7,78.3 384.9,77.1 380.0,75.9 375.0,74.8 369.9,73.6 364.7,72.5 359.5,71.4 354.1,70.3 348.6,69.2 343.1,68.1 337.4,67.0 331.7,66.0 325.8,65.0 319.9,64.0 313.8,63.1 307.7,62.2 301.5,61.3 295.1,60.5 288.7,59.7 282.2,59.0 275.6,58.3 268.9,57.7 262.1,57.1 255.2,56.6 248.3,56.2 241.3,55.8 234.3,55.5 227.2,55.3 220.1,55.2 212.9,55.2 205.8,55.3 198.6,55.5 191.4,55.8 184.3,56.2 177.2,56.8 170.2,57.5 163.2,58.3 156.3,59.2 149.5,60.2 142.9,61.4 136.3,62.8 130.0,64.3 123.8,65.9 117.8,67.6 112.0,69.5 106.4,71.5 101.1,73.7 96.0,75.9 91.2,78.3 86.6,80.9 82.4,83.5 78.4,86.2 74.7,89.1 71.2,92.0 68.1,95.0 65.3,98.1 62.8,101.2 60.5,104.4 58.6,107.7 56.9,110.9 55.4,114.3 54.3,117.6 53.4,121.0 52.7,124.4 52.3,127.8 52.1,131.1 52.1,134.5 52.3,137.9 52.7,141.2 53.3,144.5 54.1,147.8 55.0,151.1 56.1,154.3 57.3,157.5 58.6,160.7 60.0,163.8 61.6,166.9 63.3,169.9 65.0,172.9 66.9,175.9 68.8,178.8 70.8,181.6 72.8,184.4 75.0,187.2 77.1,189.9 79.4,192.6 81.6,195.2 84.0,197.8 86.3,200.3 88.7,202.8 91.1,205.2 93.6,207.6 96.0,210.0 98.5,212.3 101.0,214.6 103.5,216.8 106.1,219.0 108.6,221.2 111.2,223.3 113.8,225.4 116.4,227.5 119.0,229.5 121.6,231.5 124.2,233.5 126.8,235.4 129.4,237.3 132.0,239.2 134.7,241.0 137.3,242.9 139.9,244.6 142.6,246.4 145.2,248.2 147.9,249.9 150.5,251.6 153.2,253.3 155.8,254.9 158.5,256.6 161.2,258.2 163.8,259.8 166.5,261.4 169.2,262.9 171.9,264.5 174.6,266.0 177.3,267.5 180.0,269.0 182.7,270.5 185.4,272.0 188.1,273.4 190.9,274.9 193.6,276.3 196.4,277.7 199.1,279.1 201.9,280.5 204.7,281.9 207.5,283.3 210.4,284.7 213.2,286.0 216.0,287.4 218.9,288.7 221.8,290.1 224.7,291.4 227.6,292.7 230.6,294.1 233.5,295.4 236.5,296.7 239.5,298.0 242.6,299.3 245.6,300.6 248.7,301.9 251.9,303.1 255.0,304.4 258.2,305.7 261.4,307.0 264.6,308.2 267.9,309.5 271.2,310.8 274.6,312.0 277.9,313.3 281.4,314.6 284.8,315.8 288.4,317.1 291.9,318.3 295.5,319.6 299.2,320.8 302.9,322.1 306.6,323.3 310.4,324.6 314.3,325.8 318.2,327.1 322.1,328.3 326.2,329.5 330.3,330.8 334.4,332.0 338.7,333.2 342.9,334.4 347.3,335.7 351.7,336.9 356.3,338.1 360.8,339.3 365.5,340.5 370.3,341.7 375.1,342.9 380.0,344.1 385.0,345.2 390.1,346.4 395.3,347.5 400.5,348.6 405.9,349.7 411.4,350.8 416.9,351.9 422.6,353.0 428.3,354.0 434.2,355.0 440.1,356.0 446.2,356.9 452.3,357.8 458.5,358.7 464.9,359.5 471.3,360.3 477.8,361.0 484.4,361.7 491.1,362.3 497.9,362.9 504.8,363.4 511.7,363.8 518.7,364.2 525.7,364.5 532.8,364.7 539.9,364.8 547.1,364.8 554.2,364.7 561.4,364.5 568.6,364.2 575.7,363.8 582.8,363.2 589.8,362.5 596.8,361.7 603.7,360.8 610.5,359.8 617.1,358.6 623.7,357.2 630.0,355.7 636.2,354.1 642.2,352.4 648.0,350.5 653.6,348.5 658.9,346.3 664.0,344.1 668.8,341.7 673.4,339.1 677.6,336.5 681.6,333.8 685.3,330.9 688.8,328.0 691.9,325.0 694.7,321.9 697.2,318.8 699.5,315.6 701.4,312.3 703.1,309.1 704.6,305.7 705.7,302.4 706.6,299.0 707.3,295.6 707.7,292.2 707.9,288.9 707.9,285.5 707.7,282.1 707.3,278.8 706.7,275.5 705.9,272.2 705.0,268.9 703.9,265.7 702.7,262.5 701.4,259.3 700.0,256.2 698.4,253.1 696.7,250.1 695.0,247.1 693.1,244.1 691.2,241.2 689.2,238.4 687.2,235.6 685.0,232.8 682.9,230.1 680.6,227.4 678.4,224.8 676.0,222.2 673.7,219.7 671.3,217.2 668.9,214.8 666.4,212.4 664.0,210.0" fill="none" stroke="#2c8c7c" stroke-width="2.2" stroke-linecap="round" stroke-linejoin="round"/>
<polyline points="719.4,210.0 716.4,207.2 713.4,204.5 710.4,201.8 707.4,199.2 704.3,196.6 701.3,194.1 698.2,191.6 695.1,189.1 692.0,186.7 688.9,184.3 685.8,181.9 682.6,179.6 679.5,177.4 676.4,175.1 673.2,172.9 670.1,170.7 666.9,168.6 663.8,166.5 660.6,164.4 657.5,162.3 654.3,160.3 651.1,158.3 647.9,156.3 644.8,154.4 641.6,152.4 638.4,150.5 635.2,148.6 632.0,146.8 628.8,144.9 625.6,143.1 622.3,141.3 619.1,139.5 615.8,137.7 612.6,135.9 609.3,134.2 606.1,132.5 602.8,130.8 599.5,129.1 596.2,127.4 592.8,125.7 589.5,124.0 586.1,122.4 582.8,120.7 579.4,119.1 576.0,117.5 572.5,115.9 569.1,114.3 565.6,112.7 562.1,111.1 558.6,109.5 555.0,108.0 551.5,106.4 547.9,104.8 544.2,103.3 540.6,101.7 536.9,100.2 533.2,98.7 529.4,97.1 525.6,95.6 521.8,94.1 517.9,92.6 514.0,91.1 510.0,89.5 506.0,88.0 502.0,86.5 497.9,85.0 493.7,83.5 489.5,82.0 485.3,80.5 481.0,79.0 476.6,77.5 472.2,76.0 467.7,74.5 463.2,73.1 458.6,71.6 453.9,70.1 449.1,68.6 444.3,67.1 439.4,65.7 434.5,64.2 429.4,62.7 424.3,61.3 419.1,59.8 413.8,58.3 408.4,56.9 402.9,55.5 397.3,54.0 391.6,52.6 385.9,51.2 380.0,49.8 374.0,48.4 367.9,47.0 361.8,45.6 355.5,44.3 349.0,43.0 342.5,41.7 335.9,40.4 329.1,39.1 322.3,37.9 315.3,36.7 308.2,35.5 300.9,34.4 293.6,33.3 286.1,32.3 278.6,31.3 270.9,30.4 263.1,29.5 255.2,28.7 247.2,27.9 239.1,27.2 230.9,26.6 222.6,26.1 214.3,25.7 205.9,25.4 197.4,25.1 188.9,25.0 180.3,25.0 171.7,25.1 163.2,25.4 154.6,25.7 146.1,26.2 137.6,26.9 129.2,27.7 120.9,28.6 112.6,29.7 104.5,31.0 96.6,32.4 88.8,34.0 81.2,35.8 73.8,37.7 66.6,39.8 59.7,42.1 53.0,44.5 46.7,47.1 40.6,49.8 34.8,52.6 29.4,55.7 24.3,58.8 19.5,62.1 15.1,65.4 11.0,68.9 7.2,72.5 3.9,76.2 0.8,80.0 -1.9,83.8 -4.2,87.7 -6.2,91.6 -7.9,95.6 -9.3,99.6 -10.4,103.6 -11.2,107.6 -11.7,111.7 -11.9,115.7 -11.9,119.8 -11.6,123.8 -11.1,127.8 -10.4,131.8 -9.5,135.7 -8.4,139.6 -7.2,143.5 -5.7,147.3 -4.2,151.1 -2.4,154.8 -0.6,158.5 1.4,162.1 3.5,165.7 5.7,169.2 8.0,172.7 10.4,176.1 12.9,179.4 15.4,182.7 18.0,186.0 20.7,189.2 23.4,192.3 26.2,195.4 29.0,198.4 31.8,201.4 34.7,204.3 37.6,207.2 40.6,210.0 43.6,212.8 46.6,215.5 49.6,218.2 52.6,220.8 55.7,223.4 58.7,225.9 61.8,228.4 64.9,230.9 68.0,233.3 71.1,235.7 74.2,238.1 77.4,240.4 80.5,242.6 83.6,244.9 86.8,247.1 89.9,249.3 93.1,251.4 96.2,253.5 99.4,255.6 102.5,257.7 105.7,259.7 108.9,261.7 112.1,263.7 115.2,265.6 118.4,267.6 121.6,269.5 124.8,271.4 128.0,273.2 131.2,275.1 134.4,276.9 137.7,278.7 140.9,280.5 144.2,282.3 147.4,284.1 150.7,285.8 153.9,287.5 157.2,289.2 160.5,290.9 163.8,292.6 167.2,294.3 170.5,296.0 173.9,297.6 177.2,299.3 180.6,300.9 184.0,302.5 187.5,304.1 190.9,305.7 194.4,307.3 197.9,308.9 201.4,310.5 205.0,312.0 208.5,313.6 212.1,315.2 215.8,316.7 219.4,318.3 223.1,319.8 226.8,321.3 230.6,322.9 234.4,324.4 238.2,325.9 242.1,327.4 246.0,328.9 250.0,330.5 254.0,332.0 258.0,333.5 262.1,335.0 266.3,336.5 270.5,338.0 274.7,339.5 279.0,341.0 283.4,342.5 287.8,344.0 292.3,345.5 296.8,346.9 301.4,348.4 306.1,349.9 310.9,351.4 315.7,352.9 320.6,354.3 325.5,355.8 330.6,357.3 335.7,358.7 340.9,360.2 346.2,361.7 351.6,363.1 357.1,364.5 362.7,366.0 368.4,367.4 374.1,368.8 380.0,370.2 386.0,371.6 392.1,373.0 398.2,374.4 404.5,375.7 411.0,377.0 417.5,378.3 424.1,379.6 430.9,380.9 437.7,382.1 444.7,383.3 451.8,384.5 459.1,385.6 466.4,386.7 473.9,387.7 481.4,388.7 489.1,389.6 496.9,390.5 504.8,391.3 512.8,392.1 520.9,392.8 529.1,393.4 537.4,393.9 545.7,394.3 554.1,394.6 562.6,394.9 571.1,395.0 579.7,395.0 588.3,394.9 596.8,394.6 605.4,394.3 613.9,393.8 622.4,393.1 630.8,392.3 639.1,391.4 647.4,390.3 655.5,389.0 663.4,387.6 671.2,386.0 678.8,384.2 686.2,382.3 693.4,380.2 700.3,377.9 707.0,375.5 713.3,372.9 719.4,370.2 725.2,367.4 730.6,364.3 735.7,361.2 740.5,357.9 744.9,354.6 749.0,351.1 752.8,347.5 756.1,343.8 759.2,340.0 761.9,336.2 764.2,332.3 766.2,328.4 767.9,324.4 769.3,320.4 770.4,316.4 771.2,312.4 771.7,308.3 771.9,304.3 771.9,300.2 771.6,296.2 771.1,292.2 770.4,288.2 769.5,284.3 768.4,280.4 767.2,276.5 765.7,272.7 764.2,268.9 762.4,265.2 760.6,261.5 758.6,257.9 756.5,254.3 754.3,250.8 752.0,247.3 749.6,243.9 747.1,240.6 744.6,237.3 742.0,234.0 739.3,230.8 736.6,227.7 733.8,224.6 731.0,221.6 728.2,218.6 725.3,215.7 722.4,212.8 719.4,210.0" fill="none" stroke="#c92331" stroke-width="2.2" stroke-linecap="round" stroke-linejoin="round"/>
<circle cx="487.3" cy="108.7" r="6" fill="#111"/>
<text x="524.9" y="96.0" fill="#111" font-size="16" text-anchor="middle">(1,2)</text>
</svg>
