<svg xmlns="http://www.w3.org/2000/svg" width="760" height="420" viewBox="0 0 760 420" role="img" aria-label="f=x^3y+xy^2">

<defs>
  <marker id="arrow" viewBox="0 0 10 10" refX="8.5" refY="5" markerWidth="7" markerHeight="7" orient="auto-start-reverse">
    <path d="M 0 0 L 10 5 L 0 10 z" fill="#24323a"/>
  </marker>
</defs>

<style>
  text { font-family: Arial, sans-serif; }
</style>
<rect x="0" y="0" width="760" height="420" rx="18" fill="#ffffff"/>
<rect x="58" y="58" width="644" height="304" fill="#fbfcfe" stroke="#d8e1e8" stroke-width="1"/>
<line x1="58.0" y1="362.0" x2="58.0" y2="58.0" stroke="#edf0f3" stroke-width="0.8" fill="none"/>
<line x1="219.0" y1="362.0" x2="219.0" y2="58.0" stroke="#edf0f3" stroke-width="0.8" fill="none"/>
<line x1="380.0" y1="362.0" x2="380.0" y2="58.0" stroke="#d9e0e7" stroke-width="1.35" fill="none"/>
<line x1="541.0" y1="362.0" x2="541.0" y2="58.0" stroke="#edf0f3" stroke-width="0.8" fill="none"/>
<line x1="702.0" y1="362.0" x2="702.0" y2="58.0" stroke="#edf0f3" stroke-width="0.8" fill="none"/>
<line x1="58.0" y1="362.0" x2="702.0" y2="362.0" stroke="#edf0f3" stroke-width="0.8" fill="none"/>
<line x1="58.0" y1="343.0" x2="702.0" y2="343.0" stroke="#edf0f3" stroke-width="0.8" fill="none"/>
<line x1="58.0" y1="324.0" x2="702.0" y2="324.0" stroke="#edf0f3" stroke-width="0.8" fill="none"/>
<line x1="58.0" y1="305.0" x2="702.0" y2="305.0" stroke="#edf0f3" stroke-width="0.8" fill="none"/>
<line x1="58.0" y1="286.0" x2="702.0" y2="286.0" stroke="#edf0f3" stroke-width="0.8" fill="none"/>
<line x1="58.0" y1="267.0" x2="702.0" y2="267.0" stroke="#edf0f3" stroke-width="0.8" fill="none"/>
<line x1="58.0" y1="248.0" x2="702.0" y2="248.0" stroke="#d9e0e7" stroke-width="1.35" fill="none"/>
<line x1="58.0" y1="229.0" x2="702.0" y2="229.0" stroke="#edf0f3" stroke-width="0.8" fill="none"/>
<line x1="58.0" y1="210.0" x2="702.0" y2="210.0" stroke="#edf0f3" stroke-width="0.8" fill="none"/>
<line x1="58.0" y1="191.0" x2="702.0" y2="191.0" stroke="#edf0f3" stroke-width="0.8" fill="none"/>
<line x1="58.0" y1="172.0" x2="702.0" y2="172.0" stroke="#edf0f3" stroke-width="0.8" fill="none"/>
<line x1="58.0" y1="153.0" x2="702.0" y2="153.0" stroke="#edf0f3" stroke-width="0.8" fill="none"/>
<line x1="58.0" y1="134.0" x2="702.0" y2="134.0" stroke="#edf0f3" stroke-width="0.8" fill="none"/>
<line x1="58.0" y1="115.0" x2="702.0" y2="115.0" stroke="#edf0f3" stroke-width="0.8" fill="none"/>
<line x1="58.0" y1="96.0" x2="702.0" y2="96.0" stroke="#edf0f3" stroke-width="0.8" fill="none"/>
<line x1="58.0" y1="77.0" x2="702.0" y2="77.0" stroke="#edf0f3" stroke-width="0.8" fill="none"/>
<line x1="58.0" y1="58.0" x2="702.0" y2="58.0" stroke="#edf0f3" stroke-width="0.8" fill="none"/>
<line x1="58.0" y1="248.0" x2="702.0" y2="248.0" stroke="#24323a" stroke-width="1.4" fill="none" marker-end="url(#arrow)"/>
<line x1="380.0" y1="362.0" x2="380.0" y2="58.0" stroke="#24323a" stroke-width="1.4" fill="none" marker-end="url(#arrow)"/>
<text x="605.4" y="272.3" fill="#24323a" font-size="18" text-anchor="middle">x</text>
<text x="431.5" y="82.3" fill="#24323a" font-size="18" text-anchor="middle">y</text>
<text x="70" y="36" fill="#334" font-size="20">f=x^3y+xy^2</text>
<polyline points="58.0,438.0 60.5,434.2 63.0,430.5 65.5,426.8 67.9,423.2 70.4,419.6 72.9,416.1 75.4,412.6 77.9,409.2 80.4,405.8 82.9,402.5 85.4,399.2 87.8,396.0 90.3,392.9 92.8,389.7 95.3,386.7 97.8,383.6 100.3,380.7 102.8,377.7 105.2,374.9 107.7,372.0 110.2,369.2 112.7,366.5 115.2,363.8 117.7,361.1 120.2,358.5 122.6,356.0 125.1,353.4 127.6,351.0 130.1,348.5 132.6,346.1 135.1,343.8 137.6,341.5 140.1,339.2 142.5,337.0 145.0,334.8 147.5,332.6 150.0,330.5 152.5,328.5 155.0,326.4 157.5,324.4 159.9,322.5 162.4,320.6 164.9,318.7 167.4,316.8 169.9,315.0 172.4,313.2 174.9,311.5 177.4,309.8 179.8,308.1 182.3,306.5 184.8,304.9 187.3,303.3 189.8,301.8 192.3,300.3 194.8,298.8 197.2,297.4 199.7,295.9 202.2,294.6 204.7,293.2 207.2,291.9 209.7,290.6 212.2,289.3 214.6,288.1 217.1,286.9 219.6,285.7 222.1,284.6 224.6,283.4 227.1,282.3 229.6,281.3 232.1,280.2 234.5,279.2 237.0,278.2 239.5,277.2 242.0,276.3 244.5,275.3 247.0,274.4 249.5,273.5 251.9,272.7 254.4,271.8 256.9,271.0 259.4,270.2 261.9,269.4 264.4,268.7 266.9,267.9 269.4,267.2 271.8,266.5 274.3,265.8 276.8,265.2 279.3,264.5 281.8,263.9 284.3,263.3 286.8,262.7 289.2,262.1 291.7,261.5 294.2,261.0 296.7,260.5 299.2,259.9 301.7,259.4 304.2,258.9 306.6,258.5 309.1,258.0 311.6,257.5 314.1,257.1 316.6,256.6 319.1,256.2 321.6,255.8 324.1,255.4 326.5,255.0 329.0,254.6 331.5,254.2 334.0,253.9 336.5,253.5 339.0,253.2 341.5,252.8 343.9,252.5 346.4,252.1 348.9,251.8 351.4,251.5 353.9,251.2 356.4,250.8 358.9,250.5 361.4,250.2 363.8,249.9 366.3,249.6 368.8,249.3 371.3,249.0 373.8,248.7 376.3,248.4 378.8,248.1 381.2,247.9 383.7,247.6 386.2,247.3 388.7,247.0 391.2,246.7 393.7,246.4 396.2,246.1 398.6,245.8 401.1,245.5 403.6,245.2 406.1,244.8 408.6,244.5 411.1,244.2 413.6,243.9 416.1,243.5 418.5,243.2 421.0,242.8 423.5,242.5 426.0,242.1 428.5,241.8 431.0,241.4 433.5,241.0 435.9,240.6 438.4,240.2 440.9,239.8 443.4,239.4 445.9,238.9 448.4,238.5 450.9,238.0 453.4,237.5 455.8,237.1 458.3,236.6 460.8,236.1 463.3,235.5 465.8,235.0 468.3,234.5 470.8,233.9 473.2,233.3 475.7,232.7 478.2,232.1 480.7,231.5 483.2,230.8 485.7,230.2 488.2,229.5 490.6,228.8 493.1,228.1 495.6,227.3 498.1,226.6 500.6,225.8 503.1,225.0 505.6,224.2 508.1,223.3 510.5,222.5 513.0,221.6 515.5,220.7 518.0,219.7 520.5,218.8 523.0,217.8 525.5,216.8 527.9,215.8 530.4,214.7 532.9,213.7 535.4,212.6 537.9,211.4 540.4,210.3 542.9,209.1 545.4,207.9 547.8,206.7 550.3,205.4 552.8,204.1 555.3,202.8 557.8,201.4 560.3,200.1 562.8,198.6 565.2,197.2 567.7,195.7 570.2,194.2 572.7,192.7 575.2,191.1 577.7,189.5 580.2,187.9 582.6,186.2 585.1,184.5 587.6,182.8 590.1,181.0 592.6,179.2 595.1,177.3 597.6,175.4 600.1,173.5 602.5,171.6 605.0,169.6 607.5,167.5 610.0,165.5 612.5,163.4 615.0,161.2 617.5,159.0 619.9,156.8 622.4,154.5 624.9,152.2 627.4,149.9 629.9,147.5 632.4,145.0 634.9,142.6 637.4,140.0 639.8,137.5 642.3,134.9 644.8,132.2 647.3,129.5 649.8,126.8 652.3,124.0 654.8,121.1 657.2,118.3 659.7,115.3 662.2,112.4 664.7,109.3 667.2,106.3 669.7,103.1 672.2,100.0 674.6,96.8 677.1,93.5 679.6,90.2 682.1,86.8 684.6,83.4 687.1,79.9 689.6,76.4 692.1,72.8 694.5,69.2 697.0,65.5 699.5,61.8 702.0,58.0" fill="none" stroke="#174bb4" stroke-width="3" stroke-linecap="round" stroke-linejoin="round"/><polyline points="58.0,210.0 60.5,210.9 63.0,211.7 65.5,212.6 67.9,213.4 70.4,214.3 72.9,215.1 75.4,215.9 77.9,216.8 80.4,217.6 82.9,218.3 85.4,219.1 87.8,219.9 90.3,220.7 92.8,221.4 95.3,222.2 97.8,222.9 100.3,223.7 102.8,224.4 105.2,225.1 107.7,225.8 110.2,226.5 112.7,227.2 115.2,227.8 117.7,228.5 120.2,229.2 122.6,229.8 125.1,230.5 127.6,231.1 130.1,231.7 132.6,232.3 135.1,232.9 137.6,233.5 140.1,234.1 142.5,234.7 145.0,235.3 147.5,235.8 150.0,236.4 152.5,236.9 155.0,237.4 157.5,238.0 159.9,238.5 162.4,239.0 164.9,239.5 167.4,240.0 169.9,240.4 172.4,240.9 174.9,241.4 177.4,241.8 179.8,242.3 182.3,242.7 184.8,243.1 187.3,243.5 189.8,243.9 192.3,244.3 194.8,244.7 197.2,245.1 199.7,245.5 202.2,245.8 204.7,246.2 207.2,246.5 209.7,246.8 212.2,247.2 214.6,247.5 217.1,247.8 219.6,248.1 222.1,248.4 224.6,248.6 227.1,248.9 229.6,249.2 232.1,249.4 234.5,249.7 237.0,249.9 239.5,250.1 242.0,250.3 244.5,250.5 247.0,250.7 249.5,250.9 251.9,251.1 254.4,251.3 256.9,251.4 259.4,251.6 261.9,251.7 264.4,251.8 266.9,252.0 269.4,252.1 271.8,252.2 274.3,252.3 276.8,252.4 279.3,252.5 281.8,252.5 284.3,252.6 286.8,252.6 289.2,252.7 291.7,252.7 294.2,252.7 296.7,252.7 299.2,252.7 301.7,252.7 304.2,252.7 306.6,252.7 309.1,252.7 311.6,252.6 314.1,252.6 316.6,252.5 319.1,252.5 321.6,252.4 324.1,252.3 326.5,252.2 329.0,252.1 331.5,252.0 334.0,251.9 336.5,251.7 339.0,251.6 341.5,251.5 343.9,251.3 346.4,251.1 348.9,251.0 351.4,250.8 353.9,250.6 356.4,250.4 358.9,250.2 361.4,249.9 363.8,249.7 366.3,249.5 368.8,249.2 371.3,249.0 373.8,248.7 376.3,248.4 378.8,248.1 381.2,247.9 383.7,247.5 386.2,247.2 388.7,246.9 391.2,246.6 393.7,246.2 396.2,245.9 398.6,245.5 401.1,245.2 403.6,244.8 406.1,244.4 408.6,244.0 411.1,243.6 413.6,243.2 416.1,242.8 418.5,242.4 421.0,241.9 423.5,241.5 426.0,241.0 428.5,240.6 431.0,240.1 433.5,239.6 435.9,239.1 438.4,238.6 440.9,238.1 443.4,237.6 445.9,237.0 448.4,236.5 450.9,236.0 453.4,235.4 455.8,234.8 458.3,234.3 460.8,233.7 463.3,233.1 465.8,232.5 468.3,231.9 470.8,231.3 473.2,230.6 475.7,230.0 478.2,229.3 480.7,228.7 483.2,228.0 485.7,227.3 488.2,226.7 490.6,226.0 493.1,225.3 495.6,224.6 498.1,223.8 500.6,223.1 503.1,222.4 505.6,221.6 508.1,220.9 510.5,220.1 513.0,219.3 515.5,218.5 518.0,217.8 520.5,217.0 523.0,216.1 525.5,215.3 527.9,214.5 530.4,213.7 532.9,212.8 535.4,212.0 537.9,211.1 540.4,210.2 542.9,209.3 545.4,208.4 547.8,207.5 550.3,206.6 552.8,205.7 555.3,204.8 557.8,203.9 560.3,202.9 562.8,202.0 565.2,201.0 567.7,200.0 570.2,199.0 572.7,198.0 575.2,197.0 577.7,196.0 580.2,195.0 582.6,194.0 585.1,192.9 587.6,191.9 590.1,190.8 592.6,189.8 595.1,188.7 597.6,187.6 600.1,186.5 602.5,185.4 605.0,184.3 607.5,183.2 610.0,182.1 612.5,180.9 615.0,179.8 617.5,178.6 619.9,177.5 622.4,176.3 624.9,175.1 627.4,173.9 629.9,172.7 632.4,171.5 634.9,170.3 637.4,169.1 639.8,167.8 642.3,166.6 644.8,165.3 647.3,164.1 649.8,162.8 652.3,161.5 654.8,160.2 657.2,158.9 659.7,157.6 662.2,156.3 664.7,155.0 667.2,153.7 669.7,152.3 672.2,151.0 674.6,149.6 677.1,148.2 679.6,146.8 682.1,145.4 684.6,144.0 687.1,142.6 689.6,141.2 692.1,139.8 694.5,138.4 697.0,136.9 699.5,135.5 702.0,134.0" fill="none" stroke="#c92331" stroke-width="3" stroke-linecap="round" stroke-linejoin="round"/><text x="186.8" y="324.0" fill="#174bb4" font-size="16" text-anchor="middle">f(x,1)</text><text x="541.0" y="179.6" fill="#c92331" font-size="16" text-anchor="middle">f(1,y)</text>
</svg>
