<svg xmlns="http://www.w3.org/2000/svg" width="760" height="420" viewBox="0 0 760 420" role="img" aria-label="f=x-y">

<defs>
  <marker id="arrow" viewBox="0 0 10 10" refX="8.5" refY="5" markerWidth="7" markerHeight="7" orient="auto-start-reverse">
    <path d="M 0 0 L 10 5 L 0 10 z" fill="#24323a"/>
  </marker>
</defs>

<style>
  text { font-family: Arial, sans-serif; }
</style>
<rect x="0" y="0" width="760" height="420" rx="18" fill="#ffffff"/>
<rect x="58" y="58" width="644" height="304" fill="#fbfcfe" stroke="#d8e1e8" stroke-width="1"/>
<line x1="58.0" y1="362.0" x2="58.0" y2="58.0" stroke="#edf0f3" stroke-width="0.8" fill="none"/>
<line x1="165.3" y1="362.0" x2="165.3" y2="58.0" stroke="#edf0f3" stroke-width="0.8" fill="none"/>
<line x1="272.7" y1="362.0" x2="272.7" y2="58.0" stroke="#edf0f3" stroke-width="0.8" fill="none"/>
<line x1="380.0" y1="362.0" x2="380.0" y2="58.0" stroke="#d9e0e7" stroke-width="1.35" fill="none"/>
<line x1="487.3" y1="362.0" x2="487.3" y2="58.0" stroke="#edf0f3" stroke-width="0.8" fill="none"/>
<line x1="594.7" y1="362.0" x2="594.7" y2="58.0" stroke="#edf0f3" stroke-width="0.8" fill="none"/>
<line x1="702.0" y1="362.0" x2="702.0" y2="58.0" stroke="#edf0f3" stroke-width="0.8" fill="none"/>
<line x1="58.0" y1="362.0" x2="702.0" y2="362.0" stroke="#edf0f3" stroke-width="0.8" fill="none"/>
<line x1="58.0" y1="311.3" x2="702.0" y2="311.3" stroke="#edf0f3" stroke-width="0.8" fill="none"/>
<line x1="58.0" y1="260.7" x2="702.0" y2="260.7" stroke="#edf0f3" stroke-width="0.8" fill="none"/>
<line x1="58.0" y1="210.0" x2="702.0" y2="210.0" stroke="#d9e0e7" stroke-width="1.35" fill="none"/>
<line x1="58.0" y1="159.3" x2="702.0" y2="159.3" stroke="#edf0f3" stroke-width="0.8" fill="none"/>
<line x1="58.0" y1="108.7" x2="702.0" y2="108.7" stroke="#edf0f3" stroke-width="0.8" fill="none"/>
<line x1="58.0" y1="58.0" x2="702.0" y2="58.0" stroke="#edf0f3" stroke-width="0.8" fill="none"/>
<line x1="58.0" y1="210.0" x2="702.0" y2="210.0" stroke="#24323a" stroke-width="1.4" fill="none" marker-end="url(#arrow)"/>
<line x1="380.0" y1="362.0" x2="380.0" y2="58.0" stroke="#24323a" stroke-width="1.4" fill="none" marker-end="url(#arrow)"/>
<text x="605.4" y="234.3" fill="#24323a" font-size="18" text-anchor="middle">x</text>
<text x="431.5" y="82.3" fill="#24323a" font-size="18" text-anchor="middle">y</text>
<text x="70" y="36" fill="#334" font-size="20">f=x-y</text>
<polyline points="58.0,260.7 60.7,259.4 63.4,258.1 66.1,256.9 68.8,255.6 71.5,254.3 74.2,253.0 76.9,251.8 79.6,250.5 82.3,249.2 84.9,247.9 87.6,246.7 90.3,245.4 93.0,244.1 95.7,242.9 98.4,241.6 101.1,240.3 103.8,239.0 106.5,237.8 109.2,236.5 111.9,235.2 114.6,234.0 117.3,232.7 120.0,231.4 122.7,230.1 125.4,228.9 128.1,227.6 130.8,226.3 133.4,225.1 136.1,223.8 138.8,222.5 141.5,221.2 144.2,220.0 146.9,218.7 149.6,217.4 152.3,216.1 155.0,214.9 157.7,213.6 160.4,212.3 163.1,211.1 165.8,209.8 168.5,208.5 171.2,207.2 173.9,206.0 176.6,204.7 179.3,203.4 181.9,202.2 184.6,200.9 187.3,199.6 190.0,198.3 192.7,197.1 195.4,195.8 198.1,194.5 200.8,193.3 203.5,192.0 206.2,190.7 208.9,189.4 211.6,188.2 214.3,186.9 217.0,185.6 219.7,184.3 222.4,183.1 225.1,181.8 227.8,180.5 230.5,179.3 233.1,178.0 235.8,176.7 238.5,175.4 241.2,174.2 243.9,172.9 246.6,171.6 249.3,170.4 252.0,169.1 254.7,167.8 257.4,166.5 260.1,165.3 262.8,164.0 265.5,162.7 268.2,161.5 270.9,160.2 273.6,158.9 276.3,157.6 279.0,156.4 281.6,155.1 284.3,153.8 287.0,152.5 289.7,151.3 292.4,150.0 295.1,148.7 297.8,147.5 300.5,146.2 303.2,144.9 305.9,143.6 308.6,142.4 311.3,141.1 314.0,139.8 316.7,138.6 319.4,137.3 322.1,136.0 324.8,134.7 327.5,133.5 330.2,132.2 332.8,130.9 335.5,129.7 338.2,128.4 340.9,127.1 343.6,125.8 346.3,124.6 349.0,123.3 351.7,122.0 354.4,120.8 357.1,119.5 359.8,118.2 362.5,116.9 365.2,115.7 367.9,114.4 370.6,113.1 373.3,111.8 376.0,110.6 378.7,109.3 381.3,108.0 384.0,106.8 386.7,105.5 389.4,104.2 392.1,102.9 394.8,101.7 397.5,100.4 400.2,99.1 402.9,97.9 405.6,96.6 408.3,95.3 411.0,94.0 413.7,92.8 416.4,91.5 419.1,90.2 421.8,89.0 424.5,87.7 427.2,86.4 429.8,85.1 432.5,83.9 435.2,82.6 437.9,81.3 440.6,80.0 443.3,78.8 446.0,77.5 448.7,76.2 451.4,75.0 454.1,73.7 456.8,72.4 459.5,71.1 462.2,69.9 464.9,68.6 467.6,67.3 470.3,66.1 473.0,64.8 475.7,63.5 478.4,62.2 481.0,61.0 483.7,59.7 486.4,58.4" fill="none" stroke="#8aa6c8" stroke-width="2.4" stroke-linecap="round" stroke-linejoin="round"/>
<text x="273.6" y="147.8" fill="#8aa6c8" font-size="15" text-anchor="middle">c=-2</text>
<polyline points="58.0,311.3 60.7,310.1 63.4,308.8 66.1,307.5 68.8,306.2 71.5,305.0 74.2,303.7 76.9,302.4 79.6,301.2 82.3,299.9 84.9,298.6 87.6,297.3 90.3,296.1 93.0,294.8 95.7,293.5 98.4,292.3 101.1,291.0 103.8,289.7 106.5,288.4 109.2,287.2 111.9,285.9 114.6,284.6 117.3,283.4 120.0,282.1 122.7,280.8 125.4,279.5 128.1,278.3 130.8,277.0 133.4,275.7 136.1,274.4 138.8,273.2 141.5,271.9 144.2,270.6 146.9,269.4 149.6,268.1 152.3,266.8 155.0,265.5 157.7,264.3 160.4,263.0 163.1,261.7 165.8,260.5 168.5,259.2 171.2,257.9 173.9,256.6 176.6,255.4 179.3,254.1 181.9,252.8 184.6,251.6 187.3,250.3 190.0,249.0 192.7,247.7 195.4,246.5 198.1,245.2 200.8,243.9 203.5,242.6 206.2,241.4 208.9,240.1 211.6,238.8 214.3,237.6 217.0,236.3 219.7,235.0 222.4,233.7 225.1,232.5 227.8,231.2 230.5,229.9 233.1,228.7 235.8,227.4 238.5,226.1 241.2,224.8 243.9,223.6 246.6,222.3 249.3,221.0 252.0,219.8 254.7,218.5 257.4,217.2 260.1,215.9 262.8,214.7 265.5,213.4 268.2,212.1 270.9,210.8 273.6,209.6 276.3,208.3 279.0,207.0 281.6,205.8 284.3,204.5 287.0,203.2 289.7,201.9 292.4,200.7 295.1,199.4 297.8,198.1 300.5,196.9 303.2,195.6 305.9,194.3 308.6,193.0 311.3,191.8 314.0,190.5 316.7,189.2 319.4,188.0 322.1,186.7 324.8,185.4 327.5,184.1 330.2,182.9 332.8,181.6 335.5,180.3 338.2,179.0 340.9,177.8 343.6,176.5 346.3,175.2 349.0,174.0 351.7,172.7 354.4,171.4 357.1,170.1 359.8,168.9 362.5,167.6 365.2,166.3 367.9,165.1 370.6,163.8 373.3,162.5 376.0,161.2 378.7,160.0 381.3,158.7 384.0,157.4 386.7,156.2 389.4,154.9 392.1,153.6 394.8,152.3 397.5,151.1 400.2,149.8 402.9,148.5 405.6,147.2 408.3,146.0 411.0,144.7 413.7,143.4 416.4,142.2 419.1,140.9 421.8,139.6 424.5,138.3 427.2,137.1 429.8,135.8 432.5,134.5 435.2,133.3 437.9,132.0 440.6,130.7 443.3,129.4 446.0,128.2 448.7,126.9 451.4,125.6 454.1,124.4 456.8,123.1 459.5,121.8 462.2,120.5 464.9,119.3 467.6,118.0 470.3,116.7 473.0,115.5 475.7,114.2 478.4,112.9 481.0,111.6 483.7,110.4 486.4,109.1 489.1,107.8 491.8,106.5 494.5,105.3 497.2,104.0 499.9,102.7 502.6,101.5 505.3,100.2 508.0,98.9 510.7,97.6 513.4,96.4 516.1,95.1 518.8,93.8 521.5,92.6 524.2,91.3 526.9,90.0 529.5,88.7 532.2,87.5 534.9,86.2 537.6,84.9 540.3,83.7 543.0,82.4 545.7,81.1 548.4,79.8 551.1,78.6 553.8,77.3 556.5,76.0 559.2,74.7 561.9,73.5 564.6,72.2 567.3,70.9 570.0,69.7 572.7,68.4 575.4,67.1 578.1,65.8 580.7,64.6 583.4,63.3 586.1,62.0 588.8,60.8 591.5,59.5 594.2,58.2" fill="none" stroke="#487eb0" stroke-width="2.4" stroke-linecap="round" stroke-linejoin="round"/>
<text x="327.5" y="173.0" fill="#487eb0" font-size="15" text-anchor="middle">c=-1</text>
<polyline points="58.0,362.0 60.7,360.7 63.4,359.5 66.1,358.2 68.8,356.9 71.5,355.6 74.2,354.4 76.9,353.1 79.6,351.8 82.3,350.6 84.9,349.3 87.6,348.0 90.3,346.7 93.0,345.5 95.7,344.2 98.4,342.9 101.1,341.6 103.8,340.4 106.5,339.1 109.2,337.8 111.9,336.6 114.6,335.3 117.3,334.0 120.0,332.7 122.7,331.5 125.4,330.2 128.1,328.9 130.8,327.7 133.4,326.4 136.1,325.1 138.8,323.8 141.5,322.6 144.2,321.3 146.9,320.0 149.6,318.8 152.3,317.5 155.0,316.2 157.7,314.9 160.4,313.7 163.1,312.4 165.8,311.1 168.5,309.8 171.2,308.6 173.9,307.3 176.6,306.0 179.3,304.8 181.9,303.5 184.6,302.2 187.3,300.9 190.0,299.7 192.7,298.4 195.4,297.1 198.1,295.9 200.8,294.6 203.5,293.3 206.2,292.0 208.9,290.8 211.6,289.5 214.3,288.2 217.0,287.0 219.7,285.7 222.4,284.4 225.1,283.1 227.8,281.9 230.5,280.6 233.1,279.3 235.8,278.1 238.5,276.8 241.2,275.5 243.9,274.2 246.6,273.0 249.3,271.7 252.0,270.4 254.7,269.1 257.4,267.9 260.1,266.6 262.8,265.3 265.5,264.1 268.2,262.8 270.9,261.5 273.6,260.2 276.3,259.0 279.0,257.7 281.6,256.4 284.3,255.2 287.0,253.9 289.7,252.6 292.4,251.3 295.1,250.1 297.8,248.8 300.5,247.5 303.2,246.3 305.9,245.0 308.6,243.7 311.3,242.4 314.0,241.2 316.7,239.9 319.4,238.6 322.1,237.3 324.8,236.1 327.5,234.8 330.2,233.5 332.8,232.3 335.5,231.0 338.2,229.7 340.9,228.4 343.6,227.2 346.3,225.9 349.0,224.6 351.7,223.4 354.4,222.1 357.1,220.8 359.8,219.5 362.5,218.3 365.2,217.0 367.9,215.7 370.6,214.5 373.3,213.2 376.0,211.9 378.7,210.6 381.3,209.4 384.0,208.1 386.7,206.8 389.4,205.5 392.1,204.3 394.8,203.0 397.5,201.7 400.2,200.5 402.9,199.2 405.6,197.9 408.3,196.6 411.0,195.4 413.7,194.1 416.4,192.8 419.1,191.6 421.8,190.3 424.5,189.0 427.2,187.7 429.8,186.5 432.5,185.2 435.2,183.9 437.9,182.7 440.6,181.4 443.3,180.1 446.0,178.8 448.7,177.6 451.4,176.3 454.1,175.0 456.8,173.7 459.5,172.5 462.2,171.2 464.9,169.9 467.6,168.7 470.3,167.4 473.0,166.1 475.7,164.8 478.4,163.6 481.0,162.3 483.7,161.0 486.4,159.8 489.1,158.5 491.8,157.2 494.5,155.9 497.2,154.7 499.9,153.4 502.6,152.1 505.3,150.9 508.0,149.6 510.7,148.3 513.4,147.0 516.1,145.8 518.8,144.5 521.5,143.2 524.2,141.9 526.9,140.7 529.5,139.4 532.2,138.1 534.9,136.9 537.6,135.6 540.3,134.3 543.0,133.0 545.7,131.8 548.4,130.5 551.1,129.2 553.8,128.0 556.5,126.7 559.2,125.4 561.9,124.1 564.6,122.9 567.3,121.6 570.0,120.3 572.7,119.1 575.4,117.8 578.1,116.5 580.7,115.2 583.4,114.0 586.1,112.7 588.8,111.4 591.5,110.2 594.2,108.9 596.9,107.6 599.6,106.3 602.3,105.1 605.0,103.8 607.7,102.5 610.4,101.2 613.1,100.0 615.8,98.7 618.5,97.4 621.2,96.2 623.9,94.9 626.6,93.6 629.2,92.3 631.9,91.1 634.6,89.8 637.3,88.5 640.0,87.3 642.7,86.0 645.4,84.7 648.1,83.4 650.8,82.2 653.5,80.9 656.2,79.6 658.9,78.4 661.6,77.1 664.3,75.8 667.0,74.5 669.7,73.3 672.4,72.0 675.1,70.7 677.7,69.4 680.4,68.2 683.1,66.9 685.8,65.6 688.5,64.4 691.2,63.1 693.9,61.8 696.6,60.5 699.3,59.3 702.0,58.0" fill="none" stroke="#2c8c7c" stroke-width="2.4" stroke-linecap="round" stroke-linejoin="round"/>
<text x="381.3" y="198.2" fill="#2c8c7c" font-size="15" text-anchor="middle">c=0</text>
<polyline points="165.8,361.8 168.5,360.5 171.2,359.2 173.9,358.0 176.6,356.7 179.3,355.4 181.9,354.2 184.6,352.9 187.3,351.6 190.0,350.3 192.7,349.1 195.4,347.8 198.1,346.5 200.8,345.3 203.5,344.0 206.2,342.7 208.9,341.4 211.6,340.2 214.3,338.9 217.0,337.6 219.7,336.3 222.4,335.1 225.1,333.8 227.8,332.5 230.5,331.3 233.1,330.0 235.8,328.7 238.5,327.4 241.2,326.2 243.9,324.9 246.6,323.6 249.3,322.4 252.0,321.1 254.7,319.8 257.4,318.5 260.1,317.3 262.8,316.0 265.5,314.7 268.2,313.5 270.9,312.2 273.6,310.9 276.3,309.6 279.0,308.4 281.6,307.1 284.3,305.8 287.0,304.5 289.7,303.3 292.4,302.0 295.1,300.7 297.8,299.5 300.5,298.2 303.2,296.9 305.9,295.6 308.6,294.4 311.3,293.1 314.0,291.8 316.7,290.6 319.4,289.3 322.1,288.0 324.8,286.7 327.5,285.5 330.2,284.2 332.8,282.9 335.5,281.7 338.2,280.4 340.9,279.1 343.6,277.8 346.3,276.6 349.0,275.3 351.7,274.0 354.4,272.8 357.1,271.5 359.8,270.2 362.5,268.9 365.2,267.7 367.9,266.4 370.6,265.1 373.3,263.8 376.0,262.6 378.7,261.3 381.3,260.0 384.0,258.8 386.7,257.5 389.4,256.2 392.1,254.9 394.8,253.7 397.5,252.4 400.2,251.1 402.9,249.9 405.6,248.6 408.3,247.3 411.0,246.0 413.7,244.8 416.4,243.5 419.1,242.2 421.8,241.0 424.5,239.7 427.2,238.4 429.8,237.1 432.5,235.9 435.2,234.6 437.9,233.3 440.6,232.0 443.3,230.8 446.0,229.5 448.7,228.2 451.4,227.0 454.1,225.7 456.8,224.4 459.5,223.1 462.2,221.9 464.9,220.6 467.6,219.3 470.3,218.1 473.0,216.8 475.7,215.5 478.4,214.2 481.0,213.0 483.7,211.7 486.4,210.4 489.1,209.2 491.8,207.9 494.5,206.6 497.2,205.3 499.9,204.1 502.6,202.8 505.3,201.5 508.0,200.2 510.7,199.0 513.4,197.7 516.1,196.4 518.8,195.2 521.5,193.9 524.2,192.6 526.9,191.3 529.5,190.1 532.2,188.8 534.9,187.5 537.6,186.3 540.3,185.0 543.0,183.7 545.7,182.4 548.4,181.2 551.1,179.9 553.8,178.6 556.5,177.4 559.2,176.1 561.9,174.8 564.6,173.5 567.3,172.3 570.0,171.0 572.7,169.7 575.4,168.4 578.1,167.2 580.7,165.9 583.4,164.6 586.1,163.4 588.8,162.1 591.5,160.8 594.2,159.5 596.9,158.3 599.6,157.0 602.3,155.7 605.0,154.5 607.7,153.2 610.4,151.9 613.1,150.6 615.8,149.4 618.5,148.1 621.2,146.8 623.9,145.6 626.6,144.3 629.2,143.0 631.9,141.7 634.6,140.5 637.3,139.2 640.0,137.9 642.7,136.6 645.4,135.4 648.1,134.1 650.8,132.8 653.5,131.6 656.2,130.3 658.9,129.0 661.6,127.7 664.3,126.5 667.0,125.2 669.7,123.9 672.4,122.7 675.1,121.4 677.7,120.1 680.4,118.8 683.1,117.6 685.8,116.3 688.5,115.0 691.2,113.8 693.9,112.5 696.6,111.2 699.3,109.9 702.0,108.7" fill="none" stroke="#d27a22" stroke-width="2.4" stroke-linecap="round" stroke-linejoin="round"/>
<text x="435.2" y="223.4" fill="#d27a22" font-size="15" text-anchor="middle">c=1</text>
<polyline points="273.6,361.6 276.3,360.3 279.0,359.0 281.6,357.8 284.3,356.5 287.0,355.2 289.7,353.9 292.4,352.7 295.1,351.4 297.8,350.1 300.5,348.9 303.2,347.6 305.9,346.3 308.6,345.0 311.3,343.8 314.0,342.5 316.7,341.2 319.4,340.0 322.1,338.7 324.8,337.4 327.5,336.1 330.2,334.9 332.8,333.6 335.5,332.3 338.2,331.0 340.9,329.8 343.6,328.5 346.3,327.2 349.0,326.0 351.7,324.7 354.4,323.4 357.1,322.1 359.8,320.9 362.5,319.6 365.2,318.3 367.9,317.1 370.6,315.8 373.3,314.5 376.0,313.2 378.7,312.0 381.3,310.7 384.0,309.4 386.7,308.2 389.4,306.9 392.1,305.6 394.8,304.3 397.5,303.1 400.2,301.8 402.9,300.5 405.6,299.2 408.3,298.0 411.0,296.7 413.7,295.4 416.4,294.2 419.1,292.9 421.8,291.6 424.5,290.3 427.2,289.1 429.8,287.8 432.5,286.5 435.2,285.3 437.9,284.0 440.6,282.7 443.3,281.4 446.0,280.2 448.7,278.9 451.4,277.6 454.1,276.4 456.8,275.1 459.5,273.8 462.2,272.5 464.9,271.3 467.6,270.0 470.3,268.7 473.0,267.5 475.7,266.2 478.4,264.9 481.0,263.6 483.7,262.4 486.4,261.1 489.1,259.8 491.8,258.5 494.5,257.3 497.2,256.0 499.9,254.7 502.6,253.5 505.3,252.2 508.0,250.9 510.7,249.6 513.4,248.4 516.1,247.1 518.8,245.8 521.5,244.6 524.2,243.3 526.9,242.0 529.5,240.7 532.2,239.5 534.9,238.2 537.6,236.9 540.3,235.7 543.0,234.4 545.7,233.1 548.4,231.8 551.1,230.6 553.8,229.3 556.5,228.0 559.2,226.7 561.9,225.5 564.6,224.2 567.3,222.9 570.0,221.7 572.7,220.4 575.4,219.1 578.1,217.8 580.7,216.6 583.4,215.3 586.1,214.0 588.8,212.8 591.5,211.5 594.2,210.2 596.9,208.9 599.6,207.7 602.3,206.4 605.0,205.1 607.7,203.9 610.4,202.6 613.1,201.3 615.8,200.0 618.5,198.8 621.2,197.5 623.9,196.2 626.6,194.9 629.2,193.7 631.9,192.4 634.6,191.1 637.3,189.9 640.0,188.6 642.7,187.3 645.4,186.0 648.1,184.8 650.8,183.5 653.5,182.2 656.2,181.0 658.9,179.7 661.6,178.4 664.3,177.1 667.0,175.9 669.7,174.6 672.4,173.3 675.1,172.1 677.7,170.8 680.4,169.5 683.1,168.2 685.8,167.0 688.5,165.7 691.2,164.4 693.9,163.1 696.6,161.9 699.3,160.6 702.0,159.3" fill="none" stroke="#c92331" stroke-width="2.4" stroke-linecap="round" stroke-linejoin="round"/>
<text x="489.1" y="248.7" fill="#c92331" font-size="15" text-anchor="middle">c=2</text>
</svg>
