<svg xmlns="http://www.w3.org/2000/svg" width="760" height="420" viewBox="0 0 760 420" role="img" aria-label="f=|x|+y^2 at y=0">

<defs>
  <marker id="arrow" viewBox="0 0 10 10" refX="8.5" refY="5" markerWidth="7" markerHeight="7" orient="auto-start-reverse">
    <path d="M 0 0 L 10 5 L 0 10 z" fill="#24323a"/>
  </marker>
</defs>

<style>
  text { font-family: Arial, sans-serif; }
</style>
<rect x="0" y="0" width="760" height="420" rx="18" fill="#ffffff"/>
<rect x="58" y="58" width="644" height="304" fill="#fbfcfe" stroke="#d8e1e8" stroke-width="1"/>
<line x1="58.0" y1="362.0" x2="58.0" y2="58.0" stroke="#edf0f3" stroke-width="0.8" fill="none"/>
<line x1="219.0" y1="362.0" x2="219.0" y2="58.0" stroke="#edf0f3" stroke-width="0.8" fill="none"/>
<line x1="380.0" y1="362.0" x2="380.0" y2="58.0" stroke="#d9e0e7" stroke-width="1.35" fill="none"/>
<line x1="541.0" y1="362.0" x2="541.0" y2="58.0" stroke="#edf0f3" stroke-width="0.8" fill="none"/>
<line x1="702.0" y1="362.0" x2="702.0" y2="58.0" stroke="#edf0f3" stroke-width="0.8" fill="none"/>
<line x1="58.0" y1="338.6" x2="702.0" y2="338.6" stroke="#d9e0e7" stroke-width="1.35" fill="none"/>
<line x1="58.0" y1="221.7" x2="702.0" y2="221.7" stroke="#edf0f3" stroke-width="0.8" fill="none"/>
<line x1="58.0" y1="104.8" x2="702.0" y2="104.8" stroke="#edf0f3" stroke-width="0.8" fill="none"/>
<line x1="58.0" y1="338.6" x2="702.0" y2="338.6" stroke="#24323a" stroke-width="1.4" fill="none" marker-end="url(#arrow)"/>
<line x1="380.0" y1="362.0" x2="380.0" y2="58.0" stroke="#24323a" stroke-width="1.4" fill="none" marker-end="url(#arrow)"/>
<text x="605.4" y="362.9" fill="#24323a" font-size="18" text-anchor="middle">x</text>
<text x="431.5" y="82.3" fill="#24323a" font-size="18" text-anchor="middle">y</text>
<text x="70" y="36" fill="#334" font-size="20">f=|x|+y^2 at y=0</text>
<polyline points="58.0,104.8 60.5,106.6 63.0,108.4 65.5,110.2 67.9,112.0 70.4,113.8 72.9,115.6 75.4,117.4 77.9,119.2 80.4,121.0 82.9,122.8 85.4,124.6 87.8,126.4 90.3,128.2 92.8,130.0 95.3,131.9 97.8,133.7 100.3,135.5 102.8,137.3 105.2,139.1 107.7,140.9 110.2,142.7 112.7,144.5 115.2,146.3 117.7,148.1 120.2,149.9 122.6,151.7 125.1,153.5 127.6,155.3 130.1,157.1 132.6,158.9 135.1,160.7 137.6,162.6 140.1,164.4 142.5,166.2 145.0,168.0 147.5,169.8 150.0,171.6 152.5,173.4 155.0,175.2 157.5,177.0 159.9,178.8 162.4,180.6 164.9,182.4 167.4,184.2 169.9,186.0 172.4,187.8 174.9,189.6 177.4,191.4 179.8,193.3 182.3,195.1 184.8,196.9 187.3,198.7 189.8,200.5 192.3,202.3 194.8,204.1 197.2,205.9 199.7,207.7 202.2,209.5 204.7,211.3 207.2,213.1 209.7,214.9 212.2,216.7 214.6,218.5 217.1,220.3 219.6,222.1 222.1,223.9 224.6,225.8 227.1,227.6 229.6,229.4 232.1,231.2 234.5,233.0 237.0,234.8 239.5,236.6 242.0,238.4 244.5,240.2 247.0,242.0 249.5,243.8 251.9,245.6 254.4,247.4 256.9,249.2 259.4,251.0 261.9,252.8 264.4,254.6 266.9,256.5 269.4,258.3 271.8,260.1 274.3,261.9 276.8,263.7 279.3,265.5 281.8,267.3 284.3,269.1 286.8,270.9 289.2,272.7 291.7,274.5 294.2,276.3 296.7,278.1 299.2,279.9 301.7,281.7 304.2,283.5 306.6,285.3 309.1,287.2 311.6,289.0 314.1,290.8 316.6,292.6 319.1,294.4 321.6,296.2 324.1,298.0 326.5,299.8 329.0,301.6 331.5,303.4 334.0,305.2 336.5,307.0 339.0,308.8 341.5,310.6 343.9,312.4 346.4,314.2 348.9,316.0 351.4,317.8 353.9,319.7 356.4,321.5 358.9,323.3 361.4,325.1 363.8,326.9 366.3,328.7 368.8,330.5 371.3,332.3 373.8,334.1 376.3,335.9 378.8,337.7 381.2,337.7 383.7,335.9 386.2,334.1 388.7,332.3 391.2,330.5 393.7,328.7 396.2,326.9 398.6,325.1 401.1,323.3 403.6,321.5 406.1,319.7 408.6,317.8 411.1,316.0 413.6,314.2 416.1,312.4 418.5,310.6 421.0,308.8 423.5,307.0 426.0,305.2 428.5,303.4 431.0,301.6 433.5,299.8 435.9,298.0 438.4,296.2 440.9,294.4 443.4,292.6 445.9,290.8 448.4,289.0 450.9,287.2 453.4,285.3 455.8,283.5 458.3,281.7 460.8,279.9 463.3,278.1 465.8,276.3 468.3,274.5 470.8,272.7 473.2,270.9 475.7,269.1 478.2,267.3 480.7,265.5 483.2,263.7 485.7,261.9 488.2,260.1 490.6,258.3 493.1,256.5 495.6,254.6 498.1,252.8 500.6,251.0 503.1,249.2 505.6,247.4 508.1,245.6 510.5,243.8 513.0,242.0 515.5,240.2 518.0,238.4 520.5,236.6 523.0,234.8 525.5,233.0 527.9,231.2 530.4,229.4 532.9,227.6 535.4,225.8 537.9,223.9 540.4,222.1 542.9,220.3 545.4,218.5 547.8,216.7 550.3,214.9 552.8,213.1 555.3,211.3 557.8,209.5 560.3,207.7 562.8,205.9 565.2,204.1 567.7,202.3 570.2,200.5 572.7,198.7 575.2,196.9 577.7,195.1 580.2,193.3 582.6,191.4 585.1,189.6 587.6,187.8 590.1,186.0 592.6,184.2 595.1,182.4 597.6,180.6 600.1,178.8 602.5,177.0 605.0,175.2 607.5,173.4 610.0,171.6 612.5,169.8 615.0,168.0 617.5,166.2 619.9,164.4 622.4,162.6 624.9,160.7 627.4,158.9 629.9,157.1 632.4,155.3 634.9,153.5 637.4,151.7 639.8,149.9 642.3,148.1 644.8,146.3 647.3,144.5 649.8,142.7 652.3,140.9 654.8,139.1 657.2,137.3 659.7,135.5 662.2,133.7 664.7,131.9 667.2,130.0 669.7,128.2 672.2,126.4 674.6,124.6 677.1,122.8 679.6,121.0 682.1,119.2 684.6,117.4 687.1,115.6 689.6,113.8 692.1,112.0 694.5,110.2 697.0,108.4 699.5,106.6 702.0,104.8" fill="none" stroke="#c92331" stroke-width="3" stroke-linecap="round" stroke-linejoin="round"/><text x="468.5" y="286.0" fill="#c92331" font-size="16" text-anchor="middle">corner at x=0</text>
</svg>
