<svg xmlns="http://www.w3.org/2000/svg" width="760" height="420" viewBox="0 0 760 420" role="img" aria-label="direction slices">
<defs>
  <marker id="arrow" viewBox="0 0 10 10" refX="8.5" refY="5" markerWidth="7" markerHeight="7" orient="auto-start-reverse">
    <path d="M 0 0 L 10 5 L 0 10 z" fill="#24323a"/>
  </marker>
</defs>
<style>
  text { font-family: Arial, sans-serif; }
</style>
<rect x="0" y="0" width="760" height="420" rx="18" fill="#ffffff"/>
<rect x="58" y="58" width="644" height="304" fill="#fbfcfe" stroke="#d8e1e8" stroke-width="1"/>
<line x1="58.0" y1="362.0" x2="58.0" y2="58.0" stroke="#edf0f3" stroke-width="0.8" fill="none"/>
<line x1="219.0" y1="362.0" x2="219.0" y2="58.0" stroke="#edf0f3" stroke-width="0.8" fill="none"/>
<line x1="380.0" y1="362.0" x2="380.0" y2="58.0" stroke="#d9e0e7" stroke-width="1.35" fill="none"/>
<line x1="541.0" y1="362.0" x2="541.0" y2="58.0" stroke="#edf0f3" stroke-width="0.8" fill="none"/>
<line x1="702.0" y1="362.0" x2="702.0" y2="58.0" stroke="#edf0f3" stroke-width="0.8" fill="none"/>
<line x1="58.0" y1="336.7" x2="702.0" y2="336.7" stroke="#edf0f3" stroke-width="0.8" fill="none"/>
<line x1="58.0" y1="273.3" x2="702.0" y2="273.3" stroke="#edf0f3" stroke-width="0.8" fill="none"/>
<line x1="58.0" y1="210.0" x2="702.0" y2="210.0" stroke="#d9e0e7" stroke-width="1.35" fill="none"/>
<line x1="58.0" y1="146.7" x2="702.0" y2="146.7" stroke="#edf0f3" stroke-width="0.8" fill="none"/>
<line x1="58.0" y1="83.3" x2="702.0" y2="83.3" stroke="#edf0f3" stroke-width="0.8" fill="none"/>
<line x1="58.0" y1="210.0" x2="702.0" y2="210.0" stroke="#24323a" stroke-width="1.4" fill="none" marker-end="url(#arrow)"/>
<line x1="380.0" y1="362.0" x2="380.0" y2="58.0" stroke="#24323a" stroke-width="1.4" fill="none" marker-end="url(#arrow)"/>
<text x="605.4" y="210.1" fill="#24323a" font-size="18" text-anchor="middle">t</text>
<text x="431.5" y="82.3" fill="#24323a" font-size="18" text-anchor="middle">value</text>
<text x="70" y="36" fill="#334" font-size="20">direction slices</text>
<polyline points="58.0,210.0 61.6,210.0 65.2,210.0 68.8,210.0 72.4,210.0 76.0,210.0 79.6,210.0 83.2,210.0 86.8,210.0 90.4,210.0 94.0,210.0 97.6,210.0 101.2,210.0 104.8,210.0 108.4,210.0 112.0,210.0 115.6,210.0 119.2,210.0 122.8,210.0 126.4,210.0 130.0,210.0 133.6,210.0 137.2,210.0 140.7,210.0 144.3,210.0 147.9,210.0 151.5,210.0 155.1,210.0 158.7,210.0 162.3,210.0 165.9,210.0 169.5,210.0 173.1,210.0 176.7,210.0 180.3,210.0 183.9,210.0 187.5,210.0 191.1,210.0 194.7,210.0 198.3,210.0 201.9,210.0 205.5,210.0 209.1,210.0 212.7,210.0 216.3,210.0 219.9,210.0 223.5,210.0 227.1,210.0 230.7,210.0 234.3,210.0 237.9,210.0 241.5,210.0 245.1,210.0 248.7,210.0 252.3,210.0 255.9,210.0 259.5,210.0 263.1,210.0 266.7,210.0 270.3,210.0 273.9,210.0 277.5,210.0 281.1,210.0 284.7,210.0 288.3,210.0 291.9,210.0 295.5,210.0 299.1,210.0 302.6,210.0 306.2,210.0 309.8,210.0 313.4,210.0 317.0,210.0 320.6,210.0 324.2,210.0 327.8,210.0 331.4,210.0 335.0,210.0 338.6,210.0 342.2,210.0 345.8,210.0 349.4,210.0 353.0,210.0 356.6,210.0 360.2,210.0 363.8,210.0 367.4,210.0 371.0,210.0 374.6,210.0 378.2,210.0 381.8,210.0 385.4,210.0 389.0,210.0 392.6,210.0 396.2,210.0 399.8,210.0 403.4,210.0 407.0,210.0 410.6,210.0 414.2,210.0 417.8,210.0 421.4,210.0 425.0,210.0 428.6,210.0 432.2,210.0 435.8,210.0 439.4,210.0 443.0,210.0 446.6,210.0 450.2,210.0 453.8,210.0 457.4,210.0 460.9,210.0 464.5,210.0 468.1,210.0 471.7,210.0 475.3,210.0 478.9,210.0 482.5,210.0 486.1,210.0 489.7,210.0 493.3,210.0 496.9,210.0 500.5,210.0 504.1,210.0 507.7,210.0 511.3,210.0 514.9,210.0 518.5,210.0 522.1,210.0 525.7,210.0 529.3,210.0 532.9,210.0 536.5,210.0 540.1,210.0 543.7,210.0 547.3,210.0 550.9,210.0 554.5,210.0 558.1,210.0 561.7,210.0 565.3,210.0 568.9,210.0 572.5,210.0 576.1,210.0 579.7,210.0 583.3,210.0 586.9,210.0 590.5,210.0 594.1,210.0 597.7,210.0 601.3,210.0 604.9,210.0 608.5,210.0 612.1,210.0 615.7,210.0 619.3,210.0 622.8,210.0 626.4,210.0 630.0,210.0 633.6,210.0 637.2,210.0 640.8,210.0 644.4,210.0 648.0,210.0 651.6,210.0 655.2,210.0 658.8,210.0 662.4,210.0 666.0,210.0 669.6,210.0 673.2,210.0 676.8,210.0 680.4,210.0 684.0,210.0 687.6,210.0 691.2,210.0 694.8,210.0 698.4,210.0 702.0,210.0" fill="none" stroke="#174bb4" stroke-width="3" stroke-linecap="round" stroke-linejoin="round" stroke-dasharray="9 6"/>
<polyline points="58.0,336.7 61.6,335.3 65.2,333.8 68.8,332.4 72.4,331.0 76.0,329.6 79.6,328.2 83.2,326.8 86.8,325.3 90.4,323.9 94.0,322.5 97.6,321.1 101.2,319.7 104.8,318.3 108.4,316.9 112.0,315.4 115.6,314.0 119.2,312.6 122.8,311.2 126.4,309.8 130.0,308.4 133.6,306.9 137.2,305.5 140.7,304.1 144.3,302.7 147.9,301.3 151.5,299.9 155.1,298.5 158.7,297.0 162.3,295.6 165.9,294.2 169.5,292.8 173.1,291.4 176.7,290.0 180.3,288.5 183.9,287.1 187.5,285.7 191.1,284.3 194.7,282.9 198.3,281.5 201.9,280.1 205.5,278.6 209.1,277.2 212.7,275.8 216.3,274.4 219.9,273.0 223.5,271.6 227.1,270.1 230.7,268.7 234.3,267.3 237.9,265.9 241.5,264.5 245.1,263.1 248.7,261.7 252.3,260.2 255.9,258.8 259.5,257.4 263.1,256.0 266.7,254.6 270.3,253.2 273.9,251.8 277.5,250.3 281.1,248.9 284.7,247.5 288.3,246.1 291.9,244.7 295.5,243.3 299.1,241.8 302.6,240.4 306.2,239.0 309.8,237.6 313.4,236.2 317.0,234.8 320.6,233.4 324.2,231.9 327.8,230.5 331.4,229.1 335.0,227.7 338.6,226.3 342.2,224.9 345.8,223.4 349.4,222.0 353.0,220.6 356.6,219.2 360.2,217.8 363.8,216.4 367.4,215.0 371.0,213.5 374.6,212.1 378.2,210.7 381.8,209.3 385.4,207.9 389.0,206.5 392.6,205.0 396.2,203.6 399.8,202.2 403.4,200.8 407.0,199.4 410.6,198.0 414.2,196.6 417.8,195.1 421.4,193.7 425.0,192.3 428.6,190.9 432.2,189.5 435.8,188.1 439.4,186.6 443.0,185.2 446.6,183.8 450.2,182.4 453.8,181.0 457.4,179.6 460.9,178.2 464.5,176.7 468.1,175.3 471.7,173.9 475.3,172.5 478.9,171.1 482.5,169.7 486.1,168.2 489.7,166.8 493.3,165.4 496.9,164.0 500.5,162.6 504.1,161.2 507.7,159.8 511.3,158.3 514.9,156.9 518.5,155.5 522.1,154.1 525.7,152.7 529.3,151.3 532.9,149.9 536.5,148.4 540.1,147.0 543.7,145.6 547.3,144.2 550.9,142.8 554.5,141.4 558.1,139.9 561.7,138.5 565.3,137.1 568.9,135.7 572.5,134.3 576.1,132.9 579.7,131.5 583.3,130.0 586.9,128.6 590.5,127.2 594.1,125.8 597.7,124.4 601.3,123.0 604.9,121.5 608.5,120.1 612.1,118.7 615.7,117.3 619.3,115.9 622.8,114.5 626.4,113.1 630.0,111.6 633.6,110.2 637.2,108.8 640.8,107.4 644.4,106.0 648.0,104.6 651.6,103.1 655.2,101.7 658.8,100.3 662.4,98.9 666.0,97.5 669.6,96.1 673.2,94.7 676.8,93.2 680.4,91.8 684.0,90.4 687.6,89.0 691.2,87.6 694.8,86.2 698.4,84.7 702.0,83.3" fill="none" stroke="#c92331" stroke-width="3" stroke-linecap="round" stroke-linejoin="round"/>
<text x="194.9" y="187.2" fill="#174bb4" font-size="16" text-anchor="middle">f(t,0)=0</text>
<text x="549.0" y="111.2" fill="#c92331" font-size="16" text-anchor="middle">f(t,t)=t/2</text>
</svg>
