<svg xmlns="http://www.w3.org/2000/svg" width="760" height="420" viewBox="0 0 760 420" role="img" aria-label="mixed partials">

<defs>
  <marker id="arrow" viewBox="0 0 10 10" refX="8.5" refY="5" markerWidth="7" markerHeight="7" orient="auto-start-reverse">
    <path d="M 0 0 L 10 5 L 0 10 z" fill="#24323a"/>
  </marker>
</defs>

<style>
  text { font-family: Arial, sans-serif; }
</style>
<rect x="0" y="0" width="760" height="420" rx="18" fill="#ffffff"/>
<rect x="58" y="58" width="644" height="304" fill="#fbfcfe" stroke="#d8e1e8" stroke-width="1"/>
<line x1="141.5" y1="362.0" x2="141.5" y2="58.0" stroke="#edf0f3" stroke-width="0.8" fill="none"/>
<line x1="380.0" y1="362.0" x2="380.0" y2="58.0" stroke="#d9e0e7" stroke-width="1.35" fill="none"/>
<line x1="618.5" y1="362.0" x2="618.5" y2="58.0" stroke="#edf0f3" stroke-width="0.8" fill="none"/>
<line x1="58.0" y1="356.0" x2="702.0" y2="356.0" stroke="#d9e0e7" stroke-width="1.35" fill="none"/>
<line x1="58.0" y1="326.2" x2="702.0" y2="326.2" stroke="#edf0f3" stroke-width="0.8" fill="none"/>
<line x1="58.0" y1="296.4" x2="702.0" y2="296.4" stroke="#edf0f3" stroke-width="0.8" fill="none"/>
<line x1="58.0" y1="266.6" x2="702.0" y2="266.6" stroke="#edf0f3" stroke-width="0.8" fill="none"/>
<line x1="58.0" y1="236.8" x2="702.0" y2="236.8" stroke="#edf0f3" stroke-width="0.8" fill="none"/>
<line x1="58.0" y1="207.0" x2="702.0" y2="207.0" stroke="#edf0f3" stroke-width="0.8" fill="none"/>
<line x1="58.0" y1="177.2" x2="702.0" y2="177.2" stroke="#edf0f3" stroke-width="0.8" fill="none"/>
<line x1="58.0" y1="147.4" x2="702.0" y2="147.4" stroke="#edf0f3" stroke-width="0.8" fill="none"/>
<line x1="58.0" y1="117.6" x2="702.0" y2="117.6" stroke="#edf0f3" stroke-width="0.8" fill="none"/>
<line x1="58.0" y1="87.8" x2="702.0" y2="87.8" stroke="#edf0f3" stroke-width="0.8" fill="none"/>
<line x1="58.0" y1="58.0" x2="702.0" y2="58.0" stroke="#edf0f3" stroke-width="0.8" fill="none"/>
<line x1="58.0" y1="356.0" x2="702.0" y2="356.0" stroke="#24323a" stroke-width="1.4" fill="none" marker-end="url(#arrow)"/>
<line x1="380.0" y1="362.0" x2="380.0" y2="58.0" stroke="#24323a" stroke-width="1.4" fill="none" marker-end="url(#arrow)"/>
<text x="605.4" y="380.4" fill="#24323a" font-size="18" text-anchor="middle">x</text>
<text x="431.5" y="82.3" fill="#24323a" font-size="18" text-anchor="middle">y</text>
<text x="70" y="36" fill="#334" font-size="20">mixed partials</text>
<polyline points="58.0,-164.4 60.5,-145.0 63.0,-126.4 65.5,-108.6 67.9,-91.5 70.4,-75.2 72.9,-59.5 75.4,-44.5 77.9,-30.1 80.4,-16.2 82.9,-3.0 85.4,9.7 87.8,21.9 90.3,33.6 92.8,44.9 95.3,55.6 97.8,66.0 100.3,75.9 102.8,85.5 105.2,94.6 107.7,103.4 110.2,111.9 112.7,120.0 115.2,127.8 117.7,135.3 120.2,142.5 122.6,149.4 125.1,156.1 127.6,162.5 130.1,168.7 132.6,174.6 135.1,180.3 137.6,185.8 140.1,191.1 142.5,196.1 145.0,201.0 147.5,205.8 150.0,210.3 152.5,214.7 155.0,218.9 157.5,222.9 159.9,226.8 162.4,230.6 164.9,234.2 167.4,237.7 169.9,241.0 172.4,244.3 174.9,247.4 177.4,250.4 179.8,253.3 182.3,256.1 184.8,258.8 187.3,261.4 189.8,263.9 192.3,266.4 194.8,268.7 197.2,271.0 199.7,273.1 202.2,275.2 204.7,277.3 207.2,279.2 209.7,281.1 212.2,282.9 214.6,284.7 217.1,286.4 219.6,288.0 222.1,289.6 224.6,291.1 227.1,292.6 229.6,294.0 232.1,295.4 234.5,296.7 237.0,298.0 239.5,299.2 242.0,300.4 244.5,301.6 247.0,302.7 249.5,303.8 251.9,304.8 254.4,305.8 256.9,306.8 259.4,307.7 261.9,308.6 264.4,309.5 266.9,310.3 269.4,311.1 271.8,311.9 274.3,312.7 276.8,313.4 279.3,314.1 281.8,314.7 284.3,315.4 286.8,316.0 289.2,316.6 291.7,317.2 294.2,317.7 296.7,318.3 299.2,318.8 301.7,319.3 304.2,319.7 306.6,320.2 309.1,320.6 311.6,321.0 314.1,321.4 316.6,321.8 319.1,322.2 321.6,322.5 324.1,322.8 326.5,323.1 329.0,323.4 331.5,323.7 334.0,324.0 336.5,324.2 339.0,324.4 341.5,324.6 343.9,324.8 346.4,325.0 348.9,325.2 351.4,325.4 353.9,325.5 356.4,325.6 358.9,325.8 361.4,325.9 363.8,326.0 366.3,326.0 368.8,326.1 371.3,326.2 373.8,326.2 376.3,326.2 378.8,326.2 381.2,326.2 383.7,326.2 386.2,326.2 388.7,326.2 391.2,326.1 393.7,326.0 396.2,326.0 398.6,325.9 401.1,325.8 403.6,325.6 406.1,325.5 408.6,325.4 411.1,325.2 413.6,325.0 416.1,324.8 418.5,324.6 421.0,324.4 423.5,324.2 426.0,324.0 428.5,323.7 431.0,323.4 433.5,323.1 435.9,322.8 438.4,322.5 440.9,322.2 443.4,321.8 445.9,321.4 448.4,321.0 450.9,320.6 453.4,320.2 455.8,319.7 458.3,319.3 460.8,318.8 463.3,318.3 465.8,317.7 468.3,317.2 470.8,316.6 473.2,316.0 475.7,315.4 478.2,314.7 480.7,314.1 483.2,313.4 485.7,312.7 488.2,311.9 490.6,311.1 493.1,310.3 495.6,309.5 498.1,308.6 500.6,307.7 503.1,306.8 505.6,305.8 508.1,304.8 510.5,303.8 513.0,302.7 515.5,301.6 518.0,300.4 520.5,299.2 523.0,298.0 525.5,296.7 527.9,295.4 530.4,294.0 532.9,292.6 535.4,291.1 537.9,289.6 540.4,288.0 542.9,286.4 545.4,284.7 547.8,282.9 550.3,281.1 552.8,279.2 555.3,277.3 557.8,275.2 560.3,273.1 562.8,271.0 565.2,268.7 567.7,266.4 570.2,263.9 572.7,261.4 575.2,258.8 577.7,256.1 580.2,253.3 582.6,250.4 585.1,247.4 587.6,244.3 590.1,241.0 592.6,237.7 595.1,234.2 597.6,230.6 600.1,226.8 602.5,222.9 605.0,218.9 607.5,214.7 610.0,210.3 612.5,205.8 615.0,201.0 617.5,196.1 619.9,191.1 622.4,185.8 624.9,180.3 627.4,174.6 629.9,168.7 632.4,162.5 634.9,156.1 637.4,149.4 639.8,142.5 642.3,135.3 644.8,127.8 647.3,120.0 649.8,111.9 652.3,103.4 654.8,94.6 657.2,85.5 659.7,75.9 662.2,66.0 664.7,55.6 667.2,44.9 669.7,33.6 672.2,21.9 674.6,9.7 677.1,-3.0 679.6,-16.2 682.1,-30.1 684.6,-44.5 687.1,-59.5 689.6,-75.2 692.1,-91.5 694.5,-108.6 697.0,-126.4 699.5,-145.0 702.0,-164.4" fill="none" stroke="#174bb4" stroke-width="3" stroke-linecap="round" stroke-linejoin="round"/><polyline points="58.0,-164.4 60.5,-145.0 63.0,-126.4 65.5,-108.6 67.9,-91.5 70.4,-75.2 72.9,-59.5 75.4,-44.5 77.9,-30.1 80.4,-16.2 82.9,-3.0 85.4,9.7 87.8,21.9 90.3,33.6 92.8,44.9 95.3,55.6 97.8,66.0 100.3,75.9 102.8,85.5 105.2,94.6 107.7,103.4 110.2,111.9 112.7,120.0 115.2,127.8 117.7,135.3 120.2,142.5 122.6,149.4 125.1,156.1 127.6,162.5 130.1,168.7 132.6,174.6 135.1,180.3 137.6,185.8 140.1,191.1 142.5,196.1 145.0,201.0 147.5,205.8 150.0,210.3 152.5,214.7 155.0,218.9 157.5,222.9 159.9,226.8 162.4,230.6 164.9,234.2 167.4,237.7 169.9,241.0 172.4,244.3 174.9,247.4 177.4,250.4 179.8,253.3 182.3,256.1 184.8,258.8 187.3,261.4 189.8,263.9 192.3,266.4 194.8,268.7 197.2,271.0 199.7,273.1 202.2,275.2 204.7,277.3 207.2,279.2 209.7,281.1 212.2,282.9 214.6,284.7 217.1,286.4 219.6,288.0 222.1,289.6 224.6,291.1 227.1,292.6 229.6,294.0 232.1,295.4 234.5,296.7 237.0,298.0 239.5,299.2 242.0,300.4 244.5,301.6 247.0,302.7 249.5,303.8 251.9,304.8 254.4,305.8 256.9,306.8 259.4,307.7 261.9,308.6 264.4,309.5 266.9,310.3 269.4,311.1 271.8,311.9 274.3,312.7 276.8,313.4 279.3,314.1 281.8,314.7 284.3,315.4 286.8,316.0 289.2,316.6 291.7,317.2 294.2,317.7 296.7,318.3 299.2,318.8 301.7,319.3 304.2,319.7 306.6,320.2 309.1,320.6 311.6,321.0 314.1,321.4 316.6,321.8 319.1,322.2 321.6,322.5 324.1,322.8 326.5,323.1 329.0,323.4 331.5,323.7 334.0,324.0 336.5,324.2 339.0,324.4 341.5,324.6 343.9,324.8 346.4,325.0 348.9,325.2 351.4,325.4 353.9,325.5 356.4,325.6 358.9,325.8 361.4,325.9 363.8,326.0 366.3,326.0 368.8,326.1 371.3,326.2 373.8,326.2 376.3,326.2 378.8,326.2 381.2,326.2 383.7,326.2 386.2,326.2 388.7,326.2 391.2,326.1 393.7,326.0 396.2,326.0 398.6,325.9 401.1,325.8 403.6,325.6 406.1,325.5 408.6,325.4 411.1,325.2 413.6,325.0 416.1,324.8 418.5,324.6 421.0,324.4 423.5,324.2 426.0,324.0 428.5,323.7 431.0,323.4 433.5,323.1 435.9,322.8 438.4,322.5 440.9,322.2 443.4,321.8 445.9,321.4 448.4,321.0 450.9,320.6 453.4,320.2 455.8,319.7 458.3,319.3 460.8,318.8 463.3,318.3 465.8,317.7 468.3,317.2 470.8,316.6 473.2,316.0 475.7,315.4 478.2,314.7 480.7,314.1 483.2,313.4 485.7,312.7 488.2,311.9 490.6,311.1 493.1,310.3 495.6,309.5 498.1,308.6 500.6,307.7 503.1,306.8 505.6,305.8 508.1,304.8 510.5,303.8 513.0,302.7 515.5,301.6 518.0,300.4 520.5,299.2 523.0,298.0 525.5,296.7 527.9,295.4 530.4,294.0 532.9,292.6 535.4,291.1 537.9,289.6 540.4,288.0 542.9,286.4 545.4,284.7 547.8,282.9 550.3,281.1 552.8,279.2 555.3,277.3 557.8,275.2 560.3,273.1 562.8,271.0 565.2,268.7 567.7,266.4 570.2,263.9 572.7,261.4 575.2,258.8 577.7,256.1 580.2,253.3 582.6,250.4 585.1,247.4 587.6,244.3 590.1,241.0 592.6,237.7 595.1,234.2 597.6,230.6 600.1,226.8 602.5,222.9 605.0,218.9 607.5,214.7 610.0,210.3 612.5,205.8 615.0,201.0 617.5,196.1 619.9,191.1 622.4,185.8 624.9,180.3 627.4,174.6 629.9,168.7 632.4,162.5 634.9,156.1 637.4,149.4 639.8,142.5 642.3,135.3 644.8,127.8 647.3,120.0 649.8,111.9 652.3,103.4 654.8,94.6 657.2,85.5 659.7,75.9 662.2,66.0 664.7,55.6 667.2,44.9 669.7,33.6 672.2,21.9 674.6,9.7 677.1,-3.0 679.6,-16.2 682.1,-30.1 684.6,-44.5 687.1,-59.5 689.6,-75.2 692.1,-91.5 694.5,-108.6 697.0,-126.4 699.5,-145.0 702.0,-164.4" fill="none" stroke="#c92331" stroke-width="2.2" stroke-linecap="round" stroke-linejoin="round" stroke-dasharray="8 7"/><text x="535.0" y="230.9" fill="#174bb4" font-size="16" text-anchor="middle">f_xy=f_yx</text>
</svg>
