<svg xmlns="http://www.w3.org/2000/svg" width="760" height="420" viewBox="0 0 760 420" role="img" aria-label="f=(1/4)x-y">
<defs>
  <marker id="arrow" viewBox="0 0 10 10" refX="8.5" refY="5" markerWidth="7" markerHeight="7" orient="auto-start-reverse">
    <path d="M 0 0 L 10 5 L 0 10 z" fill="#24323a"/>
  </marker>
</defs>
<style>
  text { font-family: Arial, sans-serif; }
</style>
<rect x="0" y="0" width="760" height="420" rx="18" fill="#ffffff"/>
<rect x="58" y="58" width="644" height="304" fill="#fbfcfe" stroke="#d8e1e8" stroke-width="1"/>
<line x1="58.0" y1="362.0" x2="58.0" y2="58.0" stroke="#edf0f3" stroke-width="0.8" fill="none"/>
<line x1="219.0" y1="362.0" x2="219.0" y2="58.0" stroke="#edf0f3" stroke-width="0.8" fill="none"/>
<line x1="380.0" y1="362.0" x2="380.0" y2="58.0" stroke="#d9e0e7" stroke-width="1.35" fill="none"/>
<line x1="541.0" y1="362.0" x2="541.0" y2="58.0" stroke="#edf0f3" stroke-width="0.8" fill="none"/>
<line x1="702.0" y1="362.0" x2="702.0" y2="58.0" stroke="#edf0f3" stroke-width="0.8" fill="none"/>
<line x1="58.0" y1="311.3" x2="702.0" y2="311.3" stroke="#edf0f3" stroke-width="0.8" fill="none"/>
<line x1="58.0" y1="260.7" x2="702.0" y2="260.7" stroke="#edf0f3" stroke-width="0.8" fill="none"/>
<line x1="58.0" y1="210.0" x2="702.0" y2="210.0" stroke="#d9e0e7" stroke-width="1.35" fill="none"/>
<line x1="58.0" y1="159.3" x2="702.0" y2="159.3" stroke="#edf0f3" stroke-width="0.8" fill="none"/>
<line x1="58.0" y1="108.7" x2="702.0" y2="108.7" stroke="#edf0f3" stroke-width="0.8" fill="none"/>
<line x1="58.0" y1="210.0" x2="702.0" y2="210.0" stroke="#24323a" stroke-width="1.4" fill="none" marker-end="url(#arrow)"/>
<line x1="380.0" y1="362.0" x2="380.0" y2="58.0" stroke="#24323a" stroke-width="1.4" fill="none" marker-end="url(#arrow)"/>
<text x="605.4" y="234.3" fill="#24323a" font-size="18" text-anchor="middle">x</text>
<text x="431.5" y="82.3" fill="#24323a" font-size="18" text-anchor="middle">y</text>
<text x="70" y="36" fill="#334" font-size="20">f=(1/4)x-y</text>
<polyline points="58.0,159.3 60.7,158.9 63.4,158.5 66.1,158.1 68.8,157.6 71.5,157.2 74.2,156.8 76.9,156.4 79.6,155.9 82.3,155.5 84.9,155.1 87.6,154.7 90.3,154.2 93.0,153.8 95.7,153.4 98.4,153.0 101.1,152.5 103.8,152.1 106.5,151.7 109.2,151.3 111.9,150.9 114.6,150.4 117.3,150.0 120.0,149.6 122.7,149.2 125.4,148.7 128.1,148.3 130.8,147.9 133.4,147.5 136.1,147.0 138.8,146.6 141.5,146.2 144.2,145.8 146.9,145.3 149.6,144.9 152.3,144.5 155.0,144.1 157.7,143.6 160.4,143.2 163.1,142.8 165.8,142.4 168.5,141.9 171.2,141.5 173.9,141.1 176.6,140.7 179.3,140.3 181.9,139.8 184.6,139.4 187.3,139.0 190.0,138.6 192.7,138.1 195.4,137.7 198.1,137.3 200.8,136.9 203.5,136.4 206.2,136.0 208.9,135.6 211.6,135.2 214.3,134.7 217.0,134.3 219.7,133.9 222.4,133.5 225.1,133.0 227.8,132.6 230.5,132.2 233.1,131.8 235.8,131.4 238.5,130.9 241.2,130.5 243.9,130.1 246.6,129.7 249.3,129.2 252.0,128.8 254.7,128.4 257.4,128.0 260.1,127.5 262.8,127.1 265.5,126.7 268.2,126.3 270.9,125.8 273.6,125.4 276.3,125.0 279.0,124.6 281.6,124.1 284.3,123.7 287.0,123.3 289.7,122.9 292.4,122.4 295.1,122.0 297.8,121.6 300.5,121.2 303.2,120.8 305.9,120.3 308.6,119.9 311.3,119.5 314.0,119.1 316.7,118.6 319.4,118.2 322.1,117.8 324.8,117.4 327.5,116.9 330.2,116.5 332.8,116.1 335.5,115.7 338.2,115.2 340.9,114.8 343.6,114.4 346.3,114.0 349.0,113.5 351.7,113.1 354.4,112.7 357.1,112.3 359.8,111.8 362.5,111.4 365.2,111.0 367.9,110.6 370.6,110.2 373.3,109.7 376.0,109.3 378.7,108.9 381.3,108.5 384.0,108.0 386.7,107.6 389.4,107.2 392.1,106.8 394.8,106.3 397.5,105.9 400.2,105.5 402.9,105.1 405.6,104.6 408.3,104.2 411.0,103.8 413.7,103.4 416.4,102.9 419.1,102.5 421.8,102.1 424.5,101.7 427.2,101.2 429.8,100.8 432.5,100.4 435.2,100.0 437.9,99.6 440.6,99.1 443.3,98.7 446.0,98.3 448.7,97.9 451.4,97.4 454.1,97.0 456.8,96.6 459.5,96.2 462.2,95.7 464.9,95.3 467.6,94.9 470.3,94.5 473.0,94.0 475.7,93.6 478.4,93.2 481.0,92.8 483.7,92.3 486.4,91.9 489.1,91.5 491.8,91.1 494.5,90.6 497.2,90.2 499.9,89.8 502.6,89.4 505.3,89.0 508.0,88.5 510.7,88.1 513.4,87.7 516.1,87.3 518.8,86.8 521.5,86.4 524.2,86.0 526.9,85.6 529.5,85.1 532.2,84.7 534.9,84.3 537.6,83.9 540.3,83.4 543.0,83.0 545.7,82.6 548.4,82.2 551.1,81.7 553.8,81.3 556.5,80.9 559.2,80.5 561.9,80.0 564.6,79.6 567.3,79.2 570.0,78.8 572.7,78.4 575.4,77.9 578.1,77.5 580.7,77.1 583.4,76.7 586.1,76.2 588.8,75.8 591.5,75.4 594.2,75.0 596.9,74.5 599.6,74.1 602.3,73.7 605.0,73.3 607.7,72.8 610.4,72.4 613.1,72.0 615.8,71.6 618.5,71.1 621.2,70.7 623.9,70.3 626.6,69.9 629.2,69.4 631.9,69.0 634.6,68.6 637.3,68.2 640.0,67.8 642.7,67.3 645.4,66.9 648.1,66.5 650.8,66.1 653.5,65.6 656.2,65.2 658.9,64.8 661.6,64.4 664.3,63.9 667.0,63.5 669.7,63.1 672.4,62.7 675.1,62.2 677.7,61.8 680.4,61.4 683.1,61.0 685.8,60.5 688.5,60.1 691.2,59.7 693.9,59.3 696.6,58.8 699.3,58.4 702.0,58.0" fill="none" stroke="#8aa6c8" stroke-width="2.4" stroke-linecap="round" stroke-linejoin="round"/>
<text x="381.3" y="97.3" fill="#8aa6c8" font-size="15" text-anchor="middle">c=-2</text>
<polyline points="58.0,210.0 60.7,209.6 63.4,209.2 66.1,208.7 68.8,208.3 71.5,207.9 74.2,207.5 76.9,207.0 79.6,206.6 82.3,206.2 84.9,205.8 87.6,205.3 90.3,204.9 93.0,204.5 95.7,204.1 98.4,203.6 101.1,203.2 103.8,202.8 106.5,202.4 109.2,201.9 111.9,201.5 114.6,201.1 117.3,200.7 120.0,200.2 122.7,199.8 125.4,199.4 128.1,199.0 130.8,198.6 133.4,198.1 136.1,197.7 138.8,197.3 141.5,196.9 144.2,196.4 146.9,196.0 149.6,195.6 152.3,195.2 155.0,194.7 157.7,194.3 160.4,193.9 163.1,193.5 165.8,193.0 168.5,192.6 171.2,192.2 173.9,191.8 176.6,191.3 179.3,190.9 181.9,190.5 184.6,190.1 187.3,189.6 190.0,189.2 192.7,188.8 195.4,188.4 198.1,188.0 200.8,187.5 203.5,187.1 206.2,186.7 208.9,186.3 211.6,185.8 214.3,185.4 217.0,185.0 219.7,184.6 222.4,184.1 225.1,183.7 227.8,183.3 230.5,182.9 233.1,182.4 235.8,182.0 238.5,181.6 241.2,181.2 243.9,180.7 246.6,180.3 249.3,179.9 252.0,179.5 254.7,179.0 257.4,178.6 260.1,178.2 262.8,177.8 265.5,177.4 268.2,176.9 270.9,176.5 273.6,176.1 276.3,175.7 279.0,175.2 281.6,174.8 284.3,174.4 287.0,174.0 289.7,173.5 292.4,173.1 295.1,172.7 297.8,172.3 300.5,171.8 303.2,171.4 305.9,171.0 308.6,170.6 311.3,170.1 314.0,169.7 316.7,169.3 319.4,168.9 322.1,168.4 324.8,168.0 327.5,167.6 330.2,167.2 332.8,166.8 335.5,166.3 338.2,165.9 340.9,165.5 343.6,165.1 346.3,164.6 349.0,164.2 351.7,163.8 354.4,163.4 357.1,162.9 359.8,162.5 362.5,162.1 365.2,161.7 367.9,161.2 370.6,160.8 373.3,160.4 376.0,160.0 378.7,159.5 381.3,159.1 384.0,158.7 386.7,158.3 389.4,157.8 392.1,157.4 394.8,157.0 397.5,156.6 400.2,156.2 402.9,155.7 405.6,155.3 408.3,154.9 411.0,154.5 413.7,154.0 416.4,153.6 419.1,153.2 421.8,152.8 424.5,152.3 427.2,151.9 429.8,151.5 432.5,151.1 435.2,150.6 437.9,150.2 440.6,149.8 443.3,149.4 446.0,148.9 448.7,148.5 451.4,148.1 454.1,147.7 456.8,147.2 459.5,146.8 462.2,146.4 464.9,146.0 467.6,145.6 470.3,145.1 473.0,144.7 475.7,144.3 478.4,143.9 481.0,143.4 483.7,143.0 486.4,142.6 489.1,142.2 491.8,141.7 494.5,141.3 497.2,140.9 499.9,140.5 502.6,140.0 505.3,139.6 508.0,139.2 510.7,138.8 513.4,138.3 516.1,137.9 518.8,137.5 521.5,137.1 524.2,136.6 526.9,136.2 529.5,135.8 532.2,135.4 534.9,135.0 537.6,134.5 540.3,134.1 543.0,133.7 545.7,133.3 548.4,132.8 551.1,132.4 553.8,132.0 556.5,131.6 559.2,131.1 561.9,130.7 564.6,130.3 567.3,129.9 570.0,129.4 572.7,129.0 575.4,128.6 578.1,128.2 580.7,127.7 583.4,127.3 586.1,126.9 588.8,126.5 591.5,126.1 594.2,125.6 596.9,125.2 599.6,124.8 602.3,124.4 605.0,123.9 607.7,123.5 610.4,123.1 613.1,122.7 615.8,122.2 618.5,121.8 621.2,121.4 623.9,121.0 626.6,120.5 629.2,120.1 631.9,119.7 634.6,119.3 637.3,118.8 640.0,118.4 642.7,118.0 645.4,117.6 648.1,117.1 650.8,116.7 653.5,116.3 656.2,115.9 658.9,115.5 661.6,115.0 664.3,114.6 667.0,114.2 669.7,113.8 672.4,113.3 675.1,112.9 677.7,112.5 680.4,112.1 683.1,111.6 685.8,111.2 688.5,110.8 691.2,110.4 693.9,109.9 696.6,109.5 699.3,109.1 702.0,108.7" fill="none" stroke="#487eb0" stroke-width="2.4" stroke-linecap="round" stroke-linejoin="round"/>
<text x="381.3" y="148.0" fill="#487eb0" font-size="15" text-anchor="middle">c=-1</text>
<polyline points="58.0,260.7 60.7,260.2 63.4,259.8 66.1,259.4 68.8,259.0 71.5,258.5 74.2,258.1 76.9,257.7 79.6,257.3 82.3,256.9 84.9,256.4 87.6,256.0 90.3,255.6 93.0,255.2 95.7,254.7 98.4,254.3 101.1,253.9 103.8,253.5 106.5,253.0 109.2,252.6 111.9,252.2 114.6,251.8 117.3,251.3 120.0,250.9 122.7,250.5 125.4,250.1 128.1,249.6 130.8,249.2 133.4,248.8 136.1,248.4 138.8,247.9 141.5,247.5 144.2,247.1 146.9,246.7 149.6,246.3 152.3,245.8 155.0,245.4 157.7,245.0 160.4,244.6 163.1,244.1 165.8,243.7 168.5,243.3 171.2,242.9 173.9,242.4 176.6,242.0 179.3,241.6 181.9,241.2 184.6,240.7 187.3,240.3 190.0,239.9 192.7,239.5 195.4,239.0 198.1,238.6 200.8,238.2 203.5,237.8 206.2,237.3 208.9,236.9 211.6,236.5 214.3,236.1 217.0,235.7 219.7,235.2 222.4,234.8 225.1,234.4 227.8,234.0 230.5,233.5 233.1,233.1 235.8,232.7 238.5,232.3 241.2,231.8 243.9,231.4 246.6,231.0 249.3,230.6 252.0,230.1 254.7,229.7 257.4,229.3 260.1,228.9 262.8,228.4 265.5,228.0 268.2,227.6 270.9,227.2 273.6,226.7 276.3,226.3 279.0,225.9 281.6,225.5 284.3,225.1 287.0,224.6 289.7,224.2 292.4,223.8 295.1,223.4 297.8,222.9 300.5,222.5 303.2,222.1 305.9,221.7 308.6,221.2 311.3,220.8 314.0,220.4 316.7,220.0 319.4,219.5 322.1,219.1 324.8,218.7 327.5,218.3 330.2,217.8 332.8,217.4 335.5,217.0 338.2,216.6 340.9,216.1 343.6,215.7 346.3,215.3 349.0,214.9 351.7,214.5 354.4,214.0 357.1,213.6 359.8,213.2 362.5,212.8 365.2,212.3 367.9,211.9 370.6,211.5 373.3,211.1 376.0,210.6 378.7,210.2 381.3,209.8 384.0,209.4 386.7,208.9 389.4,208.5 392.1,208.1 394.8,207.7 397.5,207.2 400.2,206.8 402.9,206.4 405.6,206.0 408.3,205.5 411.0,205.1 413.7,204.7 416.4,204.3 419.1,203.9 421.8,203.4 424.5,203.0 427.2,202.6 429.8,202.2 432.5,201.7 435.2,201.3 437.9,200.9 440.6,200.5 443.3,200.0 446.0,199.6 448.7,199.2 451.4,198.8 454.1,198.3 456.8,197.9 459.5,197.5 462.2,197.1 464.9,196.6 467.6,196.2 470.3,195.8 473.0,195.4 475.7,194.9 478.4,194.5 481.0,194.1 483.7,193.7 486.4,193.3 489.1,192.8 491.8,192.4 494.5,192.0 497.2,191.6 499.9,191.1 502.6,190.7 505.3,190.3 508.0,189.9 510.7,189.4 513.4,189.0 516.1,188.6 518.8,188.2 521.5,187.7 524.2,187.3 526.9,186.9 529.5,186.5 532.2,186.0 534.9,185.6 537.6,185.2 540.3,184.8 543.0,184.3 545.7,183.9 548.4,183.5 551.1,183.1 553.8,182.7 556.5,182.2 559.2,181.8 561.9,181.4 564.6,181.0 567.3,180.5 570.0,180.1 572.7,179.7 575.4,179.3 578.1,178.8 580.7,178.4 583.4,178.0 586.1,177.6 588.8,177.1 591.5,176.7 594.2,176.3 596.9,175.9 599.6,175.4 602.3,175.0 605.0,174.6 607.7,174.2 610.4,173.7 613.1,173.3 615.8,172.9 618.5,172.5 621.2,172.1 623.9,171.6 626.6,171.2 629.2,170.8 631.9,170.4 634.6,169.9 637.3,169.5 640.0,169.1 642.7,168.7 645.4,168.2 648.1,167.8 650.8,167.4 653.5,167.0 656.2,166.5 658.9,166.1 661.6,165.7 664.3,165.3 667.0,164.8 669.7,164.4 672.4,164.0 675.1,163.6 677.7,163.1 680.4,162.7 683.1,162.3 685.8,161.9 688.5,161.5 691.2,161.0 693.9,160.6 696.6,160.2 699.3,159.8 702.0,159.3" fill="none" stroke="#2c8c7c" stroke-width="2.4" stroke-linecap="round" stroke-linejoin="round"/>
<text x="381.3" y="198.6" fill="#2c8c7c" font-size="15" text-anchor="middle">c=0</text>
<polyline points="58.0,311.3 60.7,310.9 63.4,310.5 66.1,310.1 68.8,309.6 71.5,309.2 74.2,308.8 76.9,308.4 79.6,307.9 82.3,307.5 84.9,307.1 87.6,306.7 90.3,306.2 93.0,305.8 95.7,305.4 98.4,305.0 101.1,304.5 103.8,304.1 106.5,303.7 109.2,303.3 111.9,302.9 114.6,302.4 117.3,302.0 120.0,301.6 122.7,301.2 125.4,300.7 128.1,300.3 130.8,299.9 133.4,299.5 136.1,299.0 138.8,298.6 141.5,298.2 144.2,297.8 146.9,297.3 149.6,296.9 152.3,296.5 155.0,296.1 157.7,295.6 160.4,295.2 163.1,294.8 165.8,294.4 168.5,293.9 171.2,293.5 173.9,293.1 176.6,292.7 179.3,292.3 181.9,291.8 184.6,291.4 187.3,291.0 190.0,290.6 192.7,290.1 195.4,289.7 198.1,289.3 200.8,288.9 203.5,288.4 206.2,288.0 208.9,287.6 211.6,287.2 214.3,286.7 217.0,286.3 219.7,285.9 222.4,285.5 225.1,285.0 227.8,284.6 230.5,284.2 233.1,283.8 235.8,283.4 238.5,282.9 241.2,282.5 243.9,282.1 246.6,281.7 249.3,281.2 252.0,280.8 254.7,280.4 257.4,280.0 260.1,279.5 262.8,279.1 265.5,278.7 268.2,278.3 270.9,277.8 273.6,277.4 276.3,277.0 279.0,276.6 281.6,276.1 284.3,275.7 287.0,275.3 289.7,274.9 292.4,274.4 295.1,274.0 297.8,273.6 300.5,273.2 303.2,272.8 305.9,272.3 308.6,271.9 311.3,271.5 314.0,271.1 316.7,270.6 319.4,270.2 322.1,269.8 324.8,269.4 327.5,268.9 330.2,268.5 332.8,268.1 335.5,267.7 338.2,267.2 340.9,266.8 343.6,266.4 346.3,266.0 349.0,265.5 351.7,265.1 354.4,264.7 357.1,264.3 359.8,263.8 362.5,263.4 365.2,263.0 367.9,262.6 370.6,262.2 373.3,261.7 376.0,261.3 378.7,260.9 381.3,260.5 384.0,260.0 386.7,259.6 389.4,259.2 392.1,258.8 394.8,258.3 397.5,257.9 400.2,257.5 402.9,257.1 405.6,256.6 408.3,256.2 411.0,255.8 413.7,255.4 416.4,254.9 419.1,254.5 421.8,254.1 424.5,253.7 427.2,253.2 429.8,252.8 432.5,252.4 435.2,252.0 437.9,251.6 440.6,251.1 443.3,250.7 446.0,250.3 448.7,249.9 451.4,249.4 454.1,249.0 456.8,248.6 459.5,248.2 462.2,247.7 464.9,247.3 467.6,246.9 470.3,246.5 473.0,246.0 475.7,245.6 478.4,245.2 481.0,244.8 483.7,244.3 486.4,243.9 489.1,243.5 491.8,243.1 494.5,242.6 497.2,242.2 499.9,241.8 502.6,241.4 505.3,241.0 508.0,240.5 510.7,240.1 513.4,239.7 516.1,239.3 518.8,238.8 521.5,238.4 524.2,238.0 526.9,237.6 529.5,237.1 532.2,236.7 534.9,236.3 537.6,235.9 540.3,235.4 543.0,235.0 545.7,234.6 548.4,234.2 551.1,233.7 553.8,233.3 556.5,232.9 559.2,232.5 561.9,232.0 564.6,231.6 567.3,231.2 570.0,230.8 572.7,230.4 575.4,229.9 578.1,229.5 580.7,229.1 583.4,228.7 586.1,228.2 588.8,227.8 591.5,227.4 594.2,227.0 596.9,226.5 599.6,226.1 602.3,225.7 605.0,225.3 607.7,224.8 610.4,224.4 613.1,224.0 615.8,223.6 618.5,223.1 621.2,222.7 623.9,222.3 626.6,221.9 629.2,221.4 631.9,221.0 634.6,220.6 637.3,220.2 640.0,219.8 642.7,219.3 645.4,218.9 648.1,218.5 650.8,218.1 653.5,217.6 656.2,217.2 658.9,216.8 661.6,216.4 664.3,215.9 667.0,215.5 669.7,215.1 672.4,214.7 675.1,214.2 677.7,213.8 680.4,213.4 683.1,213.0 685.8,212.5 688.5,212.1 691.2,211.7 693.9,211.3 696.6,210.8 699.3,210.4 702.0,210.0" fill="none" stroke="#d27a22" stroke-width="2.4" stroke-linecap="round" stroke-linejoin="round"/>
<text x="381.3" y="249.3" fill="#d27a22" font-size="15" text-anchor="middle">c=1</text>
<polyline points="58.0,362.0 60.7,361.6 63.4,361.2 66.1,360.7 68.8,360.3 71.5,359.9 74.2,359.5 76.9,359.0 79.6,358.6 82.3,358.2 84.9,357.8 87.6,357.3 90.3,356.9 93.0,356.5 95.7,356.1 98.4,355.6 101.1,355.2 103.8,354.8 106.5,354.4 109.2,353.9 111.9,353.5 114.6,353.1 117.3,352.7 120.0,352.2 122.7,351.8 125.4,351.4 128.1,351.0 130.8,350.6 133.4,350.1 136.1,349.7 138.8,349.3 141.5,348.9 144.2,348.4 146.9,348.0 149.6,347.6 152.3,347.2 155.0,346.7 157.7,346.3 160.4,345.9 163.1,345.5 165.8,345.0 168.5,344.6 171.2,344.2 173.9,343.8 176.6,343.3 179.3,342.9 181.9,342.5 184.6,342.1 187.3,341.6 190.0,341.2 192.7,340.8 195.4,340.4 198.1,340.0 200.8,339.5 203.5,339.1 206.2,338.7 208.9,338.3 211.6,337.8 214.3,337.4 217.0,337.0 219.7,336.6 222.4,336.1 225.1,335.7 227.8,335.3 230.5,334.9 233.1,334.4 235.8,334.0 238.5,333.6 241.2,333.2 243.9,332.7 246.6,332.3 249.3,331.9 252.0,331.5 254.7,331.0 257.4,330.6 260.1,330.2 262.8,329.8 265.5,329.4 268.2,328.9 270.9,328.5 273.6,328.1 276.3,327.7 279.0,327.2 281.6,326.8 284.3,326.4 287.0,326.0 289.7,325.5 292.4,325.1 295.1,324.7 297.8,324.3 300.5,323.8 303.2,323.4 305.9,323.0 308.6,322.6 311.3,322.1 314.0,321.7 316.7,321.3 319.4,320.9 322.1,320.4 324.8,320.0 327.5,319.6 330.2,319.2 332.8,318.8 335.5,318.3 338.2,317.9 340.9,317.5 343.6,317.1 346.3,316.6 349.0,316.2 351.7,315.8 354.4,315.4 357.1,314.9 359.8,314.5 362.5,314.1 365.2,313.7 367.9,313.2 370.6,312.8 373.3,312.4 376.0,312.0 378.7,311.5 381.3,311.1 384.0,310.7 386.7,310.3 389.4,309.8 392.1,309.4 394.8,309.0 397.5,308.6 400.2,308.2 402.9,307.7 405.6,307.3 408.3,306.9 411.0,306.5 413.7,306.0 416.4,305.6 419.1,305.2 421.8,304.8 424.5,304.3 427.2,303.9 429.8,303.5 432.5,303.1 435.2,302.6 437.9,302.2 440.6,301.8 443.3,301.4 446.0,300.9 448.7,300.5 451.4,300.1 454.1,299.7 456.8,299.2 459.5,298.8 462.2,298.4 464.9,298.0 467.6,297.6 470.3,297.1 473.0,296.7 475.7,296.3 478.4,295.9 481.0,295.4 483.7,295.0 486.4,294.6 489.1,294.2 491.8,293.7 494.5,293.3 497.2,292.9 499.9,292.5 502.6,292.0 505.3,291.6 508.0,291.2 510.7,290.8 513.4,290.3 516.1,289.9 518.8,289.5 521.5,289.1 524.2,288.6 526.9,288.2 529.5,287.8 532.2,287.4 534.9,287.0 537.6,286.5 540.3,286.1 543.0,285.7 545.7,285.3 548.4,284.8 551.1,284.4 553.8,284.0 556.5,283.6 559.2,283.1 561.9,282.7 564.6,282.3 567.3,281.9 570.0,281.4 572.7,281.0 575.4,280.6 578.1,280.2 580.7,279.7 583.4,279.3 586.1,278.9 588.8,278.5 591.5,278.1 594.2,277.6 596.9,277.2 599.6,276.8 602.3,276.4 605.0,275.9 607.7,275.5 610.4,275.1 613.1,274.7 615.8,274.2 618.5,273.8 621.2,273.4 623.9,273.0 626.6,272.5 629.2,272.1 631.9,271.7 634.6,271.3 637.3,270.8 640.0,270.4 642.7,270.0 645.4,269.6 648.1,269.1 650.8,268.7 653.5,268.3 656.2,267.9 658.9,267.5 661.6,267.0 664.3,266.6 667.0,266.2 669.7,265.8 672.4,265.3 675.1,264.9 677.7,264.5 680.4,264.1 683.1,263.6 685.8,263.2 688.5,262.8 691.2,262.4 693.9,261.9 696.6,261.5 699.3,261.1 702.0,260.7" fill="none" stroke="#c92331" stroke-width="2.4" stroke-linecap="round" stroke-linejoin="round"/>
<text x="381.3" y="300.0" fill="#c92331" font-size="15" text-anchor="middle">c=2</text>
</svg>
