<svg xmlns="http://www.w3.org/2000/svg" width="760" height="420" viewBox="0 0 760 420" role="img" aria-label="z=x+y">

<defs>
  <marker id="arrow" viewBox="0 0 10 10" refX="8.5" refY="5" markerWidth="7" markerHeight="7" orient="auto-start-reverse">
    <path d="M 0 0 L 10 5 L 0 10 z" fill="#24323a"/>
  </marker>
</defs>

<style>
  text { font-family: Arial, sans-serif; }
</style>
<rect x="0" y="0" width="760" height="420" rx="18" fill="#ffffff"/>
<rect x="58" y="58" width="644" height="304" fill="#fbfcfe" stroke="#d8e1e8" stroke-width="1"/>
<line x1="58.0" y1="362.0" x2="58.0" y2="58.0" stroke="#edf0f3" stroke-width="0.8" fill="none"/>
<line x1="138.5" y1="362.0" x2="138.5" y2="58.0" stroke="#edf0f3" stroke-width="0.8" fill="none"/>
<line x1="219.0" y1="362.0" x2="219.0" y2="58.0" stroke="#edf0f3" stroke-width="0.8" fill="none"/>
<line x1="299.5" y1="362.0" x2="299.5" y2="58.0" stroke="#edf0f3" stroke-width="0.8" fill="none"/>
<line x1="380.0" y1="362.0" x2="380.0" y2="58.0" stroke="#d9e0e7" stroke-width="1.35" fill="none"/>
<line x1="460.5" y1="362.0" x2="460.5" y2="58.0" stroke="#edf0f3" stroke-width="0.8" fill="none"/>
<line x1="541.0" y1="362.0" x2="541.0" y2="58.0" stroke="#edf0f3" stroke-width="0.8" fill="none"/>
<line x1="621.5" y1="362.0" x2="621.5" y2="58.0" stroke="#edf0f3" stroke-width="0.8" fill="none"/>
<line x1="702.0" y1="362.0" x2="702.0" y2="58.0" stroke="#edf0f3" stroke-width="0.8" fill="none"/>
<line x1="58.0" y1="362.0" x2="702.0" y2="362.0" stroke="#edf0f3" stroke-width="0.8" fill="none"/>
<line x1="58.0" y1="324.0" x2="702.0" y2="324.0" stroke="#edf0f3" stroke-width="0.8" fill="none"/>
<line x1="58.0" y1="286.0" x2="702.0" y2="286.0" stroke="#edf0f3" stroke-width="0.8" fill="none"/>
<line x1="58.0" y1="248.0" x2="702.0" y2="248.0" stroke="#edf0f3" stroke-width="0.8" fill="none"/>
<line x1="58.0" y1="210.0" x2="702.0" y2="210.0" stroke="#d9e0e7" stroke-width="1.35" fill="none"/>
<line x1="58.0" y1="172.0" x2="702.0" y2="172.0" stroke="#edf0f3" stroke-width="0.8" fill="none"/>
<line x1="58.0" y1="134.0" x2="702.0" y2="134.0" stroke="#edf0f3" stroke-width="0.8" fill="none"/>
<line x1="58.0" y1="96.0" x2="702.0" y2="96.0" stroke="#edf0f3" stroke-width="0.8" fill="none"/>
<line x1="58.0" y1="58.0" x2="702.0" y2="58.0" stroke="#edf0f3" stroke-width="0.8" fill="none"/>
<line x1="58.0" y1="210.0" x2="702.0" y2="210.0" stroke="#24323a" stroke-width="1.4" fill="none" marker-end="url(#arrow)"/>
<line x1="380.0" y1="362.0" x2="380.0" y2="58.0" stroke="#24323a" stroke-width="1.4" fill="none" marker-end="url(#arrow)"/>
<text x="605.4" y="234.3" fill="#24323a" font-size="18" text-anchor="middle">x</text>
<text x="431.5" y="82.3" fill="#24323a" font-size="18" text-anchor="middle">y</text>
<text x="70" y="36" fill="#334" font-size="20">z=x+y</text>
<polyline points="58.0,172.0 60.7,173.3 63.4,174.5 66.1,175.8 68.8,177.1 71.5,178.4 74.2,179.6 76.9,180.9 79.6,182.2 82.3,183.4 84.9,184.7 87.6,186.0 90.3,187.3 93.0,188.5 95.7,189.8 98.4,191.1 101.1,192.4 103.8,193.6 106.5,194.9 109.2,196.2 111.9,197.4 114.6,198.7 117.3,200.0 120.0,201.3 122.7,202.5 125.4,203.8 128.1,205.1 130.8,206.3 133.4,207.6 136.1,208.9 138.8,210.2 141.5,211.4 144.2,212.7 146.9,214.0 149.6,215.2 152.3,216.5 155.0,217.8 157.7,219.1 160.4,220.3 163.1,221.6 165.8,222.9 168.5,224.2 171.2,225.4 173.9,226.7 176.6,228.0 179.3,229.2 181.9,230.5 184.6,231.8 187.3,233.1 190.0,234.3 192.7,235.6 195.4,236.9 198.1,238.1 200.8,239.4 203.5,240.7 206.2,242.0 208.9,243.2 211.6,244.5 214.3,245.8 217.0,247.0 219.7,248.3 222.4,249.6 225.1,250.9 227.8,252.1 230.5,253.4 233.1,254.7 235.8,255.9 238.5,257.2 241.2,258.5 243.9,259.8 246.6,261.0 249.3,262.3 252.0,263.6 254.7,264.9 257.4,266.1 260.1,267.4 262.8,268.7 265.5,269.9 268.2,271.2 270.9,272.5 273.6,273.8 276.3,275.0 279.0,276.3 281.6,277.6 284.3,278.8 287.0,280.1 289.7,281.4 292.4,282.7 295.1,283.9 297.8,285.2 300.5,286.5 303.2,287.7 305.9,289.0 308.6,290.3 311.3,291.6 314.0,292.8 316.7,294.1 319.4,295.4 322.1,296.7 324.8,297.9 327.5,299.2 330.2,300.5 332.8,301.7 335.5,303.0 338.2,304.3 340.9,305.6 343.6,306.8 346.3,308.1 349.0,309.4 351.7,310.6 354.4,311.9 357.1,313.2 359.8,314.5 362.5,315.7 365.2,317.0 367.9,318.3 370.6,319.5 373.3,320.8 376.0,322.1 378.7,323.4 381.3,324.6 384.0,325.9 386.7,327.2 389.4,328.5 392.1,329.7 394.8,331.0 397.5,332.3 400.2,333.5 402.9,334.8 405.6,336.1 408.3,337.4 411.0,338.6 413.7,339.9 416.4,341.2 419.1,342.4 421.8,343.7 424.5,345.0 427.2,346.3 429.8,347.5 432.5,348.8 435.2,350.1 437.9,351.3 440.6,352.6 443.3,353.9 446.0,355.2 448.7,356.4 451.4,357.7 454.1,359.0 456.8,360.3 459.5,361.5" fill="none" stroke="#8aa6c8" stroke-width="2.6" stroke-linecap="round" stroke-linejoin="round"/>
<text x="260.1" y="256.0" fill="#8aa6c8" font-size="15" text-anchor="middle">z=-3</text>
<polyline points="58.0,96.0 60.7,97.3 63.4,98.5 66.1,99.8 68.8,101.1 71.5,102.4 74.2,103.6 76.9,104.9 79.6,106.2 82.3,107.4 84.9,108.7 87.6,110.0 90.3,111.3 93.0,112.5 95.7,113.8 98.4,115.1 101.1,116.4 103.8,117.6 106.5,118.9 109.2,120.2 111.9,121.4 114.6,122.7 117.3,124.0 120.0,125.3 122.7,126.5 125.4,127.8 128.1,129.1 130.8,130.3 133.4,131.6 136.1,132.9 138.8,134.2 141.5,135.4 144.2,136.7 146.9,138.0 149.6,139.2 152.3,140.5 155.0,141.8 157.7,143.1 160.4,144.3 163.1,145.6 165.8,146.9 168.5,148.2 171.2,149.4 173.9,150.7 176.6,152.0 179.3,153.2 181.9,154.5 184.6,155.8 187.3,157.1 190.0,158.3 192.7,159.6 195.4,160.9 198.1,162.1 200.8,163.4 203.5,164.7 206.2,166.0 208.9,167.2 211.6,168.5 214.3,169.8 217.0,171.0 219.7,172.3 222.4,173.6 225.1,174.9 227.8,176.1 230.5,177.4 233.1,178.7 235.8,179.9 238.5,181.2 241.2,182.5 243.9,183.8 246.6,185.0 249.3,186.3 252.0,187.6 254.7,188.9 257.4,190.1 260.1,191.4 262.8,192.7 265.5,193.9 268.2,195.2 270.9,196.5 273.6,197.8 276.3,199.0 279.0,200.3 281.6,201.6 284.3,202.8 287.0,204.1 289.7,205.4 292.4,206.7 295.1,207.9 297.8,209.2 300.5,210.5 303.2,211.7 305.9,213.0 308.6,214.3 311.3,215.6 314.0,216.8 316.7,218.1 319.4,219.4 322.1,220.7 324.8,221.9 327.5,223.2 330.2,224.5 332.8,225.7 335.5,227.0 338.2,228.3 340.9,229.6 343.6,230.8 346.3,232.1 349.0,233.4 351.7,234.6 354.4,235.9 357.1,237.2 359.8,238.5 362.5,239.7 365.2,241.0 367.9,242.3 370.6,243.5 373.3,244.8 376.0,246.1 378.7,247.4 381.3,248.6 384.0,249.9 386.7,251.2 389.4,252.5 392.1,253.7 394.8,255.0 397.5,256.3 400.2,257.5 402.9,258.8 405.6,260.1 408.3,261.4 411.0,262.6 413.7,263.9 416.4,265.2 419.1,266.4 421.8,267.7 424.5,269.0 427.2,270.3 429.8,271.5 432.5,272.8 435.2,274.1 437.9,275.3 440.6,276.6 443.3,277.9 446.0,279.2 448.7,280.4 451.4,281.7 454.1,283.0 456.8,284.3 459.5,285.5 462.2,286.8 464.9,288.1 467.6,289.3 470.3,290.6 473.0,291.9 475.7,293.2 478.4,294.4 481.0,295.7 483.7,297.0 486.4,298.2 489.1,299.5 491.8,300.8 494.5,302.1 497.2,303.3 499.9,304.6 502.6,305.9 505.3,307.1 508.0,308.4 510.7,309.7 513.4,311.0 516.1,312.2 518.8,313.5 521.5,314.8 524.2,316.1 526.9,317.3 529.5,318.6 532.2,319.9 534.9,321.1 537.6,322.4 540.3,323.7 543.0,325.0 545.7,326.2 548.4,327.5 551.1,328.8 553.8,330.0 556.5,331.3 559.2,332.6 561.9,333.9 564.6,335.1 567.3,336.4 570.0,337.7 572.7,338.9 575.4,340.2 578.1,341.5 580.7,342.8 583.4,344.0 586.1,345.3 588.8,346.6 591.5,347.8 594.2,349.1 596.9,350.4 599.6,351.7 602.3,352.9 605.0,354.2 607.7,355.5 610.4,356.8 613.1,358.0 615.8,359.3 618.5,360.6 621.2,361.8" fill="none" stroke="#487eb0" stroke-width="2.6" stroke-linecap="round" stroke-linejoin="round"/>
<text x="340.9" y="218.2" fill="#487eb0" font-size="15" text-anchor="middle">z=-1</text>
<polyline points="138.8,58.2 141.5,59.4 144.2,60.7 146.9,62.0 149.6,63.2 152.3,64.5 155.0,65.8 157.7,67.1 160.4,68.3 163.1,69.6 165.8,70.9 168.5,72.2 171.2,73.4 173.9,74.7 176.6,76.0 179.3,77.2 181.9,78.5 184.6,79.8 187.3,81.1 190.0,82.3 192.7,83.6 195.4,84.9 198.1,86.1 200.8,87.4 203.5,88.7 206.2,90.0 208.9,91.2 211.6,92.5 214.3,93.8 217.0,95.0 219.7,96.3 222.4,97.6 225.1,98.9 227.8,100.1 230.5,101.4 233.1,102.7 235.8,103.9 238.5,105.2 241.2,106.5 243.9,107.8 246.6,109.0 249.3,110.3 252.0,111.6 254.7,112.9 257.4,114.1 260.1,115.4 262.8,116.7 265.5,117.9 268.2,119.2 270.9,120.5 273.6,121.8 276.3,123.0 279.0,124.3 281.6,125.6 284.3,126.8 287.0,128.1 289.7,129.4 292.4,130.7 295.1,131.9 297.8,133.2 300.5,134.5 303.2,135.7 305.9,137.0 308.6,138.3 311.3,139.6 314.0,140.8 316.7,142.1 319.4,143.4 322.1,144.7 324.8,145.9 327.5,147.2 330.2,148.5 332.8,149.7 335.5,151.0 338.2,152.3 340.9,153.6 343.6,154.8 346.3,156.1 349.0,157.4 351.7,158.6 354.4,159.9 357.1,161.2 359.8,162.5 362.5,163.7 365.2,165.0 367.9,166.3 370.6,167.5 373.3,168.8 376.0,170.1 378.7,171.4 381.3,172.6 384.0,173.9 386.7,175.2 389.4,176.5 392.1,177.7 394.8,179.0 397.5,180.3 400.2,181.5 402.9,182.8 405.6,184.1 408.3,185.4 411.0,186.6 413.7,187.9 416.4,189.2 419.1,190.4 421.8,191.7 424.5,193.0 427.2,194.3 429.8,195.5 432.5,196.8 435.2,198.1 437.9,199.3 440.6,200.6 443.3,201.9 446.0,203.2 448.7,204.4 451.4,205.7 454.1,207.0 456.8,208.3 459.5,209.5 462.2,210.8 464.9,212.1 467.6,213.3 470.3,214.6 473.0,215.9 475.7,217.2 478.4,218.4 481.0,219.7 483.7,221.0 486.4,222.2 489.1,223.5 491.8,224.8 494.5,226.1 497.2,227.3 499.9,228.6 502.6,229.9 505.3,231.1 508.0,232.4 510.7,233.7 513.4,235.0 516.1,236.2 518.8,237.5 521.5,238.8 524.2,240.1 526.9,241.3 529.5,242.6 532.2,243.9 534.9,245.1 537.6,246.4 540.3,247.7 543.0,249.0 545.7,250.2 548.4,251.5 551.1,252.8 553.8,254.0 556.5,255.3 559.2,256.6 561.9,257.9 564.6,259.1 567.3,260.4 570.0,261.7 572.7,262.9 575.4,264.2 578.1,265.5 580.7,266.8 583.4,268.0 586.1,269.3 588.8,270.6 591.5,271.8 594.2,273.1 596.9,274.4 599.6,275.7 602.3,276.9 605.0,278.2 607.7,279.5 610.4,280.8 613.1,282.0 615.8,283.3 618.5,284.6 621.2,285.8 623.9,287.1 626.6,288.4 629.2,289.7 631.9,290.9 634.6,292.2 637.3,293.5 640.0,294.7 642.7,296.0 645.4,297.3 648.1,298.6 650.8,299.8 653.5,301.1 656.2,302.4 658.9,303.6 661.6,304.9 664.3,306.2 667.0,307.5 669.7,308.7 672.4,310.0 675.1,311.3 677.7,312.6 680.4,313.8 683.1,315.1 685.8,316.4 688.5,317.6 691.2,318.9 693.9,320.2 696.6,321.5 699.3,322.7 702.0,324.0" fill="none" stroke="#2c8c7c" stroke-width="2.6" stroke-linecap="round" stroke-linejoin="round"/>
<text x="421.8" y="180.3" fill="#2c8c7c" font-size="15" text-anchor="middle">z=1</text>
<polyline points="300.5,58.5 303.2,59.7 305.9,61.0 308.6,62.3 311.3,63.6 314.0,64.8 316.7,66.1 319.4,67.4 322.1,68.7 324.8,69.9 327.5,71.2 330.2,72.5 332.8,73.7 335.5,75.0 338.2,76.3 340.9,77.6 343.6,78.8 346.3,80.1 349.0,81.4 351.7,82.6 354.4,83.9 357.1,85.2 359.8,86.5 362.5,87.7 365.2,89.0 367.9,90.3 370.6,91.5 373.3,92.8 376.0,94.1 378.7,95.4 381.3,96.6 384.0,97.9 386.7,99.2 389.4,100.5 392.1,101.7 394.8,103.0 397.5,104.3 400.2,105.5 402.9,106.8 405.6,108.1 408.3,109.4 411.0,110.6 413.7,111.9 416.4,113.2 419.1,114.4 421.8,115.7 424.5,117.0 427.2,118.3 429.8,119.5 432.5,120.8 435.2,122.1 437.9,123.3 440.6,124.6 443.3,125.9 446.0,127.2 448.7,128.4 451.4,129.7 454.1,131.0 456.8,132.3 459.5,133.5 462.2,134.8 464.9,136.1 467.6,137.3 470.3,138.6 473.0,139.9 475.7,141.2 478.4,142.4 481.0,143.7 483.7,145.0 486.4,146.2 489.1,147.5 491.8,148.8 494.5,150.1 497.2,151.3 499.9,152.6 502.6,153.9 505.3,155.1 508.0,156.4 510.7,157.7 513.4,159.0 516.1,160.2 518.8,161.5 521.5,162.8 524.2,164.1 526.9,165.3 529.5,166.6 532.2,167.9 534.9,169.1 537.6,170.4 540.3,171.7 543.0,173.0 545.7,174.2 548.4,175.5 551.1,176.8 553.8,178.0 556.5,179.3 559.2,180.6 561.9,181.9 564.6,183.1 567.3,184.4 570.0,185.7 572.7,186.9 575.4,188.2 578.1,189.5 580.7,190.8 583.4,192.0 586.1,193.3 588.8,194.6 591.5,195.8 594.2,197.1 596.9,198.4 599.6,199.7 602.3,200.9 605.0,202.2 607.7,203.5 610.4,204.8 613.1,206.0 615.8,207.3 618.5,208.6 621.2,209.8 623.9,211.1 626.6,212.4 629.2,213.7 631.9,214.9 634.6,216.2 637.3,217.5 640.0,218.7 642.7,220.0 645.4,221.3 648.1,222.6 650.8,223.8 653.5,225.1 656.2,226.4 658.9,227.6 661.6,228.9 664.3,230.2 667.0,231.5 669.7,232.7 672.4,234.0 675.1,235.3 677.7,236.6 680.4,237.8 683.1,239.1 685.8,240.4 688.5,241.6 691.2,242.9 693.9,244.2 696.6,245.5 699.3,246.7 702.0,248.0" fill="none" stroke="#d27a22" stroke-width="2.6" stroke-linecap="round" stroke-linejoin="round"/>
<text x="502.6" y="142.5" fill="#d27a22" font-size="15" text-anchor="middle">z=3</text>
</svg>
