<svg xmlns="http://www.w3.org/2000/svg" width="760" height="420" viewBox="0 0 760 420" role="img" aria-label="z=(1/4)x+y">
<defs>
  <marker id="arrow" viewBox="0 0 10 10" refX="8.5" refY="5" markerWidth="7" markerHeight="7" orient="auto-start-reverse">
    <path d="M 0 0 L 10 5 L 0 10 z" fill="#24323a"/>
  </marker>
</defs>
<style>
  text { font-family: Arial, sans-serif; }
</style>
<rect x="0" y="0" width="760" height="420" rx="18" fill="#ffffff"/>
<rect x="54" y="36" width="652" height="336" fill="#fbfcfe" stroke="#d8e1e8" stroke-width="1"/>
<text x="70" y="36" fill="#334" font-size="20">z=(1/4)x+y</text>
<polygon points="336.0,393.0 624.0,271.0 424.0,47.0 136.0,169.0" fill="#8dbcea" fill-opacity="0.62" stroke="#376f9f" stroke-width="2.2"/>
<polyline points="336.0,393.0 136.0,169.0" fill="none" stroke="#8fb7df" stroke-width="1" stroke-linecap="round" stroke-linejoin="round"/>
<polyline points="408.0,362.5 208.0,138.5" fill="none" stroke="#8fb7df" stroke-width="1" stroke-linecap="round" stroke-linejoin="round"/>
<polyline points="480.0,332.0 280.0,108.0" fill="none" stroke="#8fb7df" stroke-width="1" stroke-linecap="round" stroke-linejoin="round"/>
<polyline points="552.0,301.5 352.0,77.5" fill="none" stroke="#8fb7df" stroke-width="1" stroke-linecap="round" stroke-linejoin="round"/>
<polyline points="624.0,271.0 424.0,47.0" fill="none" stroke="#8fb7df" stroke-width="1" stroke-linecap="round" stroke-linejoin="round"/>
<polyline points="336.0,393.0 624.0,271.0" fill="none" stroke="#8fb7df" stroke-width="1" stroke-linecap="round" stroke-linejoin="round"/>
<polyline points="286.0,337.0 574.0,215.0" fill="none" stroke="#8fb7df" stroke-width="1" stroke-linecap="round" stroke-linejoin="round"/>
<polyline points="236.0,281.0 524.0,159.0" fill="none" stroke="#8fb7df" stroke-width="1" stroke-linecap="round" stroke-linejoin="round"/>
<polyline points="186.0,225.0 474.0,103.0" fill="none" stroke="#8fb7df" stroke-width="1" stroke-linecap="round" stroke-linejoin="round"/>
<polyline points="136.0,169.0 424.0,47.0" fill="none" stroke="#8fb7df" stroke-width="1" stroke-linecap="round" stroke-linejoin="round"/>
<polyline points="200.0,275.0 578.0,159.5" fill="none" stroke="#24323a" stroke-width="1.6" stroke-linecap="round" stroke-linejoin="round" marker-end="url(#arrow)"/>
<polyline points="505.0,275.0 242.5,159.5" fill="none" stroke="#24323a" stroke-width="1.6" stroke-linecap="round" stroke-linejoin="round" marker-end="url(#arrow)"/>
<polyline points="380.0,322.0 380.0,118.0" fill="none" stroke="#24323a" stroke-width="1.6" stroke-linecap="round" stroke-linejoin="round" marker-end="url(#arrow)"/>
<text x="588.8" y="156.2" fill="#24323a" font-size="18">x</text>
<text x="232.5" y="155.1" fill="#24323a" font-size="18">y</text>
<text x="380.0" y="112.9" fill="#24323a" font-size="18">z</text>
<text x="84" y="346" fill="#174bb4" font-size="16">x +1 -&gt; z +1/4</text>
<text x="84" y="368" fill="#c92331" font-size="16">y +1 -&gt; z +1</text>
</svg>
