<svg xmlns="http://www.w3.org/2000/svg" width="760" height="420" viewBox="0 0 760 420" role="img" aria-label="direction slices">

<defs>
  <marker id="arrow" viewBox="0 0 10 10" refX="8.5" refY="5" markerWidth="7" markerHeight="7" orient="auto-start-reverse">
    <path d="M 0 0 L 10 5 L 0 10 z" fill="#24323a"/>
  </marker>
</defs>

<style>
  text { font-family: Arial, sans-serif; }
</style>
<rect x="0" y="0" width="760" height="420" rx="18" fill="#ffffff"/>
<rect x="58" y="58" width="644" height="304" fill="#fbfcfe" stroke="#d8e1e8" stroke-width="1"/>
<line x1="58.0" y1="362.0" x2="58.0" y2="58.0" stroke="#edf0f3" stroke-width="0.8" fill="none"/>
<line x1="219.0" y1="362.0" x2="219.0" y2="58.0" stroke="#edf0f3" stroke-width="0.8" fill="none"/>
<line x1="380.0" y1="362.0" x2="380.0" y2="58.0" stroke="#d9e0e7" stroke-width="1.35" fill="none"/>
<line x1="541.0" y1="362.0" x2="541.0" y2="58.0" stroke="#edf0f3" stroke-width="0.8" fill="none"/>
<line x1="702.0" y1="362.0" x2="702.0" y2="58.0" stroke="#edf0f3" stroke-width="0.8" fill="none"/>
<line x1="58.0" y1="330.0" x2="702.0" y2="330.0" stroke="#d9e0e7" stroke-width="1.35" fill="none"/>
<line x1="58.0" y1="170.0" x2="702.0" y2="170.0" stroke="#edf0f3" stroke-width="0.8" fill="none"/>
<line x1="58.0" y1="330.0" x2="702.0" y2="330.0" stroke="#24323a" stroke-width="1.4" fill="none" marker-end="url(#arrow)"/>
<line x1="380.0" y1="362.0" x2="380.0" y2="58.0" stroke="#24323a" stroke-width="1.4" fill="none" marker-end="url(#arrow)"/>
<text x="605.4" y="354.3" fill="#24323a" font-size="18" text-anchor="middle">x</text>
<text x="431.5" y="82.3" fill="#24323a" font-size="18" text-anchor="middle">y</text>
<text x="70" y="36" fill="#334" font-size="20">direction slices</text>
<polyline points="58.0,330.0 60.5,330.0 63.0,330.0 65.5,330.0 67.9,330.0 70.4,330.0 72.9,330.0 75.4,330.0 77.9,330.0 80.4,330.0 82.9,330.0 85.4,330.0 87.8,330.0 90.3,330.0 92.8,330.0 95.3,330.0 97.8,330.0 100.3,330.0 102.8,330.0 105.2,330.0 107.7,330.0 110.2,330.0 112.7,330.0 115.2,330.0 117.7,330.0 120.2,330.0 122.6,330.0 125.1,330.0 127.6,330.0 130.1,330.0 132.6,330.0 135.1,330.0 137.6,330.0 140.1,330.0 142.5,330.0 145.0,330.0 147.5,330.0 150.0,330.0 152.5,330.0 155.0,330.0 157.5,330.0 159.9,330.0 162.4,330.0 164.9,330.0 167.4,330.0 169.9,330.0 172.4,330.0 174.9,330.0 177.4,330.0 179.8,330.0 182.3,330.0 184.8,330.0 187.3,330.0 189.8,330.0 192.3,330.0 194.8,330.0 197.2,330.0 199.7,330.0 202.2,330.0 204.7,330.0 207.2,330.0 209.7,330.0 212.2,330.0 214.6,330.0 217.1,330.0 219.6,330.0 222.1,330.0 224.6,330.0 227.1,330.0 229.6,330.0 232.1,330.0 234.5,330.0 237.0,330.0 239.5,330.0 242.0,330.0 244.5,330.0 247.0,330.0 249.5,330.0 251.9,330.0 254.4,330.0 256.9,330.0 259.4,330.0 261.9,330.0 264.4,330.0 266.9,330.0 269.4,330.0 271.8,330.0 274.3,330.0 276.8,330.0 279.3,330.0 281.8,330.0 284.3,330.0 286.8,330.0 289.2,330.0 291.7,330.0 294.2,330.0 296.7,330.0 299.2,330.0 301.7,330.0 304.2,330.0 306.6,330.0 309.1,330.0 311.6,330.0 314.1,330.0 316.6,330.0 319.1,330.0 321.6,330.0 324.1,330.0 326.5,330.0 329.0,330.0 331.5,330.0 334.0,330.0 336.5,330.0 339.0,330.0 341.5,330.0 343.9,330.0 346.4,330.0 348.9,330.0 351.4,330.0 353.9,330.0 356.4,330.0 358.9,330.0 361.4,330.0 363.8,330.0 366.3,330.0 368.8,330.0 371.3,330.0 373.8,330.0 376.3,330.0 378.8,330.0 381.2,330.0 383.7,330.0 386.2,330.0 388.7,330.0 391.2,330.0 393.7,330.0 396.2,330.0 398.6,330.0 401.1,330.0 403.6,330.0 406.1,330.0 408.6,330.0 411.1,330.0 413.6,330.0 416.1,330.0 418.5,330.0 421.0,330.0 423.5,330.0 426.0,330.0 428.5,330.0 431.0,330.0 433.5,330.0 435.9,330.0 438.4,330.0 440.9,330.0 443.4,330.0 445.9,330.0 448.4,330.0 450.9,330.0 453.4,330.0 455.8,330.0 458.3,330.0 460.8,330.0 463.3,330.0 465.8,330.0 468.3,330.0 470.8,330.0 473.2,330.0 475.7,330.0 478.2,330.0 480.7,330.0 483.2,330.0 485.7,330.0 488.2,330.0 490.6,330.0 493.1,330.0 495.6,330.0 498.1,330.0 500.6,330.0 503.1,330.0 505.6,330.0 508.1,330.0 510.5,330.0 513.0,330.0 515.5,330.0 518.0,330.0 520.5,330.0 523.0,330.0 525.5,330.0 527.9,330.0 530.4,330.0 532.9,330.0 535.4,330.0 537.9,330.0 540.4,330.0 542.9,330.0 545.4,330.0 547.8,330.0 550.3,330.0 552.8,330.0 555.3,330.0 557.8,330.0 560.3,330.0 562.8,330.0 565.2,330.0 567.7,330.0 570.2,330.0 572.7,330.0 575.2,330.0 577.7,330.0 580.2,330.0 582.6,330.0 585.1,330.0 587.6,330.0 590.1,330.0 592.6,330.0 595.1,330.0 597.6,330.0 600.1,330.0 602.5,330.0 605.0,330.0 607.5,330.0 610.0,330.0 612.5,330.0 615.0,330.0 617.5,330.0 619.9,330.0 622.4,330.0 624.9,330.0 627.4,330.0 629.9,330.0 632.4,330.0 634.9,330.0 637.4,330.0 639.8,330.0 642.3,330.0 644.8,330.0 647.3,330.0 649.8,330.0 652.3,330.0 654.8,330.0 657.2,330.0 659.7,330.0 662.2,330.0 664.7,330.0 667.2,330.0 669.7,330.0 672.2,330.0 674.6,330.0 677.1,330.0 679.6,330.0 682.1,330.0 684.6,330.0 687.1,330.0 689.6,330.0 692.1,330.0 694.5,330.0 697.0,330.0 699.5,330.0 702.0,330.0" fill="none" stroke="#174bb4" stroke-width="3" stroke-linecap="round" stroke-linejoin="round" stroke-dasharray="9 6"/><polyline points="58.0,103.7 60.5,105.5 63.0,107.2 65.5,109.0 67.9,110.7 70.4,112.5 72.9,114.2 75.4,116.0 77.9,117.7 80.4,119.5 82.9,121.2 85.4,122.9 87.8,124.7 90.3,126.4 92.8,128.2 95.3,129.9 97.8,131.7 100.3,133.4 102.8,135.2 105.2,136.9 107.7,138.7 110.2,140.4 112.7,142.2 115.2,143.9 117.7,145.7 120.2,147.4 122.6,149.2 125.1,150.9 127.6,152.6 130.1,154.4 132.6,156.1 135.1,157.9 137.6,159.6 140.1,161.4 142.5,163.1 145.0,164.9 147.5,166.6 150.0,168.4 152.5,170.1 155.0,171.9 157.5,173.6 159.9,175.4 162.4,177.1 164.9,178.9 167.4,180.6 169.9,182.4 172.4,184.1 174.9,185.8 177.4,187.6 179.8,189.3 182.3,191.1 184.8,192.8 187.3,194.6 189.8,196.3 192.3,198.1 194.8,199.8 197.2,201.6 199.7,203.3 202.2,205.1 204.7,206.8 207.2,208.6 209.7,210.3 212.2,212.1 214.6,213.8 217.1,215.6 219.6,217.3 222.1,219.0 224.6,220.8 227.1,222.5 229.6,224.3 232.1,226.0 234.5,227.8 237.0,229.5 239.5,231.3 242.0,233.0 244.5,234.8 247.0,236.5 249.5,238.3 251.9,240.0 254.4,241.8 256.9,243.5 259.4,245.3 261.9,247.0 264.4,248.8 266.9,250.5 269.4,252.2 271.8,254.0 274.3,255.7 276.8,257.5 279.3,259.2 281.8,261.0 284.3,262.7 286.8,264.5 289.2,266.2 291.7,268.0 294.2,269.7 296.7,271.5 299.2,273.2 301.7,275.0 304.2,276.7 306.6,278.5 309.1,280.2 311.6,281.9 314.1,283.7 316.6,285.4 319.1,287.2 321.6,288.9 324.1,290.7 326.5,292.4 329.0,294.2 331.5,295.9 334.0,297.7 336.5,299.4 339.0,301.2 341.5,302.9 343.9,304.7 346.4,306.4 348.9,308.2 351.4,309.9 353.9,311.7 356.4,313.4 358.9,315.1 361.4,316.9 363.8,318.6 366.3,320.4 368.8,322.1 371.3,323.9 373.8,325.6 376.3,327.4 378.8,329.1 381.2,329.1 383.7,327.4 386.2,325.6 388.7,323.9 391.2,322.1 393.7,320.4 396.2,318.6 398.6,316.9 401.1,315.1 403.6,313.4 406.1,311.7 408.6,309.9 411.1,308.2 413.6,306.4 416.1,304.7 418.5,302.9 421.0,301.2 423.5,299.4 426.0,297.7 428.5,295.9 431.0,294.2 433.5,292.4 435.9,290.7 438.4,288.9 440.9,287.2 443.4,285.4 445.9,283.7 448.4,281.9 450.9,280.2 453.4,278.5 455.8,276.7 458.3,275.0 460.8,273.2 463.3,271.5 465.8,269.7 468.3,268.0 470.8,266.2 473.2,264.5 475.7,262.7 478.2,261.0 480.7,259.2 483.2,257.5 485.7,255.7 488.2,254.0 490.6,252.2 493.1,250.5 495.6,248.8 498.1,247.0 500.6,245.3 503.1,243.5 505.6,241.8 508.1,240.0 510.5,238.3 513.0,236.5 515.5,234.8 518.0,233.0 520.5,231.3 523.0,229.5 525.5,227.8 527.9,226.0 530.4,224.3 532.9,222.5 535.4,220.8 537.9,219.0 540.4,217.3 542.9,215.6 545.4,213.8 547.8,212.1 550.3,210.3 552.8,208.6 555.3,206.8 557.8,205.1 560.3,203.3 562.8,201.6 565.2,199.8 567.7,198.1 570.2,196.3 572.7,194.6 575.2,192.8 577.7,191.1 580.2,189.3 582.6,187.6 585.1,185.8 587.6,184.1 590.1,182.4 592.6,180.6 595.1,178.9 597.6,177.1 600.1,175.4 602.5,173.6 605.0,171.9 607.5,170.1 610.0,168.4 612.5,166.6 615.0,164.9 617.5,163.1 619.9,161.4 622.4,159.6 624.9,157.9 627.4,156.1 629.9,154.4 632.4,152.6 634.9,150.9 637.4,149.2 639.8,147.4 642.3,145.7 644.8,143.9 647.3,142.2 649.8,140.4 652.3,138.7 654.8,136.9 657.2,135.2 659.7,133.4 662.2,131.7 664.7,129.9 667.2,128.2 669.7,126.4 672.2,124.7 674.6,122.9 677.1,121.2 679.6,119.5 682.1,117.7 684.6,116.0 687.1,114.2 689.6,112.5 692.1,110.7 694.5,109.0 697.0,107.2 699.5,105.5 702.0,103.7" fill="none" stroke="#c92331" stroke-width="3" stroke-linecap="round" stroke-linejoin="round"/><text x="194.9" y="290.0" fill="#174bb4" font-size="16" text-anchor="middle">axis</text><text x="565.1" y="146.0" fill="#c92331" font-size="16" text-anchor="middle">y=x</text>
</svg>
