<svg xmlns="http://www.w3.org/2000/svg" width="760" height="420" viewBox="0 0 760 420" role="img" aria-label="slice of x^2y+yz^3">

<defs>
  <marker id="arrow" viewBox="0 0 10 10" refX="8.5" refY="5" markerWidth="7" markerHeight="7" orient="auto-start-reverse">
    <path d="M 0 0 L 10 5 L 0 10 z" fill="#24323a"/>
  </marker>
</defs>

<style>
  text { font-family: Arial, sans-serif; }
</style>
<rect x="0" y="0" width="760" height="420" rx="18" fill="#ffffff"/>
<rect x="58" y="58" width="644" height="304" fill="#fbfcfe" stroke="#d8e1e8" stroke-width="1"/>
<line x1="58.0" y1="362.0" x2="58.0" y2="58.0" stroke="#edf0f3" stroke-width="0.8" fill="none"/>
<line x1="219.0" y1="362.0" x2="219.0" y2="58.0" stroke="#edf0f3" stroke-width="0.8" fill="none"/>
<line x1="380.0" y1="362.0" x2="380.0" y2="58.0" stroke="#d9e0e7" stroke-width="1.35" fill="none"/>
<line x1="541.0" y1="362.0" x2="541.0" y2="58.0" stroke="#edf0f3" stroke-width="0.8" fill="none"/>
<line x1="702.0" y1="362.0" x2="702.0" y2="58.0" stroke="#edf0f3" stroke-width="0.8" fill="none"/>
<line x1="58.0" y1="362.0" x2="702.0" y2="362.0" stroke="#edf0f3" stroke-width="0.8" fill="none"/>
<line x1="58.0" y1="334.4" x2="702.0" y2="334.4" stroke="#edf0f3" stroke-width="0.8" fill="none"/>
<line x1="58.0" y1="306.7" x2="702.0" y2="306.7" stroke="#edf0f3" stroke-width="0.8" fill="none"/>
<line x1="58.0" y1="279.1" x2="702.0" y2="279.1" stroke="#edf0f3" stroke-width="0.8" fill="none"/>
<line x1="58.0" y1="251.5" x2="702.0" y2="251.5" stroke="#edf0f3" stroke-width="0.8" fill="none"/>
<line x1="58.0" y1="223.8" x2="702.0" y2="223.8" stroke="#d9e0e7" stroke-width="1.35" fill="none"/>
<line x1="58.0" y1="196.2" x2="702.0" y2="196.2" stroke="#edf0f3" stroke-width="0.8" fill="none"/>
<line x1="58.0" y1="168.5" x2="702.0" y2="168.5" stroke="#edf0f3" stroke-width="0.8" fill="none"/>
<line x1="58.0" y1="140.9" x2="702.0" y2="140.9" stroke="#edf0f3" stroke-width="0.8" fill="none"/>
<line x1="58.0" y1="113.3" x2="702.0" y2="113.3" stroke="#edf0f3" stroke-width="0.8" fill="none"/>
<line x1="58.0" y1="85.6" x2="702.0" y2="85.6" stroke="#edf0f3" stroke-width="0.8" fill="none"/>
<line x1="58.0" y1="58.0" x2="702.0" y2="58.0" stroke="#edf0f3" stroke-width="0.8" fill="none"/>
<line x1="58.0" y1="223.8" x2="702.0" y2="223.8" stroke="#24323a" stroke-width="1.4" fill="none" marker-end="url(#arrow)"/>
<line x1="380.0" y1="362.0" x2="380.0" y2="58.0" stroke="#24323a" stroke-width="1.4" fill="none" marker-end="url(#arrow)"/>
<text x="605.4" y="248.1" fill="#24323a" font-size="18" text-anchor="middle">x</text>
<text x="431.5" y="82.3" fill="#24323a" font-size="18" text-anchor="middle">y</text>
<text x="70" y="36" fill="#334" font-size="20">slice of x^2y+yz^3</text>
<polyline points="58.0,85.6 60.5,87.3 63.0,89.0 65.5,90.7 67.9,92.4 70.4,94.0 72.9,95.6 75.4,97.3 77.9,98.9 80.4,100.5 82.9,102.0 85.4,103.6 87.8,105.2 90.3,106.7 92.8,108.2 95.3,109.8 97.8,111.3 100.3,112.8 102.8,114.2 105.2,115.7 107.7,117.1 110.2,118.6 112.7,120.0 115.2,121.4 117.7,122.8 120.2,124.2 122.6,125.6 125.1,126.9 127.6,128.3 130.1,129.6 132.6,130.9 135.1,132.2 137.6,133.5 140.1,134.8 142.5,136.1 145.0,137.3 147.5,138.6 150.0,139.8 152.5,141.0 155.0,142.2 157.5,143.4 159.9,144.6 162.4,145.7 164.9,146.9 167.4,148.0 169.9,149.1 172.4,150.2 174.9,151.3 177.4,152.4 179.8,153.5 182.3,154.5 184.8,155.6 187.3,156.6 189.8,157.6 192.3,158.6 194.8,159.6 197.2,160.6 199.7,161.5 202.2,162.5 204.7,163.4 207.2,164.3 209.7,165.3 212.2,166.1 214.6,167.0 217.1,167.9 219.6,168.8 222.1,169.6 224.6,170.4 227.1,171.3 229.6,172.1 232.1,172.8 234.5,173.6 237.0,174.4 239.5,175.1 242.0,175.9 244.5,176.6 247.0,177.3 249.5,178.0 251.9,178.7 254.4,179.4 256.9,180.0 259.4,180.7 261.9,181.3 264.4,181.9 266.9,182.5 269.4,183.1 271.8,183.7 274.3,184.3 276.8,184.8 279.3,185.4 281.8,185.9 284.3,186.4 286.8,186.9 289.2,187.4 291.7,187.9 294.2,188.3 296.7,188.8 299.2,189.2 301.7,189.6 304.2,190.0 306.6,190.4 309.1,190.8 311.6,191.2 314.1,191.6 316.6,191.9 319.1,192.2 321.6,192.5 324.1,192.8 326.5,193.1 329.0,193.4 331.5,193.7 334.0,193.9 336.5,194.2 339.0,194.4 341.5,194.6 343.9,194.8 346.4,195.0 348.9,195.2 351.4,195.3 353.9,195.5 356.4,195.6 358.9,195.7 361.4,195.8 363.8,195.9 366.3,196.0 368.8,196.0 371.3,196.1 373.8,196.1 376.3,196.2 378.8,196.2 381.2,196.2 383.7,196.2 386.2,196.1 388.7,196.1 391.2,196.0 393.7,196.0 396.2,195.9 398.6,195.8 401.1,195.7 403.6,195.6 406.1,195.5 408.6,195.3 411.1,195.2 413.6,195.0 416.1,194.8 418.5,194.6 421.0,194.4 423.5,194.2 426.0,193.9 428.5,193.7 431.0,193.4 433.5,193.1 435.9,192.8 438.4,192.5 440.9,192.2 443.4,191.9 445.9,191.6 448.4,191.2 450.9,190.8 453.4,190.4 455.8,190.0 458.3,189.6 460.8,189.2 463.3,188.8 465.8,188.3 468.3,187.9 470.8,187.4 473.2,186.9 475.7,186.4 478.2,185.9 480.7,185.4 483.2,184.8 485.7,184.3 488.2,183.7 490.6,183.1 493.1,182.5 495.6,181.9 498.1,181.3 500.6,180.7 503.1,180.0 505.6,179.4 508.1,178.7 510.5,178.0 513.0,177.3 515.5,176.6 518.0,175.9 520.5,175.1 523.0,174.4 525.5,173.6 527.9,172.8 530.4,172.1 532.9,171.3 535.4,170.4 537.9,169.6 540.4,168.8 542.9,167.9 545.4,167.0 547.8,166.1 550.3,165.3 552.8,164.3 555.3,163.4 557.8,162.5 560.3,161.5 562.8,160.6 565.2,159.6 567.7,158.6 570.2,157.6 572.7,156.6 575.2,155.6 577.7,154.5 580.2,153.5 582.6,152.4 585.1,151.3 587.6,150.2 590.1,149.1 592.6,148.0 595.1,146.9 597.6,145.7 600.1,144.6 602.5,143.4 605.0,142.2 607.5,141.0 610.0,139.8 612.5,138.6 615.0,137.3 617.5,136.1 619.9,134.8 622.4,133.5 624.9,132.2 627.4,130.9 629.9,129.6 632.4,128.3 634.9,126.9 637.4,125.6 639.8,124.2 642.3,122.8 644.8,121.4 647.3,120.0 649.8,118.6 652.3,117.1 654.8,115.7 657.2,114.2 659.7,112.8 662.2,111.3 664.7,109.8 667.2,108.2 669.7,106.7 672.2,105.2 674.6,103.6 677.1,102.0 679.6,100.5 682.1,98.9 684.6,97.3 687.1,95.6 689.6,94.0 692.1,92.4 694.5,90.7 697.0,89.0 699.5,87.3 702.0,85.6" fill="none" stroke="#174bb4" stroke-width="3" stroke-linecap="round" stroke-linejoin="round"/><polyline points="58.0,334.4 60.5,333.5 63.0,332.7 65.5,331.8 67.9,330.9 70.4,330.1 72.9,329.2 75.4,328.4 77.9,327.5 80.4,326.7 82.9,325.8 85.4,325.0 87.8,324.1 90.3,323.3 92.8,322.4 95.3,321.6 97.8,320.7 100.3,319.9 102.8,319.0 105.2,318.1 107.7,317.3 110.2,316.4 112.7,315.6 115.2,314.7 117.7,313.9 120.2,313.0 122.6,312.2 125.1,311.3 127.6,310.5 130.1,309.6 132.6,308.8 135.1,307.9 137.6,307.0 140.1,306.2 142.5,305.3 145.0,304.5 147.5,303.6 150.0,302.8 152.5,301.9 155.0,301.1 157.5,300.2 159.9,299.4 162.4,298.5 164.9,297.7 167.4,296.8 169.9,296.0 172.4,295.1 174.9,294.2 177.4,293.4 179.8,292.5 182.3,291.7 184.8,290.8 187.3,290.0 189.8,289.1 192.3,288.3 194.8,287.4 197.2,286.6 199.7,285.7 202.2,284.9 204.7,284.0 207.2,283.1 209.7,282.3 212.2,281.4 214.6,280.6 217.1,279.7 219.6,278.9 222.1,278.0 224.6,277.2 227.1,276.3 229.6,275.5 232.1,274.6 234.5,273.8 237.0,272.9 239.5,272.0 242.0,271.2 244.5,270.3 247.0,269.5 249.5,268.6 251.9,267.8 254.4,266.9 256.9,266.1 259.4,265.2 261.9,264.4 264.4,263.5 266.9,262.7 269.4,261.8 271.8,261.0 274.3,260.1 276.8,259.2 279.3,258.4 281.8,257.5 284.3,256.7 286.8,255.8 289.2,255.0 291.7,254.1 294.2,253.3 296.7,252.4 299.2,251.6 301.7,250.7 304.2,249.9 306.6,249.0 309.1,248.1 311.6,247.3 314.1,246.4 316.6,245.6 319.1,244.7 321.6,243.9 324.1,243.0 326.5,242.2 329.0,241.3 331.5,240.5 334.0,239.6 336.5,238.8 339.0,237.9 341.5,237.0 343.9,236.2 346.4,235.3 348.9,234.5 351.4,233.6 353.9,232.8 356.4,231.9 358.9,231.1 361.4,230.2 363.8,229.4 366.3,228.5 368.8,227.7 371.3,226.8 373.8,226.0 376.3,225.1 378.8,224.2 381.2,223.4 383.7,222.5 386.2,221.7 388.7,220.8 391.2,220.0 393.7,219.1 396.2,218.3 398.6,217.4 401.1,216.6 403.6,215.7 406.1,214.9 408.6,214.0 411.1,213.1 413.6,212.3 416.1,211.4 418.5,210.6 421.0,209.7 423.5,208.9 426.0,208.0 428.5,207.2 431.0,206.3 433.5,205.5 435.9,204.6 438.4,203.8 440.9,202.9 443.4,202.1 445.9,201.2 448.4,200.3 450.9,199.5 453.4,198.6 455.8,197.8 458.3,196.9 460.8,196.1 463.3,195.2 465.8,194.4 468.3,193.5 470.8,192.7 473.2,191.8 475.7,191.0 478.2,190.1 480.7,189.2 483.2,188.4 485.7,187.5 488.2,186.7 490.6,185.8 493.1,185.0 495.6,184.1 498.1,183.3 500.6,182.4 503.1,181.6 505.6,180.7 508.1,179.9 510.5,179.0 513.0,178.1 515.5,177.3 518.0,176.4 520.5,175.6 523.0,174.7 525.5,173.9 527.9,173.0 530.4,172.2 532.9,171.3 535.4,170.5 537.9,169.6 540.4,168.8 542.9,167.9 545.4,167.1 547.8,166.2 550.3,165.3 552.8,164.5 555.3,163.6 557.8,162.8 560.3,161.9 562.8,161.1 565.2,160.2 567.7,159.4 570.2,158.5 572.7,157.7 575.2,156.8 577.7,156.0 580.2,155.1 582.6,154.2 585.1,153.4 587.6,152.5 590.1,151.7 592.6,150.8 595.1,150.0 597.6,149.1 600.1,148.3 602.5,147.4 605.0,146.6 607.5,145.7 610.0,144.9 612.5,144.0 615.0,143.1 617.5,142.3 619.9,141.4 622.4,140.6 624.9,139.7 627.4,138.9 629.9,138.0 632.4,137.2 634.9,136.3 637.4,135.5 639.8,134.6 642.3,133.8 644.8,132.9 647.3,132.1 649.8,131.2 652.3,130.3 654.8,129.5 657.2,128.6 659.7,127.8 662.2,126.9 664.7,126.1 667.2,125.2 669.7,124.4 672.2,123.5 674.6,122.7 677.1,121.8 679.6,121.0 682.1,120.1 684.6,119.2 687.1,118.4 689.6,117.5 692.1,116.7 694.5,115.8 697.0,115.0 699.5,114.1 702.0,113.3" fill="none" stroke="#c92331" stroke-width="3" stroke-linecap="round" stroke-linejoin="round"/><text x="186.8" y="102.2" fill="#174bb4" font-size="16" text-anchor="middle">f(x,1,1)</text><text x="549.0" y="146.4" fill="#c92331" font-size="16" text-anchor="middle">f(1,y,1)</text>
</svg>
