<svg xmlns="http://www.w3.org/2000/svg" width="760" height="420" viewBox="0 0 760 420" role="img" aria-label="T=50+2x-y^2">

<defs>
  <marker id="arrow" viewBox="0 0 10 10" refX="8.5" refY="5" markerWidth="7" markerHeight="7" orient="auto-start-reverse">
    <path d="M 0 0 L 10 5 L 0 10 z" fill="#24323a"/>
  </marker>
</defs>

<style>
  text { font-family: Arial, sans-serif; }
</style>
<rect x="0" y="0" width="760" height="420" rx="18" fill="#ffffff"/>
<rect x="58" y="58" width="644" height="304" fill="#fbfcfe" stroke="#d8e1e8" stroke-width="1"/>
<line x1="58.0" y1="362.0" x2="58.0" y2="58.0" stroke="#edf0f3" stroke-width="0.8" fill="none"/>
<line x1="138.5" y1="362.0" x2="138.5" y2="58.0" stroke="#edf0f3" stroke-width="0.8" fill="none"/>
<line x1="219.0" y1="362.0" x2="219.0" y2="58.0" stroke="#edf0f3" stroke-width="0.8" fill="none"/>
<line x1="299.5" y1="362.0" x2="299.5" y2="58.0" stroke="#edf0f3" stroke-width="0.8" fill="none"/>
<line x1="380.0" y1="362.0" x2="380.0" y2="58.0" stroke="#d9e0e7" stroke-width="1.35" fill="none"/>
<line x1="460.5" y1="362.0" x2="460.5" y2="58.0" stroke="#edf0f3" stroke-width="0.8" fill="none"/>
<line x1="541.0" y1="362.0" x2="541.0" y2="58.0" stroke="#edf0f3" stroke-width="0.8" fill="none"/>
<line x1="621.5" y1="362.0" x2="621.5" y2="58.0" stroke="#edf0f3" stroke-width="0.8" fill="none"/>
<line x1="702.0" y1="362.0" x2="702.0" y2="58.0" stroke="#edf0f3" stroke-width="0.8" fill="none"/>
<line x1="58.0" y1="362.0" x2="702.0" y2="362.0" stroke="#edf0f3" stroke-width="0.8" fill="none"/>
<line x1="58.0" y1="324.0" x2="702.0" y2="324.0" stroke="#edf0f3" stroke-width="0.8" fill="none"/>
<line x1="58.0" y1="286.0" x2="702.0" y2="286.0" stroke="#edf0f3" stroke-width="0.8" fill="none"/>
<line x1="58.0" y1="248.0" x2="702.0" y2="248.0" stroke="#edf0f3" stroke-width="0.8" fill="none"/>
<line x1="58.0" y1="210.0" x2="702.0" y2="210.0" stroke="#d9e0e7" stroke-width="1.35" fill="none"/>
<line x1="58.0" y1="172.0" x2="702.0" y2="172.0" stroke="#edf0f3" stroke-width="0.8" fill="none"/>
<line x1="58.0" y1="134.0" x2="702.0" y2="134.0" stroke="#edf0f3" stroke-width="0.8" fill="none"/>
<line x1="58.0" y1="96.0" x2="702.0" y2="96.0" stroke="#edf0f3" stroke-width="0.8" fill="none"/>
<line x1="58.0" y1="58.0" x2="702.0" y2="58.0" stroke="#edf0f3" stroke-width="0.8" fill="none"/>
<line x1="58.0" y1="210.0" x2="702.0" y2="210.0" stroke="#24323a" stroke-width="1.4" fill="none" marker-end="url(#arrow)"/>
<line x1="380.0" y1="362.0" x2="380.0" y2="58.0" stroke="#24323a" stroke-width="1.4" fill="none" marker-end="url(#arrow)"/>
<text x="605.4" y="234.3" fill="#24323a" font-size="18" text-anchor="middle">x</text>
<text x="431.5" y="82.3" fill="#24323a" font-size="18" text-anchor="middle">y</text>
<text x="70" y="36" fill="#334" font-size="20">T=50+2x-y^2</text>
<polyline points="380.0,362.0 370.1,360.8 360.3,359.7 350.5,358.5 340.8,357.3 331.2,356.1 321.7,355.0 312.3,353.8 302.9,352.6 293.6,351.4 284.4,350.3 275.2,349.1 266.2,347.9 257.2,346.7 248.3,345.6 239.5,344.4 230.7,343.2 222.0,342.0 213.4,340.9 204.9,339.7 196.4,338.5 188.1,337.4 179.8,336.2 171.6,335.0 163.4,333.8 155.4,332.7 147.4,331.5 139.5,330.3 131.6,329.1 123.9,328.0 116.2,326.8 108.6,325.6 101.1,324.4 93.6,323.3 86.2,322.1 78.9,320.9 71.7,319.7 64.6,318.6 64.6,101.4 71.7,100.3 78.9,99.1 86.2,97.9 93.6,96.7 101.1,95.6 108.6,94.4 116.2,93.2 123.9,92.0 131.6,90.9 139.5,89.7 147.4,88.5 155.4,87.3 163.4,86.2 171.6,85.0 179.8,83.8 188.1,82.6 196.4,81.5 204.9,80.3 213.4,79.1 222.0,78.0 230.7,76.8 239.5,75.6 248.3,74.4 257.2,73.3 266.2,72.1 275.2,70.9 284.4,69.7 293.6,68.6 302.9,67.4 312.3,66.2 321.7,65.0 331.2,63.9 340.8,62.7 350.5,61.5 360.3,60.3 370.1,59.2 380.0,58.0" fill="none" stroke="#8aa6c8" stroke-width="2.4" stroke-linecap="round" stroke-linejoin="round"/>
<polyline points="702.0,362.0 692.1,360.8 682.3,359.7 672.5,358.5 662.8,357.3 653.2,356.1 643.7,355.0 634.3,353.8 624.9,352.6 615.6,351.4 606.4,350.3 597.2,349.1 588.2,347.9 579.2,346.7 570.3,345.6 561.5,344.4 552.7,343.2 544.0,342.0 535.4,340.9 526.9,339.7 518.4,338.5 510.1,337.4 501.8,336.2 493.6,335.0 485.4,333.8 477.4,332.7 469.4,331.5 461.5,330.3 453.6,329.1 445.9,328.0 438.2,326.8 430.6,325.6 423.1,324.4 415.6,323.3 408.2,322.1 400.9,320.9 393.7,319.7 386.6,318.6 379.5,317.4 372.5,316.2 365.6,315.1 358.8,313.9 352.0,312.7 345.3,311.5 338.7,310.4 332.2,309.2 325.7,308.0 319.4,306.8 313.1,305.7 306.9,304.5 300.7,303.3 294.6,302.1 288.6,301.0 282.7,299.8 276.9,298.6 271.1,297.4 265.5,296.3 259.8,295.1 254.3,293.9 248.9,292.7 243.5,291.6 238.2,290.4 233.0,289.2 227.8,288.1 222.8,286.9 217.8,285.7 212.8,284.5 208.0,283.4 203.2,282.2 198.6,281.0 194.0,279.8 189.4,278.7 185.0,277.5 180.6,276.3 176.3,275.1 172.1,274.0 167.9,272.8 163.8,271.6 159.8,270.4 155.9,269.3 152.1,268.1 148.3,266.9 144.6,265.8 141.0,264.6 137.5,263.4 134.0,262.2 130.7,261.1 127.4,259.9 124.1,258.7 121.0,257.5 117.9,256.4 114.9,255.2 112.0,254.0 109.2,252.8 106.4,251.7 103.7,250.5 101.1,249.3 98.6,248.1 96.1,247.0 93.7,245.8 91.4,244.6 89.2,243.5 87.0,242.3 85.0,241.1 83.0,239.9 81.1,238.8 79.2,237.6 77.4,236.4 75.8,235.2 74.1,234.1 72.6,232.9 71.1,231.7 69.8,230.5 68.5,229.4 67.2,228.2 66.1,227.0 65.0,225.8 64.0,224.7 63.1,223.5 62.2,222.3 61.5,221.2 60.8,220.0 60.2,218.8 59.6,217.6 59.2,216.5 58.8,215.3 58.5,214.1 58.2,212.9 58.1,211.8 58.0,210.6 58.0,209.4 58.1,208.2 58.2,207.1 58.5,205.9 58.8,204.7 59.2,203.5 59.6,202.4 60.2,201.2 60.8,200.0 61.5,198.8 62.2,197.7 63.1,196.5 64.0,195.3 65.0,194.2 66.1,193.0 67.2,191.8 68.5,190.6 69.8,189.5 71.1,188.3 72.6,187.1 74.1,185.9 75.8,184.8 77.4,183.6 79.2,182.4 81.1,181.2 83.0,180.1 85.0,178.9 87.0,177.7 89.2,176.5 91.4,175.4 93.7,174.2 96.1,173.0 98.6,171.9 101.1,170.7 103.7,169.5 106.4,168.3 109.2,167.2 112.0,166.0 114.9,164.8 117.9,163.6 121.0,162.5 124.1,161.3 127.4,160.1 130.7,158.9 134.0,157.8 137.5,156.6 141.0,155.4 144.6,154.2 148.3,153.1 152.1,151.9 155.9,150.7 159.8,149.6 163.8,148.4 167.9,147.2 172.1,146.0 176.3,144.9 180.6,143.7 185.0,142.5 189.4,141.3 194.0,140.2 198.6,139.0 203.2,137.8 208.0,136.6 212.8,135.5 217.8,134.3 222.8,133.1 227.8,131.9 233.0,130.8 238.2,129.6 243.5,128.4 248.9,127.3 254.3,126.1 259.8,124.9 265.5,123.7 271.1,122.6 276.9,121.4 282.7,120.2 288.6,119.0 294.6,117.9 300.7,116.7 306.9,115.5 313.1,114.3 319.4,113.2 325.7,112.0 332.2,110.8 338.7,109.6 345.3,108.5 352.0,107.3 358.8,106.1 365.6,104.9 372.5,103.8 379.5,102.6 386.6,101.4 393.7,100.3 400.9,99.1 408.2,97.9 415.6,96.7 423.1,95.6 430.6,94.4 438.2,93.2 445.9,92.0 453.6,90.9 461.5,89.7 469.4,88.5 477.4,87.3 485.4,86.2 493.6,85.0 501.8,83.8 510.1,82.6 518.4,81.5 526.9,80.3 535.4,79.1 544.0,78.0 552.7,76.8 561.5,75.6 570.3,74.4 579.2,73.3 588.2,72.1 597.2,70.9 606.4,69.7 615.6,68.6 624.9,67.4 634.3,66.2 643.7,65.0 653.2,63.9 662.8,62.7 672.5,61.5 682.3,60.3 692.1,59.2 702.0,58.0" fill="none" stroke="#487eb0" stroke-width="2.4" stroke-linecap="round" stroke-linejoin="round"/>
<polyline points="701.5,317.4 694.5,316.2 687.6,315.1 680.8,313.9 674.0,312.7 667.3,311.5 660.7,310.4 654.2,309.2 647.7,308.0 641.4,306.8 635.1,305.7 628.9,304.5 622.7,303.3 616.6,302.1 610.6,301.0 604.7,299.8 598.9,298.6 593.1,297.4 587.5,296.3 581.8,295.1 576.3,293.9 570.9,292.7 565.5,291.6 560.2,290.4 555.0,289.2 549.8,288.1 544.8,286.9 539.8,285.7 534.8,284.5 530.0,283.4 525.2,282.2 520.6,281.0 516.0,279.8 511.4,278.7 507.0,277.5 502.6,276.3 498.3,275.1 494.1,274.0 489.9,272.8 485.8,271.6 481.8,270.4 477.9,269.3 474.1,268.1 470.3,266.9 466.6,265.8 463.0,264.6 459.5,263.4 456.0,262.2 452.7,261.1 449.4,259.9 446.1,258.7 443.0,257.5 439.9,256.4 436.9,255.2 434.0,254.0 431.2,252.8 428.4,251.7 425.7,250.5 423.1,249.3 420.6,248.1 418.1,247.0 415.7,245.8 413.4,244.6 411.2,243.5 409.0,242.3 407.0,241.1 405.0,239.9 403.1,238.8 401.2,237.6 399.4,236.4 397.8,235.2 396.1,234.1 394.6,232.9 393.1,231.7 391.8,230.5 390.5,229.4 389.2,228.2 388.1,227.0 387.0,225.8 386.0,224.7 385.1,223.5 384.2,222.3 383.5,221.2 382.8,220.0 382.2,218.8 381.6,217.6 381.2,216.5 380.8,215.3 380.5,214.1 380.2,212.9 380.1,211.8 380.0,210.6 380.0,209.4 380.1,208.2 380.2,207.1 380.5,205.9 380.8,204.7 381.2,203.5 381.6,202.4 382.2,201.2 382.8,200.0 383.5,198.8 384.2,197.7 385.1,196.5 386.0,195.3 387.0,194.2 388.1,193.0 389.2,191.8 390.5,190.6 391.8,189.5 393.1,188.3 394.6,187.1 396.1,185.9 397.8,184.8 399.4,183.6 401.2,182.4 403.1,181.2 405.0,180.1 407.0,178.9 409.0,177.7 411.2,176.5 413.4,175.4 415.7,174.2 418.1,173.0 420.6,171.9 423.1,170.7 425.7,169.5 428.4,168.3 431.2,167.2 434.0,166.0 436.9,164.8 439.9,163.6 443.0,162.5 446.1,161.3 449.4,160.1 452.7,158.9 456.0,157.8 459.5,156.6 463.0,155.4 466.6,154.2 470.3,153.1 474.1,151.9 477.9,150.7 481.8,149.6 485.8,148.4 489.9,147.2 494.1,146.0 498.3,144.9 502.6,143.7 507.0,142.5 511.4,141.3 516.0,140.2 520.6,139.0 525.2,137.8 530.0,136.6 534.8,135.5 539.8,134.3 544.8,133.1 549.8,131.9 555.0,130.8 560.2,129.6 565.5,128.4 570.9,127.3 576.3,126.1 581.8,124.9 587.5,123.7 593.1,122.6 598.9,121.4 604.7,120.2 610.6,119.0 616.6,117.9 622.7,116.7 628.9,115.5 635.1,114.3 641.4,113.2 647.7,112.0 654.2,110.8 660.7,109.6 667.3,108.5 674.0,107.3 680.8,106.1 687.6,104.9 694.5,103.8 701.5,102.6" fill="none" stroke="#2c8c7c" stroke-width="2.4" stroke-linecap="round" stroke-linejoin="round"/>
<polyline points="" fill="none" stroke="#c92331" stroke-width="2.4" stroke-linecap="round" stroke-linejoin="round"/>
<line x1="339.8" y1="210.0" x2="605.4" y2="210.0" stroke="#174bb4" stroke-width="3" fill="none" marker-end="url(#arrow)"/>
<line x1="380.0" y1="229.0" x2="380.0" y2="316.4" stroke="#c92331" stroke-width="3" fill="none" marker-end="url(#arrow)"/>
<text x="508.8" y="192.9" fill="#174bb4" font-size="16" text-anchor="middle">T_x=2</text>
<text x="432.3" y="289.8" fill="#c92331" font-size="16" text-anchor="middle">T_y=-2y</text>
</svg>
