<svg xmlns="http://www.w3.org/2000/svg" width="760" height="420" viewBox="0 0 760 420" role="img" aria-label="T=100-x^2-y^2">

<defs>
  <marker id="arrow" viewBox="0 0 10 10" refX="8.5" refY="5" markerWidth="7" markerHeight="7" orient="auto-start-reverse">
    <path d="M 0 0 L 10 5 L 0 10 z" fill="#24323a"/>
  </marker>
</defs>

<style>
  text { font-family: Arial, sans-serif; }
</style>
<rect x="0" y="0" width="760" height="420" rx="18" fill="#ffffff"/>
<rect x="58" y="58" width="644" height="304" fill="#fbfcfe" stroke="#d8e1e8" stroke-width="1"/>
<line x1="58.0" y1="362.0" x2="58.0" y2="58.0" stroke="#edf0f3" stroke-width="0.8" fill="none"/>
<line x1="87.3" y1="362.0" x2="87.3" y2="58.0" stroke="#edf0f3" stroke-width="0.8" fill="none"/>
<line x1="116.5" y1="362.0" x2="116.5" y2="58.0" stroke="#edf0f3" stroke-width="0.8" fill="none"/>
<line x1="145.8" y1="362.0" x2="145.8" y2="58.0" stroke="#edf0f3" stroke-width="0.8" fill="none"/>
<line x1="175.1" y1="362.0" x2="175.1" y2="58.0" stroke="#edf0f3" stroke-width="0.8" fill="none"/>
<line x1="204.4" y1="362.0" x2="204.4" y2="58.0" stroke="#edf0f3" stroke-width="0.8" fill="none"/>
<line x1="233.6" y1="362.0" x2="233.6" y2="58.0" stroke="#edf0f3" stroke-width="0.8" fill="none"/>
<line x1="262.9" y1="362.0" x2="262.9" y2="58.0" stroke="#edf0f3" stroke-width="0.8" fill="none"/>
<line x1="292.2" y1="362.0" x2="292.2" y2="58.0" stroke="#edf0f3" stroke-width="0.8" fill="none"/>
<line x1="321.5" y1="362.0" x2="321.5" y2="58.0" stroke="#edf0f3" stroke-width="0.8" fill="none"/>
<line x1="350.7" y1="362.0" x2="350.7" y2="58.0" stroke="#edf0f3" stroke-width="0.8" fill="none"/>
<line x1="380.0" y1="362.0" x2="380.0" y2="58.0" stroke="#d9e0e7" stroke-width="1.35" fill="none"/>
<line x1="409.3" y1="362.0" x2="409.3" y2="58.0" stroke="#edf0f3" stroke-width="0.8" fill="none"/>
<line x1="438.5" y1="362.0" x2="438.5" y2="58.0" stroke="#edf0f3" stroke-width="0.8" fill="none"/>
<line x1="467.8" y1="362.0" x2="467.8" y2="58.0" stroke="#edf0f3" stroke-width="0.8" fill="none"/>
<line x1="497.1" y1="362.0" x2="497.1" y2="58.0" stroke="#edf0f3" stroke-width="0.8" fill="none"/>
<line x1="526.4" y1="362.0" x2="526.4" y2="58.0" stroke="#edf0f3" stroke-width="0.8" fill="none"/>
<line x1="555.6" y1="362.0" x2="555.6" y2="58.0" stroke="#edf0f3" stroke-width="0.8" fill="none"/>
<line x1="584.9" y1="362.0" x2="584.9" y2="58.0" stroke="#edf0f3" stroke-width="0.8" fill="none"/>
<line x1="614.2" y1="362.0" x2="614.2" y2="58.0" stroke="#edf0f3" stroke-width="0.8" fill="none"/>
<line x1="643.5" y1="362.0" x2="643.5" y2="58.0" stroke="#edf0f3" stroke-width="0.8" fill="none"/>
<line x1="672.7" y1="362.0" x2="672.7" y2="58.0" stroke="#edf0f3" stroke-width="0.8" fill="none"/>
<line x1="702.0" y1="362.0" x2="702.0" y2="58.0" stroke="#edf0f3" stroke-width="0.8" fill="none"/>
<line x1="58.0" y1="362.0" x2="702.0" y2="362.0" stroke="#edf0f3" stroke-width="0.8" fill="none"/>
<line x1="58.0" y1="348.2" x2="702.0" y2="348.2" stroke="#edf0f3" stroke-width="0.8" fill="none"/>
<line x1="58.0" y1="334.4" x2="702.0" y2="334.4" stroke="#edf0f3" stroke-width="0.8" fill="none"/>
<line x1="58.0" y1="320.5" x2="702.0" y2="320.5" stroke="#edf0f3" stroke-width="0.8" fill="none"/>
<line x1="58.0" y1="306.7" x2="702.0" y2="306.7" stroke="#edf0f3" stroke-width="0.8" fill="none"/>
<line x1="58.0" y1="292.9" x2="702.0" y2="292.9" stroke="#edf0f3" stroke-width="0.8" fill="none"/>
<line x1="58.0" y1="279.1" x2="702.0" y2="279.1" stroke="#edf0f3" stroke-width="0.8" fill="none"/>
<line x1="58.0" y1="265.3" x2="702.0" y2="265.3" stroke="#edf0f3" stroke-width="0.8" fill="none"/>
<line x1="58.0" y1="251.5" x2="702.0" y2="251.5" stroke="#edf0f3" stroke-width="0.8" fill="none"/>
<line x1="58.0" y1="237.6" x2="702.0" y2="237.6" stroke="#edf0f3" stroke-width="0.8" fill="none"/>
<line x1="58.0" y1="223.8" x2="702.0" y2="223.8" stroke="#edf0f3" stroke-width="0.8" fill="none"/>
<line x1="58.0" y1="210.0" x2="702.0" y2="210.0" stroke="#d9e0e7" stroke-width="1.35" fill="none"/>
<line x1="58.0" y1="196.2" x2="702.0" y2="196.2" stroke="#edf0f3" stroke-width="0.8" fill="none"/>
<line x1="58.0" y1="182.4" x2="702.0" y2="182.4" stroke="#edf0f3" stroke-width="0.8" fill="none"/>
<line x1="58.0" y1="168.5" x2="702.0" y2="168.5" stroke="#edf0f3" stroke-width="0.8" fill="none"/>
<line x1="58.0" y1="154.7" x2="702.0" y2="154.7" stroke="#edf0f3" stroke-width="0.8" fill="none"/>
<line x1="58.0" y1="140.9" x2="702.0" y2="140.9" stroke="#edf0f3" stroke-width="0.8" fill="none"/>
<line x1="58.0" y1="127.1" x2="702.0" y2="127.1" stroke="#edf0f3" stroke-width="0.8" fill="none"/>
<line x1="58.0" y1="113.3" x2="702.0" y2="113.3" stroke="#edf0f3" stroke-width="0.8" fill="none"/>
<line x1="58.0" y1="99.5" x2="702.0" y2="99.5" stroke="#edf0f3" stroke-width="0.8" fill="none"/>
<line x1="58.0" y1="85.6" x2="702.0" y2="85.6" stroke="#edf0f3" stroke-width="0.8" fill="none"/>
<line x1="58.0" y1="71.8" x2="702.0" y2="71.8" stroke="#edf0f3" stroke-width="0.8" fill="none"/>
<line x1="58.0" y1="58.0" x2="702.0" y2="58.0" stroke="#edf0f3" stroke-width="0.8" fill="none"/>
<line x1="58.0" y1="210.0" x2="702.0" y2="210.0" stroke="#24323a" stroke-width="1.4" fill="none" marker-end="url(#arrow)"/>
<line x1="380.0" y1="362.0" x2="380.0" y2="58.0" stroke="#24323a" stroke-width="1.4" fill="none" marker-end="url(#arrow)"/>
<text x="605.4" y="234.3" fill="#24323a" font-size="18" text-anchor="middle">x</text>
<text x="431.5" y="82.3" fill="#24323a" font-size="18" text-anchor="middle">y</text>
<text x="70" y="36" fill="#334" font-size="20">T=100-x^2-y^2</text>
<ellipse cx="380.0" cy="210.0" rx="92.6" ry="43.7" fill="none" stroke="#1d5f99" stroke-width="2.5"/>
<text x="442.9" y="180.3" fill="#1d5f99" font-size="16" text-anchor="middle">T=90</text>
<ellipse cx="380.0" cy="210.0" rx="160.3" ry="75.7" fill="none" stroke="#2476a8" stroke-width="2.5"/>
<text x="489.0" y="158.5" fill="#2476a8" font-size="16" text-anchor="middle">T=70</text>
<ellipse cx="380.0" cy="210.0" rx="207.0" ry="97.7" fill="none" stroke="#2c8c7c" stroke-width="2.5"/>
<text x="520.8" y="143.6" fill="#2c8c7c" font-size="16" text-anchor="middle">T=50</text>
<ellipse cx="380.0" cy="210.0" rx="277.7" ry="131.1" fill="none" stroke="#d27a22" stroke-width="2.5"/>
<text x="568.8" y="120.9" fill="#d27a22" font-size="16" text-anchor="middle">T=10</text>
</svg>
