<svg xmlns="http://www.w3.org/2000/svg" width="760" height="420" viewBox="0 0 760 420" role="img" aria-label="slice and tangent plane">

<defs>
  <marker id="arrow" viewBox="0 0 10 10" refX="8.5" refY="5" markerWidth="7" markerHeight="7" orient="auto-start-reverse">
    <path d="M 0 0 L 10 5 L 0 10 z" fill="#24323a"/>
  </marker>
</defs>

<style>
  text { font-family: Arial, sans-serif; }
</style>
<rect x="0" y="0" width="760" height="420" rx="18" fill="#ffffff"/>
<rect x="58" y="58" width="644" height="304" fill="#fbfcfe" stroke="#d8e1e8" stroke-width="1"/>
<line x1="111.7" y1="362.0" x2="111.7" y2="58.0" stroke="#d9e0e7" stroke-width="1.35" fill="none"/>
<line x1="380.0" y1="362.0" x2="380.0" y2="58.0" stroke="#edf0f3" stroke-width="0.8" fill="none"/>
<line x1="648.3" y1="362.0" x2="648.3" y2="58.0" stroke="#edf0f3" stroke-width="0.8" fill="none"/>
<line x1="58.0" y1="362.0" x2="702.0" y2="362.0" stroke="#edf0f3" stroke-width="0.8" fill="none"/>
<line x1="58.0" y1="334.4" x2="702.0" y2="334.4" stroke="#d9e0e7" stroke-width="1.35" fill="none"/>
<line x1="58.0" y1="306.7" x2="702.0" y2="306.7" stroke="#edf0f3" stroke-width="0.8" fill="none"/>
<line x1="58.0" y1="279.1" x2="702.0" y2="279.1" stroke="#edf0f3" stroke-width="0.8" fill="none"/>
<line x1="58.0" y1="251.5" x2="702.0" y2="251.5" stroke="#edf0f3" stroke-width="0.8" fill="none"/>
<line x1="58.0" y1="223.8" x2="702.0" y2="223.8" stroke="#edf0f3" stroke-width="0.8" fill="none"/>
<line x1="58.0" y1="196.2" x2="702.0" y2="196.2" stroke="#edf0f3" stroke-width="0.8" fill="none"/>
<line x1="58.0" y1="168.5" x2="702.0" y2="168.5" stroke="#edf0f3" stroke-width="0.8" fill="none"/>
<line x1="58.0" y1="140.9" x2="702.0" y2="140.9" stroke="#edf0f3" stroke-width="0.8" fill="none"/>
<line x1="58.0" y1="113.3" x2="702.0" y2="113.3" stroke="#edf0f3" stroke-width="0.8" fill="none"/>
<line x1="58.0" y1="85.6" x2="702.0" y2="85.6" stroke="#edf0f3" stroke-width="0.8" fill="none"/>
<line x1="58.0" y1="58.0" x2="702.0" y2="58.0" stroke="#edf0f3" stroke-width="0.8" fill="none"/>
<line x1="58.0" y1="334.4" x2="702.0" y2="334.4" stroke="#24323a" stroke-width="1.4" fill="none" marker-end="url(#arrow)"/>
<line x1="111.7" y1="362.0" x2="111.7" y2="58.0" stroke="#24323a" stroke-width="1.4" fill="none" marker-end="url(#arrow)"/>
<text x="605.4" y="358.7" fill="#24323a" font-size="18" text-anchor="middle">x</text>
<text x="163.2" y="82.3" fill="#24323a" font-size="18" text-anchor="middle">y</text>
<text x="70" y="36" fill="#334" font-size="20">slice and tangent plane</text>
<polyline points="58.0,332.2 60.5,332.4 63.0,332.5 65.5,332.7 67.9,332.9 70.4,333.1 72.9,333.2 75.4,333.4 77.9,333.5 80.4,333.6 82.9,333.7 85.4,333.8 87.8,333.9 90.3,334.0 92.8,334.1 95.3,334.2 97.8,334.2 100.3,334.3 102.8,334.3 105.2,334.3 107.7,334.4 110.2,334.4 112.7,334.4 115.2,334.4 117.7,334.3 120.2,334.3 122.6,334.3 125.1,334.2 127.6,334.2 130.1,334.1 132.6,334.0 135.1,333.9 137.6,333.8 140.1,333.7 142.5,333.6 145.0,333.5 147.5,333.4 150.0,333.2 152.5,333.1 155.0,332.9 157.5,332.8 159.9,332.6 162.4,332.4 164.9,332.2 167.4,332.0 169.9,331.8 172.4,331.5 174.9,331.3 177.4,331.1 179.8,330.8 182.3,330.5 184.8,330.3 187.3,330.0 189.8,329.7 192.3,329.4 194.8,329.1 197.2,328.7 199.7,328.4 202.2,328.1 204.7,327.7 207.2,327.4 209.7,327.0 212.2,326.6 214.6,326.2 217.1,325.8 219.6,325.4 222.1,325.0 224.6,324.6 227.1,324.1 229.6,323.7 232.1,323.2 234.5,322.8 237.0,322.3 239.5,321.8 242.0,321.3 244.5,320.8 247.0,320.3 249.5,319.8 251.9,319.3 254.4,318.7 256.9,318.2 259.4,317.6 261.9,317.0 264.4,316.5 266.9,315.9 269.4,315.3 271.8,314.7 274.3,314.1 276.8,313.4 279.3,312.8 281.8,312.1 284.3,311.5 286.8,310.8 289.2,310.2 291.7,309.5 294.2,308.8 296.7,308.1 299.2,307.4 301.7,306.6 304.2,305.9 306.6,305.2 309.1,304.4 311.6,303.7 314.1,302.9 316.6,302.1 319.1,301.3 321.6,300.5 324.1,299.7 326.5,298.9 329.0,298.1 331.5,297.3 334.0,296.4 336.5,295.6 339.0,294.7 341.5,293.8 343.9,292.9 346.4,292.1 348.9,291.2 351.4,290.2 353.9,289.3 356.4,288.4 358.9,287.5 361.4,286.5 363.8,285.5 366.3,284.6 368.8,283.6 371.3,282.6 373.8,281.6 376.3,280.6 378.8,279.6 381.2,278.6 383.7,277.5 386.2,276.5 388.7,275.4 391.2,274.4 393.7,273.3 396.2,272.2 398.6,271.1 401.1,270.0 403.6,268.9 406.1,267.8 408.6,266.7 411.1,265.5 413.6,264.4 416.1,263.2 418.5,262.1 421.0,260.9 423.5,259.7 426.0,258.5 428.5,257.3 431.0,256.1 433.5,254.9 435.9,253.6 438.4,252.4 440.9,251.1 443.4,249.9 445.9,248.6 448.4,247.3 450.9,246.0 453.4,244.7 455.8,243.4 458.3,242.1 460.8,240.8 463.3,239.4 465.8,238.1 468.3,236.7 470.8,235.4 473.2,234.0 475.7,232.6 478.2,231.2 480.7,229.8 483.2,228.4 485.7,227.0 488.2,225.6 490.6,224.1 493.1,222.7 495.6,221.2 498.1,219.7 500.6,218.2 503.1,216.8 505.6,215.3 508.1,213.7 510.5,212.2 513.0,210.7 515.5,209.2 518.0,207.6 520.5,206.1 523.0,204.5 525.5,202.9 527.9,201.3 530.4,199.7 532.9,198.1 535.4,196.5 537.9,194.9 540.4,193.3 542.9,191.6 545.4,190.0 547.8,188.3 550.3,186.7 552.8,185.0 555.3,183.3 557.8,181.6 560.3,179.9 562.8,178.2 565.2,176.4 567.7,174.7 570.2,173.0 572.7,171.2 575.2,169.4 577.7,167.7 580.2,165.9 582.6,164.1 585.1,162.3 587.6,160.5 590.1,158.6 592.6,156.8 595.1,155.0 597.6,153.1 600.1,151.3 602.5,149.4 605.0,147.5 607.5,145.6 610.0,143.7 612.5,141.8 615.0,139.9 617.5,138.0 619.9,136.0 622.4,134.1 624.9,132.1 627.4,130.2 629.9,128.2 632.4,126.2 634.9,124.2 637.4,122.2 639.8,120.2 642.3,118.2 644.8,116.2 647.3,114.1 649.8,112.1 652.3,110.0 654.8,107.9 657.2,105.9 659.7,103.8 662.2,101.7 664.7,99.6 667.2,97.5 669.7,95.3 672.2,93.2 674.6,91.1 677.1,88.9 679.6,86.7 682.1,84.6 684.6,82.4 687.1,80.2 689.6,78.0 692.1,75.8 694.5,73.6 697.0,71.3 699.5,69.1 702.0,66.8" fill="none" stroke="#174bb4" stroke-width="3" stroke-linecap="round" stroke-linejoin="round"/><polyline points="58.0,411.7 60.5,410.7 63.0,409.7 65.5,408.7 67.9,407.6 70.4,406.6 72.9,405.6 75.4,404.6 77.9,403.6 80.4,402.5 82.9,401.5 85.4,400.5 87.8,399.5 90.3,398.4 92.8,397.4 95.3,396.4 97.8,395.4 100.3,394.3 102.8,393.3 105.2,392.3 107.7,391.3 110.2,390.2 112.7,389.2 115.2,388.2 117.7,387.2 120.2,386.1 122.6,385.1 125.1,384.1 127.6,383.1 130.1,382.0 132.6,381.0 135.1,380.0 137.6,379.0 140.1,377.9 142.5,376.9 145.0,375.9 147.5,374.9 150.0,373.8 152.5,372.8 155.0,371.8 157.5,370.8 159.9,369.7 162.4,368.7 164.9,367.7 167.4,366.7 169.9,365.6 172.4,364.6 174.9,363.6 177.4,362.6 179.8,361.6 182.3,360.5 184.8,359.5 187.3,358.5 189.8,357.5 192.3,356.4 194.8,355.4 197.2,354.4 199.7,353.4 202.2,352.3 204.7,351.3 207.2,350.3 209.7,349.3 212.2,348.2 214.6,347.2 217.1,346.2 219.6,345.2 222.1,344.1 224.6,343.1 227.1,342.1 229.6,341.1 232.1,340.0 234.5,339.0 237.0,338.0 239.5,337.0 242.0,335.9 244.5,334.9 247.0,333.9 249.5,332.9 251.9,331.8 254.4,330.8 256.9,329.8 259.4,328.8 261.9,327.7 264.4,326.7 266.9,325.7 269.4,324.7 271.8,323.7 274.3,322.6 276.8,321.6 279.3,320.6 281.8,319.6 284.3,318.5 286.8,317.5 289.2,316.5 291.7,315.5 294.2,314.4 296.7,313.4 299.2,312.4 301.7,311.4 304.2,310.3 306.6,309.3 309.1,308.3 311.6,307.3 314.1,306.2 316.6,305.2 319.1,304.2 321.6,303.2 324.1,302.1 326.5,301.1 329.0,300.1 331.5,299.1 334.0,298.0 336.5,297.0 339.0,296.0 341.5,295.0 343.9,293.9 346.4,292.9 348.9,291.9 351.4,290.9 353.9,289.8 356.4,288.8 358.9,287.8 361.4,286.8 363.8,285.7 366.3,284.7 368.8,283.7 371.3,282.7 373.8,281.7 376.3,280.6 378.8,279.6 381.2,278.6 383.7,277.6 386.2,276.5 388.7,275.5 391.2,274.5 393.7,273.5 396.2,272.4 398.6,271.4 401.1,270.4 403.6,269.4 406.1,268.3 408.6,267.3 411.1,266.3 413.6,265.3 416.1,264.2 418.5,263.2 421.0,262.2 423.5,261.2 426.0,260.1 428.5,259.1 431.0,258.1 433.5,257.1 435.9,256.0 438.4,255.0 440.9,254.0 443.4,253.0 445.9,251.9 448.4,250.9 450.9,249.9 453.4,248.9 455.8,247.8 458.3,246.8 460.8,245.8 463.3,244.8 465.8,243.8 468.3,242.7 470.8,241.7 473.2,240.7 475.7,239.7 478.2,238.6 480.7,237.6 483.2,236.6 485.7,235.6 488.2,234.5 490.6,233.5 493.1,232.5 495.6,231.5 498.1,230.4 500.6,229.4 503.1,228.4 505.6,227.4 508.1,226.3 510.5,225.3 513.0,224.3 515.5,223.3 518.0,222.2 520.5,221.2 523.0,220.2 525.5,219.2 527.9,218.1 530.4,217.1 532.9,216.1 535.4,215.1 537.9,214.0 540.4,213.0 542.9,212.0 545.4,211.0 547.8,209.9 550.3,208.9 552.8,207.9 555.3,206.9 557.8,205.8 560.3,204.8 562.8,203.8 565.2,202.8 567.7,201.8 570.2,200.7 572.7,199.7 575.2,198.7 577.7,197.7 580.2,196.6 582.6,195.6 585.1,194.6 587.6,193.6 590.1,192.5 592.6,191.5 595.1,190.5 597.6,189.5 600.1,188.4 602.5,187.4 605.0,186.4 607.5,185.4 610.0,184.3 612.5,183.3 615.0,182.3 617.5,181.3 619.9,180.2 622.4,179.2 624.9,178.2 627.4,177.2 629.9,176.1 632.4,175.1 634.9,174.1 637.4,173.1 639.8,172.0 642.3,171.0 644.8,170.0 647.3,169.0 649.8,167.9 652.3,166.9 654.8,165.9 657.2,164.9 659.7,163.9 662.2,162.8 664.7,161.8 667.2,160.8 669.7,159.8 672.2,158.7 674.6,157.7 677.1,156.7 679.6,155.7 682.1,154.6 684.6,153.6 687.1,152.6 689.6,151.6 692.1,150.5 694.5,149.5 697.0,148.5 699.5,147.5 702.0,146.4" fill="none" stroke="#c92331" stroke-width="2.6" stroke-linecap="round" stroke-linejoin="round" stroke-dasharray="8 7"/><circle cx="380.0" cy="279.1" r="6" fill="#111"/><text x="433.7" y="269.4" fill="#111" font-size="16" text-anchor="middle">t=1</text>
</svg>
