<svg xmlns="http://www.w3.org/2000/svg" width="760" height="420" viewBox="0 0 760 420" role="img" aria-label="f=x^2+3xy+y^2">

<defs>
  <marker id="arrow" viewBox="0 0 10 10" refX="8.5" refY="5" markerWidth="7" markerHeight="7" orient="auto-start-reverse">
    <path d="M 0 0 L 10 5 L 0 10 z" fill="#24323a"/>
  </marker>
</defs>

<style>
  text { font-family: Arial, sans-serif; }
</style>
<rect x="0" y="0" width="760" height="420" rx="18" fill="#ffffff"/>
<rect x="58" y="58" width="644" height="304" fill="#fbfcfe" stroke="#d8e1e8" stroke-width="1"/>
<line x1="58.0" y1="362.0" x2="58.0" y2="58.0" stroke="#edf0f3" stroke-width="0.8" fill="none"/>
<line x1="165.3" y1="362.0" x2="165.3" y2="58.0" stroke="#edf0f3" stroke-width="0.8" fill="none"/>
<line x1="272.7" y1="362.0" x2="272.7" y2="58.0" stroke="#edf0f3" stroke-width="0.8" fill="none"/>
<line x1="380.0" y1="362.0" x2="380.0" y2="58.0" stroke="#edf0f3" stroke-width="0.8" fill="none"/>
<line x1="487.3" y1="362.0" x2="487.3" y2="58.0" stroke="#d9e0e7" stroke-width="1.35" fill="none"/>
<line x1="594.7" y1="362.0" x2="594.7" y2="58.0" stroke="#edf0f3" stroke-width="0.8" fill="none"/>
<line x1="702.0" y1="362.0" x2="702.0" y2="58.0" stroke="#edf0f3" stroke-width="0.8" fill="none"/>
<line x1="58.0" y1="362.0" x2="702.0" y2="362.0" stroke="#edf0f3" stroke-width="0.8" fill="none"/>
<line x1="58.0" y1="331.6" x2="702.0" y2="331.6" stroke="#edf0f3" stroke-width="0.8" fill="none"/>
<line x1="58.0" y1="301.2" x2="702.0" y2="301.2" stroke="#edf0f3" stroke-width="0.8" fill="none"/>
<line x1="58.0" y1="270.8" x2="702.0" y2="270.8" stroke="#d9e0e7" stroke-width="1.35" fill="none"/>
<line x1="58.0" y1="240.4" x2="702.0" y2="240.4" stroke="#edf0f3" stroke-width="0.8" fill="none"/>
<line x1="58.0" y1="210.0" x2="702.0" y2="210.0" stroke="#edf0f3" stroke-width="0.8" fill="none"/>
<line x1="58.0" y1="179.6" x2="702.0" y2="179.6" stroke="#edf0f3" stroke-width="0.8" fill="none"/>
<line x1="58.0" y1="149.2" x2="702.0" y2="149.2" stroke="#edf0f3" stroke-width="0.8" fill="none"/>
<line x1="58.0" y1="118.8" x2="702.0" y2="118.8" stroke="#edf0f3" stroke-width="0.8" fill="none"/>
<line x1="58.0" y1="88.4" x2="702.0" y2="88.4" stroke="#edf0f3" stroke-width="0.8" fill="none"/>
<line x1="58.0" y1="58.0" x2="702.0" y2="58.0" stroke="#edf0f3" stroke-width="0.8" fill="none"/>
<line x1="58.0" y1="270.8" x2="702.0" y2="270.8" stroke="#24323a" stroke-width="1.4" fill="none" marker-end="url(#arrow)"/>
<line x1="487.3" y1="362.0" x2="487.3" y2="58.0" stroke="#24323a" stroke-width="1.4" fill="none" marker-end="url(#arrow)"/>
<text x="605.4" y="295.1" fill="#24323a" font-size="18" text-anchor="middle">x</text>
<text x="538.9" y="82.3" fill="#24323a" font-size="18" text-anchor="middle">y</text>
<text x="70" y="36" fill="#334" font-size="20">f=x^2+3xy+y^2</text>
<polyline points="58.0,118.8 60.5,122.3 63.0,125.8 65.5,129.2 67.9,132.6 70.4,136.0 72.9,139.3 75.4,142.6 77.9,145.9 80.4,149.2 82.9,152.4 85.4,155.6 87.8,158.7 90.3,161.8 92.8,164.9 95.3,167.9 97.8,171.0 100.3,173.9 102.8,176.9 105.2,179.8 107.7,182.7 110.2,185.6 112.7,188.4 115.2,191.2 117.7,193.9 120.2,196.6 122.6,199.3 125.1,202.0 127.6,204.6 130.1,207.2 132.6,209.8 135.1,212.3 137.6,214.8 140.1,217.2 142.5,219.7 145.0,222.1 147.5,224.4 150.0,226.8 152.5,229.0 155.0,231.3 157.5,233.5 159.9,235.7 162.4,237.9 164.9,240.0 167.4,242.1 169.9,244.2 172.4,246.3 174.9,248.3 177.4,250.2 179.8,252.2 182.3,254.1 184.8,255.9 187.3,257.8 189.8,259.6 192.3,261.4 194.8,263.1 197.2,264.8 199.7,266.5 202.2,268.1 204.7,269.8 207.2,271.3 209.7,272.9 212.2,274.4 214.6,275.9 217.1,277.3 219.6,278.8 222.1,280.1 224.6,281.5 227.1,282.8 229.6,284.1 232.1,285.3 234.5,286.6 237.0,287.8 239.5,288.9 242.0,290.0 244.5,291.1 247.0,292.2 249.5,293.2 251.9,294.2 254.4,295.2 256.9,296.1 259.4,297.0 261.9,297.8 264.4,298.7 266.9,299.5 269.4,300.2 271.8,301.0 274.3,301.7 276.8,302.3 279.3,303.0 281.8,303.6 284.3,304.1 286.8,304.7 289.2,305.2 291.7,305.6 294.2,306.1 296.7,306.5 299.2,306.9 301.7,307.2 304.2,307.5 306.6,307.8 309.1,308.0 311.6,308.2 314.1,308.4 316.6,308.5 319.1,308.7 321.6,308.7 324.1,308.8 326.5,308.8 329.0,308.8 331.5,308.7 334.0,308.6 336.5,308.5 339.0,308.4 341.5,308.2 343.9,308.0 346.4,307.7 348.9,307.5 351.4,307.1 353.9,306.8 356.4,306.4 358.9,306.0 361.4,305.6 363.8,305.1 366.3,304.6 368.8,304.0 371.3,303.5 373.8,302.9 376.3,302.2 378.8,301.5 381.2,300.8 383.7,300.1 386.2,299.3 388.7,298.5 391.2,297.7 393.7,296.8 396.2,295.9 398.6,295.0 401.1,294.0 403.6,293.0 406.1,292.0 408.6,290.9 411.1,289.8 413.6,288.7 416.1,287.6 418.5,286.4 421.0,285.1 423.5,283.9 426.0,282.6 428.5,281.3 431.0,279.9 433.5,278.5 435.9,277.1 438.4,275.6 440.9,274.2 443.4,272.6 445.9,271.1 448.4,269.5 450.9,267.9 453.4,266.2 455.8,264.5 458.3,262.8 460.8,261.1 463.3,259.3 465.8,257.5 468.3,255.6 470.8,253.8 473.2,251.8 475.7,249.9 478.2,247.9 480.7,245.9 483.2,243.9 485.7,241.8 488.2,239.7 490.6,237.6 493.1,235.4 495.6,233.2 498.1,230.9 500.6,228.7 503.1,226.4 505.6,224.0 508.1,221.7 510.5,219.3 513.0,216.8 515.5,214.4 518.0,211.9 520.5,209.3 523.0,206.8 525.5,204.2 527.9,201.5 530.4,198.9 532.9,196.2 535.4,193.5 537.9,190.7 540.4,187.9 542.9,185.1 545.4,182.2 547.8,179.3 550.3,176.4 552.8,173.5 555.3,170.5 557.8,167.4 560.3,164.4 562.8,161.3 565.2,158.2 567.7,155.0 570.2,151.8 572.7,148.6 575.2,145.4 577.7,142.1 580.2,138.8 582.6,135.4 585.1,132.1 587.6,128.6 590.1,125.2 592.6,121.7 595.1,118.2 597.6,114.7 600.1,111.1 602.5,107.5 605.0,103.8 607.5,100.2 610.0,96.5 612.5,92.7 615.0,89.0 617.5,85.2 619.9,81.3 622.4,77.4 624.9,73.5 627.4,69.6 629.9,65.6 632.4,61.6 634.9,57.6 637.4,53.5 639.8,49.4 642.3,45.3 644.8,41.2 647.3,37.0 649.8,32.7 652.3,28.5 654.8,24.2 657.2,19.8 659.7,15.5 662.2,11.1 664.7,6.7 667.2,2.2 669.7,-2.3 672.2,-6.8 674.6,-11.3 677.1,-15.9 679.6,-20.6 682.1,-25.2 684.6,-29.9 687.1,-34.6 689.6,-39.4 692.1,-44.1 694.5,-49.0 697.0,-53.8 699.5,-58.7 702.0,-63.6" fill="none" stroke="#174bb4" stroke-width="3" stroke-linecap="round" stroke-linejoin="round"/><polyline points="58.0,605.2 60.5,603.1 63.0,601.0 65.5,598.9 67.9,596.7 70.4,594.6 72.9,592.5 75.4,590.4 77.9,588.3 80.4,586.2 82.9,584.1 85.4,582.0 87.8,579.8 90.3,577.7 92.8,575.6 95.3,573.5 97.8,571.4 100.3,569.3 102.8,567.2 105.2,565.1 107.7,562.9 110.2,560.8 112.7,558.7 115.2,556.6 117.7,554.5 120.2,552.4 122.6,550.3 125.1,548.2 127.6,546.0 130.1,543.9 132.6,541.8 135.1,539.7 137.6,537.6 140.1,535.5 142.5,533.4 145.0,531.3 147.5,529.1 150.0,527.0 152.5,524.9 155.0,522.8 157.5,520.7 159.9,518.6 162.4,516.5 164.9,514.4 167.4,512.2 169.9,510.1 172.4,508.0 174.9,505.9 177.4,503.8 179.8,501.7 182.3,499.6 184.8,497.5 187.3,495.3 189.8,493.2 192.3,491.1 194.8,489.0 197.2,486.9 199.7,484.8 202.2,482.7 204.7,480.5 207.2,478.4 209.7,476.3 212.2,474.2 214.6,472.1 217.1,470.0 219.6,467.9 222.1,465.8 224.6,463.6 227.1,461.5 229.6,459.4 232.1,457.3 234.5,455.2 237.0,453.1 239.5,451.0 242.0,448.9 244.5,446.7 247.0,444.6 249.5,442.5 251.9,440.4 254.4,438.3 256.9,436.2 259.4,434.1 261.9,432.0 264.4,429.8 266.9,427.7 269.4,425.6 271.8,423.5 274.3,421.4 276.8,419.3 279.3,417.2 281.8,415.1 284.3,412.9 286.8,410.8 289.2,408.7 291.7,406.6 294.2,404.5 296.7,402.4 299.2,400.3 301.7,398.2 304.2,396.0 306.6,393.9 309.1,391.8 311.6,389.7 314.1,387.6 316.6,385.5 319.1,383.4 321.6,381.2 324.1,379.1 326.5,377.0 329.0,374.9 331.5,372.8 334.0,370.7 336.5,368.6 339.0,366.5 341.5,364.3 343.9,362.2 346.4,360.1 348.9,358.0 351.4,355.9 353.9,353.8 356.4,351.7 358.9,349.6 361.4,347.4 363.8,345.3 366.3,343.2 368.8,341.1 371.3,339.0 373.8,336.9 376.3,334.8 378.8,332.7 381.2,330.5 383.7,328.4 386.2,326.3 388.7,324.2 391.2,322.1 393.7,320.0 396.2,317.9 398.6,315.8 401.1,313.6 403.6,311.5 406.1,309.4 408.6,307.3 411.1,305.2 413.6,303.1 416.1,301.0 418.5,298.9 421.0,296.7 423.5,294.6 426.0,292.5 428.5,290.4 431.0,288.3 433.5,286.2 435.9,284.1 438.4,282.0 440.9,279.8 443.4,277.7 445.9,275.6 448.4,273.5 450.9,271.4 453.4,269.3 455.8,267.2 458.3,265.0 460.8,262.9 463.3,260.8 465.8,258.7 468.3,256.6 470.8,254.5 473.2,252.4 475.7,250.3 478.2,248.1 480.7,246.0 483.2,243.9 485.7,241.8 488.2,239.7 490.6,237.6 493.1,235.5 495.6,233.4 498.1,231.2 500.6,229.1 503.1,227.0 505.6,224.9 508.1,222.8 510.5,220.7 513.0,218.6 515.5,216.5 518.0,214.3 520.5,212.2 523.0,210.1 525.5,208.0 527.9,205.9 530.4,203.8 532.9,201.7 535.4,199.6 537.9,197.4 540.4,195.3 542.9,193.2 545.4,191.1 547.8,189.0 550.3,186.9 552.8,184.8 555.3,182.7 557.8,180.5 560.3,178.4 562.8,176.3 565.2,174.2 567.7,172.1 570.2,170.0 572.7,167.9 575.2,165.7 577.7,163.6 580.2,161.5 582.6,159.4 585.1,157.3 587.6,155.2 590.1,153.1 592.6,151.0 595.1,148.8 597.6,146.7 600.1,144.6 602.5,142.5 605.0,140.4 607.5,138.3 610.0,136.2 612.5,134.1 615.0,131.9 617.5,129.8 619.9,127.7 622.4,125.6 624.9,123.5 627.4,121.4 629.9,119.3 632.4,117.2 634.9,115.0 637.4,112.9 639.8,110.8 642.3,108.7 644.8,106.6 647.3,104.5 649.8,102.4 652.3,100.3 654.8,98.1 657.2,96.0 659.7,93.9 662.2,91.8 664.7,89.7 667.2,87.6 669.7,85.5 672.2,83.4 674.6,81.2 677.1,79.1 679.6,77.0 682.1,74.9 684.6,72.8 687.1,70.7 689.6,68.6 692.1,66.5 694.5,64.3 697.0,62.2 699.5,60.1 702.0,58.0" fill="none" stroke="#c92331" stroke-width="2.5" stroke-linecap="round" stroke-linejoin="round" stroke-dasharray="8 7"/><text x="251.2" y="97.5" fill="#174bb4" font-size="16" text-anchor="middle">y=1 slice</text><text x="530.3" y="188.7" fill="#c92331" font-size="16" text-anchor="middle">slope 3 at x=0</text>
</svg>
