<svg xmlns="http://www.w3.org/2000/svg" width="760" height="420" viewBox="0 0 760 420" role="img" aria-label="f=x^2y+y^3">

<defs>
  <marker id="arrow" viewBox="0 0 10 10" refX="8.5" refY="5" markerWidth="7" markerHeight="7" orient="auto-start-reverse">
    <path d="M 0 0 L 10 5 L 0 10 z" fill="#24323a"/>
  </marker>
</defs>

<style>
  text { font-family: Arial, sans-serif; }
</style>
<rect x="0" y="0" width="760" height="420" rx="18" fill="#ffffff"/>
<rect x="58" y="58" width="644" height="304" fill="#fbfcfe" stroke="#d8e1e8" stroke-width="1"/>
<line x1="58.0" y1="362.0" x2="58.0" y2="58.0" stroke="#edf0f3" stroke-width="0.8" fill="none"/>
<line x1="219.0" y1="362.0" x2="219.0" y2="58.0" stroke="#edf0f3" stroke-width="0.8" fill="none"/>
<line x1="380.0" y1="362.0" x2="380.0" y2="58.0" stroke="#d9e0e7" stroke-width="1.35" fill="none"/>
<line x1="541.0" y1="362.0" x2="541.0" y2="58.0" stroke="#edf0f3" stroke-width="0.8" fill="none"/>
<line x1="702.0" y1="362.0" x2="702.0" y2="58.0" stroke="#edf0f3" stroke-width="0.8" fill="none"/>
<line x1="58.0" y1="362.0" x2="702.0" y2="362.0" stroke="#edf0f3" stroke-width="0.8" fill="none"/>
<line x1="58.0" y1="340.3" x2="702.0" y2="340.3" stroke="#edf0f3" stroke-width="0.8" fill="none"/>
<line x1="58.0" y1="318.6" x2="702.0" y2="318.6" stroke="#edf0f3" stroke-width="0.8" fill="none"/>
<line x1="58.0" y1="296.9" x2="702.0" y2="296.9" stroke="#edf0f3" stroke-width="0.8" fill="none"/>
<line x1="58.0" y1="275.1" x2="702.0" y2="275.1" stroke="#edf0f3" stroke-width="0.8" fill="none"/>
<line x1="58.0" y1="253.4" x2="702.0" y2="253.4" stroke="#edf0f3" stroke-width="0.8" fill="none"/>
<line x1="58.0" y1="231.7" x2="702.0" y2="231.7" stroke="#d9e0e7" stroke-width="1.35" fill="none"/>
<line x1="58.0" y1="210.0" x2="702.0" y2="210.0" stroke="#edf0f3" stroke-width="0.8" fill="none"/>
<line x1="58.0" y1="188.3" x2="702.0" y2="188.3" stroke="#edf0f3" stroke-width="0.8" fill="none"/>
<line x1="58.0" y1="166.6" x2="702.0" y2="166.6" stroke="#edf0f3" stroke-width="0.8" fill="none"/>
<line x1="58.0" y1="144.9" x2="702.0" y2="144.9" stroke="#edf0f3" stroke-width="0.8" fill="none"/>
<line x1="58.0" y1="123.1" x2="702.0" y2="123.1" stroke="#edf0f3" stroke-width="0.8" fill="none"/>
<line x1="58.0" y1="101.4" x2="702.0" y2="101.4" stroke="#edf0f3" stroke-width="0.8" fill="none"/>
<line x1="58.0" y1="79.7" x2="702.0" y2="79.7" stroke="#edf0f3" stroke-width="0.8" fill="none"/>
<line x1="58.0" y1="58.0" x2="702.0" y2="58.0" stroke="#edf0f3" stroke-width="0.8" fill="none"/>
<line x1="58.0" y1="231.7" x2="702.0" y2="231.7" stroke="#24323a" stroke-width="1.4" fill="none" marker-end="url(#arrow)"/>
<line x1="380.0" y1="362.0" x2="380.0" y2="58.0" stroke="#24323a" stroke-width="1.4" fill="none" marker-end="url(#arrow)"/>
<text x="605.4" y="256.0" fill="#24323a" font-size="18" text-anchor="middle">x</text>
<text x="431.5" y="82.3" fill="#24323a" font-size="18" text-anchor="middle">y</text>
<text x="70" y="36" fill="#334" font-size="20">f=x^2y+y^3</text>
<polyline points="58.0,123.1 60.5,124.5 63.0,125.8 65.5,127.1 67.9,128.4 70.4,129.7 72.9,131.0 75.4,132.3 77.9,133.5 80.4,134.8 82.9,136.0 85.4,137.3 87.8,138.5 90.3,139.7 92.8,140.9 95.3,142.1 97.8,143.3 100.3,144.5 102.8,145.6 105.2,146.8 107.7,147.9 110.2,149.0 112.7,150.1 115.2,151.3 117.7,152.4 120.2,153.4 122.6,154.5 125.1,155.6 127.6,156.6 130.1,157.7 132.6,158.7 135.1,159.7 137.6,160.8 140.1,161.8 142.5,162.8 145.0,163.7 147.5,164.7 150.0,165.7 152.5,166.6 155.0,167.6 157.5,168.5 159.9,169.4 162.4,170.3 164.9,171.2 167.4,172.1 169.9,173.0 172.4,173.9 174.9,174.7 177.4,175.6 179.8,176.4 182.3,177.3 184.8,178.1 187.3,178.9 189.8,179.7 192.3,180.5 194.8,181.3 197.2,182.0 199.7,182.8 202.2,183.5 204.7,184.3 207.2,185.0 209.7,185.7 212.2,186.4 214.6,187.1 217.1,187.8 219.6,188.5 222.1,189.1 224.6,189.8 227.1,190.4 229.6,191.0 232.1,191.7 234.5,192.3 237.0,192.9 239.5,193.5 242.0,194.0 244.5,194.6 247.0,195.2 249.5,195.7 251.9,196.3 254.4,196.8 256.9,197.3 259.4,197.8 261.9,198.3 264.4,198.8 266.9,199.3 269.4,199.7 271.8,200.2 274.3,200.6 276.8,201.1 279.3,201.5 281.8,201.9 284.3,202.3 286.8,202.7 289.2,203.1 291.7,203.5 294.2,203.8 296.7,204.2 299.2,204.5 301.7,204.9 304.2,205.2 306.6,205.5 309.1,205.8 311.6,206.1 314.1,206.4 316.6,206.6 319.1,206.9 321.6,207.1 324.1,207.4 326.5,207.6 329.0,207.8 331.5,208.0 334.0,208.2 336.5,208.4 339.0,208.6 341.5,208.8 343.9,208.9 346.4,209.1 348.9,209.2 351.4,209.3 353.9,209.4 356.4,209.5 358.9,209.6 361.4,209.7 363.8,209.8 366.3,209.8 368.8,209.9 371.3,209.9 373.8,210.0 376.3,210.0 378.8,210.0 381.2,210.0 383.7,210.0 386.2,210.0 388.7,209.9 391.2,209.9 393.7,209.8 396.2,209.8 398.6,209.7 401.1,209.6 403.6,209.5 406.1,209.4 408.6,209.3 411.1,209.2 413.6,209.1 416.1,208.9 418.5,208.8 421.0,208.6 423.5,208.4 426.0,208.2 428.5,208.0 431.0,207.8 433.5,207.6 435.9,207.4 438.4,207.1 440.9,206.9 443.4,206.6 445.9,206.4 448.4,206.1 450.9,205.8 453.4,205.5 455.8,205.2 458.3,204.9 460.8,204.5 463.3,204.2 465.8,203.8 468.3,203.5 470.8,203.1 473.2,202.7 475.7,202.3 478.2,201.9 480.7,201.5 483.2,201.1 485.7,200.6 488.2,200.2 490.6,199.7 493.1,199.3 495.6,198.8 498.1,198.3 500.6,197.8 503.1,197.3 505.6,196.8 508.1,196.3 510.5,195.7 513.0,195.2 515.5,194.6 518.0,194.0 520.5,193.5 523.0,192.9 525.5,192.3 527.9,191.7 530.4,191.0 532.9,190.4 535.4,189.8 537.9,189.1 540.4,188.5 542.9,187.8 545.4,187.1 547.8,186.4 550.3,185.7 552.8,185.0 555.3,184.3 557.8,183.5 560.3,182.8 562.8,182.0 565.2,181.3 567.7,180.5 570.2,179.7 572.7,178.9 575.2,178.1 577.7,177.3 580.2,176.4 582.6,175.6 585.1,174.7 587.6,173.9 590.1,173.0 592.6,172.1 595.1,171.2 597.6,170.3 600.1,169.4 602.5,168.5 605.0,167.6 607.5,166.6 610.0,165.7 612.5,164.7 615.0,163.7 617.5,162.8 619.9,161.8 622.4,160.8 624.9,159.7 627.4,158.7 629.9,157.7 632.4,156.6 634.9,155.6 637.4,154.5 639.8,153.4 642.3,152.4 644.8,151.3 647.3,150.1 649.8,149.0 652.3,147.9 654.8,146.8 657.2,145.6 659.7,144.5 662.2,143.3 664.7,142.1 667.2,140.9 669.7,139.7 672.2,138.5 674.6,137.3 677.1,136.0 679.6,134.8 682.1,133.5 684.6,132.3 687.1,131.0 689.6,129.7 692.1,128.4 694.5,127.1 697.0,125.8 699.5,124.5 702.0,123.1" fill="none" stroke="#174bb4" stroke-width="3" stroke-linecap="round" stroke-linejoin="round"/><polyline points="58.0,448.9 60.5,444.5 63.0,440.3 65.5,436.1 67.9,431.9 70.4,427.8 72.9,423.8 75.4,419.8 77.9,415.9 80.4,412.1 82.9,408.3 85.4,404.6 87.8,400.9 90.3,397.3 92.8,393.7 95.3,390.2 97.8,386.7 100.3,383.3 102.8,380.0 105.2,376.7 107.7,373.5 110.2,370.3 112.7,367.1 115.2,364.1 117.7,361.0 120.2,358.0 122.6,355.1 125.1,352.2 127.6,349.4 130.1,346.6 132.6,343.9 135.1,341.2 137.6,338.5 140.1,336.0 142.5,333.4 145.0,330.9 147.5,328.5 150.0,326.0 152.5,323.7 155.0,321.4 157.5,319.1 159.9,316.8 162.4,314.6 164.9,312.5 167.4,310.4 169.9,308.3 172.4,306.3 174.9,304.3 177.4,302.3 179.8,300.4 182.3,298.6 184.8,296.7 187.3,294.9 189.8,293.2 192.3,291.5 194.8,289.8 197.2,288.1 199.7,286.5 202.2,284.9 204.7,283.4 207.2,281.9 209.7,280.4 212.2,279.0 214.6,277.5 217.1,276.2 219.6,274.8 222.1,273.5 224.6,272.2 227.1,270.9 229.6,269.7 232.1,268.5 234.5,267.3 237.0,266.2 239.5,265.1 242.0,264.0 244.5,262.9 247.0,261.9 249.5,260.9 251.9,259.9 254.4,259.0 256.9,258.0 259.4,257.1 261.9,256.2 264.4,255.4 266.9,254.5 269.4,253.7 271.8,252.9 274.3,252.1 276.8,251.3 279.3,250.6 281.8,249.9 284.3,249.2 286.8,248.5 289.2,247.8 291.7,247.2 294.2,246.6 296.7,246.0 299.2,245.4 301.7,244.8 304.2,244.2 306.6,243.7 309.1,243.1 311.6,242.6 314.1,242.1 316.6,241.6 319.1,241.1 321.6,240.6 324.1,240.2 326.5,239.7 329.0,239.3 331.5,238.8 334.0,238.4 336.5,238.0 339.0,237.6 341.5,237.2 343.9,236.8 346.4,236.4 348.9,236.1 351.4,235.7 353.9,235.3 356.4,235.0 358.9,234.6 361.4,234.3 363.8,233.9 366.3,233.6 368.8,233.2 371.3,232.9 373.8,232.6 376.3,232.2 378.8,231.9 381.2,231.5 383.7,231.2 386.2,230.9 388.7,230.5 391.2,230.2 393.7,229.9 396.2,229.5 398.6,229.2 401.1,228.8 403.6,228.5 406.1,228.1 408.6,227.7 411.1,227.4 413.6,227.0 416.1,226.6 418.5,226.2 421.0,225.8 423.5,225.4 426.0,225.0 428.5,224.6 431.0,224.2 433.5,223.7 435.9,223.3 438.4,222.8 440.9,222.3 443.4,221.8 445.9,221.3 448.4,220.8 450.9,220.3 453.4,219.8 455.8,219.2 458.3,218.7 460.8,218.1 463.3,217.5 465.8,216.9 468.3,216.2 470.8,215.6 473.2,214.9 475.7,214.2 478.2,213.5 480.7,212.8 483.2,212.1 485.7,211.3 488.2,210.5 490.6,209.7 493.1,208.9 495.6,208.1 498.1,207.2 500.6,206.3 503.1,205.4 505.6,204.5 508.1,203.5 510.5,202.5 513.0,201.5 515.5,200.5 518.0,199.4 520.5,198.3 523.0,197.2 525.5,196.1 527.9,194.9 530.4,193.7 532.9,192.5 535.4,191.2 537.9,189.9 540.4,188.6 542.9,187.3 545.4,185.9 547.8,184.5 550.3,183.0 552.8,181.6 555.3,180.0 557.8,178.5 560.3,176.9 562.8,175.3 565.2,173.7 567.7,172.0 570.2,170.2 572.7,168.5 575.2,166.7 577.7,164.9 580.2,163.0 582.6,161.1 585.1,159.1 587.6,157.1 590.1,155.1 592.6,153.0 595.1,150.9 597.6,148.8 600.1,146.6 602.5,144.4 605.0,142.1 607.5,139.8 610.0,137.4 612.5,135.0 615.0,132.5 617.5,130.0 619.9,127.5 622.4,124.9 624.9,122.2 627.4,119.6 629.9,116.8 632.4,114.0 634.9,111.2 637.4,108.3 639.8,105.4 642.3,102.4 644.8,99.4 647.3,96.3 649.8,93.2 652.3,90.0 654.8,86.7 657.2,83.4 659.7,80.1 662.2,76.7 664.7,73.2 667.2,69.7 669.7,66.2 672.2,62.6 674.6,58.9 677.1,55.1 679.6,51.3 682.1,47.5 684.6,43.6 687.1,39.6 689.6,35.6 692.1,31.5 694.5,27.4 697.0,23.2 699.5,18.9 702.0,14.6" fill="none" stroke="#c92331" stroke-width="3" stroke-linecap="round" stroke-linejoin="round"/><text x="178.8" y="123.1" fill="#174bb4" font-size="16" text-anchor="middle">f(x,1)</text><text x="549.0" y="129.7" fill="#c92331" font-size="16" text-anchor="middle">f(1,y)</text>
</svg>
