<svg xmlns="http://www.w3.org/2000/svg" width="760" height="420" viewBox="0 0 760 420" role="img" aria-label="x^2 sin y">

<defs>
  <marker id="arrow" viewBox="0 0 10 10" refX="8.5" refY="5" markerWidth="7" markerHeight="7" orient="auto-start-reverse">
    <path d="M 0 0 L 10 5 L 0 10 z" fill="#24323a"/>
  </marker>
</defs>

<style>
  text { font-family: Arial, sans-serif; }
</style>
<rect x="0" y="0" width="760" height="420" rx="18" fill="#ffffff"/>
<rect x="58" y="58" width="644" height="304" fill="#fbfcfe" stroke="#d8e1e8" stroke-width="1"/>
<line x1="72.5" y1="362.0" x2="72.5" y2="58.0" stroke="#edf0f3" stroke-width="0.8" fill="none"/>
<line x1="123.8" y1="362.0" x2="123.8" y2="58.0" stroke="#edf0f3" stroke-width="0.8" fill="none"/>
<line x1="175.0" y1="362.0" x2="175.0" y2="58.0" stroke="#edf0f3" stroke-width="0.8" fill="none"/>
<line x1="226.3" y1="362.0" x2="226.3" y2="58.0" stroke="#edf0f3" stroke-width="0.8" fill="none"/>
<line x1="277.5" y1="362.0" x2="277.5" y2="58.0" stroke="#edf0f3" stroke-width="0.8" fill="none"/>
<line x1="328.8" y1="362.0" x2="328.8" y2="58.0" stroke="#edf0f3" stroke-width="0.8" fill="none"/>
<line x1="380.0" y1="362.0" x2="380.0" y2="58.0" stroke="#d9e0e7" stroke-width="1.35" fill="none"/>
<line x1="431.2" y1="362.0" x2="431.2" y2="58.0" stroke="#edf0f3" stroke-width="0.8" fill="none"/>
<line x1="482.5" y1="362.0" x2="482.5" y2="58.0" stroke="#edf0f3" stroke-width="0.8" fill="none"/>
<line x1="533.7" y1="362.0" x2="533.7" y2="58.0" stroke="#edf0f3" stroke-width="0.8" fill="none"/>
<line x1="585.0" y1="362.0" x2="585.0" y2="58.0" stroke="#edf0f3" stroke-width="0.8" fill="none"/>
<line x1="636.2" y1="362.0" x2="636.2" y2="58.0" stroke="#edf0f3" stroke-width="0.8" fill="none"/>
<line x1="687.5" y1="362.0" x2="687.5" y2="58.0" stroke="#edf0f3" stroke-width="0.8" fill="none"/>
<line x1="58.0" y1="345.1" x2="702.0" y2="345.1" stroke="#edf0f3" stroke-width="0.8" fill="none"/>
<line x1="58.0" y1="311.3" x2="702.0" y2="311.3" stroke="#edf0f3" stroke-width="0.8" fill="none"/>
<line x1="58.0" y1="277.6" x2="702.0" y2="277.6" stroke="#edf0f3" stroke-width="0.8" fill="none"/>
<line x1="58.0" y1="243.8" x2="702.0" y2="243.8" stroke="#edf0f3" stroke-width="0.8" fill="none"/>
<line x1="58.0" y1="210.0" x2="702.0" y2="210.0" stroke="#d9e0e7" stroke-width="1.35" fill="none"/>
<line x1="58.0" y1="176.2" x2="702.0" y2="176.2" stroke="#edf0f3" stroke-width="0.8" fill="none"/>
<line x1="58.0" y1="142.4" x2="702.0" y2="142.4" stroke="#edf0f3" stroke-width="0.8" fill="none"/>
<line x1="58.0" y1="108.7" x2="702.0" y2="108.7" stroke="#edf0f3" stroke-width="0.8" fill="none"/>
<line x1="58.0" y1="74.9" x2="702.0" y2="74.9" stroke="#edf0f3" stroke-width="0.8" fill="none"/>
<line x1="58.0" y1="210.0" x2="702.0" y2="210.0" stroke="#24323a" stroke-width="1.4" fill="none" marker-end="url(#arrow)"/>
<line x1="380.0" y1="362.0" x2="380.0" y2="58.0" stroke="#24323a" stroke-width="1.4" fill="none" marker-end="url(#arrow)"/>
<text x="605.4" y="234.3" fill="#24323a" font-size="18" text-anchor="middle">x</text>
<text x="431.5" y="82.3" fill="#24323a" font-size="18" text-anchor="middle">y</text>
<text x="70" y="36" fill="#334" font-size="20">x^2 sin y</text>
<polyline points="58.0,210.0 60.5,208.4 63.0,206.7 65.5,205.1 67.9,203.5 70.4,201.9 72.9,200.3 75.4,198.7 77.9,197.2 80.4,195.7 82.9,194.2 85.4,192.8 87.8,191.4 90.3,190.1 92.8,188.8 95.3,187.5 97.8,186.3 100.3,185.2 102.8,184.1 105.2,183.1 107.7,182.1 110.2,181.2 112.7,180.4 115.2,179.7 117.7,179.0 120.2,178.4 122.6,177.8 125.1,177.4 127.6,177.0 130.1,176.7 132.6,176.4 135.1,176.3 137.6,176.2 140.1,176.2 142.5,176.3 145.0,176.5 147.5,176.7 150.0,177.1 152.5,177.5 155.0,178.0 157.5,178.5 159.9,179.1 162.4,179.8 164.9,180.6 167.4,181.5 169.9,182.4 172.4,183.3 174.9,184.4 177.4,185.5 179.8,186.6 182.3,187.8 184.8,189.1 187.3,190.4 189.8,191.8 192.3,193.2 194.8,194.6 197.2,196.1 199.7,197.6 202.2,199.1 204.7,200.7 207.2,202.3 209.7,203.9 212.2,205.5 214.6,207.1 217.1,208.8 219.6,210.4 222.1,212.0 224.6,213.7 227.1,215.3 229.6,216.9 232.1,218.5 234.5,220.1 237.0,221.6 239.5,223.2 242.0,224.7 244.5,226.1 247.0,227.5 249.5,228.9 251.9,230.2 254.4,231.5 256.9,232.8 259.4,234.0 261.9,235.1 264.4,236.2 266.9,237.2 269.4,238.1 271.8,239.0 274.3,239.8 276.8,240.5 279.3,241.2 281.8,241.8 284.3,242.3 286.8,242.7 289.2,243.1 291.7,243.4 294.2,243.6 296.7,243.7 299.2,243.8 301.7,243.7 304.2,243.6 306.6,243.4 309.1,243.2 311.6,242.8 314.1,242.4 316.6,241.9 319.1,241.3 321.6,240.7 324.1,240.0 326.5,239.2 329.0,238.3 331.5,237.4 334.0,236.4 336.5,235.4 339.0,234.2 341.5,233.1 343.9,231.9 346.4,230.6 348.9,229.3 351.4,227.9 353.9,226.5 356.4,225.0 358.9,223.5 361.4,222.0 363.8,220.5 366.3,218.9 368.8,217.3 371.3,215.7 373.8,214.1 376.3,212.5 378.8,210.8 381.2,209.2 383.7,207.5 386.2,205.9 388.7,204.3 391.2,202.7 393.7,201.1 396.2,199.5 398.6,198.0 401.1,196.5 403.6,195.0 406.1,193.5 408.6,192.1 411.1,190.7 413.6,189.4 416.1,188.1 418.5,186.9 421.0,185.8 423.5,184.6 426.0,183.6 428.5,182.6 431.0,181.7 433.5,180.8 435.9,180.0 438.4,179.3 440.9,178.7 443.4,178.1 445.9,177.6 448.4,177.2 450.9,176.8 453.4,176.6 455.8,176.4 458.3,176.3 460.8,176.2 463.3,176.3 465.8,176.4 468.3,176.6 470.8,176.9 473.2,177.3 475.7,177.7 478.2,178.2 480.7,178.8 483.2,179.5 485.7,180.2 488.2,181.0 490.6,181.9 493.1,182.8 495.6,183.8 498.1,184.9 500.6,186.0 503.1,187.2 505.6,188.5 508.1,189.8 510.5,191.1 513.0,192.5 515.5,193.9 518.0,195.3 520.5,196.8 523.0,198.4 525.5,199.9 527.9,201.5 530.4,203.1 532.9,204.7 535.4,206.3 537.9,208.0 540.4,209.6 542.9,211.2 545.4,212.9 547.8,214.5 550.3,216.1 552.8,217.7 555.3,219.3 557.8,220.9 560.3,222.4 562.8,223.9 565.2,225.4 567.7,226.8 570.2,228.2 572.7,229.6 575.2,230.9 577.7,232.2 580.2,233.4 582.6,234.5 585.1,235.6 587.6,236.7 590.1,237.6 592.6,238.5 595.1,239.4 597.6,240.2 600.1,240.9 602.5,241.5 605.0,242.0 607.5,242.5 610.0,242.9 612.5,243.3 615.0,243.5 617.5,243.7 619.9,243.8 622.4,243.8 624.9,243.7 627.4,243.6 629.9,243.3 632.4,243.0 634.9,242.6 637.4,242.2 639.8,241.6 642.3,241.0 644.8,240.3 647.3,239.6 649.8,238.8 652.3,237.9 654.8,236.9 657.2,235.9 659.7,234.8 662.2,233.7 664.7,232.5 667.2,231.2 669.7,229.9 672.2,228.6 674.6,227.2 677.1,225.8 679.6,224.3 682.1,222.8 684.6,221.3 687.1,219.7 689.6,218.1 692.1,216.5 694.5,214.9 697.0,213.3 699.5,211.6 702.0,210.0" fill="none" stroke="#174bb4" stroke-width="3" stroke-linecap="round" stroke-linejoin="round"/><polyline points="58.0,210.0 60.5,203.4 63.0,196.9 65.5,190.4 67.9,183.9 70.4,177.5 72.9,171.2 75.4,165.0 77.9,158.9 80.4,152.9 82.9,147.0 85.4,141.3 87.8,135.7 90.3,130.3 92.8,125.1 95.3,120.1 97.8,115.3 100.3,110.8 102.8,106.4 105.2,102.4 107.7,98.5 110.2,94.9 112.7,91.6 115.2,88.6 117.7,85.9 120.2,83.4 122.6,81.3 125.1,79.5 127.6,77.9 130.1,76.7 132.6,75.8 135.1,75.2 137.6,74.9 140.1,75.0 142.5,75.3 145.0,76.0 147.5,77.0 150.0,78.3 152.5,79.9 155.0,81.8 157.5,84.0 159.9,86.5 162.4,89.4 164.9,92.4 167.4,95.8 169.9,99.5 172.4,103.4 174.9,107.5 177.4,111.9 179.8,116.5 182.3,121.4 184.8,126.4 187.3,131.6 189.8,137.1 192.3,142.7 194.8,148.4 197.2,154.3 199.7,160.4 202.2,166.5 204.7,172.8 207.2,179.1 209.7,185.6 212.2,192.0 214.6,198.5 217.1,205.1 219.6,211.6 222.1,218.2 224.6,224.7 227.1,231.2 229.6,237.7 232.1,244.0 234.5,250.3 237.0,256.6 239.5,262.6 242.0,268.6 244.5,274.5 247.0,280.1 249.5,285.7 251.9,291.0 254.4,296.1 256.9,301.1 259.4,305.8 261.9,310.3 264.4,314.6 266.9,318.6 269.4,322.4 271.8,325.9 274.3,329.1 276.8,332.1 279.3,334.7 281.8,337.1 284.3,339.2 286.8,341.0 289.2,342.4 291.7,343.6 294.2,344.4 296.7,344.9 299.2,345.1 301.7,345.0 304.2,344.6 306.6,343.8 309.1,342.7 311.6,341.3 314.1,339.7 316.6,337.7 319.1,335.4 321.6,332.8 324.1,329.9 326.5,326.7 329.0,323.3 331.5,319.6 334.0,315.6 336.5,311.4 339.0,307.0 341.5,302.3 343.9,297.4 346.4,292.3 348.9,287.0 351.4,281.5 353.9,275.9 356.4,270.1 358.9,264.2 361.4,258.1 363.8,251.9 366.3,245.6 368.8,239.3 371.3,232.8 373.8,226.3 376.3,219.8 378.8,213.3 381.2,206.7 383.7,200.2 386.2,193.7 388.7,187.2 391.2,180.7 393.7,174.4 396.2,168.1 398.6,161.9 401.1,155.8 403.6,149.9 406.1,144.1 408.6,138.5 411.1,133.0 413.6,127.7 416.1,122.6 418.5,117.7 421.0,113.0 423.5,108.6 426.0,104.4 428.5,100.4 431.0,96.7 433.5,93.3 435.9,90.1 438.4,87.2 440.9,84.6 443.4,82.3 445.9,80.3 448.4,78.7 450.9,77.3 453.4,76.2 455.8,75.4 458.3,75.0 460.8,74.9 463.3,75.1 465.8,75.6 468.3,76.4 470.8,77.6 473.2,79.0 475.7,80.8 478.2,82.9 480.7,85.3 483.2,87.9 485.7,90.9 488.2,94.1 490.6,97.6 493.1,101.4 495.6,105.4 498.1,109.7 500.6,114.2 503.1,118.9 505.6,123.9 508.1,129.0 510.5,134.3 513.0,139.9 515.5,145.5 518.0,151.4 520.5,157.4 523.0,163.4 525.5,169.7 527.9,176.0 530.4,182.3 532.9,188.8 535.4,195.3 537.9,201.8 540.4,208.4 542.9,214.9 545.4,221.5 547.8,228.0 550.3,234.4 552.8,240.9 555.3,247.2 557.8,253.5 560.3,259.6 562.8,265.7 565.2,271.6 567.7,277.3 570.2,282.9 572.7,288.4 575.2,293.6 577.7,298.6 580.2,303.5 582.6,308.1 585.1,312.5 587.6,316.6 590.1,320.5 592.6,324.2 595.1,327.6 597.6,330.6 600.1,333.5 602.5,336.0 605.0,338.2 607.5,340.1 610.0,341.7 612.5,343.0 615.0,344.0 617.5,344.7 619.9,345.0 622.4,345.1 624.9,344.8 627.4,344.2 629.9,343.3 632.4,342.1 634.9,340.5 637.4,338.7 639.8,336.6 642.3,334.1 644.8,331.4 647.3,328.4 649.8,325.1 652.3,321.5 654.8,317.6 657.2,313.6 659.7,309.2 662.2,304.7 664.7,299.9 667.2,294.9 669.7,289.7 672.2,284.3 674.6,278.7 677.1,273.0 679.6,267.1 682.1,261.1 684.6,255.0 687.1,248.8 689.6,242.5 692.1,236.1 694.5,229.6 697.0,223.1 699.5,216.6 702.0,210.0" fill="none" stroke="#c92331" stroke-width="3" stroke-linecap="round" stroke-linejoin="round"/><text x="134.0" y="162.7" fill="#174bb4" font-size="16" text-anchor="middle">x=1</text><text x="590.1" y="324.8" fill="#c92331" font-size="16" text-anchor="middle">x=2</text>
</svg>
