<svg xmlns="http://www.w3.org/2000/svg" width="760" height="420" viewBox="0 0 760 420" role="img" aria-label="f=e^(xy)">

<defs>
  <marker id="arrow" viewBox="0 0 10 10" refX="8.5" refY="5" markerWidth="7" markerHeight="7" orient="auto-start-reverse">
    <path d="M 0 0 L 10 5 L 0 10 z" fill="#24323a"/>
  </marker>
</defs>

<style>
  text { font-family: Arial, sans-serif; }
</style>
<rect x="0" y="0" width="760" height="420" rx="18" fill="#ffffff"/>
<rect x="58" y="58" width="644" height="304" fill="#fbfcfe" stroke="#d8e1e8" stroke-width="1"/>
<line x1="58.0" y1="362.0" x2="58.0" y2="58.0" stroke="#edf0f3" stroke-width="0.8" fill="none"/>
<line x1="219.0" y1="362.0" x2="219.0" y2="58.0" stroke="#edf0f3" stroke-width="0.8" fill="none"/>
<line x1="380.0" y1="362.0" x2="380.0" y2="58.0" stroke="#d9e0e7" stroke-width="1.35" fill="none"/>
<line x1="541.0" y1="362.0" x2="541.0" y2="58.0" stroke="#edf0f3" stroke-width="0.8" fill="none"/>
<line x1="702.0" y1="362.0" x2="702.0" y2="58.0" stroke="#edf0f3" stroke-width="0.8" fill="none"/>
<line x1="58.0" y1="354.8" x2="702.0" y2="354.8" stroke="#d9e0e7" stroke-width="1.35" fill="none"/>
<line x1="58.0" y1="318.6" x2="702.0" y2="318.6" stroke="#edf0f3" stroke-width="0.8" fill="none"/>
<line x1="58.0" y1="282.4" x2="702.0" y2="282.4" stroke="#edf0f3" stroke-width="0.8" fill="none"/>
<line x1="58.0" y1="246.2" x2="702.0" y2="246.2" stroke="#edf0f3" stroke-width="0.8" fill="none"/>
<line x1="58.0" y1="210.0" x2="702.0" y2="210.0" stroke="#edf0f3" stroke-width="0.8" fill="none"/>
<line x1="58.0" y1="173.8" x2="702.0" y2="173.8" stroke="#edf0f3" stroke-width="0.8" fill="none"/>
<line x1="58.0" y1="137.6" x2="702.0" y2="137.6" stroke="#edf0f3" stroke-width="0.8" fill="none"/>
<line x1="58.0" y1="101.4" x2="702.0" y2="101.4" stroke="#edf0f3" stroke-width="0.8" fill="none"/>
<line x1="58.0" y1="65.2" x2="702.0" y2="65.2" stroke="#edf0f3" stroke-width="0.8" fill="none"/>
<line x1="58.0" y1="354.8" x2="702.0" y2="354.8" stroke="#24323a" stroke-width="1.4" fill="none" marker-end="url(#arrow)"/>
<line x1="380.0" y1="362.0" x2="380.0" y2="58.0" stroke="#24323a" stroke-width="1.4" fill="none" marker-end="url(#arrow)"/>
<text x="605.4" y="379.1" fill="#24323a" font-size="18" text-anchor="middle">x</text>
<text x="431.5" y="82.3" fill="#24323a" font-size="18" text-anchor="middle">y</text>
<text x="70" y="36" fill="#334" font-size="20">f=e^(xy)</text>
<polyline points="58.0,349.9 60.5,349.8 63.0,349.7 65.5,349.6 67.9,349.6 70.4,349.5 72.9,349.4 75.4,349.3 77.9,349.2 80.4,349.1 82.9,349.0 85.4,349.0 87.8,348.9 90.3,348.8 92.8,348.7 95.3,348.6 97.8,348.5 100.3,348.4 102.8,348.3 105.2,348.2 107.7,348.1 110.2,348.0 112.7,347.9 115.2,347.8 117.7,347.7 120.2,347.6 122.6,347.4 125.1,347.3 127.6,347.2 130.1,347.1 132.6,347.0 135.1,346.9 137.6,346.7 140.1,346.6 142.5,346.5 145.0,346.4 147.5,346.2 150.0,346.1 152.5,346.0 155.0,345.8 157.5,345.7 159.9,345.5 162.4,345.4 164.9,345.2 167.4,345.1 169.9,344.9 172.4,344.8 174.9,344.6 177.4,344.5 179.8,344.3 182.3,344.2 184.8,344.0 187.3,343.8 189.8,343.7 192.3,343.5 194.8,343.3 197.2,343.1 199.7,343.0 202.2,342.8 204.7,342.6 207.2,342.4 209.7,342.2 212.2,342.0 214.6,341.8 217.1,341.6 219.6,341.4 222.1,341.2 224.6,341.0 227.1,340.8 229.6,340.5 232.1,340.3 234.5,340.1 237.0,339.9 239.5,339.6 242.0,339.4 244.5,339.2 247.0,338.9 249.5,338.7 251.9,338.4 254.4,338.2 256.9,337.9 259.4,337.7 261.9,337.4 264.4,337.1 266.9,336.8 269.4,336.6 271.8,336.3 274.3,336.0 276.8,335.7 279.3,335.4 281.8,335.1 284.3,334.8 286.8,334.5 289.2,334.2 291.7,333.8 294.2,333.5 296.7,333.2 299.2,332.9 301.7,332.5 304.2,332.2 306.6,331.8 309.1,331.5 311.6,331.1 314.1,330.7 316.6,330.4 319.1,330.0 321.6,329.6 324.1,329.2 326.5,328.8 329.0,328.4 331.5,328.0 334.0,327.6 336.5,327.1 339.0,326.7 341.5,326.3 343.9,325.8 346.4,325.4 348.9,324.9 351.4,324.5 353.9,324.0 356.4,323.5 358.9,323.0 361.4,322.5 363.8,322.0 366.3,321.5 368.8,321.0 371.3,320.5 373.8,319.9 376.3,319.4 378.8,318.8 381.2,318.3 383.7,317.7 386.2,317.1 388.7,316.6 391.2,316.0 393.7,315.4 396.2,314.7 398.6,314.1 401.1,313.5 403.6,312.9 406.1,312.2 408.6,311.5 411.1,310.9 413.6,310.2 416.1,309.5 418.5,308.8 421.0,308.1 423.5,307.3 426.0,306.6 428.5,305.9 431.0,305.1 433.5,304.3 435.9,303.5 438.4,302.7 440.9,301.9 443.4,301.1 445.9,300.3 448.4,299.4 450.9,298.6 453.4,297.7 455.8,296.8 458.3,295.9 460.8,295.0 463.3,294.0 465.8,293.1 468.3,292.1 470.8,291.2 473.2,290.2 475.7,289.2 478.2,288.2 480.7,287.1 483.2,286.1 485.7,285.0 488.2,283.9 490.6,282.8 493.1,281.7 495.6,280.5 498.1,279.4 500.6,278.2 503.1,277.0 505.6,275.8 508.1,274.6 510.5,273.3 513.0,272.1 515.5,270.8 518.0,269.5 520.5,268.2 523.0,266.8 525.5,265.4 527.9,264.0 530.4,262.6 532.9,261.2 535.4,259.7 537.9,258.3 540.4,256.8 542.9,255.2 545.4,253.7 547.8,252.1 550.3,250.5 552.8,248.9 555.3,247.3 557.8,245.6 560.3,243.9 562.8,242.2 565.2,240.4 567.7,238.6 570.2,236.8 572.7,235.0 575.2,233.1 577.7,231.2 580.2,229.3 582.6,227.3 585.1,225.4 587.6,223.3 590.1,221.3 592.6,219.2 595.1,217.1 597.6,215.0 600.1,212.8 602.5,210.6 605.0,208.3 607.5,206.1 610.0,203.7 612.5,201.4 615.0,199.0 617.5,196.6 619.9,194.1 622.4,191.6 624.9,189.1 627.4,186.5 629.9,183.9 632.4,181.2 634.9,178.5 637.4,175.8 639.8,173.0 642.3,170.2 644.8,167.3 647.3,164.4 649.8,161.4 652.3,158.4 654.8,155.4 657.2,152.2 659.7,149.1 662.2,145.9 664.7,142.6 667.2,139.3 669.7,136.0 672.2,132.6 674.6,129.1 677.1,125.6 679.6,122.1 682.1,118.4 684.6,114.8 687.1,111.0 689.6,107.2 692.1,103.4 694.5,99.5 697.0,95.5 699.5,91.4 702.0,87.3" fill="none" stroke="#174bb4" stroke-width="3" stroke-linecap="round" stroke-linejoin="round"/><polyline points="58.0,349.9 60.5,349.8 63.0,349.7 65.5,349.6 67.9,349.6 70.4,349.5 72.9,349.4 75.4,349.3 77.9,349.2 80.4,349.1 82.9,349.0 85.4,349.0 87.8,348.9 90.3,348.8 92.8,348.7 95.3,348.6 97.8,348.5 100.3,348.4 102.8,348.3 105.2,348.2 107.7,348.1 110.2,348.0 112.7,347.9 115.2,347.8 117.7,347.7 120.2,347.6 122.6,347.4 125.1,347.3 127.6,347.2 130.1,347.1 132.6,347.0 135.1,346.9 137.6,346.7 140.1,346.6 142.5,346.5 145.0,346.4 147.5,346.2 150.0,346.1 152.5,346.0 155.0,345.8 157.5,345.7 159.9,345.5 162.4,345.4 164.9,345.2 167.4,345.1 169.9,344.9 172.4,344.8 174.9,344.6 177.4,344.5 179.8,344.3 182.3,344.2 184.8,344.0 187.3,343.8 189.8,343.7 192.3,343.5 194.8,343.3 197.2,343.1 199.7,343.0 202.2,342.8 204.7,342.6 207.2,342.4 209.7,342.2 212.2,342.0 214.6,341.8 217.1,341.6 219.6,341.4 222.1,341.2 224.6,341.0 227.1,340.8 229.6,340.5 232.1,340.3 234.5,340.1 237.0,339.9 239.5,339.6 242.0,339.4 244.5,339.2 247.0,338.9 249.5,338.7 251.9,338.4 254.4,338.2 256.9,337.9 259.4,337.7 261.9,337.4 264.4,337.1 266.9,336.8 269.4,336.6 271.8,336.3 274.3,336.0 276.8,335.7 279.3,335.4 281.8,335.1 284.3,334.8 286.8,334.5 289.2,334.2 291.7,333.8 294.2,333.5 296.7,333.2 299.2,332.9 301.7,332.5 304.2,332.2 306.6,331.8 309.1,331.5 311.6,331.1 314.1,330.7 316.6,330.4 319.1,330.0 321.6,329.6 324.1,329.2 326.5,328.8 329.0,328.4 331.5,328.0 334.0,327.6 336.5,327.1 339.0,326.7 341.5,326.3 343.9,325.8 346.4,325.4 348.9,324.9 351.4,324.5 353.9,324.0 356.4,323.5 358.9,323.0 361.4,322.5 363.8,322.0 366.3,321.5 368.8,321.0 371.3,320.5 373.8,319.9 376.3,319.4 378.8,318.8 381.2,318.3 383.7,317.7 386.2,317.1 388.7,316.6 391.2,316.0 393.7,315.4 396.2,314.7 398.6,314.1 401.1,313.5 403.6,312.9 406.1,312.2 408.6,311.5 411.1,310.9 413.6,310.2 416.1,309.5 418.5,308.8 421.0,308.1 423.5,307.3 426.0,306.6 428.5,305.9 431.0,305.1 433.5,304.3 435.9,303.5 438.4,302.7 440.9,301.9 443.4,301.1 445.9,300.3 448.4,299.4 450.9,298.6 453.4,297.7 455.8,296.8 458.3,295.9 460.8,295.0 463.3,294.0 465.8,293.1 468.3,292.1 470.8,291.2 473.2,290.2 475.7,289.2 478.2,288.2 480.7,287.1 483.2,286.1 485.7,285.0 488.2,283.9 490.6,282.8 493.1,281.7 495.6,280.5 498.1,279.4 500.6,278.2 503.1,277.0 505.6,275.8 508.1,274.6 510.5,273.3 513.0,272.1 515.5,270.8 518.0,269.5 520.5,268.2 523.0,266.8 525.5,265.4 527.9,264.0 530.4,262.6 532.9,261.2 535.4,259.7 537.9,258.3 540.4,256.8 542.9,255.2 545.4,253.7 547.8,252.1 550.3,250.5 552.8,248.9 555.3,247.3 557.8,245.6 560.3,243.9 562.8,242.2 565.2,240.4 567.7,238.6 570.2,236.8 572.7,235.0 575.2,233.1 577.7,231.2 580.2,229.3 582.6,227.3 585.1,225.4 587.6,223.3 590.1,221.3 592.6,219.2 595.1,217.1 597.6,215.0 600.1,212.8 602.5,210.6 605.0,208.3 607.5,206.1 610.0,203.7 612.5,201.4 615.0,199.0 617.5,196.6 619.9,194.1 622.4,191.6 624.9,189.1 627.4,186.5 629.9,183.9 632.4,181.2 634.9,178.5 637.4,175.8 639.8,173.0 642.3,170.2 644.8,167.3 647.3,164.4 649.8,161.4 652.3,158.4 654.8,155.4 657.2,152.2 659.7,149.1 662.2,145.9 664.7,142.6 667.2,139.3 669.7,136.0 672.2,132.6 674.6,129.1 677.1,125.6 679.6,122.1 682.1,118.4 684.6,114.8 687.1,111.0 689.6,107.2 692.1,103.4 694.5,99.5 697.0,95.5 699.5,91.4 702.0,87.3" fill="none" stroke="#c92331" stroke-width="2.4" stroke-linecap="round" stroke-linejoin="round" stroke-dasharray="9 6"/><text x="468.5" y="166.6" fill="#174bb4" font-size="16" text-anchor="middle">e^t slice</text>
</svg>
