<svg xmlns="http://www.w3.org/2000/svg" width="760" height="420" viewBox="0 0 760 420" role="img" aria-label="f=x|y|">

<defs>
  <marker id="arrow" viewBox="0 0 10 10" refX="8.5" refY="5" markerWidth="7" markerHeight="7" orient="auto-start-reverse">
    <path d="M 0 0 L 10 5 L 0 10 z" fill="#24323a"/>
  </marker>
</defs>

<style>
  text { font-family: Arial, sans-serif; }
</style>
<rect x="0" y="0" width="760" height="420" rx="18" fill="#ffffff"/>
<rect x="58" y="58" width="644" height="304" fill="#fbfcfe" stroke="#d8e1e8" stroke-width="1"/>
<line x1="58.0" y1="362.0" x2="58.0" y2="58.0" stroke="#edf0f3" stroke-width="0.8" fill="none"/>
<line x1="219.0" y1="362.0" x2="219.0" y2="58.0" stroke="#edf0f3" stroke-width="0.8" fill="none"/>
<line x1="380.0" y1="362.0" x2="380.0" y2="58.0" stroke="#d9e0e7" stroke-width="1.35" fill="none"/>
<line x1="541.0" y1="362.0" x2="541.0" y2="58.0" stroke="#edf0f3" stroke-width="0.8" fill="none"/>
<line x1="702.0" y1="362.0" x2="702.0" y2="58.0" stroke="#edf0f3" stroke-width="0.8" fill="none"/>
<line x1="58.0" y1="342.2" x2="702.0" y2="342.2" stroke="#edf0f3" stroke-width="0.8" fill="none"/>
<line x1="58.0" y1="276.1" x2="702.0" y2="276.1" stroke="#edf0f3" stroke-width="0.8" fill="none"/>
<line x1="58.0" y1="210.0" x2="702.0" y2="210.0" stroke="#d9e0e7" stroke-width="1.35" fill="none"/>
<line x1="58.0" y1="143.9" x2="702.0" y2="143.9" stroke="#edf0f3" stroke-width="0.8" fill="none"/>
<line x1="58.0" y1="77.8" x2="702.0" y2="77.8" stroke="#edf0f3" stroke-width="0.8" fill="none"/>
<line x1="58.0" y1="210.0" x2="702.0" y2="210.0" stroke="#24323a" stroke-width="1.4" fill="none" marker-end="url(#arrow)"/>
<line x1="380.0" y1="362.0" x2="380.0" y2="58.0" stroke="#24323a" stroke-width="1.4" fill="none" marker-end="url(#arrow)"/>
<text x="605.4" y="234.3" fill="#24323a" font-size="18" text-anchor="middle">x</text>
<text x="431.5" y="82.3" fill="#24323a" font-size="18" text-anchor="middle">y</text>
<text x="70" y="36" fill="#334" font-size="20">f=x|y|</text>
<polyline points="58.0,77.8 60.5,78.8 63.0,79.9 65.5,80.9 67.9,81.9 70.4,82.9 72.9,83.9 75.4,85.0 77.9,86.0 80.4,87.0 82.9,88.0 85.4,89.1 87.8,90.1 90.3,91.1 92.8,92.1 95.3,93.1 97.8,94.2 100.3,95.2 102.8,96.2 105.2,97.2 107.7,98.2 110.2,99.3 112.7,100.3 115.2,101.3 117.7,102.3 120.2,103.3 122.6,104.4 125.1,105.4 127.6,106.4 130.1,107.4 132.6,108.4 135.1,109.5 137.6,110.5 140.1,111.5 142.5,112.5 145.0,113.5 147.5,114.6 150.0,115.6 152.5,116.6 155.0,117.6 157.5,118.7 159.9,119.7 162.4,120.7 164.9,121.7 167.4,122.7 169.9,123.8 172.4,124.8 174.9,125.8 177.4,126.8 179.8,127.8 182.3,128.9 184.8,129.9 187.3,130.9 189.8,131.9 192.3,132.9 194.8,134.0 197.2,135.0 199.7,136.0 202.2,137.0 204.7,138.0 207.2,139.1 209.7,140.1 212.2,141.1 214.6,142.1 217.1,143.1 219.6,144.2 222.1,145.2 224.6,146.2 227.1,147.2 229.6,148.3 232.1,149.3 234.5,150.3 237.0,151.3 239.5,152.3 242.0,153.4 244.5,154.4 247.0,155.4 249.5,156.4 251.9,157.4 254.4,158.5 256.9,159.5 259.4,160.5 261.9,161.5 264.4,162.5 266.9,163.6 269.4,164.6 271.8,165.6 274.3,166.6 276.8,167.6 279.3,168.7 281.8,169.7 284.3,170.7 286.8,171.7 289.2,172.7 291.7,173.8 294.2,174.8 296.7,175.8 299.2,176.8 301.7,177.8 304.2,178.9 306.6,179.9 309.1,180.9 311.6,181.9 314.1,183.0 316.6,184.0 319.1,185.0 321.6,186.0 324.1,187.0 326.5,188.1 329.0,189.1 331.5,190.1 334.0,191.1 336.5,192.1 339.0,193.2 341.5,194.2 343.9,195.2 346.4,196.2 348.9,197.2 351.4,198.3 353.9,199.3 356.4,200.3 358.9,201.3 361.4,202.3 363.8,203.4 366.3,204.4 368.8,205.4 371.3,206.4 373.8,207.4 376.3,208.5 378.8,209.5 381.2,209.5 383.7,208.5 386.2,207.4 388.7,206.4 391.2,205.4 393.7,204.4 396.2,203.4 398.6,202.3 401.1,201.3 403.6,200.3 406.1,199.3 408.6,198.3 411.1,197.2 413.6,196.2 416.1,195.2 418.5,194.2 421.0,193.2 423.5,192.1 426.0,191.1 428.5,190.1 431.0,189.1 433.5,188.1 435.9,187.0 438.4,186.0 440.9,185.0 443.4,184.0 445.9,183.0 448.4,181.9 450.9,180.9 453.4,179.9 455.8,178.9 458.3,177.8 460.8,176.8 463.3,175.8 465.8,174.8 468.3,173.8 470.8,172.7 473.2,171.7 475.7,170.7 478.2,169.7 480.7,168.7 483.2,167.6 485.7,166.6 488.2,165.6 490.6,164.6 493.1,163.6 495.6,162.5 498.1,161.5 500.6,160.5 503.1,159.5 505.6,158.5 508.1,157.4 510.5,156.4 513.0,155.4 515.5,154.4 518.0,153.4 520.5,152.3 523.0,151.3 525.5,150.3 527.9,149.3 530.4,148.3 532.9,147.2 535.4,146.2 537.9,145.2 540.4,144.2 542.9,143.1 545.4,142.1 547.8,141.1 550.3,140.1 552.8,139.1 555.3,138.0 557.8,137.0 560.3,136.0 562.8,135.0 565.2,134.0 567.7,132.9 570.2,131.9 572.7,130.9 575.2,129.9 577.7,128.9 580.2,127.8 582.6,126.8 585.1,125.8 587.6,124.8 590.1,123.8 592.6,122.7 595.1,121.7 597.6,120.7 600.1,119.7 602.5,118.7 605.0,117.6 607.5,116.6 610.0,115.6 612.5,114.6 615.0,113.5 617.5,112.5 619.9,111.5 622.4,110.5 624.9,109.5 627.4,108.4 629.9,107.4 632.4,106.4 634.9,105.4 637.4,104.4 639.8,103.3 642.3,102.3 644.8,101.3 647.3,100.3 649.8,99.3 652.3,98.2 654.8,97.2 657.2,96.2 659.7,95.2 662.2,94.2 664.7,93.1 667.2,92.1 669.7,91.1 672.2,90.1 674.6,89.1 677.1,88.0 679.6,87.0 682.1,86.0 684.6,85.0 687.1,83.9 689.6,82.9 692.1,81.9 694.5,80.9 697.0,79.9 699.5,78.8 702.0,77.8" fill="none" stroke="#174bb4" stroke-width="3" stroke-linecap="round" stroke-linejoin="round"/><polyline points="58.0,342.2 60.5,341.2 63.0,340.1 65.5,339.1 67.9,338.1 70.4,337.1 72.9,336.1 75.4,335.0 77.9,334.0 80.4,333.0 82.9,332.0 85.4,330.9 87.8,329.9 90.3,328.9 92.8,327.9 95.3,326.9 97.8,325.8 100.3,324.8 102.8,323.8 105.2,322.8 107.7,321.8 110.2,320.7 112.7,319.7 115.2,318.7 117.7,317.7 120.2,316.7 122.6,315.6 125.1,314.6 127.6,313.6 130.1,312.6 132.6,311.6 135.1,310.5 137.6,309.5 140.1,308.5 142.5,307.5 145.0,306.5 147.5,305.4 150.0,304.4 152.5,303.4 155.0,302.4 157.5,301.3 159.9,300.3 162.4,299.3 164.9,298.3 167.4,297.3 169.9,296.2 172.4,295.2 174.9,294.2 177.4,293.2 179.8,292.2 182.3,291.1 184.8,290.1 187.3,289.1 189.8,288.1 192.3,287.1 194.8,286.0 197.2,285.0 199.7,284.0 202.2,283.0 204.7,282.0 207.2,280.9 209.7,279.9 212.2,278.9 214.6,277.9 217.1,276.9 219.6,275.8 222.1,274.8 224.6,273.8 227.1,272.8 229.6,271.7 232.1,270.7 234.5,269.7 237.0,268.7 239.5,267.7 242.0,266.6 244.5,265.6 247.0,264.6 249.5,263.6 251.9,262.6 254.4,261.5 256.9,260.5 259.4,259.5 261.9,258.5 264.4,257.5 266.9,256.4 269.4,255.4 271.8,254.4 274.3,253.4 276.8,252.4 279.3,251.3 281.8,250.3 284.3,249.3 286.8,248.3 289.2,247.3 291.7,246.2 294.2,245.2 296.7,244.2 299.2,243.2 301.7,242.2 304.2,241.1 306.6,240.1 309.1,239.1 311.6,238.1 314.1,237.0 316.6,236.0 319.1,235.0 321.6,234.0 324.1,233.0 326.5,231.9 329.0,230.9 331.5,229.9 334.0,228.9 336.5,227.9 339.0,226.8 341.5,225.8 343.9,224.8 346.4,223.8 348.9,222.8 351.4,221.7 353.9,220.7 356.4,219.7 358.9,218.7 361.4,217.7 363.8,216.6 366.3,215.6 368.8,214.6 371.3,213.6 373.8,212.6 376.3,211.5 378.8,210.5 381.2,210.5 383.7,211.5 386.2,212.6 388.7,213.6 391.2,214.6 393.7,215.6 396.2,216.6 398.6,217.7 401.1,218.7 403.6,219.7 406.1,220.7 408.6,221.7 411.1,222.8 413.6,223.8 416.1,224.8 418.5,225.8 421.0,226.8 423.5,227.9 426.0,228.9 428.5,229.9 431.0,230.9 433.5,231.9 435.9,233.0 438.4,234.0 440.9,235.0 443.4,236.0 445.9,237.0 448.4,238.1 450.9,239.1 453.4,240.1 455.8,241.1 458.3,242.2 460.8,243.2 463.3,244.2 465.8,245.2 468.3,246.2 470.8,247.3 473.2,248.3 475.7,249.3 478.2,250.3 480.7,251.3 483.2,252.4 485.7,253.4 488.2,254.4 490.6,255.4 493.1,256.4 495.6,257.5 498.1,258.5 500.6,259.5 503.1,260.5 505.6,261.5 508.1,262.6 510.5,263.6 513.0,264.6 515.5,265.6 518.0,266.6 520.5,267.7 523.0,268.7 525.5,269.7 527.9,270.7 530.4,271.7 532.9,272.8 535.4,273.8 537.9,274.8 540.4,275.8 542.9,276.9 545.4,277.9 547.8,278.9 550.3,279.9 552.8,280.9 555.3,282.0 557.8,283.0 560.3,284.0 562.8,285.0 565.2,286.0 567.7,287.1 570.2,288.1 572.7,289.1 575.2,290.1 577.7,291.1 580.2,292.2 582.6,293.2 585.1,294.2 587.6,295.2 590.1,296.2 592.6,297.3 595.1,298.3 597.6,299.3 600.1,300.3 602.5,301.3 605.0,302.4 607.5,303.4 610.0,304.4 612.5,305.4 615.0,306.5 617.5,307.5 619.9,308.5 622.4,309.5 624.9,310.5 627.4,311.6 629.9,312.6 632.4,313.6 634.9,314.6 637.4,315.6 639.8,316.7 642.3,317.7 644.8,318.7 647.3,319.7 649.8,320.7 652.3,321.8 654.8,322.8 657.2,323.8 659.7,324.8 662.2,325.8 664.7,326.9 667.2,327.9 669.7,328.9 672.2,329.9 674.6,330.9 677.1,332.0 679.6,333.0 682.1,334.0 684.6,335.0 687.1,336.1 689.6,337.1 692.1,338.1 694.5,339.1 697.0,340.1 699.5,341.2 702.0,342.2" fill="none" stroke="#c92331" stroke-width="3" stroke-linecap="round" stroke-linejoin="round"/><text x="210.9" y="127.4" fill="#174bb4" font-size="16" text-anchor="middle">x=1</text><text x="549.0" y="292.6" fill="#c92331" font-size="16" text-anchor="middle">x=-1</text>
</svg>
